<?xml version="1.0" encoding="utf-8"?>
<!-- Generator: Adobe Illustrator 21.1.0, SVG Export Plug-In . SVG Version: 6.00 Build 0)  -->
<svg version="1.1" id="Layer_1" xmlns="http://www.w3.org/2000/svg" xmlns:xlink="http://www.w3.org/1999/xlink" x="0px" y="0px"
	 viewBox="0 0 160 160" style="enable-background:new 0 0 160 160;" xml:space="preserve">
<style type="text/css">
	.st0{fill:#FFFFFF;}
</style>
<g>
	<path class="st0" d="M40,2.8c20.5,0,37.2,16.7,37.2,37.2S60.5,77.2,40,77.2S2.8,60.5,2.8,40S19.5,2.8,40,2.8 M40,0
		C17.9,0,0,17.9,0,40s17.9,40,40,40s40-17.9,40-40S62.1,0,40,0L40,0z"/>
</g>
<g>
	<path class="st0" d="M40,82.8c20.5,0,37.2,16.7,37.2,37.2S60.5,157.2,40,157.2S2.8,140.5,2.8,120S19.5,82.8,40,82.8 M40,80
		C17.9,80,0,97.9,0,120s17.9,40,40,40s40-17.9,40-40S62.1,80,40,80L40,80z"/>
</g>
<g>
	<path class="st0" d="M26.5,25.4c0-0.6,0.2-1,0.6-1.2c0.4-0.2,0.8-0.2,1.3,0.1l30,14.8c0.5,0.3,0.8,0.6,0.8,1s-0.3,0.7-0.8,1
		l-30,14.7c-0.5,0.3-1,0.3-1.4,0.1c-0.4-0.2-0.5-0.6-0.5-1.2L26.5,25.4z"/>
</g>
<g>
	<path class="st0" d="M28,108c0-0.6,0.2-1,0.6-1.4c0.4-0.4,0.9-0.6,1.4-0.6h4c0.6,0,1,0.2,1.4,0.6c0.4,0.4,0.6,0.9,0.6,1.4v24
		c0,0.6-0.2,1-0.6,1.4c-0.4,0.4-0.9,0.6-1.4,0.6h-4c-0.3,0-0.5-0.1-0.8-0.2c-0.2-0.1-0.5-0.2-0.6-0.4c-0.2-0.2-0.3-0.4-0.4-0.6
		c-0.1-0.2-0.2-0.5-0.2-0.8V108z M44,108c0-0.6,0.2-1,0.6-1.4c0.4-0.4,0.9-0.6,1.4-0.6h4c0.3,0,0.5,0.1,0.8,0.2
		c0.2,0.1,0.5,0.2,0.6,0.4s0.3,0.4,0.4,0.6c0.1,0.2,0.2,0.5,0.2,0.8v24c0,0.6-0.2,1-0.6,1.4S50.5,134,50,134h-4
		c-0.6,0-1-0.2-1.4-0.6S44,132.5,44,132V108z"/>
</g>
<g>
	<path class="st0" d="M120,78.6c-21.3,0-38.6-17.3-38.6-38.6S98.7,1.4,120,1.4s38.6,17.3,38.6,38.6S141.3,78.6,120,78.6z"/>
	<path class="st0" d="M120,2.8c20.5,0,37.2,16.7,37.2,37.2S140.5,77.2,120,77.2S82.8,60.5,82.8,40S99.5,2.8,120,2.8 M120,0
		C97.9,0,80,17.9,80,40s17.9,40,40,40s40-17.9,40-40S142.1,0,120,0L120,0z"/>
</g>
<g>
	<path class="st0" d="M120,158.6c-21.3,0-38.6-17.3-38.6-38.6S98.7,81.4,120,81.4s38.6,17.3,38.6,38.6S141.3,158.6,120,158.6z"/>
	<path class="st0" d="M120,82.8c20.5,0,37.2,16.7,37.2,37.2s-16.7,37.2-37.2,37.2S82.8,140.5,82.8,120S99.5,82.8,120,82.8 M120,80
		c-22.1,0-40,17.9-40,40s17.9,40,40,40s40-17.9,40-40S142.1,80,120,80L120,80z"/>
</g>
<g>
	<path d="M106.5,25.4c0-0.6,0.2-1,0.6-1.2c0.4-0.2,0.8-0.2,1.3,0.1l30,14.8c0.5,0.3,0.8,0.6,0.8,1s-0.3,0.7-0.8,1l-30,14.7
		c-0.5,0.3-1,0.3-1.4,0.1s-0.5-0.6-0.5-1.2L106.5,25.4z"/>
</g>
<g>
	<path d="M108,108c0-0.6,0.2-1,0.6-1.4s0.9-0.6,1.4-0.6h4c0.6,0,1,0.2,1.4,0.6s0.6,0.9,0.6,1.4v24c0,0.6-0.2,1-0.6,1.4
		s-0.9,0.6-1.4,0.6h-4c-0.3,0-0.5-0.1-0.8-0.2s-0.5-0.2-0.6-0.4s-0.3-0.4-0.4-0.6s-0.2-0.5-0.2-0.8V108z M124,108
		c0-0.6,0.2-1,0.6-1.4s0.9-0.6,1.4-0.6h4c0.3,0,0.5,0.1,0.8,0.2s0.5,0.2,0.6,0.4s0.3,0.4,0.4,0.6s0.2,0.5,0.2,0.8v24
		c0,0.6-0.2,1-0.6,1.4s-0.9,0.6-1.4,0.6h-4c-0.6,0-1-0.2-1.4-0.6s-0.6-0.9-0.6-1.4V108z"/>
</g>
</svg>
