<?xml version="1.0" encoding="UTF-8"?>
<svg xmlns="http://www.w3.org/2000/svg" xmlns:xlink="http://www.w3.org/1999/xlink" version="1.2" >
<font id="Skype Assets Light">
<font-face  font-family="Skype Assets" units-per-em="2048" ascent="2048" descent="0" font-style="normal" font-weight="300" font-stretch="normal" cap-height="2040" x-height="1024" underline-position="-237" underline-thickness="119" />
<missing-glyph  horiz-adv-x="1322" d="M1156 -410 L166 -410 L166 988 L1156 988 L1156 -410 Z M1008 -262 L1008 840 L314 840 L314 -262 L1008 -262 Z " />
<glyph glyph-name="null" d="" />
<glyph glyph-name="nonmarkingreturn" unicode="&#xd;" horiz-adv-x="512" d="" />
<glyph glyph-name="&amp;#x9;" unicode="&#x9;" horiz-adv-x="683" d="" />
<glyph glyph-name="&amp;#x20;" unicode="&#x20;" horiz-adv-x="683" d="" />
<glyph glyph-name="IconSkype" unicode="&#xe001;" horiz-adv-x="2048" d="M1933 623 Q1933 519 1892.5 426.5 Q1852 334 1783 265 Q1714 196 1621.5 155.5 Q1529 115 1425 115 Q1293 115 1179 179 Q1141 172 1102 168.5 Q1063 165 1024 165 Q906 165 796.5 196 Q687 227 591.5 283 Q496 339 417.5 417.5 Q339 496 283 591.5 Q227 687 196 796.5 Q165 906 165 1024 Q165 1063 168.5 1102 Q172 1141 179 1179 Q115 1293 115 1425 Q115 1529 155.5 1621.5 Q196 1714 265 1783 Q334 1852 426.5 1892.5 Q519 1933 623 1933 Q755 1933 869 1869 Q907 1876 946 1879.5 Q985 1883 1024 1883 Q1142 1883 1251.5 1852 Q1361 1821 1456.5 1765 Q1552 1709 1630.5 1630.5 Q1709 1552 1765 1456.5 Q1821 1361 1852 1251.5 Q1883 1142 1883 1024 Q1883 985 1879.5 946 Q1876 907 1869 869 Q1933 755 1933 623 Z M1462 807 Q1462 885 1434.5 938.5 Q1407 992 1362 1027 Q1317 1062 1259.5 1083 Q1202 1104 1141.5 1118 Q1081 1132 1023.5 1142.5 Q966 1153 921 1167.5 Q876 1182 848.5 1204.5 Q821 1227 821 1264 Q821 1298 837.5 1321.5 Q854 1345 879.5 1359.5 Q905 1374 935.5 1380.5 Q966 1387 994 1387 Q1044 1387 1080 1375.5 Q1116 1364 1143 1347 Q1170 1330 1190.5 1309.5 Q1211 1289 1229.5 1272 Q1248 1255 1267 1243.5 Q1286 1232 1309 1232 Q1329 1232 1349 1238.5 Q1369 1245 1384.5 1257 Q1400 1269 1409.5 1286.5 Q1419 1304 1419 1326 Q1419 1368 1398 1402 Q1377 1436 1342.5 1463 Q1308 1490 1264.5 1510 Q1221 1530 1175.5 1543 Q1130 1556 1086.5 1562.5 Q1043 1569 1010 1569 Q936 1569 861 1552 Q786 1535 725.5 1497 Q665 1459 627 1398.5 Q589 1338 589 1251 Q589 1175 616 1124 Q643 1073 687.5 1039 Q732 1005 789 985 Q846 965 905 950.5 Q964 936 1021 924.5 Q1078 913 1122.5 896.5 Q1167 880 1194 855.5 Q1221 831 1221 790 Q1221 754 1202 728 Q1183 702 1154.5 685.5 Q1126 669 1092 661 Q1058 653 1028 653 Q972 653 933 667 Q894 681 866 702 Q838 723 817.5 747 Q797 771 778 792 Q759 813 738 827 Q717 841 688 841 Q667 841 649 833.5 Q631 826 617 812.5 Q603 799 595 781 Q587 763 587 742 Q587 692 609 653 Q631 614 666.5 585 Q702 556 748.5 536 Q795 516 844 503.5 Q893 491 941 485.5 Q989 480 1028 480 Q1106 480 1183.5 497 Q1261 514 1323 552.5 Q1385 591 1423.5 653.5 Q1462 716 1462 807 Z " />
<glyph glyph-name="LogoMicrosoft" unicode="&#xe002;" horiz-adv-x="2048" d="M2048 1087 L1087 1087 L1087 2048 L2048 2048 L2048 1087 Z M961 1087 L0 1087 L0 2048 L961 2048 L961 1087 Z M2048 0 L1087 0 L1087 961 L2048 961 L2048 0 Z M961 0 L0 0 L0 961 L961 961 L961 0 Z " />
<glyph glyph-name="LogoSkypeMedium" unicode="&#xe004;" horiz-adv-x="4650" d="M4648 1408 Q4648 1369 4635.5 1332 Q4623 1295 4601 1263 Q4579 1231 4548 1206.5 Q4517 1182 4481 1168 Q4494 1104 4494 1035 Q4494 899 4441 777.5 Q4388 656 4297 564.5 Q4206 473 4084.5 420 Q3963 367 3826 367 Q3726 367 3630 396.5 Q3534 426 3452 482 Q3379 417 3287 381.5 Q3195 346 3098 346 Q3061 346 3025 352 Q3012 294 2980 243.5 Q2948 193 2902.5 156 Q2857 119 2801 98 Q2745 77 2685 77 Q2638 77 2592.5 90.5 Q2547 104 2506.5 128.5 Q2466 153 2433 187 Q2400 221 2378 263 Q2359 206 2322 158 Q2285 110 2236.5 74.5 Q2188 39 2130.5 19.5 Q2073 0 2013 0 Q1953 0 1896.5 19 Q1840 38 1792 72.5 Q1744 107 1707 154 Q1670 201 1650 257 L1600 256 Q1531 256 1473.5 271.5 Q1416 287 1366.5 316 Q1317 345 1273.5 387.5 Q1230 430 1191 484 Q1104 423 1003 391 Q902 359 796 359 Q696 359 603.5 386.5 Q511 414 432.5 464 Q354 514 290.5 583.5 Q227 653 184.5 736 Q142 819 123 913 Q104 1007 113 1107 Q60 1156 30 1223 Q0 1290 0 1362 Q0 1433 27.5 1496 Q55 1559 102.5 1606 Q150 1653 213 1680.5 Q276 1708 346 1708 Q434 1708 510 1667 Q577 1698 649 1714 Q721 1730 796 1730 Q822 1730 847.5 1728 Q873 1726 899 1722 L898 1745 Q897 1815 920 1871 Q943 1927 985 1966.5 Q1027 2006 1085 2027 Q1143 2048 1212 2048 Q1276 2048 1333 2023.5 Q1390 1999 1432.5 1956.5 Q1475 1914 1500 1857.5 Q1525 1801 1526 1737 Q1582 1770 1644.5 1787.5 Q1707 1805 1773 1805 Q1870 1805 1961 1766 Q2052 1727 2120 1658 Q2161 1716 2214.5 1763 Q2268 1810 2330.5 1843 Q2393 1876 2462 1893.5 Q2531 1911 2602 1911 Q2680 1911 2755 1889.5 Q2830 1868 2896.5 1829 Q2963 1790 3018 1735 Q3073 1680 3111 1612 Q3178 1654 3256 1654 Q3308 1654 3356 1635 Q3404 1616 3442 1581 Q3527 1641 3625 1672 Q3723 1703 3826 1703 Q3928 1703 4025.5 1672.5 Q4123 1642 4207 1584 Q4243 1621 4291.5 1642 Q4340 1663 4392 1663 Q4443 1663 4489.5 1642.5 Q4536 1622 4571.5 1587 Q4607 1552 4627.5 1505.5 Q4648 1459 4648 1408 Z M4540 1338 L4540 1491 L4493 1491 L4458 1386 L4422 1491 L4375 1491 L4375 1338 L4406 1338 L4407 1446 L4444 1338 L4470 1338 L4509 1447 L4509 1338 L4540 1338 Z M4357 1463 L4357 1491 L4231 1491 L4231 1463 L4277 1463 L4277 1338 L4311 1338 L4311 1463 L4357 1463 Z M4299 1110 Q4299 1200 4262 1273.5 Q4225 1347 4164 1399.5 Q4103 1452 4023.5 1480.5 Q3944 1509 3859 1509 Q3777 1509 3704.5 1487 Q3632 1465 3573.5 1422 Q3515 1379 3473.5 1316 Q3432 1253 3413 1172 Q3400 1244 3369 1305.5 Q3338 1367 3291 1412 Q3244 1457 3181 1483 Q3118 1509 3042 1509 Q3002 1509 2963 1499.5 Q2924 1490 2889.5 1471 Q2855 1452 2827.5 1423 Q2800 1394 2785 1355 L2782 1355 L2782 1364 Q2782 1395 2778.5 1421.5 Q2775 1448 2763.5 1467.5 Q2752 1487 2730 1498 Q2708 1509 2672 1509 Q2641 1509 2612.5 1495 Q2584 1481 2572 1451 Q2555 1479 2525 1494 Q2495 1509 2463 1509 Q2439 1509 2420 1500 Q2401 1491 2386.5 1476 Q2372 1461 2362.5 1441 Q2353 1421 2347 1400 L2198 848 L2195 848 L2038 1417 Q2027 1459 1991 1484 Q1955 1509 1913 1509 Q1881 1509 1852.5 1491.5 Q1824 1474 1808 1446 Q1792 1473 1765 1491 Q1738 1509 1706 1509 Q1678 1509 1654 1495.5 Q1630 1482 1612 1462 L1342 1162 L1342 1716 Q1342 1771 1308.5 1804 Q1275 1837 1220 1837 Q1165 1837 1131.5 1804 Q1098 1771 1098 1716 L1098 955 Q1078 1012 1031.5 1047.5 Q985 1083 927 1105.5 Q869 1128 806.5 1141.5 Q744 1155 692.5 1169.5 Q641 1184 607.5 1202.5 Q574 1221 574 1253 Q574 1279 589 1294 Q604 1309 626 1317 Q648 1325 672 1327 Q696 1329 715 1329 Q763 1329 797.5 1311.5 Q832 1294 860 1273 Q888 1252 912.5 1234.5 Q937 1217 967 1217 Q988 1217 1006.5 1225.5 Q1025 1234 1038.5 1249 Q1052 1264 1060 1283.5 Q1068 1303 1068 1324 Q1068 1360 1048 1387.5 Q1028 1415 995.5 1435.5 Q963 1456 922.5 1470 Q882 1484 840.5 1492.5 Q799 1501 761 1505 Q723 1509 696 1509 Q634 1509 569 1494 Q504 1479 451 1446 Q398 1413 364.5 1361.5 Q331 1310 331 1237 Q331 1173 354 1129 Q377 1085 414.5 1055 Q452 1025 500 1006.5 Q548 988 598.5 975 Q649 962 697 952.5 Q745 943 782.5 930 Q820 917 843 899 Q866 881 866 851 Q866 825 851.5 808 Q837 791 815.5 781 Q794 771 769.5 767 Q745 763 725 763 Q665 763 624 786.5 Q583 810 551 838 Q519 866 491.5 889.5 Q464 913 429 913 Q384 913 357.5 884 Q331 855 331 811 Q331 770 352 738 Q373 706 407.5 681.5 Q442 657 485.5 640.5 Q529 624 574 613.5 Q619 603 661 598 Q703 593 735 593 Q789 593 846 604.5 Q903 616 953.5 641.5 Q1004 667 1042.5 707 Q1081 747 1098 804 L1098 753 Q1098 719 1101.5 689.5 Q1105 660 1118 638.5 Q1131 617 1155 605 Q1179 593 1220 593 Q1275 593 1308.5 626.5 Q1342 660 1342 715 L1342 900 L1427 975 L1657 649 Q1676 623 1705.5 608 Q1735 593 1767 593 Q1790 593 1811 603 Q1832 613 1848 629.5 Q1864 646 1873.5 667 Q1883 688 1883 711 Q1883 755 1857 790 L1604 1130 Q1655 1182 1706.5 1233 Q1758 1284 1804 1341 Q1865 1141 1937 947 Q2009 753 2078 556 Q2073 521 2054 505.5 Q2035 490 2010.5 484 Q1986 478 1959 476 Q1932 474 1909 466 Q1886 458 1871 439.5 Q1856 421 1856 381 Q1856 350 1870.5 329 Q1885 308 1907 294.5 Q1929 281 1956.5 275 Q1984 269 2009 269 Q2071 269 2115.5 289.5 Q2160 310 2192 344.5 Q2224 379 2247 425 Q2270 471 2288 523 L2562 1299 L2562 391 Q2562 336 2595.5 302.5 Q2629 269 2684 269 Q2739 269 2772 302.5 Q2805 336 2805 391 L2805 716 L2809 716 Q2827 685 2853.5 661.5 Q2880 638 2911.5 623 Q2943 608 2978.5 600.5 Q3014 593 3049 593 Q3123 593 3183.5 617.5 Q3244 642 3290.5 685 Q3337 728 3367.5 787.5 Q3398 847 3412 916 Q3432 834 3475 773.5 Q3518 713 3578.5 673 Q3639 633 3712.5 613 Q3786 593 3867 593 Q3898 593 3938 598 Q3978 603 4020.5 613.5 Q4063 624 4104 641 Q4145 658 4177 681.5 Q4209 705 4229 736.5 Q4249 768 4249 808 Q4249 828 4240.5 845 Q4232 862 4218 875 Q4204 888 4186 895.5 Q4168 903 4149 903 Q4121 903 4094 884.5 Q4067 866 4034.5 843.5 Q4002 821 3961.5 802 Q3921 783 3867 783 Q3819 783 3777.5 799.5 Q3736 816 3706 845 Q3676 874 3659 915 Q3642 956 3642 1005 L4192 1005 Q4251 1005 4275 1027.5 Q4299 1050 4299 1110 Z M4069 1145 L3642 1145 Q3651 1187 3670 1222.5 Q3689 1258 3717.5 1284 Q3746 1310 3782.5 1324.5 Q3819 1339 3863 1339 Q3904 1339 3939.5 1323.5 Q3975 1308 4002 1281 Q4029 1254 4046.5 1219 Q4064 1184 4069 1145 Z M3181 1053 Q3181 1008 3171 960 Q3161 912 3138.5 872.5 Q3116 833 3079 808 Q3042 783 2987 783 Q2933 783 2895.5 808 Q2858 833 2835 872 Q2812 911 2802 959 Q2792 1007 2792 1053 Q2792 1100 2802 1147 Q2812 1194 2835 1232 Q2858 1270 2895 1294 Q2932 1318 2987 1318 Q3040 1318 3077 1293.5 Q3114 1269 3137 1230.5 Q3160 1192 3170.5 1145 Q3181 1098 3181 1053 Z " />
<glyph glyph-name="MSWindows" unicode="&#xe008;" horiz-adv-x="2048" d="M1920 1152 L896 1152 L896 1905 L1920 2048 L1920 1152 Z M1920 128 L896 271 L896 1024 L1920 1024 L1920 128 Z M768 1152 L0 1152 L0 1780 L768 1887 L768 1152 Z M768 289 L0 396 L0 1024 L768 1024 L768 289 Z " />
<glyph glyph-name="MSOutlook" unicode="&#xe009;" horiz-adv-x="2048" d="M2047 1528 L1419 1029 L1251 1159 L1251 1590 L1978 1590 Q2004 1590 2024 1572 Q2044 1554 2047 1528 Z M2048 523 Q2048 494 2027.5 474 Q2007 454 1978 454 L1251 454 L1251 1047 Q1265 1037 1286.5 1017.5 Q1308 998 1332 979 Q1356 960 1379.5 946 Q1403 932 1419 932 Q1438 932 1452 943 L2048 1417 L2048 523 Z M1144 73 L0 271 L0 1771 L1144 1974 L1144 1182 L1144 1183 L1144 73 Z M799 1025 Q799 1082 785.5 1141.5 Q772 1201 742 1249.5 Q712 1298 664.5 1328.5 Q617 1359 550 1359 Q479 1359 429 1327.5 Q379 1296 347 1246.5 Q315 1197 300 1135 Q285 1073 285 1012 Q285 952 300 892.5 Q315 833 347 786 Q379 739 428.5 710 Q478 681 547 681 Q615 681 662.5 713.5 Q710 746 740.5 796 Q771 846 785 907 Q799 968 799 1025 Z M665 1016 Q665 983 659.5 946.5 Q654 910 639 879.5 Q624 849 597.5 829 Q571 809 529 809 Q491 809 466 830.5 Q441 852 426.5 884 Q412 916 406.5 952.5 Q401 989 401 1019 Q401 1049 407 1086.5 Q413 1124 427.5 1156 Q442 1188 467.5 1210 Q493 1232 532 1232 Q574 1232 600 1210.5 Q626 1189 640.5 1156.5 Q655 1124 660 1086 Q665 1048 665 1016 Z " />
<glyph glyph-name="MSXBox" unicode="&#xe00a;" horiz-adv-x="2048" d="M1728 334 Q1728 305 1715.5 281.5 Q1703 258 1684 239 Q1665 220 1642 204.5 Q1619 189 1598 175 Q1464 89 1324 44.5 Q1184 0 1024 0 Q864 0 724 44.5 Q584 89 450 175 Q429 189 406 204.5 Q383 220 364 239 Q345 258 332.5 281.5 Q320 305 320 334 Q320 401 357 483 Q394 565 454 652 Q514 739 590 826 Q666 913 744 990 Q822 1067 894.5 1128 Q967 1189 1021 1225 L1024 1227 L1027 1225 Q1081 1189 1153.5 1128 Q1226 1067 1304 990 Q1382 913 1458 826 Q1534 739 1594 652 Q1654 565 1691 483 Q1728 401 1728 334 Z M744 1482 L743 1479 Q698 1426 640.5 1350.5 Q583 1275 523.5 1187 Q464 1099 407 1003.5 Q350 908 305 814.5 Q260 721 233 634.5 Q206 548 206 478 Q206 440 216 407 L215 402 L209 404 Q157 469 118 543 Q79 617 53 696.5 Q27 776 13.5 858.5 Q0 941 0 1024 Q0 1198 55.5 1356 Q111 1514 215 1653 Q224 1665 237.5 1683.5 Q251 1702 267 1719 Q283 1736 300.5 1748 Q318 1760 335 1760 Q382 1760 439 1729 Q496 1698 552.5 1654.5 Q609 1611 659.5 1564.5 Q710 1518 743 1486 L744 1482 Z M2048 1024 Q2048 941 2035 858.5 Q2022 776 1995.5 696.5 Q1969 617 1930 543 Q1891 469 1839 404 L1833 402 L1832 407 Q1842 440 1842 478 Q1842 548 1814.5 634.5 Q1787 721 1742.5 814.5 Q1698 908 1640.5 1003 Q1583 1098 1523.5 1186 Q1464 1274 1407 1350 Q1350 1426 1305 1480 L1304 1483 L1306 1486 Q1326 1507 1355.5 1535.5 Q1385 1564 1420.5 1594.5 Q1456 1625 1495 1654.5 Q1534 1684 1572.5 1707.5 Q1611 1731 1647 1745.5 Q1683 1760 1712 1760 Q1720 1760 1728 1759 Q1736 1758 1743 1753 Q1791 1719 1832 1667.5 Q1873 1616 1906.5 1553.5 Q1940 1491 1966.5 1422 Q1993 1353 2011 1283 Q2029 1213 2038.5 1147 Q2048 1081 2048 1024 Z M1559 1893 L1554 1892 Q1523 1899 1486 1899 Q1447 1899 1399 1887.5 Q1351 1876 1301.5 1859 Q1252 1842 1205 1822 Q1158 1802 1120 1785 Q1082 1768 1056 1756.5 Q1030 1745 1024 1745 Q1018 1745 992 1756.5 Q966 1768 928 1785 Q890 1802 843 1822 Q796 1842 747 1859 Q698 1876 650.5 1887.5 Q603 1899 564 1899 Q546 1899 528 1897.5 Q510 1896 492 1891 L487 1892 L489 1897 Q611 1970 746 2009 Q881 2048 1024 2048 Q1167 2048 1301 2009.5 Q1435 1971 1557 1898 L1559 1893 Z " />
<glyph glyph-name="MSOneDrive" unicode="&#xe00b;" horiz-adv-x="2048" d="M2048 604 Q2048 563 2033 523.5 Q2018 484 1991 453 Q1964 422 1927.5 403 Q1891 384 1848 384 L770 384 Q702 384 648.5 404.5 Q595 425 558.5 463.5 Q522 502 502.5 556 Q483 610 483 677 Q483 736 505.5 782.5 Q528 829 566.5 862 Q605 895 655 913.5 Q705 932 760 934 Q765 1008 795 1070.5 Q825 1133 873.5 1178 Q922 1223 986 1248.5 Q1050 1274 1124 1274 Q1217 1274 1293 1230.5 Q1369 1187 1420 1110 Q1455 1129 1494.5 1138 Q1534 1147 1574 1147 Q1645 1147 1700 1122.5 Q1755 1098 1791.5 1054.5 Q1828 1011 1845.5 952 Q1863 893 1859 825 Q1903 822 1938 803 Q1973 784 1997.5 753.5 Q2022 723 2035 684.5 Q2048 646 2048 604 Z M1581 1247 L1570 1247 Q1535 1247 1502 1241 Q1469 1235 1437 1218 Q1412 1257 1377 1286.5 Q1342 1316 1301 1336 Q1260 1356 1215 1366 Q1170 1376 1125 1376 Q1041 1376 969.5 1350 Q898 1324 840.5 1277 Q783 1230 742 1164.5 Q701 1099 679 1021 L679 1020 Q615 1006 561 976 Q507 946 468.5 902 Q430 858 408.5 801.5 Q387 745 387 677 Q387 635 394 593.5 Q401 552 416 512 L285 512 Q231 512 182 535 Q133 558 95.5 596 Q58 634 35.5 683.5 Q13 733 13 787 Q13 844 30 893 Q47 942 79 979.5 Q111 1017 156.5 1040.5 Q202 1064 260 1070 Q259 1080 258.5 1089 Q258 1098 258 1108 Q258 1179 284 1242 Q310 1305 356 1353 Q402 1401 463.5 1429 Q525 1457 597 1457 Q640 1457 682 1447 Q724 1437 761 1414 Q789 1465 828.5 1507 Q868 1549 916.5 1579 Q965 1609 1020.5 1625.5 Q1076 1642 1134 1642 Q1218 1642 1294.5 1612 Q1371 1582 1432 1528.5 Q1493 1475 1532.5 1403 Q1572 1331 1581 1247 Z " />
<glyph glyph-name="IconSkypeForBusinessLarge" unicode="&#xe00e;" horiz-adv-x="2048" d="M1902 573 Q1902 642 1878.5 707 Q1855 772 1820 830 Q1829 878 1835 926.5 Q1841 975 1841 1024 Q1841 1136 1811.5 1240 Q1782 1344 1728.5 1435 Q1675 1526 1600.5 1600.5 Q1526 1675 1435 1728.5 Q1344 1782 1240 1811.5 Q1136 1841 1024 1841 Q975 1841 926.5 1835.5 Q878 1830 830 1820 Q772 1855 707 1878.5 Q642 1902 573 1902 Q486 1902 408 1868 Q330 1834 272 1776 Q214 1718 180 1640 Q146 1562 146 1475 Q146 1406 169.5 1341 Q193 1276 228 1218 Q219 1170 213 1121.5 Q207 1073 207 1024 Q207 912 236.5 808 Q266 704 319 613 Q372 522 447 447.5 Q522 373 612.5 319.5 Q703 266 807.5 236.5 Q912 207 1024 207 Q1073 207 1121.5 212.5 Q1170 218 1218 228 Q1276 193 1341 169.5 Q1406 146 1475 146 Q1562 146 1640 180 Q1718 214 1776 272 Q1834 330 1868 408 Q1902 486 1902 573 Z M2048 573 Q2048 456 2002.5 351.5 Q1957 247 1879 169 Q1801 91 1696.5 45.5 Q1592 0 1475 0 Q1400 0 1328 19 Q1256 38 1191 75 Q1149 68 1107.5 64.5 Q1066 61 1024 61 Q892 61 769 95.5 Q646 130 539 193 Q432 256 344 344 Q256 432 193 539 Q130 646 95.5 769 Q61 892 61 1024 Q61 1066 64.5 1107.5 Q68 1149 75 1191 Q38 1256 19 1328 Q0 1400 0 1475 Q0 1592 45.5 1696.5 Q91 1801 169 1879 Q247 1957 351.5 2002.5 Q456 2048 573 2048 Q648 2048 720 2029 Q792 2010 857 1973 Q899 1980 940.5 1983.5 Q982 1987 1024 1987 Q1156 1987 1279 1952.5 Q1402 1918 1509 1855 Q1616 1792 1704 1704 Q1792 1616 1855 1509 Q1918 1402 1952.5 1279 Q1987 1156 1987 1024 Q1987 982 1983.5 940.5 Q1980 899 1973 857 Q2010 792 2029 720 Q2048 648 2048 573 Z M1499 793 Q1499 695 1457 626 Q1415 557 1348 514 Q1281 471 1197 451.5 Q1113 432 1028 432 Q973 432 909 440.5 Q845 449 784 469 Q723 489 671.5 523 Q620 557 588 608 Q572 634 560.5 662 Q549 690 549 721 Q549 744 558.5 763.5 Q568 783 583.5 797 Q599 811 619.5 819 Q640 827 662 827 Q694 827 716.5 811.5 Q739 796 759 772.5 Q779 749 800.5 722 Q822 695 852 671.5 Q882 648 924 632.5 Q966 617 1028 617 Q1062 617 1099 626.5 Q1136 636 1167.5 655 Q1199 674 1219.5 703.5 Q1240 733 1240 773 Q1240 817 1210.5 843.5 Q1181 870 1133 887.5 Q1085 905 1024 917.5 Q963 930 898.5 945.5 Q834 961 773 983.5 Q712 1006 664 1043 Q616 1080 586.5 1136 Q557 1192 557 1274 Q557 1368 597 1433 Q637 1498 701.5 1538.5 Q766 1579 846.5 1597 Q927 1615 1007 1615 Q1043 1615 1089.5 1608 Q1136 1601 1185.5 1587.5 Q1235 1574 1282.5 1552.5 Q1330 1531 1367 1502 Q1404 1473 1427 1436 Q1450 1399 1450 1354 Q1450 1330 1439.5 1312 Q1429 1294 1412.5 1281 Q1396 1268 1374.5 1261.5 Q1353 1255 1332 1255 Q1307 1255 1286.5 1267.5 Q1266 1280 1246.5 1298.5 Q1227 1317 1204.5 1339 Q1182 1361 1152.5 1379.5 Q1123 1398 1084 1410.5 Q1045 1423 991 1423 Q960 1423 927 1416 Q894 1409 867.5 1393 Q841 1377 824 1351.5 Q807 1326 807 1288 Q807 1248 836.5 1223.5 Q866 1199 915 1182.5 Q964 1166 1026 1154.5 Q1088 1143 1153 1127.5 Q1218 1112 1280 1089.5 Q1342 1067 1391 1029 Q1440 991 1469.5 934 Q1499 877 1499 793 Z " />
<glyph glyph-name="LogoSkypeSmall" unicode="&#xe011;" horiz-adv-x="2048" d="M2048 1193 Q2048 1158 2027.5 1129 Q2007 1100 1975 1088 Q1977 1073 1978.5 1058.5 Q1980 1044 1980 1029 Q1980 969 1956.5 915.5 Q1933 862 1893 822 Q1853 782 1799.5 758.5 Q1746 735 1686 735 Q1642 735 1599.5 747.5 Q1557 760 1521 785 Q1489 756 1448 741 Q1407 726 1364 726 Q1356 726 1348.5 726 Q1341 726 1333 728 Q1327 703 1313 680.5 Q1299 658 1278.5 642 Q1258 626 1233.5 616.5 Q1209 607 1183 607 Q1141 607 1104.5 629.5 Q1068 652 1048 689 Q1039 664 1023 642.5 Q1007 621 985.5 605.5 Q964 590 939 581.5 Q914 573 887 573 Q834 573 789.5 604.5 Q745 636 727 686 L689 685 Q632 685 594.5 713.5 Q557 742 525 786 Q487 759 442 745 Q397 731 351 731 Q285 731 227.5 758 Q170 785 128.5 830.5 Q87 876 65.5 935.5 Q44 995 50 1061 Q27 1082 13.5 1111.5 Q0 1141 0 1173 Q0 1203 12.5 1230.5 Q25 1258 46 1279 Q67 1300 94.5 1312.5 Q122 1325 152 1325 Q191 1325 225 1307 Q254 1321 286.5 1328 Q319 1335 351 1335 Q374 1335 396 1332 L395 1355 Q394 1384 406 1406 Q418 1428 437.5 1443.5 Q457 1459 482.5 1467 Q508 1475 534 1475 Q562 1475 587 1464 Q612 1453 630.5 1434 Q649 1415 660.5 1390 Q672 1365 673 1338 Q697 1352 724.5 1360 Q752 1368 781 1368 Q824 1368 864.5 1351 Q905 1334 934 1303 Q970 1355 1026.5 1385 Q1083 1415 1146 1415 Q1215 1415 1276 1379 Q1337 1343 1371 1283 Q1401 1302 1435 1302 Q1458 1302 1479 1293.5 Q1500 1285 1517 1270 Q1554 1296 1597.5 1309.5 Q1641 1323 1686 1323 Q1731 1323 1774 1310 Q1817 1297 1854 1271 Q1887 1306 1935 1306 Q1958 1306 1978 1297 Q1998 1288 2014 1272 Q2030 1256 2039 1236 Q2048 1216 2048 1193 Z M2001 1162 L2001 1230 L1980 1230 L1964 1183 L1949 1230 L1928 1230 L1928 1162 L1942 1162 L1942 1210 L1958 1162 L1970 1162 L1987 1210 L1987 1162 L2001 1162 Z M1920 1217 L1920 1230 L1865 1230 L1865 1217 L1885 1217 L1885 1162 L1900 1162 L1900 1217 L1920 1217 Z M1894 1062 Q1894 1101 1878 1133.5 Q1862 1166 1835 1189.5 Q1808 1213 1773 1225.5 Q1738 1238 1700 1238 Q1665 1238 1633 1228 Q1601 1218 1575 1199 Q1549 1180 1530.5 1152 Q1512 1124 1504 1089 Q1498 1120 1484.5 1147 Q1471 1174 1450 1194.5 Q1429 1215 1401.5 1226.5 Q1374 1238 1341 1238 Q1306 1238 1273.5 1221 Q1241 1204 1227 1170 L1226 1170 L1226 1181 Q1226 1205 1215 1221.5 Q1204 1238 1177 1238 Q1163 1238 1151 1231.5 Q1139 1225 1133 1212 Q1125 1224 1112 1231 Q1099 1238 1085 1238 Q1065 1238 1052 1223 Q1039 1208 1034 1190 L969 946 L967 946 L898 1197 Q893 1215 877 1226.5 Q861 1238 843 1238 Q829 1238 816.5 1230 Q804 1222 797 1210 Q789 1222 777.5 1230 Q766 1238 752 1238 Q735 1238 712 1219 Q689 1200 666 1174.5 Q643 1149 622.5 1123.5 Q602 1098 591 1085 L591 1329 Q591 1352 576 1367 Q561 1382 538 1382 Q515 1382 499.5 1367 Q484 1352 484 1329 L484 993 Q476 1017 455.5 1032 Q435 1047 409.5 1057.5 Q384 1068 356 1075 Q328 1082 305.5 1088.5 Q283 1095 268 1103.5 Q253 1112 253 1125 Q253 1136 259.5 1142.5 Q266 1149 275.5 1152.5 Q285 1156 296 1157 Q307 1158 315 1158 Q334 1158 348.5 1150.5 Q363 1143 376 1133.5 Q389 1124 401 1116.5 Q413 1109 426 1109 Q445 1109 458 1123.5 Q471 1138 471 1156 Q471 1180 452 1196 Q433 1212 407 1221.5 Q381 1231 353 1234.5 Q325 1238 307 1238 Q280 1238 251.5 1231 Q223 1224 199.5 1209.5 Q176 1195 161 1172.5 Q146 1150 146 1118 Q146 1080 163.5 1057.5 Q181 1035 207 1022 Q233 1009 264 1002.5 Q295 996 321 989.5 Q347 983 364.5 974 Q382 965 382 948 Q382 936 375.5 928.5 Q369 921 359.5 916.5 Q350 912 339 910.5 Q328 909 319 909 Q295 909 277.5 919.5 Q260 930 245 942 Q230 954 217 964.5 Q204 975 189 975 Q171 975 158.5 961.5 Q146 948 146 930 Q146 902 166 883.5 Q186 865 214 854 Q242 843 272.5 838.5 Q303 834 324 834 Q348 834 373 839 Q398 844 420 855.5 Q442 867 459 884.5 Q476 902 484 927 L484 905 Q483 876 493 855 Q503 834 538 834 Q564 834 576 849 Q588 864 591.5 885 Q595 906 593.5 929 Q592 952 591 969 L629 1002 L730 859 Q738 848 751.5 841 Q765 834 779 834 Q799 834 814.5 850 Q830 866 830 886 Q830 903 815 928.5 Q800 954 780 981 Q760 1008 739 1032 Q718 1056 707 1071 Q729 1094 752 1116 Q775 1138 795 1164 Q821 1076 853 990.5 Q885 905 916 818 Q912 797 896 791.5 Q880 786 863 783 Q846 780 832 773 Q818 766 818 741 Q818 728 824.5 718.5 Q831 709 840.5 703 Q850 697 862 694 Q874 691 885 691 Q911 691 931 700 Q951 709 965.5 724.5 Q980 740 990.5 760.5 Q1001 781 1008 803 L1129 1145 L1129 745 Q1129 722 1144.5 706.5 Q1160 691 1183 691 Q1206 691 1221 706.5 Q1236 722 1236 745 L1236 888 L1238 888 Q1254 861 1283.5 847.5 Q1313 834 1344 834 Q1376 834 1402.5 845 Q1429 856 1449.5 875.5 Q1470 895 1483.5 921 Q1497 947 1503 977 Q1512 941 1531 914.5 Q1550 888 1577 870 Q1604 852 1636.5 843 Q1669 834 1704 834 Q1725 834 1753.5 839 Q1782 844 1808.5 855 Q1835 866 1853.5 884 Q1872 902 1872 929 Q1872 946 1858.5 958.5 Q1845 971 1828 971 Q1816 971 1803.5 962.5 Q1791 954 1776 944.5 Q1761 935 1743.5 926.5 Q1726 918 1704 918 Q1662 918 1633 945.5 Q1604 973 1605 1016 L1847 1016 Q1872 1016 1883 1026.5 Q1894 1037 1894 1062 Z M1793 1077 L1605 1077 Q1613 1113 1638.5 1138 Q1664 1163 1702 1163 Q1737 1163 1762.5 1137 Q1788 1111 1793 1077 Z M1402 1037 Q1402 1018 1397.5 996.5 Q1393 975 1382.5 958 Q1372 941 1355.5 929.5 Q1339 918 1316 918 Q1293 918 1276.5 929.5 Q1260 941 1249.5 958 Q1239 975 1234.5 996.5 Q1230 1018 1230 1037 Q1230 1057 1234.5 1078 Q1239 1099 1249.5 1116 Q1260 1133 1276 1143.5 Q1292 1154 1316 1154 Q1339 1154 1355 1143 Q1371 1132 1381.5 1114.5 Q1392 1097 1397 1076.5 Q1402 1056 1402 1037 Z " />
<glyph glyph-name="IconSkypeLarge" unicode="&#xe012;" horiz-adv-x="2048" d="M2048 572 Q2048 455 2002.5 351 Q1957 247 1879 169 Q1801 91 1697 45.5 Q1593 0 1476 0 Q1403 0 1332.5 18.5 Q1262 37 1199 72 Q1155 64 1111.5 60 Q1068 56 1024 56 Q891 56 767.5 91 Q644 126 536.5 189 Q429 252 340.5 340.5 Q252 429 189 536.5 Q126 644 91 767.5 Q56 891 56 1024 Q56 1068 60 1111.5 Q64 1155 72 1199 Q37 1262 18.5 1332.5 Q0 1403 0 1476 Q0 1593 45.5 1697 Q91 1801 169 1879 Q247 1957 351 2002.5 Q455 2048 572 2048 Q645 2048 715.5 2029.5 Q786 2011 849 1976 Q893 1984 936.5 1988 Q980 1992 1024 1992 Q1157 1992 1280.5 1957 Q1404 1922 1511.5 1859 Q1619 1796 1707.5 1707.5 Q1796 1619 1859 1511.5 Q1922 1404 1957 1280.5 Q1992 1157 1992 1024 Q1992 933 1976 849 Q2011 786 2029.5 715.5 Q2048 645 2048 572 Z M1517 780 Q1517 868 1486 928 Q1455 988 1404 1027.5 Q1353 1067 1288.5 1090.5 Q1224 1114 1156 1130 Q1088 1146 1023.5 1157.5 Q959 1169 908 1185.5 Q857 1202 826 1227 Q795 1252 795 1294 Q795 1333 813.5 1359.5 Q832 1386 860.5 1402.5 Q889 1419 923.5 1426 Q958 1433 990 1433 Q1046 1433 1087 1420 Q1128 1407 1158.5 1387.5 Q1189 1368 1212.5 1345.5 Q1236 1323 1256.5 1303.5 Q1277 1284 1298.5 1271 Q1320 1258 1346 1258 Q1369 1258 1391 1265.5 Q1413 1273 1430 1286.5 Q1447 1300 1458 1319.5 Q1469 1339 1469 1364 Q1469 1411 1445.5 1450 Q1422 1489 1383 1519 Q1344 1549 1295 1571.5 Q1246 1594 1194.5 1609 Q1143 1624 1094.5 1631 Q1046 1638 1009 1638 Q925 1638 840.5 1618.5 Q756 1599 687.5 1556.5 Q619 1514 576.5 1446 Q534 1378 534 1280 Q534 1195 564.5 1137 Q595 1079 645 1041 Q695 1003 759 980 Q823 957 890 941 Q957 925 1021 912 Q1085 899 1135 880.5 Q1185 862 1215.5 834 Q1246 806 1246 760 Q1246 719 1225 690 Q1204 661 1171.5 642 Q1139 623 1101 614.5 Q1063 606 1028 606 Q964 606 919.5 621.5 Q875 637 844 660.5 Q813 684 790.5 711.5 Q768 739 747 762.5 Q726 786 702.5 801.5 Q679 817 645 817 Q622 817 601.5 808.5 Q581 800 565 785 Q549 770 540 750 Q531 730 531 707 Q531 675 542.5 645.5 Q554 616 571 590 Q604 537 658 502.5 Q712 468 775 447.5 Q838 427 904.5 418.5 Q971 410 1028 410 Q1116 410 1203.5 429.5 Q1291 449 1360.5 492.5 Q1430 536 1473.5 607 Q1517 678 1517 780 Z " />
<glyph glyph-name="IconSkypeForBusiness" unicode="&#xe013;" horiz-adv-x="2048" d="M1933 624 Q1933 520 1892.5 427.5 Q1852 335 1782.5 265.5 Q1713 196 1620.5 155.5 Q1528 115 1424 115 Q1358 115 1294 132 Q1230 149 1173 182 Q1135 176 1098.5 172.5 Q1062 169 1024 169 Q907 169 797.5 199.5 Q688 230 593 286 Q498 342 420 420 Q342 498 286 593 Q230 688 199.5 797.5 Q169 907 169 1024 Q169 1062 172 1099 Q175 1136 182 1173 Q149 1230 132 1294 Q115 1358 115 1424 Q115 1528 155.5 1620.5 Q196 1713 265 1782.5 Q334 1852 426.5 1892.5 Q519 1933 623 1933 Q689 1933 753.5 1916 Q818 1899 875 1866 Q912 1873 949 1876 Q986 1879 1024 1879 Q1142 1879 1251 1848.5 Q1360 1818 1455 1762 Q1550 1706 1628 1628 Q1706 1550 1762 1455 Q1818 1360 1848.5 1251 Q1879 1142 1879 1024 Q1879 947 1866 876 Q1898 818 1915.5 754 Q1933 690 1933 624 Z M1803 624 Q1803 685 1782.5 742.5 Q1762 800 1730 852 Q1738 895 1743.5 937.5 Q1749 980 1749 1024 Q1749 1123 1722.5 1215 Q1696 1307 1648.5 1387.5 Q1601 1468 1534.5 1534.5 Q1468 1601 1387.5 1648.5 Q1307 1696 1215 1722.5 Q1123 1749 1024 1749 Q980 1749 937 1744 Q894 1739 852 1730 Q800 1762 742.5 1782.5 Q685 1803 623 1803 Q546 1803 477 1773 Q408 1743 356.5 1691 Q305 1639 275 1570.5 Q245 1502 245 1424 Q245 1363 265.5 1305.5 Q286 1248 318 1196 Q309 1154 304 1111 Q299 1068 299 1024 Q299 925 325.5 833 Q352 741 399.5 660.5 Q447 580 513.5 513.5 Q580 447 660.5 399.5 Q741 352 833 325.5 Q925 299 1024 299 Q1068 299 1110.5 304 Q1153 309 1196 318 Q1248 286 1305.5 265.5 Q1363 245 1424 245 Q1502 245 1570.5 275 Q1639 305 1691 357 Q1743 409 1773 477.5 Q1803 546 1803 624 Z M1445 819 Q1445 732 1408 671 Q1371 610 1311.5 572 Q1252 534 1177 516.5 Q1102 499 1027 499 Q989 499 943 504.5 Q897 510 850 522.5 Q803 535 758.5 554.5 Q714 574 679.5 602.5 Q645 631 624 669 Q603 707 603 755 Q603 775 611 792.5 Q619 810 633 822.5 Q647 835 665 842 Q683 849 702 849 Q730 849 750 835 Q770 821 788.5 800.5 Q807 780 826.5 756 Q846 732 872.5 711.5 Q899 691 936.5 677 Q974 663 1027 663 Q1057 663 1090.5 671 Q1124 679 1151.5 696 Q1179 713 1197.5 739 Q1216 765 1216 801 Q1216 840 1190 863.5 Q1164 887 1121.5 903 Q1079 919 1024.5 930 Q970 941 913 955 Q856 969 801.5 988.5 Q747 1008 704.5 1041 Q662 1074 636 1123.5 Q610 1173 610 1246 Q610 1329 645.5 1387 Q681 1445 738 1481 Q795 1517 866.5 1533 Q938 1549 1009 1549 Q1041 1549 1082.5 1543 Q1124 1537 1167.5 1524.5 Q1211 1512 1253 1493 Q1295 1474 1328 1448.5 Q1361 1423 1381.5 1390 Q1402 1357 1402 1317 Q1402 1296 1393 1279.5 Q1384 1263 1369 1252 Q1354 1241 1335.5 1235 Q1317 1229 1298 1229 Q1276 1229 1257.5 1240 Q1239 1251 1221.5 1267.5 Q1204 1284 1184 1303.5 Q1164 1323 1137.5 1339.5 Q1111 1356 1076.5 1367 Q1042 1378 994 1378 Q966 1378 937.5 1372 Q909 1366 885.5 1351.5 Q862 1337 847 1314.5 Q832 1292 832 1259 Q832 1223 858.5 1201.5 Q885 1180 928 1165.5 Q971 1151 1026 1140.5 Q1081 1130 1138.5 1116 Q1196 1102 1251 1082 Q1306 1062 1349 1028 Q1392 994 1418.5 943.5 Q1445 893 1445 819 Z " />
<glyph glyph-name="MSOffice" unicode="&#xe014;" horiz-adv-x="2048" d="M1856 190 L1291 0 L193 406 L1280 255 L1280 1726 L576 1577 L576 576 L192 406 L192 1636 L1291 2048 L1856 1894 L1856 190 Z " />
<glyph glyph-name="Bing" unicode="&#xe015;" horiz-adv-x="2048" d="M1728 616 L768 64 L384 279 L384 1984 L768 1850 L768 500 L1309 811 L1043 935 L877 1351 L1728 1053 L1728 616 Z " />
<glyph glyph-name="MicrosoftTeams" unicode="&#xe016;" horiz-adv-x="2048" d="M1984 1377 Q1984 1344 1971.5 1315 Q1959 1286 1937 1264 Q1915 1242 1886 1229.5 Q1857 1217 1824 1217 Q1791 1217 1762 1229.5 Q1733 1242 1711 1264 Q1689 1286 1676.5 1315 Q1664 1344 1664 1377 Q1664 1410 1676.5 1439 Q1689 1468 1711 1490 Q1733 1512 1762 1524.5 Q1791 1537 1824 1537 Q1857 1537 1886 1524.5 Q1915 1512 1937 1490 Q1959 1468 1971.5 1439 Q1984 1410 1984 1377 Z M1576 1473 Q1576 1433 1561 1398 Q1546 1363 1519.5 1337 Q1493 1311 1458 1296 Q1423 1281 1384 1281 Q1376 1281 1359 1284 Q1342 1287 1324.5 1293 Q1307 1299 1293.5 1307 Q1280 1315 1280 1325 L1280 1621 Q1280 1630 1293.5 1638 Q1307 1646 1324 1652 Q1341 1658 1358.5 1661.5 Q1376 1665 1383 1665 Q1423 1665 1458 1650 Q1493 1635 1519.5 1608.5 Q1546 1582 1561 1547 Q1576 1512 1576 1473 Z M1984 715 Q1984 676 1964.5 649.5 Q1945 623 1915 606.5 Q1885 590 1850 583 Q1815 576 1783 576 L1664 577 L1664 1089 L1984 1089 L1984 715 Z M1600 593 Q1600 546 1578.5 512 Q1557 478 1523 456.5 Q1489 435 1447 424.5 Q1405 414 1364 414 Q1343 414 1321.5 417 Q1300 420 1280 428 L1280 1217 L1600 1217 L1600 593 Z M1216 65 L64 261 L64 1788 L1216 1985 L1216 65 Z M896 1291 L896 1409 L384 1380 L384 1272 L576 1279 L576 776 L704 769 L704 1283 L896 1291 Z " />
<glyph glyph-name="CallStart" unicode="&#xe100;" horiz-adv-x="2048" d="M1504 128 Q1477 128 1447 136 Q1192 210 982 358 Q772 506 620 721 Q467 936 397.5 1180.5 Q328 1425 345 1687 Q348 1741 378.5 1785.5 Q409 1830 459 1852 L568 1900 Q591 1911 614.5 1915.5 Q638 1920 662 1920 Q725 1920 780 1888 Q835 1856 865 1797 L909 1712 Q934 1663 951 1606 Q968 1549 969.5 1490.5 Q971 1432 953.5 1376.5 Q936 1321 894 1275 L821 1203 Q804 1186 802 1161.5 Q800 1137 814 1117 L1064 765 Q1085 736 1120 736 Q1135 736 1148 743 L1240 784 Q1269 795 1294.5 799.5 Q1320 804 1345 804 Q1392 804 1437 791 Q1482 778 1523 756.5 Q1564 735 1600 707 Q1636 679 1664 650 L1730 580 Q1762 547 1777 506.5 Q1792 466 1791.5 424 Q1791 382 1775 342 Q1759 302 1727 270 L1644 186 Q1616 157 1579.5 142.5 Q1543 128 1504 128 Z M724 793 Q864 595 1056 459.5 Q1248 324 1483 256 Q1494 253 1504 253 Q1533 253 1553 273 L1636 357 Q1665 386 1665 425.5 Q1665 465 1637 494 L1571 564 Q1549 587 1522.5 608 Q1496 629 1466.5 644.5 Q1437 660 1406 669 Q1375 678 1345 678 Q1331 678 1317.5 676.5 Q1304 675 1291 670 L1201 629 Q1162 611 1120 611 Q1073 611 1031 632 Q989 653 960 693 L710 1046 Q689 1075 680.5 1107.5 Q672 1140 675 1172.5 Q678 1205 692 1235.5 Q706 1266 731 1291 L802 1361 Q828 1389 836.5 1426 Q845 1463 841.5 1502.5 Q838 1542 825 1582 Q812 1622 795 1655 L752 1740 Q738 1766 713.5 1780.5 Q689 1795 661 1795 Q640 1795 620 1786 L512 1738 Q495 1730 484 1714.5 Q473 1699 471 1679 Q456 1439 520 1214.5 Q584 990 724 793 Z " />
<glyph glyph-name="CallEnd" unicode="&#xe101;" horiz-adv-x="2048" d="M1766 640 Q1758 640 1750.5 640.5 Q1743 641 1735 642 L1645 655 Q1596 662 1543 679.5 Q1490 697 1442.5 727 Q1395 757 1358.5 799.5 Q1322 842 1307 899 L1289 995 Q1285 1015 1268.5 1028 Q1252 1041 1230 1041 L818 1041 Q796 1041 779.5 1028 Q763 1015 759 995 L742 904 Q731 845 696.5 801.5 Q662 758 614.5 728 Q567 698 511.5 680 Q456 662 404 655 L313 642 Q305 641 297.5 640.5 Q290 640 282 640 Q243 640 207.5 653 Q172 666 143 689 Q114 712 94.5 744 Q75 776 67 814 L46 920 Q36 971 55 1019.5 Q74 1068 116 1100 Q312 1252 542 1330 Q772 1408 1024 1408 Q1276 1408 1506 1330 Q1736 1252 1932 1100 Q1974 1068 1993 1019.5 Q2012 971 2002 920 L1981 814 Q1974 776 1954 744 Q1934 712 1905 689 Q1876 666 1840.5 653 Q1805 640 1766 640 Z M1431 930 Q1440 899 1463.5 873.5 Q1487 848 1519 829.5 Q1551 811 1588 798.5 Q1625 786 1662 781 L1753 769 Q1756 768 1759.5 768 Q1763 768 1766 768 Q1799 768 1824 787.5 Q1849 807 1856 838 L1876 945 Q1882 977 1854 999 Q1674 1138 1464 1209 Q1254 1280 1024 1280 Q794 1280 584 1209 Q374 1138 194 999 Q166 977 172 945 L192 838 Q199 807 224 787.5 Q249 768 282 768 Q285 768 288.5 768 Q292 768 295 769 L386 781 Q421 786 459 797 Q497 808 530 826.5 Q563 845 587 871 Q611 897 617 931 L633 1018 Q639 1051 656 1078.5 Q673 1106 697.5 1126.5 Q722 1147 753 1158 Q784 1169 818 1169 L1230 1169 Q1264 1169 1295 1158 Q1326 1147 1350.5 1126.5 Q1375 1106 1392 1078.5 Q1409 1051 1415 1018 L1431 930 Z " />
<glyph glyph-name="Video" unicode="&#xe102;" horiz-adv-x="2048" d="M1408 585 Q1408 555 1386.5 533.5 Q1365 512 1335 512 L329 512 Q299 512 277.5 533.5 Q256 555 256 585 L256 1463 Q256 1493 277.5 1514.5 Q299 1536 329 1536 L1335 1536 Q1365 1536 1386.5 1514.5 Q1408 1493 1408 1463 L1408 585 Z M1742 958 Q1724 976 1715.5 999 Q1707 1022 1707 1045.5 Q1707 1069 1715.5 1092 Q1724 1115 1742 1133 L1920 1315 L1920 776 L1742 958 Z M329 1664 Q287 1664 250.5 1648 Q214 1632 187 1605 Q160 1578 144 1541.5 Q128 1505 128 1463 L128 585 Q128 543 144 506.5 Q160 470 187 443 Q214 416 250.5 400 Q287 384 329 384 L1335 384 Q1377 384 1413.5 400 Q1450 416 1477 443 Q1504 470 1520 506.5 Q1536 543 1536 585 L1536 1463 Q1536 1505 1520 1541.5 Q1504 1578 1477 1605 Q1450 1632 1413.5 1648 Q1377 1664 1335 1664 L329 1664 Z M1984 1536 Q1959 1536 1938 1517 L1650 1222 Q1614 1186 1596.5 1140 Q1579 1094 1579 1046 Q1579 998 1596.5 951.5 Q1614 905 1650 869 L1938 574 Q1957 555 1984 555 Q2010 555 2029 573.5 Q2048 592 2048 619 L2048 1472 Q2048 1498 2029 1517 Q2010 1536 1984 1536 Z " />
<glyph glyph-name="VideoOff" unicode="&#xe103;" horiz-adv-x="2048" d="M1408 585 Q1408 555 1386.5 533.5 Q1365 512 1335 512 L603 512 L1408 1318 L1408 585 Z M1742 958 Q1724 976 1715.5 999 Q1707 1022 1707 1045.5 Q1707 1069 1715.5 1092 Q1724 1115 1742 1133 L1920 1315 L1920 776 L1742 958 Z M256 1463 Q256 1493 277.5 1514.5 Q299 1536 329 1536 L1215 1536 L1342 1663 L329 1664 Q287 1664 250.5 1648 Q214 1632 187 1605 Q160 1578 144 1541.5 Q128 1505 128 1463 L128 585 Q128 556 136 529.5 Q144 503 158 480 L257 578 L256 1463 Z M131 40 L475 384 L1335 384 Q1377 384 1413.5 400 Q1450 416 1477 443 Q1504 470 1520 506.5 Q1536 543 1536 585 L1536 1446 L2008 1917 L1917 2008 L40 131 L131 40 Z M1984 1536 Q1959 1536 1938 1517 L1650 1222 Q1614 1186 1596.5 1140 Q1579 1094 1579 1046 Q1579 998 1596.5 951.5 Q1614 905 1650 869 L1938 574 Q1957 555 1984 555 Q2010 555 2029 573.5 Q2048 592 2048 619 L2048 1472 Q2048 1498 2029 1517 Q2010 1536 1984 1536 Z " />
<glyph glyph-name="Dialpad" unicode="&#xe104;" horiz-adv-x="2048" d="M512 1920 Q485 1920 462 1910 Q439 1900 421.5 1882.5 Q404 1865 394 1842 Q384 1819 384 1792 Q384 1765 394 1742 Q404 1719 421.5 1701.5 Q439 1684 462 1674 Q485 1664 512 1664 Q539 1664 562 1674 Q585 1684 602.5 1701.5 Q620 1719 630 1742 Q640 1765 640 1792 Q640 1819 630 1842 Q620 1865 602.5 1882.5 Q585 1900 562 1910 Q539 1920 512 1920 Z M1024 1920 Q997 1920 974 1910 Q951 1900 933.5 1882.5 Q916 1865 906 1842 Q896 1819 896 1792 Q896 1765 906 1742 Q916 1719 933.5 1701.5 Q951 1684 974 1674 Q997 1664 1024 1664 Q1051 1664 1074 1674 Q1097 1684 1114.5 1701.5 Q1132 1719 1142 1742 Q1152 1765 1152 1792 Q1152 1819 1142 1842 Q1132 1865 1114.5 1882.5 Q1097 1900 1074 1910 Q1051 1920 1024 1920 Z M1536 1664 Q1563 1664 1586 1674 Q1609 1684 1626.5 1701.5 Q1644 1719 1654 1742 Q1664 1765 1664 1792 Q1664 1819 1654 1842 Q1644 1865 1626.5 1882.5 Q1609 1900 1586 1910 Q1563 1920 1536 1920 Q1509 1920 1486 1910 Q1463 1900 1445.5 1882.5 Q1428 1865 1418 1842 Q1408 1819 1408 1792 Q1408 1765 1418 1742 Q1428 1719 1445.5 1701.5 Q1463 1684 1486 1674 Q1509 1664 1536 1664 Z M512 1408 Q485 1408 462 1398 Q439 1388 421.5 1370.5 Q404 1353 394 1330 Q384 1307 384 1280 Q384 1253 394 1230 Q404 1207 421.5 1189.5 Q439 1172 462 1162 Q485 1152 512 1152 Q539 1152 562 1162 Q585 1172 602.5 1189.5 Q620 1207 630 1230 Q640 1253 640 1280 Q640 1307 630 1330 Q620 1353 602.5 1370.5 Q585 1388 562 1398 Q539 1408 512 1408 Z M1024 1408 Q997 1408 974 1398 Q951 1388 933.5 1370.5 Q916 1353 906 1330 Q896 1307 896 1280 Q896 1253 906 1230 Q916 1207 933.5 1189.5 Q951 1172 974 1162 Q997 1152 1024 1152 Q1051 1152 1074 1162 Q1097 1172 1114.5 1189.5 Q1132 1207 1142 1230 Q1152 1253 1152 1280 Q1152 1307 1142 1330 Q1132 1353 1114.5 1370.5 Q1097 1388 1074 1398 Q1051 1408 1024 1408 Z M1536 1408 Q1509 1408 1486 1398 Q1463 1388 1445.5 1370.5 Q1428 1353 1418 1330 Q1408 1307 1408 1280 Q1408 1253 1418 1230 Q1428 1207 1445.5 1189.5 Q1463 1172 1486 1162 Q1509 1152 1536 1152 Q1563 1152 1586 1162 Q1609 1172 1626.5 1189.5 Q1644 1207 1654 1230 Q1664 1253 1664 1280 Q1664 1307 1654 1330 Q1644 1353 1626.5 1370.5 Q1609 1388 1586 1398 Q1563 1408 1536 1408 Z M512 896 Q485 896 462 886 Q439 876 421.5 858.5 Q404 841 394 818 Q384 795 384 768 Q384 741 394 718 Q404 695 421.5 677.5 Q439 660 462 650 Q485 640 512 640 Q539 640 562 650 Q585 660 602.5 677.5 Q620 695 630 718 Q640 741 640 768 Q640 795 630 818 Q620 841 602.5 858.5 Q585 876 562 886 Q539 896 512 896 Z M1024 896 Q997 896 974 886 Q951 876 933.5 858.5 Q916 841 906 818 Q896 795 896 768 Q896 741 906 718 Q916 695 933.5 677.5 Q951 660 974 650 Q997 640 1024 640 Q1051 640 1074 650 Q1097 660 1114.5 677.5 Q1132 695 1142 718 Q1152 741 1152 768 Q1152 795 1142 818 Q1132 841 1114.5 858.5 Q1097 876 1074 886 Q1051 896 1024 896 Z M1536 896 Q1509 896 1486 886 Q1463 876 1445.5 858.5 Q1428 841 1418 818 Q1408 795 1408 768 Q1408 741 1418 718 Q1428 695 1445.5 677.5 Q1463 660 1486 650 Q1509 640 1536 640 Q1563 640 1586 650 Q1609 660 1626.5 677.5 Q1644 695 1654 718 Q1664 741 1664 768 Q1664 795 1654 818 Q1644 841 1626.5 858.5 Q1609 876 1586 886 Q1563 896 1536 896 Z M1024 384 Q997 384 974 374 Q951 364 933.5 346.5 Q916 329 906 306 Q896 283 896 256 Q896 229 906 206 Q916 183 933.5 165.5 Q951 148 974 138 Q997 128 1024 128 Q1051 128 1074 138 Q1097 148 1114.5 165.5 Q1132 183 1142 206 Q1152 229 1152 256 Q1152 283 1142 306 Q1132 329 1114.5 346.5 Q1097 364 1074 374 Q1051 384 1024 384 Z " />
<glyph glyph-name="Microphone" unicode="&#xe106;" horiz-adv-x="2048" d="M768 1664 Q768 1717 788 1763.5 Q808 1810 843 1845 Q878 1880 924.5 1900 Q971 1920 1024 1920 Q1077 1920 1123.5 1900 Q1170 1880 1205 1845 Q1240 1810 1260 1763.5 Q1280 1717 1280 1664 L1280 1024 Q1280 971 1260 924.5 Q1240 878 1205 843 Q1170 808 1123.5 788 Q1077 768 1024 768 Q971 768 924.5 788 Q878 808 843 843 Q808 878 788 924.5 Q768 971 768 1024 L768 1664 Z M1792 1024 Q1792 1050 1773 1069 Q1754 1088 1728 1088 Q1702 1088 1683 1069 Q1664 1050 1664 1024 Q1664 892 1613.5 775.5 Q1563 659 1476 572 Q1389 485 1272.5 434.5 Q1156 384 1024 384 Q892 384 775.5 434.5 Q659 485 572 572 Q485 659 434.5 775.5 Q384 892 384 1024 Q384 1050 365 1069 Q346 1088 320 1088 Q294 1088 275 1069 Q256 1050 256 1024 Q256 873 310.5 739.5 Q365 606 460 503 Q555 400 683.5 335.5 Q812 271 960 259 L960 64 Q960 38 979 19 Q998 0 1024 0 Q1050 0 1069 19 Q1088 38 1088 64 L1088 259 Q1236 271 1364.5 335.5 Q1493 400 1588 503 Q1683 606 1737.5 739.5 Q1792 873 1792 1024 Z M1024 640 Q1104 640 1173.5 670 Q1243 700 1295.5 752.5 Q1348 805 1378 875 Q1408 945 1408 1024 L1408 1664 Q1408 1744 1378 1813.5 Q1348 1883 1295.5 1935.5 Q1243 1988 1173.5 2018 Q1104 2048 1024 2048 Q945 2048 875 2018 Q805 1988 752.5 1935.5 Q700 1883 670 1813.5 Q640 1744 640 1664 L640 1024 Q640 945 670 875 Q700 805 752.5 752.5 Q805 700 875 670 Q945 640 1024 640 Z " />
<glyph glyph-name="MicrophoneOff" unicode="&#xe107;" horiz-adv-x="2048" d="M1280 1024 Q1280 971 1260 924.5 Q1240 878 1205 843 Q1170 808 1123.5 788 Q1077 768 1024 768 Q989 768 956 777.5 Q923 787 894 804 L1280 1190 L1280 1024 Z M459 725 Q423 792 403.5 867.5 Q384 943 384 1024 Q384 1050 365 1069 Q346 1088 320 1088 Q294 1088 275 1069 Q256 1050 256 1024 Q256 915 284.5 816.5 Q313 718 365 631 L459 725 Z M1024 640 Q1104 640 1173.5 670 Q1243 700 1295.5 752.5 Q1348 805 1378 875 Q1408 945 1408 1024 L1408 1318 L2029 1939 Q2048 1958 2048 1984 Q2048 2010 2029 2029 Q2020 2039 2008 2043.5 Q1996 2048 1984 2048 Q1972 2048 1960 2043.5 Q1948 2039 1939 2029 L19 109 Q0 90 0 64 Q0 38 19 19 Q28 9 40 4.5 Q52 0 64 0 Q76 0 88 4.5 Q100 9 109 19 L529 438 Q618 363 727 316.5 Q836 270 960 259 L960 64 Q960 38 979 19 Q998 0 1024 0 Q1050 0 1069 19 Q1088 38 1088 64 L1088 259 Q1236 271 1364.5 335.5 Q1493 400 1588 503 Q1683 606 1737.5 739.5 Q1792 873 1792 1024 Q1792 1050 1773 1069 Q1754 1088 1728 1088 Q1702 1088 1683 1069 Q1664 1050 1664 1024 Q1664 892 1613.5 775.5 Q1563 659 1476 572 Q1389 485 1272.5 434.5 Q1156 384 1024 384 Q909 384 806 422 Q703 460 619 529 L802 711 Q850 678 905.5 659 Q961 640 1024 640 Z M768 1664 Q768 1717 788 1763.5 Q808 1810 843 1845 Q878 1880 924.5 1900 Q971 1920 1024 1920 Q1077 1920 1123.5 1900 Q1170 1880 1205 1845 Q1240 1810 1260 1763.5 Q1280 1717 1280 1664 L1280 1546 L1408 1673 Q1406 1751 1375 1819.5 Q1344 1888 1292.5 1938.5 Q1241 1989 1171.5 2018.5 Q1102 2048 1024 2048 Q945 2048 875 2018 Q805 1988 752.5 1935.5 Q700 1883 670 1813.5 Q640 1744 640 1664 L640 1024 Q640 970 655 920 L768 1034 L768 1664 Z " />
<glyph glyph-name="More" unicode="&#xe109;" horiz-adv-x="2048" d="M341 1195 Q306 1195 275 1181.5 Q244 1168 221 1145 Q198 1122 184.5 1090.5 Q171 1059 171 1024 Q171 989 184.5 958 Q198 927 221 903.5 Q244 880 275 866.5 Q306 853 341 853 Q377 853 408 866.5 Q439 880 462 903.5 Q485 927 498.5 958 Q512 989 512 1024 Q512 1059 498.5 1090.5 Q485 1122 462 1145 Q439 1168 408 1181.5 Q377 1195 341 1195 Z M1024 1195 Q989 1195 958 1181.5 Q927 1168 903.5 1145 Q880 1122 866.5 1090.5 Q853 1059 853 1024 Q853 989 866.5 958 Q880 927 903.5 903.5 Q927 880 958 866.5 Q989 853 1024 853 Q1059 853 1090.5 866.5 Q1122 880 1145 903.5 Q1168 927 1181.5 958 Q1195 989 1195 1024 Q1195 1059 1181.5 1090.5 Q1168 1122 1145 1145 Q1122 1168 1090.5 1181.5 Q1059 1195 1024 1195 Z M1707 1195 Q1671 1195 1640 1181.5 Q1609 1168 1586 1145 Q1563 1122 1549.5 1090.5 Q1536 1059 1536 1024 Q1536 989 1549.5 958 Q1563 927 1586 903.5 Q1609 880 1640 866.5 Q1671 853 1707 853 Q1742 853 1773 866.5 Q1804 880 1827 903.5 Q1850 927 1863.5 958 Q1877 989 1877 1024 Q1877 1059 1863.5 1090.5 Q1850 1122 1827 1145 Q1804 1168 1773 1181.5 Q1742 1195 1707 1195 Z " />
<glyph glyph-name="Screenshare" unicode="&#xe10a;" horiz-adv-x="2048" d="M1728 768 L1600 768 Q1574 768 1555 787 Q1536 806 1536 832 Q1536 858 1555 877 Q1574 896 1600 896 L1728 896 Q1754 896 1773 915 Q1792 934 1792 960 L1792 1728 Q1792 1754 1773 1773 Q1754 1792 1728 1792 L832 1792 Q806 1792 787 1773 Q768 1754 768 1728 L768 1472 Q768 1446 749 1427 Q730 1408 704 1408 Q678 1408 659 1427 Q640 1446 640 1472 L640 1728 Q640 1768 655 1803 Q670 1838 696 1864 Q722 1890 757 1905 Q792 1920 832 1920 L1728 1920 Q1768 1920 1803 1905 Q1838 1890 1864 1864 Q1890 1838 1905 1803 Q1920 1768 1920 1728 L1920 960 Q1920 920 1905 885 Q1890 850 1864 824 Q1838 798 1803 783 Q1768 768 1728 768 Z M1259 128 L277 128 Q246 128 219 140 Q192 152 172 172 Q152 192 140 219 Q128 246 128 277 L128 1131 Q128 1162 140 1189 Q152 1216 172 1236.5 Q192 1257 219 1268.5 Q246 1280 277 1280 L1259 1280 Q1290 1280 1317 1268.5 Q1344 1257 1364.5 1236.5 Q1385 1216 1396.5 1189 Q1408 1162 1408 1131 L1408 277 Q1408 246 1396.5 219 Q1385 192 1364.5 172 Q1344 152 1317 140 Q1290 128 1259 128 Z M277 1152 Q269 1152 262.5 1145.5 Q256 1139 256 1131 L256 277 Q256 269 262.5 262.5 Q269 256 277 256 L1259 256 Q1267 256 1273.5 262.5 Q1280 269 1280 277 L1280 1131 Q1280 1139 1273.5 1145.5 Q1267 1152 1259 1152 L277 1152 Z " />
<glyph glyph-name="CallMissed" unicode="&#xe10d;" horiz-adv-x="2048" d="M282 1027 Q243 1027 208 1039.5 Q173 1052 144.5 1074.5 Q116 1097 96.5 1128.5 Q77 1160 69 1198 L48 1305 Q38 1355 56.5 1402.5 Q75 1450 117 1482 Q313 1634 543 1711.5 Q773 1789 1024 1789 Q1275 1789 1505 1711.5 Q1735 1634 1931 1482 Q1973 1450 1991.5 1402.5 Q2010 1355 2000 1305 L1979 1198 Q1972 1160 1952 1128.5 Q1932 1097 1903.5 1074.5 Q1875 1052 1839.5 1039.5 Q1804 1027 1766 1027 Q1758 1027 1750.5 1027 Q1743 1027 1735 1029 L1645 1041 Q1596 1048 1543.5 1065.5 Q1491 1083 1444 1112.5 Q1397 1142 1361 1184.5 Q1325 1227 1310 1284 L1292 1379 Q1287 1400 1270 1413.5 Q1253 1427 1230 1427 L818 1427 Q795 1427 778 1413.5 Q761 1400 757 1379 L740 1289 Q729 1231 694.5 1187.5 Q660 1144 612.5 1114 Q565 1084 510 1066 Q455 1048 403 1041 L313 1029 Q305 1027 297.5 1027 Q290 1027 282 1027 Z M1024 1667 Q793 1667 583 1595.5 Q373 1524 193 1385 Q179 1374 172.5 1359 Q166 1344 169 1328 L190 1222 Q196 1190 222.5 1169.5 Q249 1149 282 1149 Q286 1149 289 1149.5 Q292 1150 296 1150 L386 1163 Q421 1168 459.5 1179 Q498 1190 531.5 1208.5 Q565 1227 589 1253.5 Q613 1280 619 1314 L636 1402 Q642 1434 658.5 1461.5 Q675 1489 699 1508.5 Q723 1528 753.5 1539 Q784 1550 818 1550 L1230 1550 Q1264 1550 1294.5 1539 Q1325 1528 1349 1508.5 Q1373 1489 1389.5 1461.5 Q1406 1434 1412 1402 L1429 1314 Q1438 1282 1461.5 1256 Q1485 1230 1517.5 1211 Q1550 1192 1587.5 1180 Q1625 1168 1662 1163 L1752 1150 Q1756 1150 1759 1149.5 Q1762 1149 1766 1149 Q1800 1149 1826 1169.5 Q1852 1190 1858 1222 L1879 1328 Q1882 1344 1875.5 1359 Q1869 1374 1855 1385 Q1675 1524 1465 1595.5 Q1255 1667 1024 1667 Z M1195 469 Q1166 469 1147 491 L981 680 L981 917 Q981 944 1000 962.5 Q1019 981 1045 981 Q1072 981 1090.5 962.5 Q1109 944 1109 917 L1109 728 L1243 575 Q1260 555 1258.5 528.5 Q1257 502 1237 485 Q1218 469 1195 469 Z M1045 1152 Q952 1152 870.5 1116.5 Q789 1081 728.5 1020.5 Q668 960 632.5 878.5 Q597 797 597 704 Q597 611 632.5 529.5 Q668 448 728.5 387.5 Q789 327 870.5 291.5 Q952 256 1045 256 Q1138 256 1219.5 291.5 Q1301 327 1361.5 387.5 Q1422 448 1457.5 529.5 Q1493 611 1493 704 Q1493 797 1457.5 878.5 Q1422 960 1361.5 1020.5 Q1301 1081 1219.5 1116.5 Q1138 1152 1045 1152 Z M1045 368 Q976 368 914.5 394.5 Q853 421 807.5 466.5 Q762 512 735.5 573.5 Q709 635 709 704 Q709 773 735.5 834.5 Q762 896 807.5 941.5 Q853 987 914.5 1013.5 Q976 1040 1045 1040 Q1115 1040 1176 1013.5 Q1237 987 1282.5 941.5 Q1328 896 1354.5 834.5 Q1381 773 1381 704 Q1381 635 1354.5 573.5 Q1328 512 1282.5 466.5 Q1237 421 1176 394.5 Q1115 368 1045 368 Z " />
<glyph glyph-name="CallIn" unicode="&#xe10e;" horiz-adv-x="2048" d="M1324 226 Q1306 206 1277 206 Q1267 206 1256 209 Q1025 277 835.5 413 Q646 549 508 747 Q370 944 306.5 1168.5 Q243 1393 259 1634 Q261 1653 271 1668.5 Q281 1684 298 1692 L405 1740 Q425 1749 445 1749 Q472 1749 496 1735 Q520 1721 533 1695 L576 1609 Q593 1576 606 1536 Q619 1496 622.5 1456 Q626 1416 617.5 1379.5 Q609 1343 583 1317 L513 1246 Q488 1221 474 1190 Q460 1159 457.5 1126 Q455 1093 463.5 1060 Q472 1027 492 998 L739 645 Q767 605 809 584 Q851 563 898 563 Q941 563 979 580 L1067 621 Q1093 630 1120 630 Q1150 630 1180 621 Q1210 612 1239 596.5 Q1268 581 1294 560 Q1320 539 1342 516 L1408 446 Q1435 417 1434.5 378 Q1434 339 1406 310 L1324 226 Z M1436 603 Q1408 633 1372.5 660.5 Q1337 688 1296.5 710 Q1256 732 1211.5 745 Q1167 758 1120 758 Q1095 758 1070 754 Q1045 750 1020 740 L925 697 Q912 691 898 691 Q882 691 867.5 698 Q853 705 844 719 L596 1072 Q582 1092 584.5 1115.5 Q587 1139 604 1156 L676 1229 Q720 1273 737 1328.5 Q754 1384 752 1443 Q750 1502 732.5 1560 Q715 1618 690 1667 L647 1753 Q617 1812 562.5 1844.5 Q508 1877 445 1877 Q398 1877 352 1857 L245 1809 Q195 1786 165 1741.5 Q135 1697 131 1642 Q114 1379 183 1134 Q252 889 403 673 Q554 457 761 308.5 Q968 160 1220 86 Q1250 78 1277 78 Q1316 78 1352 93 Q1388 108 1416 136 L1498 220 Q1530 253 1546 293.5 Q1562 334 1562.5 376 Q1563 418 1547.5 459 Q1532 500 1501 533 L1436 603 Z M1731 1773 Q1712 1792 1685 1792 Q1659 1792 1640 1773 L1152 1285 L1152 1557 Q1152 1584 1133 1602.5 Q1114 1621 1088 1621 Q1062 1621 1043 1602.5 Q1024 1584 1024 1557 L1024 1131 Q1024 1105 1043 1086 Q1062 1067 1088 1067 L1515 1067 Q1541 1067 1560 1085.5 Q1579 1104 1579 1131 Q1579 1157 1560 1176 Q1541 1195 1515 1195 L1243 1195 L1731 1683 Q1750 1702 1750 1728 Q1750 1754 1731 1773 Z " />
<glyph glyph-name="CallOut" unicode="&#xe10f;" horiz-adv-x="2048" d="M1321 220 Q1301 200 1273 200 Q1264 200 1253 203 Q1022 271 832.5 407 Q643 543 504 741 Q366 938 303 1162.5 Q240 1387 255 1628 Q257 1647 267 1662.5 Q277 1678 294 1686 L401 1734 Q421 1743 442 1743 Q469 1743 492.5 1729 Q516 1715 530 1689 L573 1603 Q590 1570 603 1530 Q616 1490 619.5 1450 Q623 1410 614 1373.5 Q605 1337 579 1311 L509 1240 Q484 1215 470 1184 Q456 1153 453.5 1120 Q451 1087 459.5 1054 Q468 1021 488 992 L736 639 Q764 599 806 578 Q848 557 894 557 Q914 557 934.5 561 Q955 565 975 574 L1063 615 Q1090 627 1120 627 Q1149 627 1179 617 Q1209 607 1237.5 591 Q1266 575 1292 554 Q1318 533 1339 510 L1404 440 Q1431 411 1431 372 Q1431 333 1403 304 L1321 220 Z M1432 597 Q1404 627 1368.5 654.5 Q1333 682 1292.5 704 Q1252 726 1207.5 739 Q1163 752 1117 752 Q1091 752 1066.5 748 Q1042 744 1016 734 L922 691 Q915 687 908 686 Q901 685 894 685 Q860 685 840 713 L593 1066 Q579 1086 581 1109.5 Q583 1133 600 1150 L672 1223 Q716 1267 733.5 1322.5 Q751 1378 748.5 1437 Q746 1496 729 1554 Q712 1612 687 1661 L644 1747 Q614 1806 559.5 1838.5 Q505 1871 442 1871 Q395 1871 349 1851 L242 1802 Q192 1780 161.5 1735.5 Q131 1691 128 1636 Q111 1373 179.5 1128 Q248 883 400 667 Q551 451 757.5 302.5 Q964 154 1217 80 Q1247 72 1273 72 Q1312 72 1348.5 87 Q1385 102 1412 130 L1494 214 Q1526 247 1542 287.5 Q1558 328 1558.5 370 Q1559 412 1543.5 453 Q1528 494 1497 527 L1432 597 Z M1173 1664 Q1147 1664 1128 1645 Q1109 1626 1109 1600 Q1109 1574 1128 1555 Q1147 1536 1173 1536 L1446 1536 L957 1048 Q938 1029 938 1002.5 Q938 976 957 957 Q977 939 1003 939 Q1029 939 1048 957 L1536 1446 L1536 1173 Q1536 1147 1555 1128 Q1574 1109 1600 1109 Q1626 1109 1645 1128 Q1664 1147 1664 1173 L1664 1600 Q1664 1626 1645 1645 Q1626 1664 1600 1664 L1173 1664 Z " />
<glyph glyph-name="CallBlocked" unicode="&#xe110;" horiz-adv-x="2048" d="M640 640 Q640 720 670 789.5 Q700 859 752.5 911.5 Q805 964 875 994 Q945 1024 1024 1024 Q1093 1024 1154 1001.5 Q1215 979 1265 938 L726 399 Q685 449 662.5 510 Q640 571 640 640 Z M1024 256 Q968 256 917.5 271 Q867 286 822 314 L1350 842 Q1378 797 1393 746.5 Q1408 696 1408 640 Q1408 561 1378 491 Q1348 421 1295.5 368.5 Q1243 316 1173.5 286 Q1104 256 1024 256 Z M1858 1265 Q1852 1233 1826 1212.5 Q1800 1192 1766 1192 Q1757 1192 1752 1193 L1662 1206 Q1625 1211 1587.5 1223 Q1550 1235 1517.5 1254 Q1485 1273 1461.5 1298.5 Q1438 1324 1429 1356 L1412 1444 Q1406 1476 1389.5 1503.5 Q1373 1531 1349 1551 Q1325 1571 1294.5 1582 Q1264 1593 1230 1593 L818 1593 Q784 1593 753.5 1582 Q723 1571 699 1551.5 Q675 1532 658.5 1504.5 Q642 1477 636 1445 L619 1357 Q613 1323 589 1296.5 Q565 1270 531.5 1251.5 Q498 1233 459.5 1222 Q421 1211 386 1206 L296 1193 Q291 1192 282 1192 Q249 1192 222.5 1212.5 Q196 1233 190 1265 L169 1371 Q163 1404 193 1428 Q373 1567 583 1638 Q793 1709 1024 1709 Q1255 1709 1465 1638 Q1675 1567 1855 1428 Q1885 1404 1879 1371 L1858 1265 Z M1024 1152 Q918 1152 825 1111.5 Q732 1071 662.5 1001.5 Q593 932 552.5 839 Q512 746 512 640 Q512 534 552.5 441 Q593 348 662.5 278.5 Q732 209 825 168.5 Q918 128 1024 128 Q1130 128 1223 168.5 Q1316 209 1385.5 278.5 Q1455 348 1495.5 441 Q1536 534 1536 640 Q1536 746 1495.5 839 Q1455 932 1385.5 1001.5 Q1316 1071 1223 1111.5 Q1130 1152 1024 1152 Z M1931 1525 Q1735 1677 1505 1754.5 Q1275 1832 1024 1832 Q773 1832 543 1754.5 Q313 1677 117 1525 Q75 1493 56.5 1445.5 Q38 1398 48 1347 L69 1241 Q77 1203 96.5 1171.5 Q116 1140 144.5 1117 Q173 1094 208 1081.5 Q243 1069 282 1069 Q290 1069 297.5 1069.5 Q305 1070 313 1071 L403 1084 Q455 1091 510 1109 Q565 1127 612.5 1157 Q660 1187 694.5 1230 Q729 1273 740 1331 L757 1422 Q761 1443 778 1456.5 Q795 1470 818 1470 L1230 1470 Q1253 1470 1270 1456.5 Q1287 1443 1292 1422 L1308 1331 Q1324 1273 1360 1229.5 Q1396 1186 1443.5 1156 Q1491 1126 1543.5 1108.5 Q1596 1091 1645 1084 L1735 1071 Q1743 1070 1750.5 1069.5 Q1758 1069 1766 1069 Q1804 1069 1839.5 1081.5 Q1875 1094 1903.5 1117 Q1932 1140 1952 1171.5 Q1972 1203 1979 1241 L2000 1347 Q2010 1398 1991.5 1445.5 Q1973 1493 1931 1525 Z " />
<glyph glyph-name="CallError" unicode="&#xe111;" horiz-adv-x="2048" d="M1324 226 Q1306 206 1277 206 Q1267 206 1256 209 Q1025 277 835.5 413 Q646 549 508 747 Q370 944 306.5 1168.5 Q243 1393 259 1634 Q261 1654 271 1669 Q281 1684 298 1692 L405 1740 Q425 1749 445 1749 Q472 1749 496 1735 Q520 1721 533 1695 L576 1609 Q593 1576 606 1536 Q619 1496 622.5 1456 Q626 1416 617.5 1379.5 Q609 1343 583 1317 L513 1246 Q488 1221 474 1190 Q460 1159 457.5 1126 Q455 1093 463.5 1060 Q472 1027 492 998 L739 645 Q767 605 809 584 Q851 563 898 563 Q941 563 979 580 L1067 621 Q1093 630 1120 630 Q1150 630 1180 621 Q1210 612 1239 596.5 Q1268 581 1294 560 Q1320 539 1342 516 L1408 446 Q1435 417 1434.5 378 Q1434 339 1406 310 L1324 226 Z M1472 1177 Q1438 1177 1414 1200.5 Q1390 1224 1390 1259 Q1390 1293 1414 1317 Q1438 1341 1472 1341 Q1506 1341 1530 1317 Q1554 1293 1554 1259 Q1554 1224 1530 1200.5 Q1506 1177 1472 1177 Z M1408 1749 Q1408 1776 1427 1794.5 Q1446 1813 1472 1813 Q1498 1813 1517 1794.5 Q1536 1776 1536 1749 L1536 1493 Q1536 1467 1517 1448 Q1498 1429 1472 1429 Q1446 1429 1427 1448 Q1408 1467 1408 1493 L1408 1749 Z M1436 603 Q1408 633 1372.5 660.5 Q1337 688 1296.5 710 Q1256 732 1211.5 745 Q1167 758 1120 758 Q1095 758 1070 754 Q1045 750 1020 740 L925 697 Q912 691 898 691 Q882 691 867.5 698 Q853 705 844 719 L596 1072 Q582 1092 584.5 1115.5 Q587 1139 604 1156 L676 1229 Q720 1273 737 1328.5 Q754 1384 752 1443 Q750 1502 732.5 1560 Q715 1618 690 1667 L647 1753 Q617 1812 562.5 1844.5 Q508 1877 445 1877 Q398 1877 352 1857 L245 1809 Q196 1786 165.5 1741.5 Q135 1697 131 1642 Q114 1379 183 1134 Q252 889 403 673 Q554 457 761 308.5 Q968 160 1220 86 Q1250 78 1277 78 Q1316 78 1352 93 Q1388 108 1416 136 L1498 220 Q1530 253 1546 293.5 Q1562 334 1562.5 376 Q1563 418 1547.5 459 Q1532 500 1501 533 L1436 603 Z M1581 1935 Q1565 1967 1536 1985.5 Q1507 2004 1472 2004 Q1437 2004 1408 1985.5 Q1379 1967 1363 1935 L1040 1297 Q1024 1266 1025.5 1232.5 Q1027 1199 1045 1170 Q1062 1142 1089.5 1126.5 Q1117 1111 1149 1111 L1795 1111 Q1827 1111 1854.5 1126.5 Q1882 1142 1899 1170 Q1917 1199 1918.5 1232.5 Q1920 1266 1904 1297 L1581 1935 Z " />
<glyph glyph-name="Favourite" unicode="&#xe113;" horiz-adv-x="2048" d="M1521 117 Q1491 117 1462 132 L1024 362 L586 132 Q558 117 527 117 Q485 117 452 141 Q422 163 408 196.5 Q394 230 401 267 L484 754 L130 1099 Q104 1125 95.5 1160 Q87 1195 98 1230 Q109 1265 136.5 1288.5 Q164 1312 201 1318 L690 1389 L909 1832 Q926 1865 956.5 1884 Q987 1903 1024 1903 Q1061 1903 1091.5 1884 Q1122 1865 1139 1832 L1358 1389 L1847 1318 Q1884 1312 1911.5 1288.5 Q1939 1265 1950 1230 Q1962 1195 1953 1160 Q1944 1125 1918 1099 L1564 754 L1647 267 Q1654 230 1640 196.5 Q1626 163 1597 141 Q1563 117 1521 117 Z M1024 1776 L805 1332 Q791 1303 765.5 1285 Q740 1267 709 1262 L219 1191 L574 846 Q597 823 606 793.5 Q615 764 610 732 L527 245 L964 475 Q993 490 1024 490 Q1056 490 1084 475 L1521 245 L1438 732 Q1433 764 1442.5 793.5 Q1452 823 1475 846 L1829 1191 L1339 1262 Q1308 1267 1282.5 1285 Q1257 1303 1243 1332 L1024 1776 Z " />
<glyph glyph-name="Recent" unicode="&#xe115;" horiz-adv-x="2048" d="M1088 128 Q973 128 867 158 Q761 188 668.5 242 Q576 296 500 372 Q424 448 370 540.5 Q316 633 286 739 Q256 845 256 960 Q256 1075 286 1181 Q316 1287 370 1379.5 Q424 1472 500 1548 Q576 1624 668.5 1678 Q761 1732 867 1762 Q973 1792 1088 1792 Q1203 1792 1309 1762 Q1415 1732 1507.5 1678 Q1600 1624 1676 1548 Q1752 1472 1806 1379.5 Q1860 1287 1890 1181 Q1920 1075 1920 960 Q1920 845 1890 739 Q1860 633 1806 540.5 Q1752 448 1676 372 Q1600 296 1507.5 242 Q1415 188 1309 158 Q1203 128 1088 128 Z M1088 1920 Q956 1920 833.5 1885.5 Q711 1851 604 1788.5 Q497 1726 409.5 1638.5 Q322 1551 259.5 1444 Q197 1337 162.5 1214.5 Q128 1092 128 960 Q128 828 162.5 705.5 Q197 583 259.5 476 Q322 369 409.5 281.5 Q497 194 604 131.5 Q711 69 833.5 34.5 Q956 0 1088 0 Q1220 0 1342.5 34.5 Q1465 69 1572 131.5 Q1679 194 1766.5 281.5 Q1854 369 1916.5 476 Q1979 583 2013.5 705.5 Q2048 828 2048 960 Q2048 1092 2013.5 1214.5 Q1979 1337 1916.5 1444 Q1854 1551 1766.5 1638.5 Q1679 1726 1572 1788.5 Q1465 1851 1342.5 1885.5 Q1220 1920 1088 1920 Z M1384 573 L1475 664 L1152 987 L1152 1600 L1024 1600 L1024 934 L1384 573 Z " />
<glyph glyph-name="SkypeNumber" unicode="&#xe116;" horiz-adv-x="2048" d="M1324 226 Q1306 206 1277 206 Q1267 206 1256 209 Q1025 277 835.5 413 Q646 549 508 747 Q370 944 306.5 1168.5 Q243 1393 259 1634 Q261 1654 271 1669 Q281 1684 298 1692 L405 1740 Q425 1749 445 1749 Q472 1749 496 1735 Q520 1721 533 1695 L576 1609 Q593 1576 606 1536 Q619 1496 622.5 1456 Q626 1416 617.5 1379.5 Q609 1343 583 1317 L513 1246 Q488 1221 474 1190 Q460 1159 457.5 1126 Q455 1093 463.5 1060 Q472 1027 492 998 L739 645 Q767 605 809 584 Q851 563 898 563 Q918 563 938.5 567 Q959 571 979 580 L1067 621 Q1093 630 1120 630 Q1150 630 1180 621 Q1210 612 1239 596.5 Q1268 581 1294 560 Q1320 539 1342 516 L1408 446 Q1435 417 1434.5 378 Q1434 339 1406 310 L1324 226 Z M1679 1579 L1649 1408 L1436 1408 L1466 1579 L1679 1579 Z M1436 603 Q1408 633 1372.5 660.5 Q1337 688 1296.5 710 Q1256 732 1211.5 745 Q1167 758 1120 758 Q1095 758 1070 754 Q1045 750 1020 740 L925 697 Q912 691 898 691 Q882 691 867.5 698 Q853 705 844 719 L596 1072 Q582 1092 584.5 1115.5 Q587 1139 604 1156 L676 1229 Q720 1273 737 1328.5 Q754 1384 752 1443 Q750 1502 732.5 1560 Q715 1618 690 1667 L647 1753 Q617 1812 562.5 1844.5 Q508 1877 445 1877 Q398 1877 352 1857 L245 1809 Q196 1786 165.5 1741.5 Q135 1697 131 1642 Q114 1379 183 1134 Q252 889 403 673 Q554 457 761 308.5 Q968 160 1220 86 Q1250 78 1277 78 Q1316 78 1352 93 Q1388 108 1416 136 L1498 220 Q1530 253 1546 293.5 Q1562 334 1562.5 376 Q1563 418 1547.5 459 Q1532 500 1501 533 L1436 603 Z M1867 1920 L1739 1920 L1702 1707 L1488 1707 L1526 1920 L1398 1920 L1360 1707 L1232 1707 L1210 1579 L1338 1579 L1308 1408 L1180 1408 L1157 1280 L1285 1280 L1247 1067 L1375 1067 L1413 1280 L1626 1280 L1589 1067 L1717 1067 L1754 1280 L1882 1280 L1905 1408 L1777 1408 L1807 1579 L1935 1579 L1958 1707 L1830 1707 L1867 1920 Z " />
<glyph glyph-name="CallDisabled" unicode="&#xe117;" horiz-adv-x="2048" d="M995 692 Q1023 651 1065 630 Q1107 609 1154 609 Q1195 609 1235 627 L1323 668 Q1349 677 1376 677 Q1406 677 1436 668 Q1466 659 1495 643 Q1524 627 1550 606 Q1576 585 1598 562 L1664 492 Q1691 463 1690.5 424 Q1690 385 1662 356 L1580 272 Q1561 253 1533 253 Q1523 253 1512 256 Q1301 317 1126 435.5 Q951 554 816 725 L907 817 L995 692 Z M2029 2029 Q2020 2039 2008 2043.5 Q1996 2048 1984 2048 Q1972 2048 1960 2043.5 Q1948 2039 1939 2029 L19 109 Q0 90 0 64 Q0 38 19 19 Q28 9 40 4.5 Q52 0 64 0 Q76 0 88 4.5 Q100 9 109 19 L724 634 Q871 452 1060.5 325.5 Q1250 199 1476 133 Q1490 128 1504.5 126.5 Q1519 125 1533 125 Q1572 125 1608 139.5 Q1644 154 1672 183 L1754 267 Q1786 300 1802 340.5 Q1818 381 1818.5 423 Q1819 465 1803.5 506 Q1788 547 1757 580 L1691 650 Q1664 679 1628.5 707 Q1593 735 1552.5 757 Q1512 779 1467.5 792 Q1423 805 1376 805 Q1326 805 1276 787 L1181 743 Q1168 737 1154 737 Q1138 737 1123.5 744 Q1109 751 1100 765 L999 909 L2029 1939 Q2048 1958 2048 1984 Q2048 2010 2029 2029 Z M674 940 Q583 1111 542.5 1297 Q502 1483 515 1680 Q517 1700 527 1715 Q537 1730 554 1738 L661 1787 Q671 1792 681 1793.5 Q691 1795 701 1795 Q728 1795 752 1781 Q776 1767 789 1741 L832 1656 Q849 1623 862 1582.5 Q875 1542 878.5 1502 Q882 1462 873.5 1425.5 Q865 1389 839 1363 L769 1292 Q744 1267 730 1236.5 Q716 1206 713.5 1173 Q711 1140 719.5 1107 Q728 1074 748 1045 L760 1027 L852 1119 Q838 1139 840.5 1162 Q843 1185 860 1202 L932 1275 Q976 1320 993 1375.5 Q1010 1431 1008 1490 Q1006 1549 988.5 1607 Q971 1665 946 1714 L903 1799 Q873 1859 818.5 1891 Q764 1923 701 1923 Q678 1923 654.5 1918.5 Q631 1914 608 1903 L501 1855 Q451 1832 421 1788 Q391 1744 387 1688 Q373 1463 421.5 1251 Q470 1039 580 846 L674 940 Z " />
<glyph glyph-name="ScreenshareOff" unicode="&#xe11b;" horiz-adv-x="2048" d="M1259 1152 Q1267 1152 1273.5 1145.5 Q1280 1139 1280 1131 L1280 277 Q1280 269 1273.5 262.5 Q1267 256 1259 256 L347 256 L1243 1152 L1259 1152 Z M256 1131 Q256 1139 262.5 1145.5 Q269 1152 277 1152 L831 1152 L959 1280 L277 1280 Q246 1280 219 1268.5 Q192 1257 172 1236.5 Q152 1216 140 1189 Q128 1162 128 1131 L128 450 L256 578 L256 1131 Z M131 40 L227 137 Q251 128 277 128 L1259 128 Q1290 128 1317 140 Q1344 152 1364.5 172 Q1385 192 1396.5 219 Q1408 246 1408 277 L1408 1131 Q1408 1169 1390.5 1201 Q1373 1233 1344 1253 L1792 1702 L1792 960 Q1792 934 1773 915 Q1754 896 1728 896 L1600 896 Q1574 896 1555 877 Q1536 858 1536 832 Q1536 806 1555 787 Q1574 768 1600 768 L1728 768 Q1768 768 1803 783 Q1838 798 1864 824 Q1890 850 1905 885 Q1920 920 1920 960 L1920 1728 Q1920 1770 1901 1810 L2008 1917 L1917 2008 L40 131 L131 40 Z M704 1408 Q730 1408 749 1427 Q768 1446 768 1472 L768 1728 Q768 1754 787 1773 Q806 1792 832 1792 L1471 1792 L1599 1920 L832 1920 Q792 1920 757 1905 Q722 1890 696 1864 Q670 1838 655 1803 Q640 1768 640 1728 L640 1472 Q640 1446 659 1427 Q678 1408 704 1408 Z " />
<glyph glyph-name="Landline" unicode="&#xe11e;" horiz-adv-x="2048" d="M1973 1464 Q2016 1430 2035.5 1380 Q2055 1330 2044 1277 L2022 1164 Q2015 1124 1994.5 1090.5 Q1974 1057 1944.5 1033 Q1915 1009 1878 995.5 Q1841 982 1801 982 Q1793 982 1784.5 982.5 Q1776 983 1768 984 L1674 997 Q1623 1004 1567.5 1023 Q1512 1042 1463 1073.5 Q1414 1105 1376.5 1150 Q1339 1195 1324 1255 L1305 1357 Q1300 1380 1282 1394.5 Q1264 1409 1240 1409 L808 1409 Q784 1409 766 1394.5 Q748 1380 743 1357 L726 1260 Q712 1199 675.5 1153 Q639 1107 590.5 1075 Q542 1043 485.5 1024 Q429 1005 374 997 L280 984 Q272 983 263.5 982.5 Q255 982 247 982 Q207 982 170 995.5 Q133 1009 103.5 1033 Q74 1057 54 1090.5 Q34 1124 26 1164 L4 1277 Q-7 1330 12.5 1380 Q32 1430 75 1464 Q280 1625 520.5 1708.5 Q761 1792 1024 1792 Q1287 1792 1527.5 1708.5 Q1768 1625 1973 1464 Z M1919 1301 Q1923 1318 1916 1335 Q1909 1352 1894 1364 Q1706 1513 1485.5 1589 Q1265 1665 1024 1665 Q783 1665 562.5 1589 Q342 1513 154 1364 Q139 1352 132 1335 Q125 1318 129 1301 L150 1188 Q157 1153 185 1131 Q213 1109 248 1109 Q251 1109 254.5 1109 Q258 1109 262 1110 L357 1123 Q394 1128 433.5 1140.5 Q473 1153 507.5 1173 Q542 1193 567.5 1221 Q593 1249 601 1286 L618 1379 Q624 1413 641.5 1442 Q659 1471 684.5 1492 Q710 1513 741.5 1524.5 Q773 1536 808 1536 L1240 1536 Q1275 1536 1306.5 1524.5 Q1338 1513 1363.5 1492 Q1389 1471 1406.5 1442 Q1424 1413 1430 1379 L1447 1285 Q1457 1251 1481.5 1223.5 Q1506 1196 1540 1175.5 Q1574 1155 1613 1142 Q1652 1129 1691 1123 L1786 1110 Q1791 1109 1801 1109 Q1836 1109 1863.5 1131 Q1891 1153 1898 1188 L1919 1301 Z M1280 853 Q1280 800 1260 753.5 Q1240 707 1205 672 Q1170 637 1123.5 617 Q1077 597 1024 597 Q971 597 924.5 617 Q878 637 843 672 Q808 707 788 753.5 Q768 800 768 853 Q768 906 788 953 Q808 1000 843 1034.5 Q878 1069 924.5 1089 Q971 1109 1024 1109 Q1077 1109 1123.5 1089 Q1170 1069 1205 1034.5 Q1240 1000 1260 953 Q1280 906 1280 853 Z M896 853 Q896 827 906 803.5 Q916 780 933.5 762.5 Q951 745 974 735 Q997 725 1024 725 Q1051 725 1074 735 Q1097 745 1114.5 762.5 Q1132 780 1142 803.5 Q1152 827 1152 853 Q1152 880 1142 903 Q1132 926 1114.5 943.5 Q1097 961 1074 971 Q1051 981 1024 981 Q997 981 974 971 Q951 961 933.5 943.5 Q916 926 906 903 Q896 880 896 853 Z M1600 939 Q1626 939 1645 920 Q1664 901 1664 875 L1664 448 Q1664 408 1649 373 Q1634 338 1608 312 Q1582 286 1547 271 Q1512 256 1472 256 L576 256 Q536 256 501 271 Q466 286 440 312 Q414 338 399 373 Q384 408 384 448 L384 875 Q384 901 403 920 Q422 939 448 939 Q474 939 493 920 Q512 901 512 875 L512 448 Q512 422 531 403 Q550 384 576 384 L1472 384 Q1498 384 1517 403 Q1536 422 1536 448 L1536 875 Q1536 901 1555 920 Q1574 939 1600 939 Z " />
<glyph glyph-name="TV" unicode="&#xe11f;" horiz-adv-x="2048" d="M1152 512 L1152 384 L896 384 L896 512 L1152 512 Z M1792 704 Q1792 678 1773 659 Q1754 640 1728 640 L320 640 Q294 640 275 659 Q256 678 256 704 L256 1600 Q256 1626 275 1645 Q294 1664 320 1664 L1728 1664 Q1754 1664 1773 1645 Q1792 1626 1792 1600 L1792 704 Z M320 1792 Q280 1792 245 1777 Q210 1762 184 1736 Q158 1710 143 1675 Q128 1640 128 1600 L128 704 Q128 664 143 629 Q158 594 184 568 Q210 542 245 527 Q280 512 320 512 L768 512 L768 384 L640 384 Q614 384 595 365 Q576 346 576 320 Q576 294 595 275 Q614 256 640 256 L1408 256 Q1434 256 1453 275 Q1472 294 1472 320 Q1472 346 1453 365 Q1434 384 1408 384 L1280 384 L1280 512 L1728 512 Q1768 512 1803 527 Q1838 542 1864 568 Q1890 594 1905 629 Q1920 664 1920 704 L1920 1600 Q1920 1640 1905 1675 Q1890 1710 1864 1736 Q1838 1762 1803 1777 Q1768 1792 1728 1792 L320 1792 Z " />
<glyph glyph-name="ShareIOS" unicode="&#xe122;" horiz-adv-x="2048" d="M768 1536 Q780 1536 792 1540.5 Q804 1545 813 1555 L1024 1766 L1024 704 Q1024 678 1043 659 Q1062 640 1088 640 Q1114 640 1133 659 Q1152 678 1152 704 L1152 1764 L1359 1555 Q1368 1545 1380 1540.5 Q1392 1536 1404 1536 Q1431 1536 1449 1555 Q1468 1573 1468.5 1599.5 Q1469 1626 1450 1645 L1136 1962 Q1126 1972 1114 1978 Q1102 1984 1087 1984 Q1061 1984 1042 1965 L723 1645 Q704 1626 704 1600 Q704 1574 723 1555 Q732 1545 744 1540.5 Q756 1536 768 1536 Z M1600 1408 L1472 1408 Q1446 1408 1427 1389 Q1408 1370 1408 1344 Q1408 1318 1427 1299 Q1446 1280 1472 1280 L1600 1280 Q1626 1280 1645 1261 Q1664 1242 1664 1216 L1664 192 Q1664 166 1645 147 Q1626 128 1600 128 L576 128 Q550 128 531 147 Q512 166 512 192 L512 1216 Q512 1242 531 1261 Q550 1280 576 1280 L704 1280 Q730 1280 749 1299 Q768 1318 768 1344 Q768 1370 749 1389 Q730 1408 704 1408 L576 1408 Q536 1408 501 1393 Q466 1378 440 1352 Q414 1326 399 1291 Q384 1256 384 1216 L384 192 Q384 152 399 117 Q414 82 440 56 Q466 30 501 15 Q536 0 576 0 L1600 0 Q1640 0 1675 15 Q1710 30 1736 56 Q1762 82 1777 117 Q1792 152 1792 192 L1792 1216 Q1792 1256 1777 1291 Q1762 1326 1736 1352 Q1710 1378 1675 1393 Q1640 1408 1600 1408 Z " />
<glyph glyph-name="Wifi" unicode="&#xe123;" horiz-adv-x="2048" d="M1026 512 Q1000 512 977 502 Q954 492 936.5 475 Q919 458 909 435 Q899 412 899 386 L899 382 Q899 356 909 333 Q919 310 936.5 293 Q954 276 977 266 Q1000 256 1026 256 Q1052 256 1075 266 Q1098 276 1115 293 Q1132 310 1142 333 Q1152 356 1152 382 L1152 386 Q1152 412 1142 435 Q1132 458 1115 475 Q1098 492 1075 502 Q1052 512 1026 512 Z M1959 1379 Q1751 1519 1514 1591.5 Q1277 1664 1024 1664 Q771 1664 534 1591.5 Q297 1519 89 1379 Q67 1364 62 1338 Q57 1312 72 1290 Q81 1276 95.5 1269.5 Q110 1263 125 1263 Q134 1263 143.5 1265.5 Q153 1268 161 1274 Q353 1404 571.5 1470.5 Q790 1537 1024 1537 Q1258 1537 1476.5 1470.5 Q1695 1404 1887 1274 Q1895 1268 1904.5 1265.5 Q1914 1263 1923 1263 Q1938 1263 1952.5 1269.5 Q1967 1276 1976 1290 Q1991 1312 1986 1338 Q1981 1364 1959 1379 Z M1024 896 Q911 896 805 858.5 Q699 821 612 750 Q592 733 589.5 707.5 Q587 682 604 662 Q624 640 653 640 Q676 640 694 655 Q764 712 848.5 742 Q933 772 1024 772 Q1115 772 1199.5 742 Q1284 712 1354 655 Q1372 640 1395 640 Q1424 640 1444 662 Q1461 682 1458.5 707.5 Q1456 733 1436 750 Q1349 821 1243 858.5 Q1137 896 1024 896 Z M1697 1066 Q1548 1172 1377.5 1226 Q1207 1280 1024 1280 Q841 1280 671 1226 Q501 1172 352 1066 Q330 1050 325.5 1024.5 Q321 999 337 978 Q358 951 389 951 Q410 951 426 963 Q559 1057 710.5 1105.5 Q862 1154 1024 1154 Q1186 1154 1337.5 1105.5 Q1489 1057 1622 963 Q1639 951 1659 951 Q1690 951 1711 978 Q1727 999 1722.5 1024.5 Q1718 1050 1697 1066 Z " />
<glyph glyph-name="Clippy" unicode="&#xe124;" horiz-adv-x="2048" d="M1024 0 Q918 0 825 40.5 Q732 81 662.5 150.5 Q593 220 552.5 313 Q512 406 512 512 L512 1664 Q512 1744 542 1813.5 Q572 1883 624.5 1935.5 Q677 1988 747 2018 Q817 2048 896 2048 Q976 2048 1045.5 2018 Q1115 1988 1167.5 1935.5 Q1220 1883 1250 1813.5 Q1280 1744 1280 1664 L1280 512 Q1280 459 1260 412.5 Q1240 366 1205 331 Q1170 296 1123.5 276 Q1077 256 1024 256 Q971 256 924.5 276 Q878 296 843 331 Q808 366 788 412.5 Q768 459 768 512 L768 1536 Q768 1562 787 1581 Q806 1600 832 1600 Q858 1600 877 1581 Q896 1562 896 1536 L896 512 Q896 485 906 462 Q916 439 933.5 421.5 Q951 404 974 394 Q997 384 1024 384 Q1051 384 1074 394 Q1097 404 1114.5 421.5 Q1132 439 1142 462 Q1152 485 1152 512 L1152 1664 Q1152 1717 1132 1763.5 Q1112 1810 1077 1845 Q1042 1880 995.5 1900 Q949 1920 896 1920 Q843 1920 796.5 1900 Q750 1880 715 1845 Q680 1810 660 1763.5 Q640 1717 640 1664 L640 512 Q640 433 670 363 Q700 293 752.5 240.5 Q805 188 875 158 Q945 128 1024 128 Q1104 128 1173.5 158 Q1243 188 1295.5 240.5 Q1348 293 1378 363 Q1408 433 1408 512 L1408 1664 Q1408 1690 1427 1709 Q1446 1728 1472 1728 Q1498 1728 1517 1709 Q1536 1690 1536 1664 L1536 512 Q1536 406 1495.5 313 Q1455 220 1385.5 150.5 Q1316 81 1223 40.5 Q1130 0 1024 0 Z " />
<glyph glyph-name="CallAdd" unicode="&#xe128;" horiz-adv-x="2048" d="M1730 580 Q1762 547 1777 506.5 Q1792 466 1791.5 424 Q1791 382 1775 342 Q1759 302 1727 270 L1644 186 Q1616 157 1579.5 142.5 Q1543 128 1504 128 Q1477 128 1447 136 Q1192 210 982 358 Q772 506 620 721 Q467 936 397.5 1180.5 Q328 1425 345 1687 Q348 1741 378.5 1785.5 Q409 1830 459 1852 L568 1900 Q591 1911 614.5 1915.5 Q638 1920 662 1920 Q725 1920 780 1888 Q835 1856 865 1797 L909 1712 Q934 1663 951 1606 Q968 1549 969.5 1490.5 Q971 1432 953.5 1376.5 Q936 1321 894 1275 L821 1203 Q804 1186 802 1161.5 Q800 1137 814 1117 L1064 765 Q1085 736 1120 736 Q1135 736 1148 743 L1240 784 Q1269 795 1294.5 799.5 Q1320 804 1345 804 Q1392 804 1437 791 Q1482 778 1523 756.5 Q1564 735 1600 707 Q1636 679 1664 650 L1730 580 Z M1636 357 Q1665 386 1665 425.5 Q1665 465 1637 494 L1571 564 Q1549 587 1522.5 608 Q1496 629 1466.5 645 Q1437 661 1406 670 Q1375 679 1345 679 Q1315 679 1291 669 L1201 629 Q1162 611 1120 611 Q1073 611 1031 632 Q989 653 960 693 L710 1046 Q689 1075 680.5 1107.5 Q672 1140 675 1172.5 Q678 1205 692 1235.5 Q706 1266 731 1291 L802 1361 Q828 1389 836.5 1426 Q845 1463 841.5 1502.5 Q838 1542 825 1582 Q812 1622 795 1655 L752 1740 Q738 1766 714 1780.5 Q690 1795 662 1795 Q641 1795 620 1786 L512 1738 Q495 1730 484 1714.5 Q473 1699 471 1679 Q456 1439 520 1214.5 Q584 990 724 793 Q864 595 1056 459.5 Q1248 324 1483 256 Q1494 253 1504 253 Q1533 253 1553 273 L1636 357 Z M1856 1664 Q1882 1664 1901 1645 Q1920 1626 1920 1600 Q1920 1574 1901 1555 Q1882 1536 1856 1536 L1664 1536 L1664 1344 Q1664 1318 1645 1299 Q1626 1280 1600 1280 Q1574 1280 1555 1299 Q1536 1318 1536 1344 L1536 1536 L1344 1536 Q1318 1536 1299 1555 Q1280 1574 1280 1600 Q1280 1626 1299 1645 Q1318 1664 1344 1664 L1536 1664 L1536 1856 Q1536 1882 1555 1901 Q1574 1920 1600 1920 Q1626 1920 1645 1901 Q1664 1882 1664 1856 L1664 1664 L1856 1664 Z " />
<glyph glyph-name="CallQualityIndicator" unicode="&#xe12c;" horiz-adv-x="2048" d="M1024 1024 Q958 1024 899.5 1049 Q841 1074 797.5 1117.5 Q754 1161 729 1219.5 Q704 1278 704 1344 Q704 1410 729 1468.5 Q754 1527 797.5 1570.5 Q841 1614 899.5 1639 Q958 1664 1024 1664 Q1090 1664 1148.5 1639 Q1207 1614 1250.5 1570.5 Q1294 1527 1319 1468.5 Q1344 1410 1344 1344 Q1344 1278 1319 1219.5 Q1294 1161 1250.5 1117.5 Q1207 1074 1148.5 1049 Q1090 1024 1024 1024 Z M1024 1536 Q984 1536 949 1521 Q914 1506 888 1480 Q862 1454 847 1419 Q832 1384 832 1344 Q832 1304 847 1269 Q862 1234 888 1208 Q914 1182 949 1167 Q984 1152 1024 1152 Q1064 1152 1099 1167 Q1134 1182 1160 1208 Q1186 1234 1201 1269 Q1216 1304 1216 1344 Q1216 1384 1201 1419 Q1186 1454 1160 1480 Q1134 1506 1099 1521 Q1064 1536 1024 1536 Z M1344 128 L704 128 Q672 128 653 153 Q634 178 642 209 L834 899 Q840 920 857.5 932.5 Q875 945 896 945 Q900 945 904 945 Q908 945 913 943 Q967 928 1024 928 Q1081 928 1135 943 Q1140 945 1143.5 945 Q1147 945 1152 945 Q1173 945 1190.5 932.5 Q1208 920 1214 898 L1406 209 Q1414 178 1395 153 Q1376 128 1344 128 Z M788 256 L1260 256 L1106 806 Q1066 800 1024 800 Q983 800 941 806 L788 256 Z M1477 873 Q1449 873 1429 894 Q1411 914 1412.5 940.5 Q1414 967 1434 984 Q1515 1057 1557.5 1149.5 Q1600 1242 1600 1344 Q1600 1447 1557.5 1539 Q1515 1631 1434 1704 Q1414 1721 1412.5 1747.5 Q1411 1774 1429 1794 Q1449 1815 1477 1815 Q1502 1815 1519 1799 Q1621 1708 1674.5 1591 Q1728 1474 1728 1344 Q1728 1214 1674.5 1097 Q1621 980 1519 889 Q1502 873 1477 873 Z M571 873 Q546 873 529 889 Q427 980 373.5 1097 Q320 1214 320 1344 Q320 1474 373.5 1591 Q427 1708 529 1799 Q546 1815 571 1815 Q600 1815 619 1794 Q637 1774 635.5 1747.5 Q634 1721 614 1704 Q533 1631 490.5 1539 Q448 1447 448 1344 Q448 1242 490.5 1149.5 Q533 1057 614 984 Q634 967 635.5 940.5 Q637 914 619 894 Q600 873 571 873 Z M1703 646 Q1676 646 1656 667 Q1638 687 1638.5 713 Q1639 739 1659 757 Q1786 875 1853 1026 Q1920 1177 1920 1344 Q1920 1511 1853 1662 Q1786 1813 1659 1931 Q1639 1949 1638.5 1975 Q1638 2001 1656 2021 Q1676 2042 1703 2042 Q1728 2042 1746 2024 Q1893 1887 1970.5 1712.5 Q2048 1538 2048 1344 Q2048 1150 1970.5 975.5 Q1893 801 1746 664 Q1728 646 1703 646 Z M345 646 Q320 646 302 664 Q155 801 77.5 975.5 Q0 1150 0 1344 Q0 1538 77.5 1712.5 Q155 1887 302 2024 Q320 2042 345 2042 Q373 2042 392 2021 Q410 2001 409.5 1975 Q409 1949 389 1931 Q262 1813 195 1662 Q128 1511 128 1344 Q128 1177 195 1026 Q262 875 389 757 Q409 739 409.5 713 Q410 687 392 667 Q373 646 345 646 Z " />
<glyph glyph-name="Pinning" unicode="&#xe132;" horiz-adv-x="2048" d="M1626 1287 Q1621 1289 1615 1290 Q1609 1291 1604 1291 Q1578 1291 1559 1272 L1115 829 Q1101 815 1097.5 794.5 Q1094 774 1103 756 Q1124 711 1132.5 663.5 Q1141 616 1136.5 569.5 Q1132 523 1115 478.5 Q1098 434 1069 395 L395 1069 Q441 1103 494.5 1120.5 Q548 1138 604 1138 Q681 1138 756 1103 Q770 1097 783 1097 Q810 1097 829 1115 L1272 1559 Q1286 1572 1289.5 1590 Q1293 1608 1287 1626 Q1271 1670 1273 1714.5 Q1275 1759 1293 1800 L1800 1293 Q1754 1273 1705 1273 Q1685 1273 1665.5 1276 Q1646 1279 1626 1287 Z M1329 1946 Q1310 1965 1285 1965 Q1271 1965 1258 1959.5 Q1245 1954 1236 1943 Q1176 1877 1155 1792.5 Q1134 1708 1155 1622 L769 1236 Q688 1266 604 1266 Q510 1266 422.5 1230.5 Q335 1195 266 1126 L257 1117 Q238 1098 238 1071.5 Q238 1045 257 1026 L596 687 L91 181 L50 52 L181 91 L687 596 L1026 257 Q1045 238 1072 238 Q1098 238 1117 257 L1126 266 Q1176 316 1208.5 376.5 Q1241 437 1255 502.5 Q1269 568 1264.5 636 Q1260 704 1236 769 L1622 1155 Q1662 1145 1705 1145 Q1771 1145 1832 1168 Q1893 1191 1943 1236 Q1963 1253 1965 1282 Q1965 1308 1946 1329 L1329 1946 Z " />
<glyph glyph-name="Highlights" unicode="&#xe135;" horiz-adv-x="2048" d="M1024 477 L341 1195 L1707 1195 L1024 477 Z M296 1323 L488 1707 L1048 1707 L1240 1323 L296 1323 Z M1496 1323 L1384 1323 L1192 1707 L1304 1707 L1496 1323 Z M1560 1707 L1752 1323 L1640 1323 L1448 1707 L1560 1707 Z M135 1287 Q125 1269 128.5 1249 Q132 1229 146 1215 L978 340 L1070 340 L1902 1215 Q1916 1229 1919.5 1249 Q1923 1269 1913 1287 L1640 1835 L408 1835 L135 1287 Z " />
<glyph glyph-name="GVCFocus" unicode="&#xe136;" horiz-adv-x="2048" d="M444 512 Q419 512 401.5 529.5 Q384 547 384 572 L384 1024 L896 1024 L896 512 L444 512 Z M1792 572 Q1792 547 1774.5 529.5 Q1757 512 1732 512 L1280 512 L1280 1024 L1792 1024 L1792 572 Z M384 1860 Q384 1885 401.5 1902.5 Q419 1920 444 1920 L896 1920 L896 1408 L384 1408 L384 1860 Z M1732 1920 Q1757 1920 1774.5 1902.5 Q1792 1885 1792 1860 L1792 1408 L1280 1408 L1280 1920 L1732 1920 Z M320 1152 Q294 1152 275 1133 Q256 1114 256 1088 L256 572 Q256 533 271 499 Q286 465 311.5 439.5 Q337 414 371 399 Q405 384 444 384 L960 384 Q986 384 1005 403 Q1024 422 1024 448 L1024 1088 Q1024 1114 1005 1133 Q986 1152 960 1152 L320 1152 Z M1216 1152 Q1190 1152 1171 1133 Q1152 1114 1152 1088 L1152 448 Q1152 422 1171 403 Q1190 384 1216 384 L1732 384 Q1771 384 1805 399 Q1839 414 1864.5 439.5 Q1890 465 1905 499 Q1920 533 1920 572 L1920 1088 Q1920 1114 1901 1133 Q1882 1152 1856 1152 L1216 1152 Z M444 2048 Q405 2048 371 2033 Q337 2018 311.5 1992.5 Q286 1967 271 1933 Q256 1899 256 1860 L256 1344 Q256 1318 275 1299 Q294 1280 320 1280 L960 1280 Q986 1280 1005 1299 Q1024 1318 1024 1344 L1024 1984 Q1024 2010 1005 2029 Q986 2048 960 2048 L444 2048 Z M1216 2048 Q1190 2048 1171 2029 Q1152 2010 1152 1984 L1152 1344 Q1152 1318 1171 1299 Q1190 1280 1216 1280 L1856 1280 Q1882 1280 1901 1299 Q1920 1318 1920 1344 L1920 1860 Q1920 1899 1905 1933 Q1890 1967 1864.5 1992.5 Q1839 2018 1805 2033 Q1771 2048 1732 2048 L1216 2048 Z " />
<glyph glyph-name="Contact" unicode="&#xe200;" horiz-adv-x="2048" d="M360 384 Q386 495 448 589 Q510 683 597.5 751 Q685 819 794.5 857.5 Q904 896 1024 896 Q1144 896 1253.5 857.5 Q1363 819 1450.5 751 Q1538 683 1600 589 Q1662 495 1688 384 L360 384 Z M1024 1792 Q1077 1792 1123.5 1772 Q1170 1752 1205 1717 Q1240 1682 1260 1635.5 Q1280 1589 1280 1536 Q1280 1483 1260 1436.5 Q1240 1390 1205 1355 Q1170 1320 1123.5 1300 Q1077 1280 1024 1280 Q971 1280 924.5 1300 Q878 1320 843 1355 Q808 1390 788 1436.5 Q768 1483 768 1536 Q768 1589 788 1635.5 Q808 1682 843 1717 Q878 1752 924.5 1772 Q971 1792 1024 1792 Z M1828 327 Q1810 476 1740.5 603.5 Q1671 731 1563 824.5 Q1455 918 1317 971 Q1179 1024 1024 1024 Q870 1024 731.5 971 Q593 918 485.5 824.5 Q378 731 308 603.5 Q238 476 221 327 L212 256 L1836 256 L1828 327 Z M1024 1152 Q1104 1152 1173.5 1182 Q1243 1212 1295.5 1264.5 Q1348 1317 1378 1387 Q1408 1457 1408 1536 Q1408 1616 1378 1685.5 Q1348 1755 1295.5 1807.5 Q1243 1860 1173.5 1890 Q1104 1920 1024 1920 Q945 1920 875 1890 Q805 1860 752.5 1807.5 Q700 1755 670 1685.5 Q640 1616 640 1536 Q640 1457 670 1387 Q700 1317 752.5 1264.5 Q805 1212 875 1182 Q945 1152 1024 1152 Z " />
<glyph glyph-name="ContactAdd" unicode="&#xe201;" horiz-adv-x="2048" d="M232 384 Q258 495 320 589 Q382 683 469.5 751 Q557 819 666.5 857.5 Q776 896 896 896 Q1016 896 1125.5 857.5 Q1235 819 1322.5 751 Q1410 683 1472 589 Q1534 495 1560 384 L232 384 Z M896 1792 Q949 1792 995.5 1772 Q1042 1752 1077 1717 Q1112 1682 1132 1635.5 Q1152 1589 1152 1536 Q1152 1483 1132 1436.5 Q1112 1390 1077 1355 Q1042 1320 995.5 1300 Q949 1280 896 1280 Q843 1280 796.5 1300 Q750 1320 715 1355 Q680 1390 660 1436.5 Q640 1483 640 1536 Q640 1589 660 1635.5 Q680 1682 715 1717 Q750 1752 796.5 1772 Q843 1792 896 1792 Z M896 1024 Q742 1024 603.5 971 Q465 918 357.5 824.5 Q250 731 180 603.5 Q110 476 93 327 L84 256 L1708 256 L1700 327 Q1682 476 1612.5 603.5 Q1543 731 1435 824.5 Q1327 918 1189 971 Q1051 1024 896 1024 Z M896 1152 Q976 1152 1045.5 1182 Q1115 1212 1167.5 1264.5 Q1220 1317 1250 1387 Q1280 1457 1280 1536 Q1280 1616 1250 1685.5 Q1220 1755 1167.5 1807.5 Q1115 1860 1045.5 1890 Q976 1920 896 1920 Q817 1920 747 1890 Q677 1860 624.5 1807.5 Q572 1755 542 1685.5 Q512 1616 512 1536 Q512 1457 542 1387 Q572 1317 624.5 1264.5 Q677 1212 747 1182 Q817 1152 896 1152 Z M1664 2005 L1664 1792 L1451 1792 L1451 1664 L1664 1664 L1664 1451 L1792 1451 L1792 1664 L2005 1664 L2005 1792 L1792 1792 L1792 2005 L1664 2005 Z " />
<glyph glyph-name="SkypeAddressBook" unicode="&#xe203;" horiz-adv-x="2048" d="M320 256 Q294 256 275 272 Q256 288 256 311 L256 1737 Q256 1760 275 1776 Q294 1792 320 1792 L384 1792 L384 256 L320 256 Z M1792 311 Q1792 288 1773 272 Q1754 256 1728 256 L512 256 L512 1792 L1728 1792 Q1754 1792 1773 1776 Q1792 1760 1792 1737 L1792 311 Z M1152 981 Q1078 981 1011.5 955.5 Q945 930 894 884 Q843 838 809.5 776 Q776 714 768 640 L1536 640 Q1528 714 1494.5 776 Q1461 838 1410 884 Q1359 930 1292.5 955.5 Q1226 981 1152 981 Z M320 1920 Q280 1920 245 1905.5 Q210 1891 184 1866.5 Q158 1842 143 1808.5 Q128 1775 128 1737 L128 311 Q128 273 143 239.5 Q158 206 184 181.5 Q210 157 245 142.5 Q280 128 320 128 L1728 128 Q1768 128 1803 142.5 Q1838 157 1864 181.5 Q1890 206 1905 239.5 Q1920 273 1920 311 L1920 1737 Q1920 1775 1905 1808.5 Q1890 1842 1864 1866.5 Q1838 1891 1803 1905.5 Q1768 1920 1728 1920 L320 1920 Z M1152 1109 Q1187 1109 1218.5 1122.5 Q1250 1136 1273 1159.5 Q1296 1183 1309.5 1214 Q1323 1245 1323 1280 Q1323 1315 1309.5 1346.5 Q1296 1378 1273 1401 Q1250 1424 1218.5 1437.5 Q1187 1451 1152 1451 Q1117 1451 1086 1437.5 Q1055 1424 1031.5 1401 Q1008 1378 994.5 1346.5 Q981 1315 981 1280 Q981 1245 994.5 1214 Q1008 1183 1031.5 1159.5 Q1055 1136 1086 1122.5 Q1117 1109 1152 1109 Z " />
<glyph glyph-name="PhoneAddressBook" unicode="&#xe204;" horiz-adv-x="2048" d="M320 256 Q294 256 275 272 Q256 288 256 311 L256 1737 Q256 1760 275 1776 Q294 1792 320 1792 L384 1792 L384 256 L320 256 Z M1792 311 Q1792 288 1773 272 Q1754 256 1728 256 L512 256 L512 1792 L1728 1792 Q1754 1792 1773 1776 Q1792 1760 1792 1737 L1792 311 Z M1249 1109 L1226 981 L1055 981 L1078 1109 L1249 1109 Z M320 1920 Q280 1920 245 1905.5 Q210 1891 184 1866.5 Q158 1842 143 1808.5 Q128 1775 128 1737 L128 311 Q128 273 143 239.5 Q158 206 184 181.5 Q210 157 245 142.5 Q280 128 320 128 L1728 128 Q1768 128 1803 142.5 Q1838 157 1864 181.5 Q1890 206 1905 239.5 Q1920 273 1920 311 L1920 1737 Q1920 1775 1905 1808.5 Q1890 1842 1864 1866.5 Q1838 1891 1803 1905.5 Q1768 1920 1728 1920 L320 1920 Z M1379 1365 L1294 1365 L1264 1195 L1093 1195 L1123 1365 L1038 1365 L1008 1195 L922 1195 L907 1109 L993 1109 L970 981 L885 981 L870 896 L955 896 L925 725 L1010 725 L1040 896 L1211 896 L1181 725 L1266 725 L1296 896 L1382 896 L1397 981 L1311 981 L1334 1109 L1419 1109 L1434 1195 L1349 1195 L1379 1365 Z " />
<glyph glyph-name="ContactCard" unicode="&#xe209;" horiz-adv-x="2048" d="M256 1664 Q229 1664 206 1654 Q183 1644 165.5 1626.5 Q148 1609 138 1586 Q128 1563 128 1536 L128 512 Q128 485 138 462 Q148 439 165.5 421.5 Q183 404 206 394 Q229 384 256 384 L1792 384 Q1819 384 1842 394 Q1865 404 1882.5 421.5 Q1900 439 1910 462 Q1920 485 1920 512 L1920 1536 Q1920 1563 1910 1586 Q1900 1609 1882.5 1626.5 Q1865 1644 1842 1654 Q1819 1664 1792 1664 L256 1664 Z M1280 597 L341 597 Q352 680 392.5 750.5 Q433 821 496 872 Q559 923 639.5 952 Q720 981 811 981 Q902 981 982.5 952 Q1063 923 1126 872 Q1189 821 1229.5 750.5 Q1270 680 1280 597 Z M1792 256 L256 256 Q203 256 156.5 276 Q110 296 75 331 Q40 366 20 412.5 Q0 459 0 512 L0 1536 Q0 1589 20 1635.5 Q40 1682 75 1717 Q110 1752 156.5 1772 Q203 1792 256 1792 L1792 1792 Q1845 1792 1891.5 1772 Q1938 1752 1973 1717 Q2008 1682 2028 1635.5 Q2048 1589 2048 1536 L2048 512 Q2048 459 2028 412.5 Q2008 366 1973 331 Q1938 296 1891.5 276 Q1845 256 1792 256 Z M1707 1024 L1195 1024 L1195 1152 L1707 1152 L1707 1024 Z M1024 1323 Q1024 1279 1007 1240 Q990 1201 961 1172 Q932 1143 893.5 1126 Q855 1109 811 1109 Q767 1109 728 1126 Q689 1143 660 1172 Q631 1201 614 1240 Q597 1279 597 1323 Q597 1367 614 1406 Q631 1445 660 1474 Q689 1503 728 1519.5 Q767 1536 811 1536 Q855 1536 893.5 1519.5 Q932 1503 961 1474 Q990 1445 1007 1406 Q1024 1367 1024 1323 Z M1707 1280 L1195 1280 L1195 1408 L1707 1408 L1707 1280 Z " />
<glyph glyph-name="ContactGroupAdd" unicode="&#xe20a;" horiz-adv-x="2048" d="M128 578 Q128 644 152.5 701.5 Q177 759 219 802.5 Q261 846 317 871 Q373 896 437 896 L459 896 Q523 896 579 871 Q635 846 677 802.5 Q719 759 743.5 701.5 Q768 644 768 578 L768 128 L128 128 L128 578 Z M1216 1408 Q1256 1408 1291 1393 Q1326 1378 1352 1352 Q1378 1326 1393 1291 Q1408 1256 1408 1216 Q1408 1176 1393 1141 Q1378 1106 1352 1080 Q1326 1054 1291 1039 Q1256 1024 1216 1024 Q1176 1024 1141 1039 Q1106 1054 1080 1080 Q1054 1106 1039 1141 Q1024 1176 1024 1216 Q1024 1256 1039 1291 Q1054 1326 1080 1352 Q1106 1378 1141 1393 Q1176 1408 1216 1408 Z M448 1664 Q488 1664 523 1649 Q558 1634 584 1608 Q610 1582 625 1547 Q640 1512 640 1472 Q640 1432 625 1397 Q610 1362 584 1336 Q558 1310 523 1295 Q488 1280 448 1280 Q408 1280 373 1295 Q338 1310 312 1336 Q286 1362 271 1397 Q256 1432 256 1472 Q256 1512 271 1547 Q286 1582 312 1608 Q338 1634 373 1649 Q408 1664 448 1664 Z M437 1024 Q347 1024 267 989 Q187 954 128 893.5 Q69 833 34.5 751.5 Q0 670 0 578 L0 0 L896 0 L896 578 Q896 670 861.5 751.5 Q827 833 768 893.5 Q709 954 629 989 Q549 1024 459 1024 L437 1024 Z M1205 768 Q1109 768 1024 728 L1024 581 Q1062 609 1108 624.5 Q1154 640 1205 640 L1227 640 Q1291 640 1347 615.5 Q1403 591 1445 549 Q1487 507 1511.5 451 Q1536 395 1536 331 L1536 256 L1024 256 L1024 128 L1664 128 L1664 331 Q1664 421 1629.5 501 Q1595 581 1536 640 Q1477 699 1397 733.5 Q1317 768 1227 768 L1205 768 Z M1216 896 Q1282 896 1340.5 921.5 Q1399 947 1442.5 990.5 Q1486 1034 1511 1092 Q1536 1150 1536 1216 Q1536 1282 1511 1340.5 Q1486 1399 1442.5 1442.5 Q1399 1486 1340.5 1511 Q1282 1536 1216 1536 Q1150 1536 1092 1511 Q1034 1486 990.5 1442.5 Q947 1399 921.5 1340.5 Q896 1282 896 1216 Q896 1150 921.5 1092 Q947 1034 990.5 990.5 Q1034 947 1092 921.5 Q1150 896 1216 896 Z M448 1152 Q514 1152 572.5 1177.5 Q631 1203 674.5 1246.5 Q718 1290 743 1348 Q768 1406 768 1472 Q768 1538 743 1596.5 Q718 1655 674.5 1698.5 Q631 1742 572.5 1767 Q514 1792 448 1792 Q382 1792 324 1767 Q266 1742 222.5 1698.5 Q179 1655 153.5 1596.5 Q128 1538 128 1472 Q128 1406 153.5 1348 Q179 1290 222.5 1246.5 Q266 1203 324 1177.5 Q382 1152 448 1152 Z M1664 2005 L1664 1792 L1451 1792 L1451 1664 L1664 1664 L1664 1451 L1792 1451 L1792 1664 L2005 1664 L2005 1792 L1792 1792 L1792 2005 L1664 2005 Z " />
<glyph glyph-name="ContactGroup" unicode="&#xe20b;" horiz-adv-x="2048" d="M725 578 Q725 644 749.5 701.5 Q774 759 816 802.5 Q858 846 914.5 871 Q971 896 1035 896 L1056 896 Q1120 896 1176.5 871 Q1233 846 1275 802.5 Q1317 759 1341 701.5 Q1365 644 1365 578 L1365 128 L725 128 L725 578 Z M384 1024 Q357 1024 334 1034 Q311 1044 293.5 1061.5 Q276 1079 266 1102 Q256 1125 256 1152 Q256 1179 266 1202 Q276 1225 293.5 1242.5 Q311 1260 334 1270 Q357 1280 384 1280 Q411 1280 434 1270 Q457 1260 474.5 1242.5 Q492 1225 502 1202 Q512 1179 512 1152 Q512 1125 502 1102 Q492 1079 474.5 1061.5 Q457 1044 434 1034 Q411 1024 384 1024 Z M1664 1280 Q1691 1280 1714 1270 Q1737 1260 1754.5 1242.5 Q1772 1225 1782 1202 Q1792 1179 1792 1152 Q1792 1125 1782 1102 Q1772 1079 1754.5 1061.5 Q1737 1044 1714 1034 Q1691 1024 1664 1024 Q1637 1024 1614 1034 Q1591 1044 1573.5 1061.5 Q1556 1079 1546 1102 Q1536 1125 1536 1152 Q1536 1179 1546 1202 Q1556 1225 1573.5 1242.5 Q1591 1260 1614 1270 Q1637 1280 1664 1280 Z M1045 1664 Q1085 1664 1120 1649 Q1155 1634 1181 1608 Q1207 1582 1222 1547 Q1237 1512 1237 1472 Q1237 1432 1222 1397 Q1207 1362 1181 1336 Q1155 1310 1120 1295 Q1085 1280 1045 1280 Q1005 1280 970 1295 Q935 1310 909 1336 Q883 1362 868 1397 Q853 1432 853 1472 Q853 1512 868 1547 Q883 1582 909 1608 Q935 1634 970 1649 Q1005 1664 1045 1664 Z M437 768 Q347 768 267 733.5 Q187 699 128 640 Q69 581 34.5 501 Q0 421 0 331 L0 128 L469 128 L469 256 L128 256 L128 331 Q128 395 152.5 451 Q177 507 219 549 Q261 591 317 615.5 Q373 640 437 640 L459 640 Q466 640 469 639 L469 767 Q466 768 459 768 L437 768 Z M1035 1024 Q944 1024 864.5 989 Q785 954 725.5 893.5 Q666 833 631.5 751.5 Q597 670 597 578 L597 0 L1493 0 L1493 578 Q1493 670 1458.5 751.5 Q1424 833 1365 893.5 Q1306 954 1226 989 Q1146 1024 1056 1024 L1035 1024 Z M1621 639 Q1683 637 1737.5 612 Q1792 587 1832.5 545.5 Q1873 504 1896.5 449 Q1920 394 1920 331 L1920 256 L1621 256 L1621 128 L2048 128 L2048 331 Q2048 420 2014.5 498.5 Q1981 577 1923.5 636 Q1866 695 1788 730 Q1710 765 1621 767 L1621 639 Z M384 1408 Q331 1408 284.5 1388 Q238 1368 203 1333 Q168 1298 148 1251.5 Q128 1205 128 1152 Q128 1099 148 1052.5 Q168 1006 203 971 Q238 936 284.5 916 Q331 896 384 896 Q437 896 483.5 916 Q530 936 565 971 Q600 1006 620 1052.5 Q640 1099 640 1152 Q640 1205 620 1251.5 Q600 1298 565 1333 Q530 1368 483.5 1388 Q437 1408 384 1408 Z M1664 896 Q1717 896 1763.5 916 Q1810 936 1845 971 Q1880 1006 1900 1052.5 Q1920 1099 1920 1152 Q1920 1205 1900 1251.5 Q1880 1298 1845 1333 Q1810 1368 1763.5 1388 Q1717 1408 1664 1408 Q1611 1408 1564.5 1388 Q1518 1368 1483 1333 Q1448 1298 1428 1251.5 Q1408 1205 1408 1152 Q1408 1099 1428 1052.5 Q1448 1006 1483 971 Q1518 936 1564.5 916 Q1611 896 1664 896 Z M1045 1152 Q1111 1152 1169.5 1177.5 Q1228 1203 1271.5 1246.5 Q1315 1290 1340 1348 Q1365 1406 1365 1472 Q1365 1538 1340 1596.5 Q1315 1655 1271.5 1698.5 Q1228 1742 1169.5 1767 Q1111 1792 1045 1792 Q979 1792 921 1767 Q863 1742 819.5 1698.5 Q776 1655 750.5 1596.5 Q725 1538 725 1472 Q725 1406 750.5 1348 Q776 1290 819.5 1246.5 Q863 1203 921 1177.5 Q979 1152 1045 1152 Z " />
<glyph glyph-name="BlockNotification" unicode="&#xe20d;" horiz-adv-x="2048" d="M1024 1877 Q906 1877 797 1846.5 Q688 1816 593.5 1760.5 Q499 1705 421 1627 Q343 1549 287.5 1454.5 Q232 1360 201.5 1251 Q171 1142 171 1024 Q171 906 201.5 797 Q232 688 287.5 593.5 Q343 499 421 421 Q499 343 593.5 287.5 Q688 232 797 201.5 Q906 171 1024 171 Q1142 171 1251 201.5 Q1360 232 1454.5 287.5 Q1549 343 1627 421 Q1705 499 1760.5 593.5 Q1816 688 1846.5 797 Q1877 906 1877 1024 Q1877 1142 1846.5 1251 Q1816 1360 1760.5 1454.5 Q1705 1549 1627 1627 Q1549 1705 1454.5 1760.5 Q1360 1816 1251 1846.5 Q1142 1877 1024 1877 Z M341 1024 Q341 1165 395 1289.5 Q449 1414 541.5 1506.5 Q634 1599 758.5 1653 Q883 1707 1024 1707 Q1163 1707 1283.5 1655.5 Q1404 1604 1497 1515 L533 551 Q444 644 392.5 764.5 Q341 885 341 1024 Z M1024 341 Q902 341 793 381 Q684 421 596 493 L1555 1452 Q1627 1364 1667 1255 Q1707 1146 1707 1024 Q1707 883 1653 758.5 Q1599 634 1506.5 541.5 Q1414 449 1289.5 395 Q1165 341 1024 341 Z " />
<glyph glyph-name="ContactGroupCall" unicode="&#xe212;" horiz-adv-x="2048" d="M128 578 Q128 644 152.5 701.5 Q177 759 219 802.5 Q261 846 317 871 Q373 896 437 896 L459 896 Q523 896 579 871 Q635 846 677 802.5 Q719 759 743.5 701.5 Q768 644 768 578 L768 128 L128 128 L128 578 Z M1024 1216 Q1024 1256 1039 1291 Q1054 1326 1080 1352 Q1106 1378 1141 1393 Q1176 1408 1216 1408 Q1256 1408 1291 1393 Q1326 1378 1352 1352 Q1378 1326 1393 1291 Q1408 1256 1408 1216 Q1408 1176 1393 1141 Q1378 1106 1352 1080 Q1326 1054 1291 1039 Q1256 1024 1216 1024 Q1176 1024 1141 1039 Q1106 1054 1080 1080 Q1054 1106 1039 1141 Q1024 1176 1024 1216 Z M448 1664 Q488 1664 523 1649 Q558 1634 584 1608 Q610 1582 625 1547 Q640 1512 640 1472 Q640 1432 625 1397 Q610 1362 584 1336 Q558 1310 523 1295 Q488 1280 448 1280 Q408 1280 373 1295 Q338 1310 312 1336 Q286 1362 271 1397 Q256 1432 256 1472 Q256 1512 271 1547 Q286 1582 312 1608 Q338 1634 373 1649 Q408 1664 448 1664 Z M437 1024 Q347 1024 267 989 Q187 954 128 893.5 Q69 833 34.5 751.5 Q0 670 0 578 L0 0 L896 0 L896 640 Q884 720 845.5 790 Q807 860 749 912 Q691 964 616.5 994 Q542 1024 459 1024 L437 1024 Z M1205 768 Q1109 768 1024 728 L1024 581 Q1062 609 1108 624.5 Q1154 640 1205 640 L1227 640 Q1291 640 1347 615.5 Q1403 591 1445 549 Q1487 507 1511.5 451 Q1536 395 1536 331 L1536 256 L1024 256 L1024 128 L1664 128 L1664 331 Q1664 421 1629.5 501 Q1595 581 1536 640 Q1477 699 1397 733.5 Q1317 768 1227 768 L1205 768 Z M1536 1216 Q1536 1282 1511 1340.5 Q1486 1399 1442.5 1442.5 Q1399 1486 1340.5 1511 Q1282 1536 1216 1536 Q1150 1536 1092 1511 Q1034 1486 990.5 1442.5 Q947 1399 921.5 1340.5 Q896 1282 896 1216 Q896 1150 921.5 1092 Q947 1034 990.5 990.5 Q1034 947 1092 921.5 Q1150 896 1216 896 Q1282 896 1340.5 921.5 Q1399 947 1442.5 990.5 Q1486 1034 1511 1092 Q1536 1150 1536 1216 Z M448 1152 Q514 1152 572.5 1177.5 Q631 1203 674.5 1246.5 Q718 1290 743 1348 Q768 1406 768 1472 Q768 1538 743 1596.5 Q718 1655 674.5 1698.5 Q631 1742 572.5 1767 Q514 1792 448 1792 Q382 1792 324 1767 Q266 1742 222.5 1698.5 Q179 1655 153.5 1596.5 Q128 1538 128 1472 Q128 1406 153.5 1348 Q179 1290 222.5 1246.5 Q266 1203 324 1177.5 Q382 1152 448 1152 Z M1917 1582 Q1898 1601 1868.5 1618 Q1839 1635 1806 1635 Q1789 1635 1768 1627 L1735 1613 Q1732 1611 1725 1611 Q1712 1611 1706 1620 L1617 1738 Q1612 1745 1613 1753 Q1614 1761 1620 1766 L1646 1790 Q1661 1805 1667.5 1823.5 Q1674 1842 1673 1861.5 Q1672 1881 1666 1900.5 Q1660 1920 1651 1936 L1636 1964 Q1625 1984 1605.5 1994.5 Q1586 2005 1564 2005 Q1546 2005 1531 1999 L1492 1983 Q1475 1975 1464 1960.5 Q1453 1946 1452 1928 Q1446 1840 1470.5 1759 Q1495 1678 1549 1606 Q1603 1534 1676.5 1484.5 Q1750 1435 1841 1411 Q1852 1408 1861 1408 Q1889 1408 1910 1427 L1940 1455 Q1963 1477 1963 1506.5 Q1963 1536 1941 1559 L1917 1582 Z " />
<glyph glyph-name="ContactGroupPair" unicode="&#xe214;" horiz-adv-x="2048" d="M256 706 Q256 772 280.5 829.5 Q305 887 347 930.5 Q389 974 445 999 Q501 1024 565 1024 L587 1024 Q651 1024 707 999 Q763 974 805 930.5 Q847 887 871.5 829.5 Q896 772 896 706 L896 256 L256 256 L256 706 Z M1387 1536 Q1427 1536 1462 1521 Q1497 1506 1523 1480 Q1549 1454 1564 1419 Q1579 1384 1579 1344 Q1579 1304 1564 1269 Q1549 1234 1523 1208 Q1497 1182 1462 1167 Q1427 1152 1387 1152 Q1347 1152 1312 1167 Q1277 1182 1251 1208 Q1225 1234 1210 1269 Q1195 1304 1195 1344 Q1195 1384 1210 1419 Q1225 1454 1251 1480 Q1277 1506 1312 1521 Q1347 1536 1387 1536 Z M576 1792 Q616 1792 651 1777 Q686 1762 712 1736 Q738 1710 753 1675 Q768 1640 768 1600 Q768 1560 753 1525 Q738 1490 712 1464 Q686 1438 651 1423 Q616 1408 576 1408 Q536 1408 501 1423 Q466 1438 440 1464 Q414 1490 399 1525 Q384 1560 384 1600 Q384 1640 399 1675 Q414 1710 440 1736 Q466 1762 501 1777 Q536 1792 576 1792 Z M565 1152 Q475 1152 395 1117 Q315 1082 256 1021.5 Q197 961 162.5 879.5 Q128 798 128 706 L128 128 L1024 128 L1024 717 Q1022 807 986.5 886.5 Q951 966 892 1025 Q833 1084 754.5 1118 Q676 1152 587 1152 L565 1152 Z M1376 896 Q1314 896 1258 879.5 Q1202 863 1152 834 L1152 671 Q1194 716 1252 742 Q1310 768 1376 768 L1398 768 Q1462 768 1518 743.5 Q1574 719 1616 677 Q1658 635 1682.5 579 Q1707 523 1707 459 L1707 256 L1152 256 L1152 128 L1835 128 L1835 459 Q1835 549 1800.5 629 Q1766 709 1707 768 Q1648 827 1568 861.5 Q1488 896 1398 896 L1376 896 Z M1387 1024 Q1453 1024 1511.5 1049.5 Q1570 1075 1613.5 1118.5 Q1657 1162 1682 1220 Q1707 1278 1707 1344 Q1707 1410 1682 1468.5 Q1657 1527 1613.5 1570.5 Q1570 1614 1511.5 1639 Q1453 1664 1387 1664 Q1321 1664 1262.5 1639 Q1204 1614 1160.5 1570.5 Q1117 1527 1092 1468.5 Q1067 1410 1067 1344 Q1067 1278 1092 1220 Q1117 1162 1160.5 1118.5 Q1204 1075 1262.5 1049.5 Q1321 1024 1387 1024 Z M576 1280 Q642 1280 700.5 1305.5 Q759 1331 802.5 1374.5 Q846 1418 871 1476 Q896 1534 896 1600 Q896 1666 871 1724.5 Q846 1783 802.5 1826.5 Q759 1870 700.5 1895 Q642 1920 576 1920 Q510 1920 452 1895 Q394 1870 350.5 1826.5 Q307 1783 281.5 1724.5 Q256 1666 256 1600 Q256 1534 281.5 1476 Q307 1418 350.5 1374.5 Q394 1331 452 1305.5 Q510 1280 576 1280 Z " />
<glyph glyph-name="HighlightAdd" unicode="&#xe215;" horiz-adv-x="2048" d="M832 200 L213 853 L1451 853 L832 200 Z M168 978 L340 1323 L852 1323 L1024 978 L168 978 Z M1260 978 L1167 978 L995 1323 L1088 1323 L1260 978 Z M1324 1323 L1496 978 L1403 978 L1231 1323 L1324 1323 Z M7 943 Q-3 924 0.5 904 Q4 884 18 870 L786 63 L878 63 L1646 870 Q1660 884 1663.5 904 Q1667 924 1657 943 L1403 1451 L261 1451 L7 943 Z M1621 1963 L1621 1749 L1408 1749 L1408 1621 L1621 1621 L1621 1408 L1749 1408 L1749 1621 L1963 1621 L1963 1749 L1749 1749 L1749 1963 L1621 1963 Z " />
<glyph glyph-name="Bot" unicode="&#xe21a;" horiz-adv-x="2048" d="M1152 640 L768 640 L768 768 L1152 768 L1152 640 Z M580 896 Q552 896 532 916 Q512 936 512 964 L512 1340 Q512 1368 532 1388 Q552 1408 580 1408 L1340 1408 Q1368 1408 1388 1388 Q1408 1368 1408 1340 L1408 964 Q1408 936 1388 916 Q1368 896 1340 896 L580 896 Z M960 1899 Q978 1899 990.5 1886.5 Q1003 1874 1003 1856 Q1003 1838 990.5 1825.5 Q978 1813 960 1813 Q942 1813 929.5 1825.5 Q917 1838 917 1856 Q917 1874 929.5 1886.5 Q942 1899 960 1899 Z M1340 768 Q1381 768 1416.5 783.5 Q1452 799 1478.5 825.5 Q1505 852 1520.5 888 Q1536 924 1536 964 L1536 1024 L1664 1024 L1664 1280 L1536 1280 L1536 1340 Q1536 1381 1520.5 1416.5 Q1505 1452 1478.5 1478.5 Q1452 1505 1416.5 1520.5 Q1381 1536 1340 1536 L1024 1536 L1024 1746 Q1053 1763 1070.5 1792 Q1088 1821 1088 1856 Q1088 1883 1078 1906 Q1068 1929 1050.5 1946.5 Q1033 1964 1010 1974 Q987 1984 960 1984 Q933 1984 910 1974 Q887 1964 869.5 1946.5 Q852 1929 842 1906 Q832 1883 832 1856 Q832 1821 849.5 1792 Q867 1763 896 1746 L896 1536 L580 1536 Q540 1536 504 1520.5 Q468 1505 441.5 1478.5 Q415 1452 399.5 1416.5 Q384 1381 384 1340 L384 1280 L256 1280 L256 1024 L384 1024 L384 964 Q384 924 399.5 888 Q415 852 441.5 825.5 Q468 799 504 783.5 Q540 768 580 768 L640 768 L640 640 L324 640 Q284 640 248 624.5 Q212 609 185.5 582.5 Q159 556 143.5 520.5 Q128 485 128 444 L128 3 L256 3 L256 444 Q256 472 276 492 Q296 512 324 512 L1596 512 Q1624 512 1644 492 Q1664 472 1664 444 L1664 1 L1792 1 L1792 444 Q1792 485 1776.5 520.5 Q1761 556 1734.5 582.5 Q1708 609 1672.5 624.5 Q1637 640 1596 640 L1280 640 L1280 768 L1340 768 Z M640 1280 L640 1152 L768 1152 L768 1280 L640 1280 Z M1280 1152 L1280 1280 L1152 1280 L1152 1152 L1280 1152 Z " />
<glyph glyph-name="BotAdd" unicode="&#xe21b;" horiz-adv-x="2048" d="M1152 640 L768 640 L768 768 L1152 768 L1152 640 Z M580 896 Q552 896 532 916 Q512 936 512 964 L512 1340 Q512 1368 532 1388 Q552 1408 580 1408 L1340 1408 Q1368 1408 1388 1388 Q1408 1368 1408 1340 L1408 964 Q1408 936 1388 916 Q1368 896 1340 896 L580 896 Z M960 1899 Q978 1899 990.5 1886.5 Q1003 1874 1003 1856 Q1003 1838 990.5 1825.5 Q978 1813 960 1813 Q942 1813 929.5 1825.5 Q917 1838 917 1856 Q917 1874 929.5 1886.5 Q942 1899 960 1899 Z M1340 768 Q1381 768 1416.5 783.5 Q1452 799 1478.5 825.5 Q1505 852 1520.5 888 Q1536 924 1536 964 L1536 1024 L1664 1024 L1664 1280 L1536 1280 L1536 1340 Q1536 1381 1520.5 1416.5 Q1505 1452 1478.5 1478.5 Q1452 1505 1416.5 1520.5 Q1381 1536 1340 1536 L1024 1536 L1024 1746 Q1053 1763 1070.5 1792 Q1088 1821 1088 1856 Q1088 1883 1078 1906 Q1068 1929 1050.5 1946.5 Q1033 1964 1010 1974 Q987 1984 960 1984 Q933 1984 910 1974 Q887 1964 869.5 1946.5 Q852 1929 842 1906 Q832 1883 832 1856 Q832 1821 849.5 1792 Q867 1763 896 1746 L896 1536 L580 1536 Q540 1536 504 1520.5 Q468 1505 441.5 1478.5 Q415 1452 399.5 1416.5 Q384 1381 384 1340 L384 1280 L256 1280 L256 1024 L384 1024 L384 964 Q384 924 399.5 888 Q415 852 441.5 825.5 Q468 799 504 783.5 Q540 768 580 768 L640 768 L640 640 L324 640 Q284 640 248 624.5 Q212 609 185.5 582.5 Q159 556 143.5 520.5 Q128 485 128 444 L128 3 L256 3 L256 444 Q256 472 276 492 Q296 512 324 512 L1596 512 Q1624 512 1644 492 Q1664 472 1664 444 L1664 1 L1792 1 L1792 444 Q1792 485 1776.5 520.5 Q1761 556 1734.5 582.5 Q1708 609 1672.5 624.5 Q1637 640 1596 640 L1280 640 L1280 768 L1340 768 Z M640 1280 L640 1152 L768 1152 L768 1280 L640 1280 Z M1280 1152 L1280 1280 L1152 1280 L1152 1152 L1280 1152 Z M1664 2005 L1664 1792 L1451 1792 L1451 1664 L1664 1664 L1664 1451 L1792 1451 L1792 1664 L2005 1664 L2005 1792 L1792 1792 L1792 2005 L1664 2005 Z " />
<glyph glyph-name="QR" unicode="&#xe21e;" horiz-adv-x="2048" d="M768 768 L256 768 L256 256 L768 256 L768 768 Z M1280 512 L1280 384 L1536 384 L1536 512 L1280 512 Z M1536 384 L1536 256 L1792 256 L1792 512 L1664 512 L1664 384 L1536 384 Z M1408 768 L1280 768 L1280 640 L1408 640 L1408 768 Z M1664 768 L1536 768 L1536 512 L1664 512 L1664 768 Z M768 1792 L256 1792 L256 1280 L768 1280 L768 1792 Z M1280 1280 L1792 1280 L1792 1792 L1280 1792 L1280 1280 Z M896 128 L128 128 L128 896 L896 896 L896 128 Z M640 384 L384 384 L384 640 L640 640 L640 384 Z M1152 384 L1152 512 L1280 512 L1280 640 L1152 640 L1152 896 L1408 896 L1408 768 L1536 768 L1536 896 L1664 896 L1664 768 L1792 768 L1792 896 L1920 896 L1920 640 L1792 640 L1792 512 L1920 512 L1920 256 L1792 256 L1792 128 L1536 128 L1536 256 L1408 256 L1408 128 L1152 128 L1152 256 L1280 256 L1280 384 L1152 384 Z M896 1152 L128 1152 L128 1920 L896 1920 L896 1152 Z M640 1408 L384 1408 L384 1664 L640 1664 L640 1408 Z M1152 1152 L1152 1920 L1920 1920 L1920 1152 L1152 1152 Z M1408 1664 L1664 1664 L1664 1408 L1408 1408 L1408 1664 Z " />
<glyph glyph-name="StarFilled" unicode="&#xe220;" horiz-adv-x="2048" d="M1950 1230 Q1939 1265 1911.5 1288.5 Q1884 1312 1847 1318 L1358 1389 L1139 1832 Q1122 1865 1091.5 1884 Q1061 1903 1024 1903 Q987 1903 956.5 1884 Q926 1865 909 1832 L690 1389 L201 1318 Q164 1312 136.5 1288.5 Q109 1265 98 1230 Q87 1195 95.5 1160 Q104 1125 130 1099 L484 754 L401 267 Q394 230 408 196.5 Q422 163 452 141 Q485 117 527 117 Q558 117 586 132 L1024 362 L1462 132 Q1491 117 1521 117 Q1563 117 1597 141 Q1626 163 1640 196.5 Q1654 230 1647 267 L1564 754 L1918 1099 Q1944 1125 1953 1160 Q1962 1195 1950 1230 Z " />
</font>
</svg>
