<?xml version="1.0" encoding="UTF-8"?>
<svg xmlns="http://www.w3.org/2000/svg" xmlns:xlink="http://www.w3.org/1999/xlink" version="1.2" >
<font id="Skype Assets Light-web">
<font-face  font-family="Skype Assets-web" units-per-em="2048" ascent="2048" descent="0" font-style="normal" font-weight="300" font-stretch="normal" cap-height="2040" x-height="1024" underline-position="-237" underline-thickness="119" />
<missing-glyph  horiz-adv-x="1322" d="M1156 -410 L166 -410 L166 988 L1156 988 L1156 -410 Z M1008 -262 L1008 840 L314 840 L314 -262 L1008 -262 Z " />
<glyph glyph-name="null" d="" />
<glyph glyph-name="nonmarkingreturn" unicode="&#xd;" horiz-adv-x="512" d="" />
<glyph glyph-name="&amp;#x9;" unicode="&#x9;" horiz-adv-x="683" d="" />
<glyph glyph-name="&amp;#x20;" unicode="&#x20;" horiz-adv-x="683" d="" />
<glyph glyph-name="CallDisabled" unicode="&#xe117;" horiz-adv-x="2048" d="M674 940 Q586 1106 548.5 1276 Q511 1446 511 1633 Q511 1665 517.5 1693 Q524 1721 554 1738 Q566 1745 585.5 1754.5 Q605 1764 626.5 1773 Q648 1782 668 1788.5 Q688 1795 701 1795 Q731 1795 753 1780.5 Q775 1766 789 1741 Q806 1712 822.5 1680 Q839 1648 851.5 1614.5 Q864 1581 872 1546.5 Q880 1512 880 1478 Q880 1439 867.5 1411 Q855 1383 836.5 1360.5 Q818 1338 796.5 1318.5 Q775 1299 756.5 1276.5 Q738 1254 725.5 1225.5 Q713 1197 713 1156 Q713 1118 725.5 1087.5 Q738 1057 760 1027 L852 1119 Q841 1136 841 1156 Q841 1175 853.5 1192 Q866 1209 884.5 1227 Q903 1245 924.5 1267 Q946 1289 964.5 1318.5 Q983 1348 995.5 1386 Q1008 1424 1008 1476 Q1008 1539 991 1598.5 Q974 1658 946 1714 Q925 1756 904 1794 Q883 1832 856 1860.5 Q829 1889 792 1906 Q755 1923 701 1923 Q675 1923 649 1916.5 Q623 1910 598 1900 Q573 1890 548.5 1878 Q524 1866 501 1855 Q458 1834 434 1805.5 Q410 1777 399 1743 Q388 1709 386 1670 Q384 1631 384 1588 Q384 1392 433.5 1204.5 Q483 1017 580 846 L674 940 Z M1984 2048 Q1958 2048 1939 2029 L19 109 Q0 90 0 64 Q0 38 19 19 Q38 0 64 0 Q90 0 109 19 L724 634 Q870 453 1061 326 Q1252 199 1476 133 Q1506 125 1533 125 Q1571 125 1601.5 138 Q1632 151 1658 171 Q1684 191 1707 216.5 Q1730 242 1754 267 Q1785 300 1801.5 340 Q1818 380 1818 425 Q1818 464 1807.5 494.5 Q1797 525 1779.5 551 Q1762 577 1739 600.5 Q1716 624 1691 650 Q1661 682 1624.5 710 Q1588 738 1548 759 Q1508 780 1464.5 792.5 Q1421 805 1376 805 Q1340 805 1307.5 794.5 Q1275 784 1246.5 771 Q1218 758 1194.5 747.5 Q1171 737 1154 737 Q1138 737 1123.5 744.5 Q1109 752 1100 765 L999 909 L2029 1939 Q2048 1958 2048 1984 Q2048 2010 2029 2029 Q2010 2048 1984 2048 Z M1154 609 Q1184 609 1211.5 619.5 Q1239 630 1265.5 643 Q1292 656 1319 666.5 Q1346 677 1376 677 Q1408 677 1438.5 667.5 Q1469 658 1497.5 642 Q1526 626 1551 605 Q1576 584 1598 562 Q1612 548 1628 533 Q1644 518 1657.5 501 Q1671 484 1680.5 465 Q1690 446 1690 425 Q1690 404 1683 388 Q1676 372 1662 356 Q1652 344 1636.5 326.5 Q1621 309 1603.5 292.5 Q1586 276 1567.5 264.5 Q1549 253 1533 253 Q1523 253 1512 256 Q1305 316 1127.5 436 Q950 556 816 725 L907 817 Q931 783 954.5 746 Q978 709 1006 678.5 Q1034 648 1069.5 628.5 Q1105 609 1154 609 Z " />
<glyph glyph-name="ShareIOS" unicode="&#xe122;" horiz-adv-x="2048" d="M768 1536 Q794 1536 813 1555 L1024 1766 L1024 704 Q1024 678 1043 659 Q1062 640 1088 640 Q1114 640 1133 659 Q1152 678 1152 704 L1152 1764 L1359 1555 Q1378 1536 1404 1536 Q1430 1536 1449 1555 Q1468 1574 1468 1600 Q1468 1627 1450 1645 L1136 1962 Q1126 1972 1113.5 1978 Q1101 1984 1087 1984 Q1061 1984 1042 1965 L723 1645 Q704 1626 704 1600 Q704 1574 723 1555 Q742 1536 768 1536 Z M1472 1408 Q1446 1408 1427 1389 Q1408 1370 1408 1344 Q1408 1313 1425.5 1299 Q1443 1285 1468.5 1281 Q1494 1277 1521.5 1279 Q1549 1281 1570 1281 Q1588 1281 1604.5 1279 Q1621 1277 1634.5 1270.5 Q1648 1264 1656 1251 Q1664 1238 1664 1216 L1664 192 Q1664 166 1645 147 Q1626 128 1600 128 L576 128 Q550 128 531 147 Q512 166 512 192 L512 1216 Q512 1248 529.5 1261.5 Q547 1275 572.5 1279 Q598 1283 625.5 1281 Q653 1279 674 1279 Q692 1279 708.5 1281 Q725 1283 738.5 1290 Q752 1297 760 1309.5 Q768 1322 768 1344 Q768 1370 749 1389 Q730 1408 704 1408 L576 1408 Q536 1408 501 1393 Q466 1378 440 1352 Q414 1326 399 1291 Q384 1256 384 1216 L384 192 Q384 152 399 117 Q414 82 440 56 Q466 30 501 15 Q536 0 576 0 L1600 0 Q1640 0 1675 15 Q1710 30 1736 56 Q1762 82 1777 117 Q1792 152 1792 192 L1792 1216 Q1792 1256 1777 1291 Q1762 1326 1736 1352 Q1710 1378 1675 1393 Q1640 1408 1600 1408 L1472 1408 Z " />
<glyph glyph-name="Contact" unicode="&#xe200;" horiz-adv-x="2048" d="M1024 1152 Q1103 1152 1173 1182.5 Q1243 1213 1295 1265 Q1347 1317 1377.5 1387 Q1408 1457 1408 1536 Q1408 1615 1377.5 1685 Q1347 1755 1295 1807 Q1243 1859 1173 1889.5 Q1103 1920 1024 1920 Q945 1920 875 1889.5 Q805 1859 753 1807 Q701 1755 670.5 1685 Q640 1615 640 1536 Q640 1457 670.5 1387 Q701 1317 753 1265 Q805 1213 875 1182.5 Q945 1152 1024 1152 Z M1024 1792 Q1077 1792 1123.5 1772 Q1170 1752 1205 1717 Q1240 1682 1260 1635.5 Q1280 1589 1280 1536 Q1280 1483 1260 1436.5 Q1240 1390 1205 1355 Q1170 1320 1123.5 1300 Q1077 1280 1024 1280 Q971 1280 924.5 1300 Q878 1320 843 1355 Q808 1390 788 1436.5 Q768 1483 768 1536 Q768 1589 788 1635.5 Q808 1682 843 1717 Q878 1752 924.5 1772 Q971 1792 1024 1792 Z M1024 1024 Q867 1024 731 973 Q595 922 490 829.5 Q385 737 315 609 Q245 481 221 327 Q218 309 216 291.5 Q214 274 212 256 L1836 256 Q1834 274 1832.5 291.5 Q1831 309 1828 327 Q1805 480 1735 608.5 Q1665 737 1559 829 Q1453 921 1316.5 972.5 Q1180 1024 1024 1024 Z M360 384 Q387 499 450.5 593 Q514 687 602.5 754.5 Q691 822 799 859 Q907 896 1024 896 Q1141 896 1249 859 Q1357 822 1445.5 754.5 Q1534 687 1597.5 593 Q1661 499 1688 384 L360 384 Z " />
<glyph glyph-name="Topic" unicode="&#xe40d;" horiz-adv-x="2048" d="M1920 1632 Q1920 1692 1897.5 1744.5 Q1875 1797 1836 1836 Q1797 1875 1744.5 1897.5 Q1692 1920 1632 1920 Q1575 1920 1522 1898.5 Q1469 1877 1428 1836 L275 685 Q265 675 258 658 Q253 647 241.5 610 Q230 573 215.5 524 Q201 475 185.5 420 Q170 365 157.5 317 Q145 269 136.5 234.5 Q128 200 128 192 Q128 166 147 147 Q166 128 192 128 Q200 128 234.5 136.5 Q269 145 317 157.5 Q365 170 420 185.5 Q475 201 524 215.5 Q573 230 610 241.5 Q647 253 658 258 Q675 265 685 275 L1836 1428 Q1877 1469 1898.5 1522 Q1920 1575 1920 1632 Z M451 680 L1345 1572 L1572 1345 L680 451 Q651 531 591 591 Q531 651 451 680 Z M367 571 Q406 564 440 545.5 Q474 527 500.5 500.5 Q527 474 545.5 440 Q564 406 571 367 L285 285 L367 571 Z M1662 1436 L1436 1662 Q1457 1683 1478 1706 Q1499 1729 1522 1747.5 Q1545 1766 1571.5 1778 Q1598 1790 1632 1790 Q1665 1790 1694.5 1778 Q1724 1766 1745.5 1744.5 Q1767 1723 1779.5 1694 Q1792 1665 1792 1632 Q1792 1599 1779.5 1572 Q1767 1545 1748 1522 Q1729 1499 1706 1478 Q1683 1457 1662 1436 Z " />
<glyph glyph-name="ChevronDown" unicode="&#xe70d;" horiz-adv-x="2048" d="M1024 384 Q998 384 980 402 L104 1261 Q85 1278 85 1304 Q85 1330 103.5 1347.5 Q122 1365 148 1365 Q174 1365 192 1347 L1024 532 L1856 1347 Q1874 1365 1900 1365 Q1926 1365 1944.5 1347.5 Q1963 1330 1963 1304 Q1963 1278 1944 1261 L1068 402 Q1060 393 1048 388.5 Q1036 384 1024 384 Z " />
<glyph glyph-name="ChevronUp" unicode="&#xe70e;" horiz-adv-x="2048" d="M1024 1664 Q1036 1664 1048 1659.5 Q1060 1655 1068 1646 L1944 787 Q1963 770 1963 744 Q1963 718 1944.5 700.5 Q1926 683 1900 683 Q1874 683 1856 701 L1024 1516 L192 701 Q174 683 148 683 Q122 683 103.5 700.5 Q85 718 85 744 Q85 770 104 787 L980 1646 Q998 1664 1024 1664 Z " />
<glyph glyph-name="ChevronLeft" unicode="&#xe76b;" horiz-adv-x="2048" d="M384 1024 Q384 1036 388.5 1048 Q393 1060 402 1068 L1261 1944 Q1278 1963 1304 1963 Q1330 1963 1347.5 1944.5 Q1365 1926 1365 1900 Q1365 1874 1347 1856 L532 1024 L1347 192 Q1365 174 1365 148 Q1365 122 1347.5 103.5 Q1330 85 1304 85 Q1278 85 1261 104 L402 980 Q384 998 384 1024 Z " />
<glyph glyph-name="ChevronRight" unicode="&#xe76c;" horiz-adv-x="2048" d="M1664 1024 Q1664 998 1646 980 L787 104 Q770 85 744 85 Q718 85 700.5 103.5 Q683 122 683 148 Q683 174 701 192 L1516 1024 L701 1856 Q683 1874 683 1900 Q683 1926 700.5 1944.5 Q718 1963 744 1963 Q770 1963 787 1944 L1646 1068 Q1664 1050 1664 1024 Z " />
<glyph glyph-name="NavigationClose" unicode="&#xe711;" horiz-adv-x="2048" d="M1115 1024 L1658 1567 Q1676 1585 1676 1612 Q1676 1639 1657 1657.5 Q1638 1676 1612 1676 Q1585 1676 1567 1658 L1024 1115 L481 1658 Q463 1676 436 1676 Q410 1676 391 1657.5 Q372 1639 372 1612 Q372 1585 390 1567 L934 1024 L390 481 Q372 463 372 436 Q372 410 390.5 391 Q409 372 436 372 Q461 372 481 390 L1024 934 L1567 390 Q1587 372 1612 372 Q1639 372 1657.5 391 Q1676 410 1676 436 Q1676 463 1658 481 L1115 1024 Z " />
<glyph glyph-name="Globe" unicode="&#xe505;" horiz-adv-x="2048" d="M2005 1003 Q2005 1135 1970.5 1257 Q1936 1379 1873 1486 Q1810 1593 1722.5 1681 Q1635 1769 1528 1832.5 Q1421 1896 1299 1930.5 Q1177 1965 1045 1965 Q914 1965 791.5 1930 Q669 1895 562.5 1832 Q456 1769 368 1681 Q280 1593 217 1486 Q154 1379 119.5 1256.5 Q85 1134 85 1003 Q85 872 119.5 749.5 Q154 627 217 520 Q280 413 367.5 325 Q455 237 562 173.5 Q669 110 791 75.5 Q913 41 1045 41 Q1177 41 1299 75.5 Q1421 110 1528 173.5 Q1635 237 1722.5 325 Q1810 413 1873 520 Q1936 627 1970.5 749.5 Q2005 872 2005 1003 Z M1045 173 Q1011 173 980.5 200 Q950 227 924.5 270 Q899 313 878 366 Q857 419 841.5 470.5 Q826 522 815.5 567.5 Q805 613 800 640 L1291 640 Q1286 613 1275.5 567.5 Q1265 522 1249.5 470.5 Q1234 419 1213 366 Q1192 313 1166.5 270 Q1141 227 1110.5 200 Q1080 173 1045 173 Z M782 768 Q770 885 770 1003 Q770 1120 782 1237 L1308 1237 Q1314 1178 1317.5 1120 Q1321 1062 1321 1003 Q1321 943 1317.5 885 Q1314 827 1308 768 L782 768 Z M1045 1833 Q1080 1833 1110.5 1806 Q1141 1779 1166.5 1736 Q1192 1693 1213 1640 Q1234 1587 1249.5 1535 Q1265 1483 1275.5 1437.5 Q1286 1392 1291 1365 L800 1365 Q805 1392 815.5 1437.5 Q826 1483 841.5 1535 Q857 1587 878 1640 Q899 1693 924.5 1736 Q950 1779 980.5 1806 Q1011 1833 1045 1833 Z M1441 1237 L1843 1237 Q1860 1180 1868.5 1121.5 Q1877 1063 1877 1003 Q1877 943 1868.5 884 Q1860 825 1843 768 L1441 768 Q1453 885 1453 1003 Q1453 1120 1441 1237 Z M1793 1365 L1424 1365 Q1406 1476 1372.5 1589.5 Q1339 1703 1280 1800 Q1364 1775 1440 1733.5 Q1516 1692 1582 1636 Q1648 1580 1701.5 1511.5 Q1755 1443 1793 1365 Z M810 1800 Q751 1703 718 1589.5 Q685 1476 667 1365 L298 1365 Q336 1443 389.5 1511.5 Q443 1580 508.5 1636 Q574 1692 650 1733.5 Q726 1775 810 1800 Z M249 1244 Q258 1240 286.5 1238 Q315 1236 354 1235.5 Q393 1235 438 1235 Q483 1235 524.5 1235.5 Q566 1236 599.5 1236.5 Q633 1237 650 1237 Q638 1120 638 1003 Q638 885 650 768 Q595 768 541 769 Q487 770 432 770 Q421 770 394 770 Q367 770 338 769.5 Q309 769 283.5 767 Q258 765 249 761 Q232 820 222.5 880.5 Q213 941 213 1003 Q213 1065 222.5 1125 Q232 1185 249 1244 Z M298 640 L667 640 Q685 529 718 415.5 Q751 302 810 205 Q726 230 650 271.5 Q574 313 508.5 369 Q443 425 389.5 493.5 Q336 562 298 640 Z M1280 205 Q1339 302 1372.5 415.5 Q1406 529 1424 640 L1793 640 Q1755 562 1701.5 493.5 Q1648 425 1582 369 Q1516 313 1440 271.5 Q1364 230 1280 205 Z " />
<glyph glyph-name="ContactFilled" unicode="&#xe5ae;" horiz-adv-x="2048" d="M1024 1152 Q1103 1152 1173 1182.5 Q1243 1213 1295 1265 Q1347 1317 1377.5 1387 Q1408 1457 1408 1536 Q1408 1615 1377.5 1685 Q1347 1755 1295 1807 Q1243 1859 1173 1889.5 Q1103 1920 1024 1920 Q945 1920 875 1889.5 Q805 1859 753 1807 Q701 1755 670.5 1685 Q640 1615 640 1536 Q640 1457 670.5 1387 Q701 1317 753 1265 Q805 1213 875 1182.5 Q945 1152 1024 1152 Z M1024 1024 Q866 1024 730.5 973 Q595 922 490.5 829.5 Q386 737 316.5 609 Q247 481 221 327 Q218 309 216 291.5 Q214 274 212 256 L1836 256 Q1834 274 1832.5 291.5 Q1831 309 1828 327 Q1804 481 1734 609 Q1664 737 1558.5 829.5 Q1453 922 1317 973 Q1181 1024 1024 1024 Z " />
<glyph glyph-name="Privacy" unicode="&#xe609;" horiz-adv-x="2048" d="M1024 960 Q984 960 949 945 Q914 930 888 904 Q862 878 847 843 Q832 808 832 768 Q832 738 841.5 709.5 Q851 681 867.5 657.5 Q884 634 908 616 Q932 598 960 588 L960 384 L1088 384 L1088 588 Q1117 598 1140.5 616 Q1164 634 1180.5 657.5 Q1197 681 1206.5 709.5 Q1216 738 1216 768 Q1216 808 1201 843 Q1186 878 1160 904 Q1134 930 1099 945 Q1064 960 1024 960 Z M1024 704 Q998 704 979 723 Q960 742 960 768 Q960 794 979 813 Q998 832 1024 832 Q1050 832 1069 813 Q1088 794 1088 768 Q1088 742 1069 723 Q1050 704 1024 704 Z M1536 1280 L1536 1536 Q1536 1642 1495.5 1735 Q1455 1828 1385.5 1897.5 Q1316 1967 1223 2007.5 Q1130 2048 1024 2048 Q918 2048 825 2007.5 Q732 1967 662.5 1897.5 Q593 1828 552.5 1735 Q512 1642 512 1536 L512 1280 L448 1280 Q411 1280 376 1266.5 Q341 1253 314.5 1229 Q288 1205 272 1172 Q256 1139 256 1100 L256 308 Q256 269 272 236 Q288 203 314.5 179 Q341 155 376 141.5 Q411 128 448 128 L1600 128 Q1638 128 1672.5 141.5 Q1707 155 1733.5 179 Q1760 203 1776 236 Q1792 269 1792 308 L1792 1100 Q1792 1139 1776 1172 Q1760 1205 1733.5 1229 Q1707 1253 1672.5 1266.5 Q1638 1280 1600 1280 L1536 1280 Z M640 1536 Q640 1615 670.5 1685 Q701 1755 753 1807 Q805 1859 875 1889.5 Q945 1920 1024 1920 Q1103 1920 1173 1889.5 Q1243 1859 1295 1807 Q1347 1755 1377.5 1685 Q1408 1615 1408 1536 L1408 1280 L640 1280 L640 1536 Z M1664 308 Q1664 284 1643 270 Q1622 256 1600 256 L448 256 Q426 256 405 269.5 Q384 283 384 308 L384 1100 Q384 1124 405 1138 Q426 1152 448 1152 L1600 1152 Q1622 1152 1643 1138.5 Q1664 1125 1664 1100 L1664 308 Z " />
<glyph glyph-name="Search" unicode="&#xe406;" horiz-adv-x="2048" d="M1366 773 Q1447 870 1491 989.5 Q1535 1109 1535 1237 Q1535 1337 1509 1429.5 Q1483 1522 1436 1602.5 Q1389 1683 1322.5 1749 Q1256 1815 1176 1862.5 Q1096 1910 1003.5 1936 Q911 1962 811 1962 Q661 1962 529 1905 Q397 1848 298.5 1749.5 Q200 1651 143 1519 Q86 1387 86 1237 Q86 1137 112 1044.5 Q138 952 185.5 872 Q233 792 299 725.5 Q365 659 445.5 612 Q526 565 618.5 539 Q711 513 811 513 Q939 513 1058.5 557 Q1178 601 1275 682 L1875 83 Q1894 64 1920 64 Q1946 64 1965 83 Q1984 102 1984 128 Q1984 154 1965 173 L1366 773 Z M212 1237 Q212 1361 259 1470 Q306 1579 387.5 1660.5 Q469 1742 578 1789 Q687 1836 811 1836 Q893 1836 969.5 1814.5 Q1046 1793 1112.5 1754 Q1179 1715 1233.5 1660 Q1288 1605 1327 1538.5 Q1366 1472 1387.5 1395.5 Q1409 1319 1409 1237 Q1409 1155 1387.5 1078.5 Q1366 1002 1327 935.5 Q1288 869 1233.5 814.5 Q1179 760 1112.5 721 Q1046 682 969.5 660.5 Q893 639 811 639 Q729 639 652.5 660.5 Q576 682 509.5 721 Q443 760 388 814.5 Q333 869 294 935.5 Q255 1002 233.5 1078.5 Q212 1155 212 1237 Z " />
<glyph glyph-name="IconSkype" unicode="&#xe001;" horiz-adv-x="2048" d="M1933 623 Q1933 519 1892.5 426.5 Q1852 334 1783 265 Q1714 196 1621.5 155.5 Q1529 115 1425 115 Q1360 115 1298 131 Q1236 147 1179 179 Q1100 165 1024 165 Q906 165 796.5 196 Q687 227 591.5 283 Q496 339 417.5 417.5 Q339 496 283 591.5 Q227 687 196 796.5 Q165 906 165 1024 Q165 1100 179 1179 Q147 1236 131 1298 Q115 1360 115 1425 Q115 1529 155.5 1621.5 Q196 1714 265 1783 Q334 1852 426.5 1892.5 Q519 1933 623 1933 Q688 1933 750 1917 Q812 1901 869 1869 Q948 1883 1024 1883 Q1142 1883 1251.5 1852 Q1361 1821 1456.5 1765 Q1552 1709 1630.5 1630.5 Q1709 1552 1765 1456.5 Q1821 1361 1852 1251.5 Q1883 1142 1883 1024 Q1883 948 1869 869 Q1901 812 1917 750 Q1933 688 1933 623 Z M1462 807 Q1462 885 1434.5 938.5 Q1407 992 1362 1027 Q1317 1062 1259.5 1083 Q1202 1104 1141.5 1118 Q1081 1132 1023.5 1142.5 Q966 1153 921 1167.5 Q876 1182 848.5 1204.5 Q821 1227 821 1264 Q821 1298 837.5 1321.5 Q854 1345 879.5 1359.5 Q905 1374 935.5 1380.5 Q966 1387 994 1387 Q1043 1387 1079 1375.5 Q1115 1364 1142.5 1347 Q1170 1330 1191 1309.5 Q1212 1289 1230.5 1272 Q1249 1255 1267.5 1243.5 Q1286 1232 1309 1232 Q1329 1232 1349 1238.5 Q1369 1245 1384.5 1257 Q1400 1269 1409.5 1286.5 Q1419 1304 1419 1326 Q1419 1368 1398 1402.5 Q1377 1437 1342.5 1464 Q1308 1491 1264.5 1510.5 Q1221 1530 1175.5 1543 Q1130 1556 1086.5 1562.5 Q1043 1569 1010 1569 Q936 1569 861 1552 Q786 1535 725.5 1497 Q665 1459 627 1398.5 Q589 1338 589 1251 Q589 1175 616 1124 Q643 1073 687.5 1039 Q732 1005 789 985 Q846 965 905 950.5 Q964 936 1021 924.5 Q1078 913 1122.5 896.5 Q1167 880 1194 855.5 Q1221 831 1221 790 Q1221 754 1202 728 Q1183 702 1154.5 685.5 Q1126 669 1092 661 Q1058 653 1028 653 Q972 653 933 667 Q894 681 866 702 Q838 723 817.5 747 Q797 771 778 792 Q759 813 738 827 Q717 841 688 841 Q668 841 649.5 833.5 Q631 826 617 812.5 Q603 799 595 781 Q587 763 587 742 Q587 692 609 653 Q631 614 666.5 585 Q702 556 748.5 536 Q795 516 844 503.5 Q893 491 941 485.5 Q989 480 1028 480 Q1106 480 1183.5 497 Q1261 514 1323 552.5 Q1385 591 1423.5 653.5 Q1462 716 1462 807 Z " />
<glyph glyph-name="MSOutlook" unicode="&#xe009;" horiz-adv-x="2048" d="M2047 1528 L1419 1029 L1251 1159 L1251 1590 L1978 1590 Q2004 1590 2024 1572 Q2044 1554 2047 1528 Z M2048 523 Q2048 494 2027.5 474 Q2007 454 1978 454 L1251 454 L1251 1047 Q1265 1037 1286.5 1017.5 Q1308 998 1332 979 Q1356 960 1379.5 946 Q1403 932 1419 932 Q1438 932 1452 943 L2048 1417 L2048 523 Z M1144 73 L0 271 L0 1771 L1144 1974 L1144 1182 L1144 1183 L1144 73 Z M799 1025 Q799 1082 785.5 1141.5 Q772 1201 742 1249.5 Q712 1298 664.5 1328.5 Q617 1359 550 1359 Q479 1359 429 1327.5 Q379 1296 347 1246.5 Q315 1197 300 1135 Q285 1073 285 1012 Q285 952 300 892.5 Q315 833 347 786 Q379 739 428.5 710 Q478 681 547 681 Q615 681 662.5 713.5 Q710 746 740.5 796 Q771 846 785 907 Q799 968 799 1025 Z M665 1016 Q665 983 659.5 946.5 Q654 910 639 879.5 Q624 849 597.5 829 Q571 809 529 809 Q491 809 466 830.5 Q441 852 426.5 884 Q412 916 406.5 952.5 Q401 989 401 1019 Q401 1050 407 1087 Q413 1124 427.5 1156.5 Q442 1189 467.5 1210.5 Q493 1232 532 1232 Q574 1232 600 1210.5 Q626 1189 640.5 1156.5 Q655 1124 660 1086 Q665 1048 665 1016 Z " />
<glyph glyph-name="MSXBox" unicode="&#xe00a;" horiz-adv-x="2048" d="M1559 1893 L1554 1892 Q1523 1899 1486 1899 Q1447 1899 1400 1887.5 Q1353 1876 1305 1859 Q1257 1842 1210 1822 Q1163 1802 1125 1785 Q1087 1768 1060 1756.5 Q1033 1745 1024 1745 Q1015 1745 988 1756.5 Q961 1768 923 1785 Q885 1802 838.5 1822 Q792 1842 744 1859 Q696 1876 649 1887.5 Q602 1899 564 1899 Q546 1899 528 1897.5 Q510 1896 492 1891 L487 1892 L489 1897 Q610 1970 746 2009 Q882 2048 1024 2048 Q1167 2048 1301 2009.5 Q1435 1971 1557 1898 L1559 1893 Z M2048 1024 Q2048 941 2035 858 Q2022 775 1995.5 696 Q1969 617 1930 543 Q1891 469 1839 404 L1833 402 L1832 407 Q1842 440 1842 478 Q1842 548 1814.5 634.5 Q1787 721 1742.5 814.5 Q1698 908 1640.5 1003 Q1583 1098 1523.5 1186 Q1464 1274 1407 1350 Q1350 1426 1305 1480 L1304 1483 L1306 1486 Q1325 1507 1354.5 1535.5 Q1384 1564 1419.5 1594.5 Q1455 1625 1494.5 1654.5 Q1534 1684 1572.5 1707.5 Q1611 1731 1647 1745.5 Q1683 1760 1712 1760 Q1720 1760 1728 1759 Q1736 1758 1743 1753 Q1790 1720 1831 1668.5 Q1872 1617 1906 1554.5 Q1940 1492 1966.5 1422 Q1993 1352 2011 1282 Q2029 1212 2038.5 1145.5 Q2048 1079 2048 1024 Z M1728 334 Q1728 305 1715.5 281.5 Q1703 258 1684 239 Q1665 220 1642 204.5 Q1619 189 1598 175 Q1463 89 1324 44.5 Q1185 0 1024 0 Q863 0 724 44.5 Q585 89 450 175 Q429 189 406 204.5 Q383 220 364 239 Q345 258 332.5 281.5 Q320 305 320 334 Q320 400 357 482.5 Q394 565 454.5 652.5 Q515 740 591.5 827.5 Q668 915 746 992.5 Q824 1070 897 1131 Q970 1192 1024 1227 Q1078 1192 1151 1131 Q1224 1070 1302 992.5 Q1380 915 1456.5 827.5 Q1533 740 1593.5 652.5 Q1654 565 1691 482.5 Q1728 400 1728 334 Z M744 1482 L743 1479 Q698 1426 640.5 1350 Q583 1274 523.5 1186.5 Q464 1099 407 1003.5 Q350 908 305 814.5 Q260 721 233 634.5 Q206 548 206 478 Q206 440 216 407 L215 402 L209 404 Q157 469 118 543 Q79 617 53 696 Q27 775 13.5 858 Q0 941 0 1024 Q0 1201 55.5 1356.5 Q111 1512 215 1653 Q224 1665 237.5 1683.5 Q251 1702 267 1719 Q283 1736 300.5 1748 Q318 1760 335 1760 Q366 1760 402.5 1745.5 Q439 1731 477 1707.5 Q515 1684 553 1654.5 Q591 1625 626 1594.5 Q661 1564 691 1535.5 Q721 1507 743 1486 L744 1482 Z " />
<glyph glyph-name="IconSkypeLarge" unicode="&#xe012;" horiz-adv-x="2048" d="M2048 572 Q2048 455 2002.5 351 Q1957 247 1879 169 Q1801 91 1697 45.5 Q1593 0 1476 0 Q1403 0 1332.5 18.5 Q1262 37 1199 72 Q1155 64 1111.5 60 Q1068 56 1024 56 Q891 56 767.5 91 Q644 126 536.5 189 Q429 252 340.5 340.5 Q252 429 189 536.5 Q126 644 91 767.5 Q56 891 56 1024 Q56 1068 60 1111.5 Q64 1155 72 1199 Q37 1262 18.5 1332.5 Q0 1403 0 1476 Q0 1593 45.5 1697 Q91 1801 169 1879 Q247 1957 351 2002.5 Q455 2048 572 2048 Q645 2048 715.5 2029.5 Q786 2011 849 1976 Q893 1984 936.5 1988 Q980 1992 1024 1992 Q1157 1992 1280.5 1957 Q1404 1922 1511.5 1859 Q1619 1796 1707.5 1707.5 Q1796 1619 1859 1511 Q1922 1403 1957 1280 Q1992 1157 1992 1024 Q1992 979 1988 936 Q1984 893 1976 849 Q2011 786 2029.5 715.5 Q2048 645 2048 572 Z M1517 780 Q1517 868 1486 928 Q1455 988 1404 1027.5 Q1353 1067 1288.5 1090.5 Q1224 1114 1156 1129.5 Q1088 1145 1023.5 1157 Q959 1169 908 1185.5 Q857 1202 826 1227 Q795 1252 795 1294 Q795 1333 813.5 1359.5 Q832 1386 860.5 1402.5 Q889 1419 923.5 1426 Q958 1433 990 1433 Q1046 1433 1086.5 1420 Q1127 1407 1158 1387.5 Q1189 1368 1212.5 1345.5 Q1236 1323 1257 1303.5 Q1278 1284 1299 1271 Q1320 1258 1346 1258 Q1368 1258 1390 1265.5 Q1412 1273 1429.5 1286.5 Q1447 1300 1458 1320 Q1469 1340 1469 1364 Q1469 1411 1445.5 1450 Q1422 1489 1383 1519 Q1344 1549 1295 1571.5 Q1246 1594 1194.5 1609 Q1143 1624 1094.5 1631 Q1046 1638 1009 1638 Q925 1638 840.5 1618.5 Q756 1599 687.5 1556.5 Q619 1514 576.5 1446 Q534 1378 534 1280 Q534 1195 564.5 1137.5 Q595 1080 645 1041.5 Q695 1003 759 980 Q823 957 890 941 Q957 925 1021 912 Q1085 899 1135 880.5 Q1185 862 1215.5 834 Q1246 806 1246 760 Q1246 719 1225 690 Q1204 661 1171.5 642 Q1139 623 1101 614.5 Q1063 606 1028 606 Q964 606 920 621.5 Q876 637 844.5 660.5 Q813 684 790.5 711.5 Q768 739 747 762.5 Q726 786 702 801.5 Q678 817 645 817 Q622 817 601.5 808.5 Q581 800 565 785 Q549 770 540 750 Q531 730 531 707 Q531 675 543 645.5 Q555 616 571 590 Q604 537 658 502.5 Q712 468 775 447.5 Q838 427 904.5 418.5 Q971 410 1028 410 Q1087 410 1145.5 418.5 Q1204 427 1258.5 445.5 Q1313 464 1360 493 Q1407 522 1442 563 Q1477 604 1497 658 Q1517 712 1517 780 Z " />
<glyph glyph-name="CallStart" unicode="&#xe100;" horiz-adv-x="2048" d="M1504 128 Q1477 128 1447 136 Q1286 181 1141 259 Q996 337 873 442.5 Q750 548 651.5 677.5 Q553 807 484 953 Q415 1099 378 1259.5 Q341 1420 341 1587 Q341 1628 343 1667.5 Q345 1707 356.5 1741.5 Q368 1776 392 1804.5 Q416 1833 459 1852 Q483 1863 507.5 1875 Q532 1887 557.5 1897 Q583 1907 609 1913.5 Q635 1920 662 1920 Q716 1920 753 1903.5 Q790 1887 817.5 1858.5 Q845 1830 866 1792 Q887 1754 909 1712 Q936 1658 952.5 1599 Q969 1540 969 1480 Q969 1428 956.5 1388.5 Q944 1349 925.5 1319 Q907 1289 885 1267 Q863 1245 844.5 1226.5 Q826 1208 813.5 1191.5 Q801 1175 801 1156 Q801 1137 814 1117 L1064 765 Q1085 736 1120 736 Q1138 736 1160.5 746.5 Q1183 757 1211 770 Q1239 783 1272 793.5 Q1305 804 1345 804 Q1390 804 1434 792 Q1478 780 1519 759 Q1560 738 1597 710 Q1634 682 1664 650 Q1689 624 1712 600.5 Q1735 577 1753 551.5 Q1771 526 1781.5 495.5 Q1792 465 1792 426 Q1792 382 1775 341.5 Q1758 301 1727 270 Q1702 244 1678.5 218.5 Q1655 193 1629.5 173 Q1604 153 1573.5 140.5 Q1543 128 1504 128 Z M724 793 Q864 595 1057 459 Q1250 323 1483 256 Q1494 253 1504 253 Q1522 253 1540.5 265 Q1559 277 1576 293.5 Q1593 310 1608.5 327.5 Q1624 345 1636 357 Q1665 386 1665 426 Q1665 448 1655.5 467 Q1646 486 1632 503 Q1618 520 1601.5 535 Q1585 550 1571 564 Q1550 586 1524 606.5 Q1498 627 1468.5 643 Q1439 659 1408 668.5 Q1377 678 1345 678 Q1315 678 1287.5 667.5 Q1260 657 1233 644.5 Q1206 632 1178.5 621.5 Q1151 611 1120 611 Q1072 611 1030 633 Q988 655 960 693 L710 1046 Q674 1096 674 1156 Q674 1197 686.5 1225 Q699 1253 717.5 1275.5 Q736 1298 758 1317 Q780 1336 798.5 1358 Q817 1380 829.5 1409 Q842 1438 842 1479 Q842 1525 829 1569.5 Q816 1614 795 1655 Q784 1677 773 1701.5 Q762 1726 747 1747 Q732 1768 711.5 1781.5 Q691 1795 661 1795 Q646 1795 626 1788.5 Q606 1782 585.5 1773 Q565 1764 545.5 1754 Q526 1744 512 1738 Q492 1729 483 1711 Q474 1693 471 1671.5 Q468 1650 468.5 1627.5 Q469 1605 469 1587 Q469 1371 534 1170 Q599 969 724 793 Z " />
<glyph glyph-name="Video" unicode="&#xe102;" horiz-adv-x="2048" d="M1984 1536 Q1957 1536 1938 1517 L1650 1222 Q1615 1187 1597 1141 Q1579 1095 1579 1045 Q1579 996 1597 950 Q1615 904 1650 869 L1938 574 Q1957 555 1984 555 Q2010 555 2029 574 Q2048 593 2048 619 L2048 1472 Q2048 1498 2029 1517 Q2010 1536 1984 1536 Z M1920 776 L1742 958 Q1725 975 1715.5 998 Q1706 1021 1706 1045 Q1706 1095 1742 1133 L1920 1315 L1920 776 Z M1335 1664 L329 1664 Q287 1664 250.5 1648 Q214 1632 187 1605 Q160 1578 144 1541.5 Q128 1505 128 1463 L128 585 Q128 543 144 506.5 Q160 470 187 443 Q214 416 250.5 400 Q287 384 329 384 L1335 384 Q1377 384 1413.5 400 Q1450 416 1477 443 Q1504 470 1520 506.5 Q1536 543 1536 585 L1536 1463 Q1536 1505 1520 1541.5 Q1504 1578 1477 1605 Q1450 1632 1413.5 1648 Q1377 1664 1335 1664 Z M1408 585 Q1408 555 1386.5 533.5 Q1365 512 1335 512 L329 512 Q299 512 277.5 533.5 Q256 555 256 585 L256 1463 Q256 1493 277.5 1514.5 Q299 1536 329 1536 L1335 1536 Q1365 1536 1386.5 1514.5 Q1408 1493 1408 1463 L1408 585 Z " />
<glyph glyph-name="Screenshare" unicode="&#xe10a;" horiz-adv-x="2048" d="M1600 768 Q1574 768 1555 787 Q1536 806 1536 832 Q1536 866 1555 879.5 Q1574 893 1602.5 895.5 Q1631 898 1664 896 Q1697 894 1725.5 896.5 Q1754 899 1773 912.5 Q1792 926 1792 960 L1792 1728 Q1792 1754 1773 1773 Q1754 1792 1728 1792 L832 1792 Q806 1792 787 1773 Q768 1754 768 1728 L768 1472 Q768 1446 749 1427 Q730 1408 704 1408 Q678 1408 659 1427 Q640 1446 640 1472 L640 1728 Q640 1768 655 1803 Q670 1838 696 1864 Q722 1890 757 1905 Q792 1920 832 1920 L1728 1920 Q1768 1920 1803 1905 Q1838 1890 1864 1864 Q1890 1838 1905 1803 Q1920 1768 1920 1728 L1920 960 Q1920 920 1905 885 Q1890 850 1864 824 Q1838 798 1803 783 Q1768 768 1728 768 L1600 768 Z M1259 128 L277 128 Q246 128 219 140 Q192 152 172 172 Q152 192 140 219 Q128 246 128 277 L128 1131 Q128 1162 140 1189 Q152 1216 172 1236.5 Q192 1257 219 1268.5 Q246 1280 277 1280 L1259 1280 Q1290 1280 1317 1268.5 Q1344 1257 1364.5 1236.5 Q1385 1216 1396.5 1189 Q1408 1162 1408 1131 L1408 277 Q1408 246 1396.5 219 Q1385 192 1364.5 172 Q1344 152 1317 140 Q1290 128 1259 128 Z M277 1152 Q269 1152 262.5 1145.5 Q256 1139 256 1131 L256 277 Q256 269 262.5 262.5 Q269 256 277 256 L1259 256 Q1267 256 1273.5 262.5 Q1280 269 1280 277 L1280 1131 Q1280 1139 1273.5 1145.5 Q1267 1152 1259 1152 L277 1152 Z " />
<glyph glyph-name="CallerID" unicode="&#xe10c;" horiz-adv-x="2048" d="M1290 85 Q1263 85 1233 93 Q1072 138 927 216.5 Q782 295 659.5 400.5 Q537 506 438.5 635 Q340 764 271 910 Q202 1056 165 1216 Q128 1376 128 1543 Q128 1585 130 1624.5 Q132 1664 143.5 1698.5 Q155 1733 179 1761.5 Q203 1790 247 1809 Q271 1820 295 1832 Q319 1844 344.5 1854 Q370 1864 396 1870.5 Q422 1877 449 1877 Q503 1877 540.5 1860 Q578 1843 605.5 1814.5 Q633 1786 654 1748 Q675 1710 697 1668 Q724 1614 740.5 1555.5 Q757 1497 757 1437 Q757 1385 744.5 1345.5 Q732 1306 713.5 1276 Q695 1246 673.5 1223.5 Q652 1201 633.5 1182.5 Q615 1164 602.5 1147.5 Q590 1131 590 1113 Q590 1092 602 1075 L852 723 Q861 710 875.5 702.5 Q890 695 906 695 Q924 695 946.5 705.5 Q969 716 997 729 Q1025 742 1058 752.5 Q1091 763 1131 763 Q1176 763 1220 750.5 Q1264 738 1305 717 Q1346 696 1383 668 Q1420 640 1450 608 Q1476 582 1499 558.5 Q1522 535 1540 509.5 Q1558 484 1568.5 454 Q1579 424 1579 385 Q1579 340 1562 299.5 Q1545 259 1513 227 Q1488 202 1464.5 176.5 Q1441 151 1415.5 130.5 Q1390 110 1359.5 97.5 Q1329 85 1290 85 Z M512 751 Q652 554 844.5 418.5 Q1037 283 1269 216 Q1280 213 1290 213 Q1308 213 1326 224.5 Q1344 236 1361 252.5 Q1378 269 1393.5 286.5 Q1409 304 1421 316 Q1449 344 1449 385 Q1449 406 1439.5 425 Q1430 444 1416 460.5 Q1402 477 1386 492 Q1370 507 1356 521 Q1335 543 1309 563.5 Q1283 584 1254 600 Q1225 616 1194 625.5 Q1163 635 1132 635 Q1102 635 1074.5 624.5 Q1047 614 1020 601.5 Q993 589 965.5 578.5 Q938 568 906 568 Q858 568 816 590 Q774 612 746 650 L496 1002 Q460 1052 460 1113 Q460 1154 472.5 1182.5 Q485 1211 503.5 1233 Q522 1255 544 1274.5 Q566 1294 584.5 1316 Q603 1338 615.5 1366.5 Q628 1395 628 1436 Q628 1481 615 1526 Q602 1571 581 1611 Q570 1633 559 1657.5 Q548 1682 533.5 1702.5 Q519 1723 499 1736.5 Q479 1750 449 1750 Q434 1750 414 1743.5 Q394 1737 373.5 1728 Q353 1719 333.5 1709 Q314 1699 300 1693 Q281 1684 271.5 1666.5 Q262 1649 259 1627.5 Q256 1606 256.5 1584 Q257 1562 257 1544 Q257 1328 322 1127.5 Q387 927 512 751 L512 751 Z M1237 1237 L1109 1237 L1109 1920 L1237 1920 L1237 1237 Z M1365 1237 L1365 1920 L1587 1920 Q1920 1920 1920 1587 Q1920 1510 1897.5 1446 Q1875 1382 1832.5 1335.5 Q1790 1289 1728 1263 Q1666 1237 1587 1237 L1365 1237 Z M1493 1795 L1493 1362 L1572 1362 Q1676 1362 1734 1422 Q1792 1482 1792 1585 Q1792 1637 1776 1676 Q1760 1715 1731 1741.5 Q1702 1768 1661.5 1781.5 Q1621 1795 1571 1795 L1493 1795 Z " />
<glyph glyph-name="CallIn" unicode="&#xe10e;" horiz-adv-x="2048" d="M1120 758 Q1080 758 1047 747.5 Q1014 737 986.5 724.5 Q959 712 937 701.5 Q915 691 898 691 Q863 691 844 719 L596 1072 Q585 1089 585 1109 Q585 1129 597.5 1145.5 Q610 1162 628.5 1180.5 Q647 1199 668.5 1220.5 Q690 1242 708.5 1271.5 Q727 1301 739.5 1339.5 Q752 1378 752 1430 Q752 1492 735 1552 Q718 1612 690 1667 Q669 1709 648.5 1747 Q628 1785 600.5 1814 Q573 1843 536 1860 Q499 1877 445 1877 Q418 1877 392.5 1870.5 Q367 1864 342 1853.5 Q317 1843 293 1831.5 Q269 1820 245 1809 Q202 1789 178.5 1760.5 Q155 1732 143.5 1697 Q132 1662 130 1622.5 Q128 1583 128 1542 Q128 1376 164 1216 Q200 1056 268 909 Q336 762 432.5 632.5 Q529 503 650.5 396.5 Q772 290 915.5 210.5 Q1059 131 1220 86 Q1250 78 1277 78 Q1316 78 1352 93 Q1388 108 1416 136 Q1443 164 1469.5 189.5 Q1496 215 1516.5 243 Q1537 271 1549.5 303.5 Q1562 336 1562 378 Q1562 417 1551.5 447.5 Q1541 478 1523.5 503.5 Q1506 529 1483.5 552.5 Q1461 576 1436 603 Q1406 635 1369.5 663 Q1333 691 1292.5 712 Q1252 733 1208.5 745.5 Q1165 758 1120 758 Z M1277 206 Q1267 206 1256 209 Q1108 253 976.5 325.5 Q845 398 734 495 Q623 592 534.5 710 Q446 828 384 961.5 Q322 1095 289 1241.5 Q256 1388 256 1542 Q256 1560 255.5 1582 Q255 1604 258 1626 Q261 1648 270 1665.5 Q279 1683 298 1692 Q312 1698 331 1708 Q350 1718 370.5 1727 Q391 1736 410.5 1742.5 Q430 1749 445 1749 Q475 1749 495 1735.5 Q515 1722 529.5 1701 Q544 1680 554.5 1655.5 Q565 1631 576 1609 Q597 1569 610.5 1523 Q624 1477 624 1431 Q624 1392 611.5 1364 Q599 1336 580.5 1314 Q562 1292 540.5 1272.5 Q519 1253 500.5 1230 Q482 1207 469.5 1178.5 Q457 1150 457 1109 Q457 1048 492 998 L739 645 Q766 607 808 585 Q850 563 898 563 Q929 563 956 573.5 Q983 584 1009.5 596.5 Q1036 609 1063 619.5 Q1090 630 1120 630 Q1151 630 1182 620.5 Q1213 611 1241.5 595 Q1270 579 1295.5 558.5 Q1321 538 1342 516 Q1356 502 1372 486.5 Q1388 471 1401.5 454.5 Q1415 438 1424.5 419 Q1434 400 1434 379 Q1434 338 1406 310 Q1394 298 1379 280.5 Q1364 263 1347 246.5 Q1330 230 1312 218 Q1294 206 1277 206 Z M1685 1792 Q1659 1792 1640 1773 L1152 1285 L1152 1557 Q1152 1584 1133 1602.5 Q1114 1621 1088 1621 Q1062 1621 1043 1602.5 Q1024 1584 1024 1557 L1024 1131 Q1024 1105 1043 1086 Q1062 1067 1088 1067 L1515 1067 Q1541 1067 1560 1085.5 Q1579 1104 1579 1131 Q1579 1157 1560 1176 Q1541 1195 1515 1195 L1243 1195 L1731 1683 Q1749 1701 1749 1728 Q1749 1754 1730.5 1773 Q1712 1792 1685 1792 Z " />
<glyph glyph-name="CallBlockedFilled" unicode="&#xe114;" horiz-adv-x="2048" d="M1024 1832 Q903 1832 781.5 1812.5 Q660 1793 544.5 1754.5 Q429 1716 321 1658.5 Q213 1601 117 1525 Q84 1499 64.5 1462 Q45 1425 45 1381 Q45 1346 53.5 1310.5 Q62 1275 69 1241 Q77 1203 96.5 1171.5 Q116 1140 144.5 1117 Q173 1094 208 1081.5 Q243 1069 282 1069 Q312 1069 343 1074 Q374 1079 403 1084 Q455 1091 509.5 1109.5 Q564 1128 611.5 1158.5 Q659 1189 693.5 1232 Q728 1275 740 1331 Q744 1350 746.5 1374 Q749 1398 756 1419.5 Q763 1441 777 1455.5 Q791 1470 818 1470 L1230 1470 Q1259 1470 1272.5 1454.5 Q1286 1439 1292.5 1417 Q1299 1395 1301.5 1370.5 Q1304 1346 1309 1327 Q1325 1272 1359.5 1230 Q1394 1188 1440 1158 Q1486 1128 1539 1110 Q1592 1092 1645 1084 Q1675 1079 1705.5 1074 Q1736 1069 1767 1069 Q1805 1069 1840 1081.5 Q1875 1094 1903.5 1117 Q1932 1140 1951.5 1171.5 Q1971 1203 1979 1241 Q1986 1275 1994.5 1310.5 Q2003 1346 2003 1381 Q2003 1425 1983.5 1462 Q1964 1499 1931 1525 Q1835 1601 1727 1658.5 Q1619 1716 1503.5 1754.5 Q1388 1793 1267 1812.5 Q1146 1832 1024 1832 Z M1024 1152 Q918 1152 825 1111.5 Q732 1071 662.5 1001.5 Q593 932 552.5 839 Q512 746 512 640 Q512 534 552.5 441 Q593 348 662.5 278.5 Q732 209 825 168.5 Q918 128 1024 128 Q1130 128 1223 168.5 Q1316 209 1385.5 278.5 Q1455 348 1495.5 441 Q1536 534 1536 640 Q1536 746 1495.5 839 Q1455 932 1385.5 1001.5 Q1316 1071 1223 1111.5 Q1130 1152 1024 1152 Z M640 640 Q640 719 670.5 789 Q701 859 753 911 Q805 963 875 993.5 Q945 1024 1024 1024 Q1090 1024 1152 1002 Q1214 980 1265 938 L726 399 Q684 450 662 512 Q640 574 640 640 Z M1024 256 Q970 256 918.5 270.5 Q867 285 822 314 L1350 842 Q1379 797 1393.5 745.5 Q1408 694 1408 640 Q1408 561 1377.5 491 Q1347 421 1295 369 Q1243 317 1173 286.5 Q1103 256 1024 256 Z " />
<glyph glyph-name="SkypeNumber" unicode="&#xe116;" horiz-adv-x="2048" d="M1120 758 Q1080 758 1047 747.5 Q1014 737 986.5 724.5 Q959 712 937 701.5 Q915 691 898 691 Q863 691 844 719 L596 1072 Q585 1089 585 1109 Q585 1129 597.5 1145.5 Q610 1162 628.5 1180.5 Q647 1199 668.5 1220.5 Q690 1242 708.5 1271.5 Q727 1301 739.5 1339.5 Q752 1378 752 1430 Q752 1492 735 1552 Q718 1612 690 1667 Q669 1709 648.5 1747 Q628 1785 600.5 1814 Q573 1843 536 1860 Q499 1877 445 1877 Q418 1877 392.5 1870.5 Q367 1864 342 1853.5 Q317 1843 293 1831.5 Q269 1820 245 1809 Q202 1789 178.5 1760.5 Q155 1732 143.5 1697 Q132 1662 130 1622.5 Q128 1583 128 1542 Q128 1376 164 1216 Q200 1056 268 909 Q336 762 432.5 632.5 Q529 503 650.5 396.5 Q772 290 915.5 210.5 Q1059 131 1220 86 Q1250 78 1277 78 Q1316 78 1352 93 Q1388 108 1416 136 Q1443 164 1469.5 189.5 Q1496 215 1516.5 243 Q1537 271 1549.5 303.5 Q1562 336 1562 378 Q1562 417 1551.5 447.5 Q1541 478 1523.5 503.5 Q1506 529 1483.5 552.5 Q1461 576 1436 603 Q1406 635 1369.5 663 Q1333 691 1292.5 712 Q1252 733 1208.5 745.5 Q1165 758 1120 758 Z M1277 206 Q1267 206 1256 209 Q1108 253 976.5 325.5 Q845 398 734 495 Q623 592 534.5 710 Q446 828 384 961.5 Q322 1095 289 1241.5 Q256 1388 256 1542 Q256 1560 255.5 1582 Q255 1604 258 1626 Q261 1648 270 1665.5 Q279 1683 298 1692 Q312 1698 331 1708 Q350 1718 370.5 1727 Q391 1736 410.5 1742.5 Q430 1749 445 1749 Q475 1749 495 1735.5 Q515 1722 529.5 1701 Q544 1680 554.5 1655.5 Q565 1631 576 1609 Q597 1569 610.5 1523 Q624 1477 624 1431 Q624 1392 611.5 1364 Q599 1336 580.5 1314 Q562 1292 540.5 1272.5 Q519 1253 500.5 1230 Q482 1207 469.5 1178.5 Q457 1150 457 1109 Q457 1048 492 998 L739 645 Q766 607 808 585 Q850 563 898 563 Q929 563 956 573.5 Q983 584 1009.5 596.5 Q1036 609 1063 619.5 Q1090 630 1120 630 Q1151 630 1182 620.5 Q1213 611 1241.5 595 Q1270 579 1295.5 558.5 Q1321 538 1342 516 Q1356 502 1372 486.5 Q1388 471 1401.5 454.5 Q1415 438 1424.5 419 Q1434 400 1434 379 Q1434 338 1406 310 Q1394 298 1379 280.5 Q1364 263 1347 246.5 Q1330 230 1312 218 Q1294 206 1277 206 Z M1935 1579 L1958 1707 L1830 1707 L1867 1920 L1739 1920 L1702 1707 L1488 1707 L1526 1920 L1398 1920 L1360 1707 L1232 1707 L1210 1579 L1338 1579 L1308 1408 L1180 1408 L1157 1280 L1285 1280 L1247 1067 L1375 1067 L1413 1280 L1626 1280 L1589 1067 L1717 1067 L1754 1280 L1882 1280 L1905 1408 L1777 1408 L1807 1579 L1935 1579 Z M1649 1408 L1436 1408 L1466 1579 L1679 1579 L1649 1408 Z " />
<glyph glyph-name="Reply" unicode="&#xe11d;" horiz-adv-x="2048" d="M1920 1536 Q1920 1448 1897 1366 Q1874 1284 1832.5 1213 Q1791 1142 1732.5 1083.5 Q1674 1025 1603 983.5 Q1532 942 1450 919 Q1368 896 1280 896 L347 896 L749 493 Q768 474 768 448 Q768 422 749 403 Q730 384 704 384 Q678 384 659 403 L147 915 Q128 934 128 960 Q128 986 147 1005 L659 1517 Q678 1536 704 1536 Q730 1536 749 1517 Q768 1498 768 1472 Q768 1446 749 1427 L347 1024 L1280 1024 Q1386 1024 1479 1064.5 Q1572 1105 1641.5 1174.5 Q1711 1244 1751.5 1337 Q1792 1430 1792 1536 Q1792 1562 1811 1581 Q1830 1600 1856 1600 Q1882 1600 1901 1581 Q1920 1562 1920 1536 Z " />
<glyph glyph-name="Landline" unicode="&#xe11e;" horiz-adv-x="2048" d="M1024 1792 Q1152 1792 1278.5 1771 Q1405 1750 1526 1708.5 Q1647 1667 1760 1606 Q1873 1545 1973 1464 Q2008 1436 2027.5 1397 Q2047 1358 2047 1313 Q2047 1276 2038.5 1237.5 Q2030 1199 2022 1164 Q2014 1124 1993.5 1090.5 Q1973 1057 1944 1033 Q1915 1009 1878.5 995.5 Q1842 982 1801 982 Q1769 982 1737 987 Q1705 992 1674 997 Q1617 1005 1561.5 1024.5 Q1506 1044 1458.5 1076 Q1411 1108 1375.5 1152.5 Q1340 1197 1323 1255 Q1317 1275 1315 1301.5 Q1313 1328 1306 1352 Q1299 1376 1284.5 1392.5 Q1270 1409 1240 1409 L808 1409 Q780 1409 765 1393 Q750 1377 742.5 1354 Q735 1331 732.5 1305.5 Q730 1280 726 1260 Q714 1200 678 1154.5 Q642 1109 592.5 1076.5 Q543 1044 485.5 1024.5 Q428 1005 374 997 Q343 992 311 987 Q279 982 247 982 Q207 982 170 995.5 Q133 1009 104 1033 Q75 1057 54.5 1090.5 Q34 1124 26 1164 Q18 1199 9 1237.5 Q0 1276 0 1312 Q0 1358 20 1396.5 Q40 1435 75 1464 Q175 1545 288 1606 Q401 1667 522 1708.5 Q643 1750 770 1771 Q897 1792 1024 1792 Z M1801 1109 Q1836 1109 1863 1131 Q1890 1153 1898 1188 Q1903 1215 1911.5 1250 Q1920 1285 1920 1312 Q1920 1329 1913 1341 Q1906 1353 1894 1364 Q1866 1389 1834 1410.5 Q1802 1432 1770 1452 Q1600 1558 1411.5 1611.5 Q1223 1665 1024 1665 Q825 1665 636.5 1611.5 Q448 1558 278 1452 Q246 1432 214 1410.5 Q182 1389 154 1364 Q142 1353 135 1341 Q128 1329 128 1312 Q128 1285 136.5 1250 Q145 1215 150 1188 Q158 1153 185 1131 Q212 1109 248 1109 Q274 1109 302.5 1114 Q331 1119 357 1123 Q390 1128 429.5 1140 Q469 1152 505 1172 Q541 1192 567.5 1220.5 Q594 1249 601 1286 Q606 1309 609.5 1332.5 Q613 1356 618 1379 Q625 1414 642.5 1442.5 Q660 1471 685 1492 Q710 1513 741.5 1524.5 Q773 1536 808 1536 L1240 1536 Q1275 1536 1306.5 1524.5 Q1338 1513 1363 1492 Q1388 1471 1405.5 1442.5 Q1423 1414 1430 1379 Q1435 1356 1438.5 1332.5 Q1442 1309 1447 1285 Q1454 1249 1481.5 1221 Q1509 1193 1545 1173 Q1581 1153 1620.5 1140.5 Q1660 1128 1691 1123 Q1718 1119 1746 1114 Q1774 1109 1801 1109 Z M1280 853 Q1280 800 1260 753.5 Q1240 707 1205 672 Q1170 637 1123.5 617 Q1077 597 1024 597 Q971 597 924.5 617 Q878 637 843 672 Q808 707 788 753.5 Q768 800 768 853 Q768 906 788 952.5 Q808 999 843 1034 Q878 1069 924.5 1089 Q971 1109 1024 1109 Q1077 1109 1123.5 1089 Q1170 1069 1205 1034 Q1240 999 1260 952.5 Q1280 906 1280 853 Z M896 853 Q896 827 906 803.5 Q916 780 933.5 762.5 Q951 745 974.5 735 Q998 725 1024 725 Q1050 725 1073.5 735 Q1097 745 1114.5 762.5 Q1132 780 1142 803.5 Q1152 827 1152 853 Q1152 880 1142 903 Q1132 926 1114.5 943.5 Q1097 961 1073.5 971 Q1050 981 1024 981 Q998 981 974.5 971 Q951 961 933.5 943.5 Q916 926 906 903 Q896 880 896 853 Z M1600 939 Q1626 939 1645 920 Q1664 901 1664 875 L1664 448 Q1664 408 1649 373 Q1634 338 1608 312 Q1582 286 1547 271 Q1512 256 1472 256 L576 256 Q536 256 501 271 Q466 286 440 312 Q414 338 399 373 Q384 408 384 448 L384 875 Q384 901 403 920 Q422 939 448 939 Q474 939 493 920 Q512 901 512 875 L512 448 Q512 422 531 403 Q550 384 576 384 L1472 384 Q1498 384 1517 403 Q1536 422 1536 448 L1536 875 Q1536 901 1555 920 Q1574 939 1600 939 Z " />
<glyph glyph-name="TV" unicode="&#xe11f;" horiz-adv-x="2048" d="M1728 1792 L320 1792 Q280 1792 245 1777 Q210 1762 184 1736 Q158 1710 143 1675 Q128 1640 128 1600 L128 704 Q128 664 143 629 Q158 594 184 568 Q210 542 245 527 Q280 512 320 512 L768 512 L768 384 L640 384 Q614 384 595 365 Q576 346 576 320 Q576 294 595 275 Q614 256 640 256 L1408 256 Q1434 256 1453 275 Q1472 294 1472 320 Q1472 346 1453 365 Q1434 384 1408 384 L1280 384 L1280 512 L1728 512 Q1768 512 1803 527 Q1838 542 1864 568 Q1890 594 1905 629 Q1920 664 1920 704 L1920 1600 Q1920 1640 1905 1675 Q1890 1710 1864 1736 Q1838 1762 1803 1777 Q1768 1792 1728 1792 Z M1152 384 L896 384 L896 512 L1152 512 L1152 384 Z M1792 704 Q1792 678 1773 659 Q1754 640 1728 640 L320 640 Q294 640 275 659 Q256 678 256 704 L256 1600 Q256 1626 275 1645 Q294 1664 320 1664 L1728 1664 Q1754 1664 1773 1645 Q1792 1626 1792 1600 L1792 704 Z " />
<glyph glyph-name="SkypeOut" unicode="&#xe127;" horiz-adv-x="2048" d="M1277 125 Q1250 125 1220 133 Q1059 178 915.5 257.5 Q772 337 650.5 443 Q529 549 432.5 679 Q336 809 268 955.5 Q200 1102 164 1262 Q128 1422 128 1588 Q128 1629 130 1668.5 Q132 1708 143.5 1743 Q155 1778 178.5 1806.5 Q202 1835 245 1855 Q269 1866 293 1878 Q317 1890 342 1900 Q367 1910 392.5 1916.5 Q418 1923 445 1923 Q499 1923 536 1906 Q573 1889 600.5 1860 Q628 1831 648.5 1793.5 Q669 1756 690 1714 Q718 1660 734 1601 Q750 1542 750 1481 Q750 1429 738 1389.5 Q726 1350 707.5 1320 Q689 1290 667.5 1267.5 Q646 1245 627.5 1226 Q609 1207 597 1190.5 Q585 1174 585 1156 Q585 1135 596 1118 L844 765 Q853 752 867 744.5 Q881 737 898 737 Q915 737 937 747.5 Q959 758 986.5 771 Q1014 784 1047 794.5 Q1080 805 1120 805 Q1165 805 1208.5 792.5 Q1252 780 1292.5 759 Q1333 738 1369 710 Q1405 682 1435 650 Q1460 623 1483 599.5 Q1506 576 1523.5 550.5 Q1541 525 1551.5 494.5 Q1562 464 1562 425 Q1562 380 1545.5 339.5 Q1529 299 1498 267 Q1473 242 1450 216.5 Q1427 191 1401.5 170.5 Q1376 150 1346 137.5 Q1316 125 1277 125 Z M445 1795 Q430 1795 410.5 1788.5 Q391 1782 370.5 1773 Q350 1764 331 1754 Q312 1744 298 1738 Q279 1729 270 1711.5 Q261 1694 258 1672 Q255 1650 255.5 1628 Q256 1606 256 1588 Q256 1434 289 1287.5 Q322 1141 384 1007.5 Q446 874 534.5 756 Q623 638 734 541.5 Q845 445 976.5 372 Q1108 299 1256 256 Q1267 253 1277 253 Q1294 253 1312 264.5 Q1330 276 1347 292.5 Q1364 309 1379 326.5 Q1394 344 1406 356 Q1434 386 1434 425 Q1434 447 1424.5 465.5 Q1415 484 1401.5 501 Q1388 518 1372 533 Q1356 548 1342 562 Q1321 584 1295.5 604.5 Q1270 625 1241.5 641 Q1213 657 1182 666.5 Q1151 676 1120 676 Q1090 676 1063 665.5 Q1036 655 1009.5 642.5 Q983 630 956 619.5 Q929 609 898 609 Q850 609 808 631 Q766 653 739 692 L492 1045 Q457 1094 457 1156 Q457 1197 469 1225.5 Q481 1254 499.5 1276.5 Q518 1299 539.5 1318 Q561 1337 579.5 1359.5 Q598 1382 610 1410.5 Q622 1439 622 1480 Q622 1526 609 1570.5 Q596 1615 576 1656 Q565 1678 554.5 1702.5 Q544 1727 529.5 1747.5 Q515 1768 495 1781.5 Q475 1795 445 1795 Z M1280 1856 Q1280 1830 1261 1811 Q1242 1792 1216 1792 Q1190 1792 1171 1811 Q1152 1830 1152 1856 Q1152 1882 1171 1901 Q1190 1920 1216 1920 Q1242 1920 1261 1901 Q1280 1882 1280 1856 Z M1536 1856 Q1536 1830 1517 1811 Q1498 1792 1472 1792 Q1446 1792 1427 1811 Q1408 1830 1408 1856 Q1408 1882 1427 1901 Q1446 1920 1472 1920 Q1498 1920 1517 1901 Q1536 1882 1536 1856 Z M1792 1856 Q1792 1830 1773 1811 Q1754 1792 1728 1792 Q1702 1792 1683 1811 Q1664 1830 1664 1856 Q1664 1882 1683 1901 Q1702 1920 1728 1920 Q1754 1920 1773 1901 Q1792 1882 1792 1856 Z M1280 1600 Q1280 1574 1261 1555 Q1242 1536 1216 1536 Q1190 1536 1171 1555 Q1152 1574 1152 1600 Q1152 1626 1171 1645 Q1190 1664 1216 1664 Q1242 1664 1261 1645 Q1280 1626 1280 1600 Z M1536 1600 Q1536 1574 1517 1555 Q1498 1536 1472 1536 Q1446 1536 1427 1555 Q1408 1574 1408 1600 Q1408 1626 1427 1645 Q1446 1664 1472 1664 Q1498 1664 1517 1645 Q1536 1626 1536 1600 Z M1792 1600 Q1792 1574 1773 1555 Q1754 1536 1728 1536 Q1702 1536 1683 1555 Q1664 1574 1664 1600 Q1664 1626 1683 1645 Q1702 1664 1728 1664 Q1754 1664 1773 1645 Q1792 1626 1792 1600 Z M1280 1344 Q1280 1318 1261 1299 Q1242 1280 1216 1280 Q1190 1280 1171 1299 Q1152 1318 1152 1344 Q1152 1370 1171 1389 Q1190 1408 1216 1408 Q1242 1408 1261 1389 Q1280 1370 1280 1344 Z M1536 1344 Q1536 1318 1517 1299 Q1498 1280 1472 1280 Q1446 1280 1427 1299 Q1408 1318 1408 1344 Q1408 1370 1427 1389 Q1446 1408 1472 1408 Q1498 1408 1517 1389 Q1536 1370 1536 1344 Z M1536 1088 Q1536 1062 1517 1043 Q1498 1024 1472 1024 Q1446 1024 1427 1043 Q1408 1062 1408 1088 Q1408 1114 1427 1133 Q1446 1152 1472 1152 Q1498 1152 1517 1133 Q1536 1114 1536 1088 Z M1792 1344 Q1792 1318 1773 1299 Q1754 1280 1728 1280 Q1702 1280 1683 1299 Q1664 1318 1664 1344 Q1664 1370 1683 1389 Q1702 1408 1728 1408 Q1754 1408 1773 1389 Q1792 1370 1792 1344 Z " />
<glyph glyph-name="VideoMessage" unicode="&#xe305;" horiz-adv-x="2048" d="M1024 1323 Q980 1323 941.5 1306 Q903 1289 874 1260 Q845 1231 828 1192 Q811 1153 811 1109 Q811 1064 829 1023 L664 1023 Q683 1066 683 1109 Q683 1153 666 1192 Q649 1231 620 1260 Q591 1289 552 1306 Q513 1323 469 1323 Q425 1323 386.5 1306 Q348 1289 319 1260 Q290 1231 273 1192 Q256 1153 256 1109 Q256 1065 273 1026.5 Q290 988 319 959 Q348 930 386.5 913 Q425 896 469 896 Q483 896 525 895.5 Q567 895 622 895 Q677 895 738 895 Q799 895 851.5 895.5 Q904 896 940.5 897 Q977 898 983 900 Q993 898 1003 897 Q1013 896 1024 896 Q1068 896 1106.5 913 Q1145 930 1174 959 Q1203 988 1220 1026.5 Q1237 1065 1237 1109 Q1237 1153 1220 1192 Q1203 1231 1174 1260 Q1145 1289 1106.5 1306 Q1068 1323 1024 1323 Z M469 1195 Q487 1195 502.5 1188 Q518 1181 529.5 1169.5 Q541 1158 548 1142.5 Q555 1127 555 1109 Q555 1092 548 1076.5 Q541 1061 529.5 1049.5 Q518 1038 502.5 1031 Q487 1024 469 1024 Q451 1024 435.5 1031 Q420 1038 408.5 1049.5 Q397 1061 390.5 1076.5 Q384 1092 384 1109 Q384 1127 390.5 1142.5 Q397 1158 408.5 1169.5 Q420 1181 435.5 1188 Q451 1195 469 1195 Z M1024 1024 Q1006 1024 990.5 1031 Q975 1038 963.5 1049.5 Q952 1061 945.5 1076.5 Q939 1092 939 1109 Q939 1127 945.5 1142.5 Q952 1158 963.5 1169.5 Q975 1181 990.5 1188 Q1006 1195 1024 1195 Q1042 1195 1057.5 1188 Q1073 1181 1084.5 1169.5 Q1096 1158 1102.5 1142.5 Q1109 1127 1109 1109 Q1109 1092 1102.5 1076.5 Q1096 1061 1084.5 1049.5 Q1073 1038 1057.5 1031 Q1042 1024 1024 1024 Z M1984 1579 Q1956 1579 1938 1559 L1650 1265 Q1615 1230 1597 1184 Q1579 1138 1579 1088 Q1579 1038 1597 992 Q1615 946 1650 911 L1938 617 Q1956 597 1984 597 Q2010 597 2029 616 Q2048 635 2048 661 L2048 1515 Q2048 1541 2029 1560 Q2010 1579 1984 1579 Z M1920 818 L1742 1001 Q1725 1018 1715.5 1041 Q1706 1064 1706 1088 Q1706 1112 1715.5 1135 Q1725 1158 1742 1175 L1920 1358 L1920 818 Z M1335 1792 L201 1792 Q159 1792 122.5 1776 Q86 1760 59 1733 Q32 1706 16 1669.5 Q0 1633 0 1591 L0 585 Q0 543 16 506.5 Q32 470 59 443 Q86 416 122.5 400 Q159 384 201 384 L1335 384 Q1377 384 1413.5 400 Q1450 416 1477 443 Q1504 470 1520 506.5 Q1536 543 1536 585 L1536 1591 Q1536 1633 1520 1669.5 Q1504 1706 1477 1733 Q1450 1760 1413.5 1776 Q1377 1792 1335 1792 Z M1408 585 Q1408 555 1386.5 533.5 Q1365 512 1335 512 L201 512 Q171 512 149.5 533.5 Q128 555 128 585 L128 1591 Q128 1621 149.5 1642.5 Q171 1664 201 1664 L1335 1664 Q1365 1664 1386.5 1642.5 Q1408 1621 1408 1591 L1408 585 Z " />
<glyph glyph-name="EmoticonStroke" unicode="&#xe30d;" horiz-adv-x="2048" d="M1045 618 Q945 618 853.5 656 Q762 694 690 765 L600 675 Q689 585 804 537.5 Q919 490 1045 490 Q1172 490 1286.5 537.5 Q1401 585 1491 675 L1400 765 Q1329 694 1237.5 656 Q1146 618 1045 618 Z M761 1060 Q784 1060 805 1069 Q826 1078 841.5 1093.5 Q857 1109 866 1129.5 Q875 1150 875 1173 Q875 1197 866 1217.5 Q857 1238 841.5 1253.5 Q826 1269 805 1278 Q784 1287 761 1287 Q737 1287 716.5 1278 Q696 1269 680.5 1253.5 Q665 1238 656 1217.5 Q647 1197 647 1173 Q647 1150 656 1129.5 Q665 1109 680.5 1093.5 Q696 1078 716.5 1069 Q737 1060 761 1060 Z M1330 1060 Q1353 1060 1374 1069 Q1395 1078 1410.5 1093.5 Q1426 1109 1435 1129.5 Q1444 1150 1444 1173 Q1444 1197 1435 1217.5 Q1426 1238 1410.5 1253.5 Q1395 1269 1374 1278 Q1353 1287 1330 1287 Q1306 1287 1285.5 1278 Q1265 1269 1249.5 1253.5 Q1234 1238 1225 1217.5 Q1216 1197 1216 1173 Q1216 1150 1225 1129.5 Q1234 1109 1249.5 1093.5 Q1265 1078 1285.5 1069 Q1306 1060 1330 1060 Z M1045 1920 Q919 1920 802 1887 Q685 1854 583 1794.5 Q481 1735 397 1651 Q313 1567 253.5 1465 Q194 1363 161 1246 Q128 1129 128 1003 Q128 877 161 759.5 Q194 642 253.5 540 Q313 438 397 354 Q481 270 583 210.5 Q685 151 802 118 Q919 85 1045 85 Q1172 85 1289 118 Q1406 151 1508 210.5 Q1610 270 1694 354 Q1778 438 1837.5 540 Q1897 642 1930 759.5 Q1963 877 1963 1003 Q1963 1129 1930 1246 Q1897 1363 1837.5 1465 Q1778 1567 1694 1651 Q1610 1735 1508 1794.5 Q1406 1854 1289 1887 Q1172 1920 1045 1920 Z M1045 213 Q936 213 835.5 241.5 Q735 270 647 321.5 Q559 373 487 445 Q415 517 363.5 605 Q312 693 284 793.5 Q256 894 256 1003 Q256 1112 284 1212.5 Q312 1313 363.5 1401 Q415 1489 487 1561 Q559 1633 647 1684.5 Q735 1736 835.5 1764 Q936 1792 1045 1792 Q1154 1792 1254.5 1764 Q1355 1736 1443 1684.5 Q1531 1633 1603 1561 Q1675 1489 1726.5 1401 Q1778 1313 1806.5 1212.5 Q1835 1112 1835 1003 Q1835 894 1806.5 793.5 Q1778 693 1726.5 605 Q1675 517 1603 445 Q1531 373 1443 321.5 Q1355 270 1254.5 241.5 Q1154 213 1045 213 Z " />
<glyph glyph-name="FileMultiple" unicode="&#xe31a;" horiz-adv-x="2048" d="M1287 1663 L994 1996 Q972 2021 939 2034 Q906 2047 873 2047 L297 2047 Q263 2047 232 2034 Q201 2021 178.5 1999 Q156 1977 142.5 1947 Q129 1917 129 1882 L129 550 Q129 516 142.5 485.5 Q156 455 178.5 433 Q201 411 232 398 Q263 385 297 385 L769 385 L769 166 Q769 132 782.5 101.5 Q796 71 818.5 49 Q841 27 872 14 Q903 1 937 1 L1879 1 Q1914 1 1944.5 14 Q1975 27 1997.5 49 Q2020 71 2033.5 101.5 Q2047 132 2047 166 L2047 1089 Q2047 1121 2034 1150.5 Q2021 1180 2000 1204 L1631 1615 Q1608 1640 1576.5 1651.5 Q1545 1663 1513 1663 L1287 1663 Z M1664 1389 L1877 1152 L1664 1152 L1664 1389 Z M297 511 Q280 511 267.5 522 Q255 533 255 550 L255 1882 Q255 1899 267.5 1910 Q280 1921 297 1921 L873 1921 Q880 1921 888 1918 Q896 1915 901 1910 L1118 1663 L937 1663 Q903 1663 872 1650 Q841 1637 818.5 1615 Q796 1593 782.5 1563 Q769 1533 769 1498 L769 511 L297 511 Z M1879 127 L937 127 Q920 127 907.5 138 Q895 149 895 166 L895 1498 Q895 1515 907.5 1526 Q920 1537 937 1537 L1513 1537 Q1524 1537 1536 1530 L1536 1024 L1921 1024 L1921 166 Q1921 149 1908.5 138 Q1896 127 1879 127 Z M1515 384 L1088 384 Q1062 384 1043 365 Q1024 346 1024 320 Q1024 294 1043 275 Q1062 256 1088 256 L1515 256 Q1541 256 1560 275 Q1579 294 1579 320 Q1579 346 1560 365 Q1541 384 1515 384 Z M1728 640 L1088 640 Q1062 640 1043 621 Q1024 602 1024 576 Q1024 550 1043 531 Q1062 512 1088 512 L1728 512 Q1754 512 1773 531 Q1792 550 1792 576 Q1792 602 1773 621 Q1754 640 1728 640 Z M1728 896 L1088 896 Q1062 896 1043 877 Q1024 858 1024 832 Q1024 806 1043 787 Q1062 768 1088 768 L1728 768 Q1754 768 1773 787 Q1792 806 1792 832 Q1792 858 1773 877 Q1754 896 1728 896 Z " />
<glyph glyph-name="Media" unicode="&#xe321;" horiz-adv-x="2048" d="M1280 1152 L1280 1600 Q1280 1640 1265 1675 Q1250 1710 1224 1736 Q1198 1762 1163 1777 Q1128 1792 1088 1792 L474 1792 Q422 1792 384 1754 L37 1408 Q20 1390 10 1366.5 Q0 1343 0 1317 L0 192 Q0 152 15 117 Q30 82 56 56 Q82 30 117 15 Q152 0 192 0 L1856 0 Q1896 0 1931 15 Q1966 30 1992 56 Q2018 82 2033 117 Q2048 152 2048 192 L2048 960 Q2048 1000 2033 1035 Q2018 1070 1992 1096 Q1966 1122 1931 1137 Q1896 1152 1856 1152 L1280 1152 Z M128 1317 L474 1664 L512 1664 L512 1280 L128 1280 L128 1317 Z M128 192 L128 1152 L640 1152 L640 1664 L1088 1664 Q1114 1664 1133 1645 Q1152 1626 1152 1600 L1152 1152 L832 1152 Q792 1152 757 1137 Q722 1122 696 1096 Q670 1070 655 1035 Q640 1000 640 960 L640 192 Q640 160 652 128 L192 128 Q166 128 147 147 Q128 166 128 192 Z M832 128 Q806 128 787 147 Q768 166 768 192 L768 295 L1176 568 L1553 128 L832 128 Z M1920 192 Q1920 166 1901 147 Q1882 128 1856 128 L1665 128 L1192 680 L768 398 L768 960 Q768 986 787 1005 Q806 1024 832 1024 L1856 1024 Q1882 1024 1901 1005 Q1920 986 1920 960 L1920 192 Z M1600 848 Q1570 848 1544 836.5 Q1518 825 1498.5 805.5 Q1479 786 1467.5 760 Q1456 734 1456 704 Q1456 674 1467.5 648 Q1479 622 1498.5 602.5 Q1518 583 1544 571.5 Q1570 560 1600 560 Q1630 560 1656 571.5 Q1682 583 1701.5 602.5 Q1721 622 1732.5 648 Q1744 674 1744 704 Q1744 734 1732.5 760 Q1721 786 1701.5 805.5 Q1682 825 1656 836.5 Q1630 848 1600 848 Z " />
<glyph glyph-name="SkypeTranslator" unicode="&#xe331;" horiz-adv-x="2048" d="M651 1152 L992 128 L853 128 L768 384 L384 384 L299 128 L160 128 L501 1152 L651 1152 Z M725 512 L576 960 L427 512 L725 512 Z M1902 1246 Q1904 1238 1904 1233 L1904 1137 Q1904 1133 1902 1125 Q1894 1123 1889 1123 Q1849 1123 1810 1124.5 Q1771 1126 1731 1126 L1410 1126 L1410 1078 Q1410 1028 1412 979.5 Q1414 931 1414 881 Q1414 834 1390.5 810.5 Q1367 787 1331.5 777.5 Q1296 768 1255.5 768 Q1215 768 1182 768 L1163 769 Q1149 769 1145.5 773.5 Q1142 778 1138 790 Q1129 819 1118.5 847.5 Q1108 876 1092 902 Q1126 898 1160 896.5 Q1194 895 1228 895 Q1251 895 1264 902.5 Q1277 910 1277 936 L1277 1126 L958 1126 Q918 1126 878 1124.5 Q838 1123 798 1123 Q795 1123 791.5 1123.5 Q788 1124 786 1126 Q784 1132 784 1137 L784 1233 Q784 1241 787 1247 Q790 1248 792.5 1248.5 Q795 1249 798 1249 Q838 1249 878 1247.5 Q918 1246 958 1246 L1277 1246 Q1275 1272 1274.5 1298.5 Q1274 1325 1269 1351 L1355 1343 Q1390 1368 1422 1396 Q1454 1424 1486 1453 L1178 1453 Q1136 1453 1094.5 1451.5 Q1053 1450 1011 1450 Q1008 1450 1004.5 1450.5 Q1001 1451 999 1453 Q997 1459 997 1464 L997 1559 Q997 1563 999 1571 Q1007 1573 1011 1573 Q1053 1573 1094.5 1571.5 Q1136 1570 1178 1570 L1551 1570 Q1565 1570 1578.5 1574.5 Q1592 1579 1606 1579 Q1614 1579 1629 1567 Q1644 1555 1659 1539 Q1674 1523 1685.5 1506.5 Q1697 1490 1697 1482 Q1697 1472 1690.5 1466.5 Q1684 1461 1676 1457 Q1661 1450 1649 1439 Q1591 1391 1532 1345 Q1473 1299 1410 1257 L1410 1246 L1731 1246 Q1771 1246 1810 1247.5 Q1849 1249 1889 1249 Q1896 1249 1902 1246 Z M806 1504 L806 1778 Q806 1781 806.5 1783.5 Q807 1786 808 1789 Q816 1791 821 1791 Q863 1791 904.5 1789.5 Q946 1788 988 1788 L1263 1788 Q1263 1821 1262.5 1854.5 Q1262 1888 1254 1920 Q1262 1920 1287.5 1920 Q1313 1920 1340 1918.5 Q1367 1917 1388.5 1913 Q1410 1909 1410 1901 Q1410 1895 1407 1889 Q1397 1868 1396.5 1846 Q1396 1824 1396 1801 L1396 1788 L1692 1788 Q1734 1788 1775.5 1789.5 Q1817 1791 1859 1791 Q1866 1791 1872 1788 Q1875 1784 1875 1778 Q1875 1760 1873.5 1742.5 Q1872 1725 1872 1707 L1872 1649 Q1872 1613 1873.5 1576.5 Q1875 1540 1875 1504 Q1875 1497 1872 1491 Q1855 1486 1835 1487 Q1815 1488 1798 1488 Q1787 1488 1770 1488 Q1753 1488 1742 1492 Q1735 1534 1738 1581.5 Q1741 1629 1741 1672 L939 1672 Q939 1658 939.5 1645 Q940 1632 940 1618 L940 1536 Q940 1525 940 1512 Q940 1499 936 1490 Q910 1483 878.5 1485.5 Q847 1488 821 1488 Q814 1488 808 1491 Q806 1499 806 1504 Z " />
<glyph glyph-name="ShareAndroid" unicode="&#xe33e;" horiz-adv-x="2048" d="M1728 640 Q1657 640 1593 610 Q1529 580 1484 526 L626 994 Q640 1041 640 1088 Q640 1122 632 1159 L1469 1540 Q1515 1478 1583 1443 Q1651 1408 1728 1408 Q1794 1408 1852.5 1433.5 Q1911 1459 1954.5 1502.5 Q1998 1546 2023 1604 Q2048 1662 2048 1728 Q2048 1794 2023 1852.5 Q1998 1911 1954.5 1954.5 Q1911 1998 1852.5 2023 Q1794 2048 1728 2048 Q1662 2048 1604 2023 Q1546 1998 1502.5 1954.5 Q1459 1911 1433.5 1852.5 Q1408 1794 1408 1728 Q1408 1694 1416 1657 L579 1276 Q533 1338 465 1373 Q397 1408 320 1408 Q254 1408 196 1383 Q138 1358 94.5 1314.5 Q51 1271 25.5 1212.5 Q0 1154 0 1088 Q0 1022 25.5 964 Q51 906 94.5 862.5 Q138 819 196 793.5 Q254 768 320 768 Q391 768 455 798 Q519 828 564 882 L1422 414 Q1408 367 1408 320 Q1408 254 1433.5 196 Q1459 138 1502.5 94.5 Q1546 51 1604 25.5 Q1662 0 1728 0 Q1794 0 1852.5 25.5 Q1911 51 1954.5 94.5 Q1998 138 2023 196 Q2048 254 2048 320 Q2048 386 2023 444.5 Q1998 503 1954.5 546.5 Q1911 590 1852.5 615 Q1794 640 1728 640 Z M1728 1920 Q1768 1920 1803 1905 Q1838 1890 1864 1864 Q1890 1838 1905 1803 Q1920 1768 1920 1728 Q1920 1688 1905 1653 Q1890 1618 1864 1592 Q1838 1566 1803 1551 Q1768 1536 1728 1536 Q1688 1536 1653 1551 Q1618 1566 1592 1592 Q1566 1618 1551 1653 Q1536 1688 1536 1728 Q1536 1768 1551 1803 Q1566 1838 1592 1864 Q1618 1890 1653 1905 Q1688 1920 1728 1920 Z M320 896 Q280 896 245 911 Q210 926 184 952 Q158 978 143 1013 Q128 1048 128 1088 Q128 1128 143 1163 Q158 1198 184 1224 Q210 1250 245 1265 Q280 1280 320 1280 Q360 1280 395 1265 Q430 1250 456 1224 Q482 1198 497 1163 Q512 1128 512 1088 Q512 1048 497 1013 Q482 978 456 952 Q430 926 395 911 Q360 896 320 896 Z M1728 128 Q1688 128 1653 143 Q1618 158 1592 184 Q1566 210 1551 245 Q1536 280 1536 320 Q1536 360 1551 395 Q1566 430 1592 456 Q1618 482 1653 497 Q1688 512 1728 512 Q1768 512 1803 497 Q1838 482 1864 456 Q1890 430 1905 395 Q1920 360 1920 320 Q1920 280 1905 245 Q1890 210 1864 184 Q1838 158 1803 143 Q1768 128 1728 128 Z " />
<glyph glyph-name="VolumeMax" unicode="&#xe400;" horiz-adv-x="2048" d="M1411 1510 Q1385 1510 1366 1491.5 Q1347 1473 1347 1446 Q1347 1432 1352 1422 Q1357 1412 1366 1401 Q1403 1359 1432 1316.5 Q1461 1274 1481 1228 Q1501 1182 1511.5 1131.5 Q1522 1081 1522 1024 Q1522 967 1511.5 916.5 Q1501 866 1481 820 Q1461 774 1432 731.5 Q1403 689 1366 647 Q1357 636 1352 626 Q1347 616 1347 602 Q1347 575 1366 556.5 Q1385 538 1411 538 Q1437 538 1456 556 Q1503 600 1538.5 654.5 Q1574 709 1599 770.5 Q1624 832 1636.5 896.5 Q1649 961 1649 1024 Q1649 1087 1636.5 1151.5 Q1624 1216 1599 1277.5 Q1574 1339 1538.5 1394 Q1503 1449 1456 1492 Q1437 1510 1411 1510 Z M1692 1792 Q1666 1792 1647 1773 Q1628 1754 1628 1728 Q1628 1714 1633 1703.5 Q1638 1693 1647 1683 Q1671 1656 1695 1629.5 Q1719 1603 1740 1574 Q1829 1454 1874.5 1313.5 Q1920 1173 1920 1024 Q1920 875 1874.5 734.5 Q1829 594 1740 474 Q1719 445 1695 418.5 Q1671 392 1647 365 Q1638 355 1633 344.5 Q1628 334 1628 320 Q1628 294 1647 275 Q1666 256 1692 256 Q1717 256 1738 275 Q1762 298 1784.5 324.5 Q1807 351 1827 377 Q1936 517 1992 682 Q2048 847 2048 1024 Q2048 1201 1992 1366 Q1936 1531 1827 1671 Q1807 1697 1784.5 1723.5 Q1762 1750 1738 1773 Q1717 1792 1692 1792 Z M1088 1792 Q1066 1792 1046 1777 L617 1408 L153 1408 Q116 1408 86 1388 Q56 1368 45 1333 Q21 1259 10.5 1180.5 Q0 1102 0 1024 Q0 946 10.5 867.5 Q21 789 45 715 Q56 680 86 660 Q116 640 153 640 L617 640 L1046 271 Q1066 256 1088 256 Q1114 256 1133 275 Q1152 294 1152 320 L1152 1728 Q1152 1754 1133 1773 Q1114 1792 1088 1792 Z M1024 459 L683 753 Q663 768 641 768 L163 768 Q145 831 136.5 895 Q128 959 128 1024 Q128 1089 136.5 1153 Q145 1217 163 1280 L641 1280 Q663 1280 683 1295 L1024 1589 L1024 459 Z " />
<glyph glyph-name="ForwardItem" unicode="&#xe428;" horiz-adv-x="2048" d="M1920 1088 Q1920 1114 1901 1133 L1389 1645 Q1370 1664 1344 1664 Q1318 1664 1299 1645 Q1280 1626 1280 1600 Q1280 1574 1299 1555 L1701 1152 L768 1152 Q680 1152 598 1129 Q516 1106 445 1064.5 Q374 1023 315.5 964.5 Q257 906 215.5 835 Q174 764 151 682 Q128 600 128 512 Q128 486 147 467 Q166 448 192 448 Q218 448 237 467 Q256 486 256 512 Q256 618 296.5 711 Q337 804 406.5 873.5 Q476 943 569 983.5 Q662 1024 768 1024 L1701 1024 L1299 621 Q1280 602 1280 576 Q1280 550 1299 531 Q1318 512 1344 512 Q1370 512 1389 531 L1901 1043 Q1920 1062 1920 1088 Z " />
<glyph glyph-name="Radiobutton" unicode="&#xe42f;" horiz-adv-x="2048" d="M1024 1792 Q1183 1792 1322.5 1731.5 Q1462 1671 1566.5 1566.5 Q1671 1462 1731.5 1322.5 Q1792 1183 1792 1024 Q1792 865 1731.5 725.5 Q1671 586 1566.5 481.5 Q1462 377 1322.5 316.5 Q1183 256 1024 256 Q865 256 725.5 316.5 Q586 377 481.5 481.5 Q377 586 316.5 725.5 Q256 865 256 1024 Q256 1183 316.5 1322.5 Q377 1462 481.5 1566.5 Q586 1671 725.5 1731.5 Q865 1792 1024 1792 Z M1024 1920 Q900 1920 785.5 1888 Q671 1856 571.5 1797.5 Q472 1739 390.5 1657.5 Q309 1576 250.5 1476.5 Q192 1377 160 1262.5 Q128 1148 128 1024 Q128 900 160 785.5 Q192 671 250.5 571.5 Q309 472 390.5 390.5 Q472 309 571.5 250.5 Q671 192 785.5 160 Q900 128 1024 128 Q1148 128 1262.5 160 Q1377 192 1476.5 250.5 Q1576 309 1657.5 390.5 Q1739 472 1797.5 571.5 Q1856 671 1888 785.5 Q1920 900 1920 1024 Q1920 1148 1888 1262.5 Q1856 1377 1797.5 1476.5 Q1739 1576 1657.5 1657.5 Q1576 1739 1476.5 1797.5 Q1377 1856 1262.5 1888 Q1148 1920 1024 1920 Z M1408 1024 Q1408 1104 1378 1173.5 Q1348 1243 1295.5 1295.5 Q1243 1348 1173.5 1378 Q1104 1408 1024 1408 Q945 1408 875 1378 Q805 1348 752.5 1295.5 Q700 1243 670 1173.5 Q640 1104 640 1024 Q640 945 670 875 Q700 805 752.5 752.5 Q805 700 875 670 Q945 640 1024 640 Q1104 640 1173.5 670 Q1243 700 1295.5 752.5 Q1348 805 1378 875 Q1408 945 1408 1024 Z " />
<glyph glyph-name="Lightbulb" unicode="&#xe442;" horiz-adv-x="2048" d="M768 213 L1408 213 L1408 341 L768 341 L768 213 Z M811 0 L1365 0 L1365 128 L811 128 L811 0 Z M1088 1962 Q989 1962 898.5 1936 Q808 1910 730 1862.5 Q652 1815 588.5 1748.5 Q525 1682 479.5 1602 Q434 1522 409.5 1431 Q385 1340 385 1242 Q385 1156 404.5 1073.5 Q424 991 461 916 Q498 841 552.5 775.5 Q607 710 676 659 L676 648 Q676 612 689 573 Q702 534 725.5 501.5 Q749 469 782 448 Q815 427 855 427 L1321 427 Q1359 427 1392 443 Q1425 459 1449 485.5 Q1473 512 1486.5 546.5 Q1500 581 1500 618 L1500 659 Q1569 710 1623.5 775.5 Q1678 841 1715 916 Q1752 991 1771.5 1073.5 Q1791 1156 1791 1242 Q1791 1340 1766.5 1431 Q1742 1522 1696.5 1602 Q1651 1682 1587.5 1748.5 Q1524 1815 1446 1862.5 Q1368 1910 1277.5 1936 Q1187 1962 1088 1962 Z M1232 553 L1330 989 L1205 1017 L1101 555 L1075 555 L971 1017 L846 989 L944 553 L855 553 Q845 553 835 564.5 Q825 576 818 592 Q811 608 806.5 623.5 Q802 639 802 647 L802 692 Q802 709 795 721 Q788 733 774 744 Q754 761 734 775.5 Q714 790 694 808 Q606 893 558.5 1006 Q511 1119 511 1242 Q511 1322 531 1397 Q551 1472 588 1538 Q625 1604 677.5 1659 Q730 1714 794 1753 Q858 1792 932.5 1814 Q1007 1836 1088 1836 Q1169 1836 1243.5 1814 Q1318 1792 1382 1753 Q1446 1714 1498.5 1659 Q1551 1604 1588 1538 Q1625 1472 1645 1397 Q1665 1322 1665 1242 Q1665 1119 1617.5 1006 Q1570 893 1482 808 Q1462 790 1442 775.5 Q1422 761 1402 744 Q1387 732 1381 717.5 Q1375 703 1373.5 686.5 Q1372 670 1373 652.5 Q1374 635 1374 618 Q1374 608 1370 596.5 Q1366 585 1359 575 Q1352 565 1342.5 559 Q1333 553 1321 553 L1232 553 Z " />
<glyph glyph-name="Info" unicode="&#xe602;" horiz-adv-x="2048" d="M1088 341 Q1062 341 1043 360 Q1024 379 1024 405 L1024 1088 Q1024 1114 1043 1133 Q1062 1152 1088 1152 Q1114 1152 1133 1133 Q1152 1114 1152 1088 L1152 405 Q1152 379 1133 360 Q1114 341 1088 341 Z M1003 1408 Q1003 1443 1028 1468 Q1053 1493 1088 1493 Q1123 1493 1148 1468 Q1173 1443 1173 1408 Q1173 1373 1148 1348 Q1123 1323 1088 1323 Q1053 1323 1028 1348 Q1003 1373 1003 1408 Z M1088 0 Q956 0 833.5 34.5 Q711 69 604 131.5 Q497 194 409.5 281.5 Q322 369 259.5 476 Q197 583 162.5 705.5 Q128 828 128 960 Q128 1092 162.5 1214.5 Q197 1337 259.5 1444 Q322 1551 409.5 1638.5 Q497 1726 604 1788.5 Q711 1851 833.5 1885.5 Q956 1920 1088 1920 Q1220 1920 1342.5 1885.5 Q1465 1851 1572 1788.5 Q1679 1726 1766.5 1638.5 Q1854 1551 1916.5 1444 Q1979 1337 2013.5 1214.5 Q2048 1092 2048 960 Q2048 828 2013.5 705.5 Q1979 583 1916.5 476 Q1854 369 1766.5 281.5 Q1679 194 1572 131.5 Q1465 69 1342.5 34.5 Q1220 0 1088 0 Z M1088 1792 Q973 1792 867 1762 Q761 1732 668.5 1678 Q576 1624 500 1548 Q424 1472 370 1379.5 Q316 1287 286 1181 Q256 1075 256 960 Q256 845 286 739 Q316 633 370 540.5 Q424 448 500 372 Q576 296 668.5 242 Q761 188 867 158 Q973 128 1088 128 Q1203 128 1309 158 Q1415 188 1507.5 242 Q1600 296 1676 372 Q1752 448 1806 540.5 Q1860 633 1890 739 Q1920 845 1920 960 Q1920 1075 1890 1181 Q1860 1287 1806 1379.5 Q1752 1472 1676 1548 Q1600 1624 1507.5 1678 Q1415 1732 1309 1762 Q1203 1792 1088 1792 Z " />
<glyph glyph-name="Location" unicode="&#xe610;" horiz-adv-x="2048" d="M1036 0 Q1019 0 1007.5 7 Q996 14 985 26 Q949 65 919 111.5 Q889 158 858 202 Q767 331 678 458.5 Q589 586 503 719 Q455 793 415.5 858.5 Q376 924 347.5 992 Q319 1060 303.5 1134.5 Q288 1209 288 1300 Q288 1405 314.5 1501 Q341 1597 389.5 1680 Q438 1763 506 1831 Q574 1899 657 1947 Q740 1995 836.5 2021.5 Q933 2048 1037 2048 Q1140 2048 1235 2022 Q1330 1996 1412.5 1949 Q1495 1902 1563 1835 Q1631 1768 1679.5 1686.5 Q1728 1605 1754.5 1510 Q1781 1415 1781 1312 Q1781 1219 1763 1138.5 Q1745 1058 1714.5 983.5 Q1684 909 1642 837 Q1600 765 1552 689 Q1470 560 1383.5 436.5 Q1297 313 1208 188 Q1179 147 1150.5 104 Q1122 61 1087 25 Q1075 13 1064.5 6.5 Q1054 0 1036 0 Z M1037 1920 Q951 1920 871.5 1898.5 Q792 1877 723 1837 Q654 1797 597 1741 Q540 1685 499.5 1616.5 Q459 1548 437 1468.5 Q415 1389 415 1303 Q415 1237 427 1173 Q439 1109 462 1048 Q490 973 534.5 905 Q579 837 623 770 Q723 617 826.5 469 Q930 321 1037 172 Q1137 308 1233.5 444.5 Q1330 581 1422 723 Q1468 794 1510 862.5 Q1552 931 1584 1002 Q1616 1073 1635 1150 Q1654 1227 1654 1315 Q1654 1443 1605 1553.5 Q1556 1664 1472 1745.5 Q1388 1827 1275.5 1873.5 Q1163 1920 1037 1920 Z M1034 1024 Q968 1024 910 1049.5 Q852 1075 808.5 1118.5 Q765 1162 739.5 1220 Q714 1278 714 1344 Q714 1410 739.5 1468.5 Q765 1527 808.5 1570.5 Q852 1614 910 1639 Q968 1664 1034 1664 Q1100 1664 1158.5 1639 Q1217 1614 1260.5 1570.5 Q1304 1527 1329 1468.5 Q1354 1410 1354 1344 Q1354 1278 1329 1220 Q1304 1162 1260.5 1118.5 Q1217 1075 1158.5 1049.5 Q1100 1024 1034 1024 Z M1034 1536 Q995 1536 960 1521 Q925 1506 898.5 1479.5 Q872 1453 857 1418 Q842 1383 842 1344 Q842 1305 857 1270 Q872 1235 898.5 1208.5 Q925 1182 960 1167 Q995 1152 1034 1152 Q1074 1152 1109 1167 Q1144 1182 1170 1208 Q1196 1234 1211 1269 Q1226 1304 1226 1344 Q1226 1384 1211 1419 Q1196 1454 1170 1480 Q1144 1506 1109 1521 Q1074 1536 1034 1536 Z " />
<glyph glyph-name="PinLocation" unicode="&#xe613;" horiz-adv-x="2048" d="M1490 1600 Q1490 1692 1455 1773 Q1420 1854 1359.5 1914.5 Q1299 1975 1218 2010 Q1137 2045 1045 2045 Q953 2045 872 2010 Q791 1975 731 1914.5 Q671 1854 636 1773 Q601 1692 601 1600 Q601 1518 630 1443.5 Q659 1369 710 1310 Q761 1251 830.5 1212 Q900 1173 981 1161 L981 171 L1045 0 L1109 171 L1109 1161 Q1191 1173 1260.5 1212 Q1330 1251 1381 1309.5 Q1432 1368 1461 1443 Q1490 1518 1490 1600 Z M1045 1277 Q978 1277 919.5 1302.5 Q861 1328 817 1372 Q773 1416 747.5 1474.5 Q722 1533 722 1600 Q722 1667 747.5 1725.5 Q773 1784 817 1828 Q861 1872 919.5 1897.5 Q978 1923 1045 1923 Q1112 1923 1171 1897.5 Q1230 1872 1274 1828 Q1318 1784 1343.5 1725.5 Q1369 1667 1369 1600 Q1369 1533 1343.5 1474.5 Q1318 1416 1274 1372 Q1230 1328 1171 1302.5 Q1112 1277 1045 1277 Z " />
<glyph glyph-name="CallRecordStroke" unicode="&#xe701;" horiz-adv-x="2048" d="M1024 1877 Q907 1877 798 1846.5 Q689 1816 594 1760.5 Q499 1705 421 1627 Q343 1549 287.5 1454 Q232 1359 201.5 1250 Q171 1141 171 1024 Q171 907 201.5 798 Q232 689 287.5 594 Q343 499 421 421 Q499 343 594 287.5 Q689 232 798 201.5 Q907 171 1024 171 Q1142 171 1250.5 201.5 Q1359 232 1454 287.5 Q1549 343 1627 421 Q1705 499 1760.5 594 Q1816 689 1846.5 798 Q1877 907 1877 1024 Q1877 1142 1846.5 1250.5 Q1816 1359 1760.5 1454 Q1705 1549 1627 1627 Q1549 1705 1454 1760.5 Q1359 1816 1250 1846.5 Q1141 1877 1024 1877 Z M1024 299 Q874 299 742 356 Q610 413 511.5 511.5 Q413 610 356 742 Q299 874 299 1024 Q299 1174 356 1306 Q413 1438 511.5 1536.5 Q610 1635 742 1692 Q874 1749 1024 1749 Q1174 1749 1306 1692 Q1438 1635 1536.5 1536.5 Q1635 1438 1692 1306 Q1749 1174 1749 1024 Q1749 874 1692 742 Q1635 610 1536.5 511.5 Q1438 413 1306 356 Q1174 299 1024 299 Z " />
<glyph glyph-name="CallAnimSmall3" unicode="&#xe707;" horiz-adv-x="2047" d="M1276 57 Q1249 57 1219 65 Q1058 111 915 190 Q772 269 650.5 375.5 Q529 482 432.5 611.5 Q336 741 268 887.5 Q200 1034 164 1194 Q128 1354 128 1520 Q128 1561 130 1600.5 Q132 1640 143.5 1675 Q155 1710 178.5 1738.5 Q202 1767 245 1787 Q269 1798 293 1809.5 Q317 1821 342 1831.5 Q367 1842 392.5 1848.5 Q418 1855 445 1855 Q499 1855 536 1838 Q573 1821 600.5 1792 Q628 1763 648.5 1725 Q669 1687 690 1645 Q718 1591 735 1530.5 Q752 1470 752 1408 Q752 1356 739.5 1317.5 Q727 1279 708.5 1250 Q690 1221 668 1199 Q646 1177 627.5 1159 Q609 1141 596.5 1124 Q584 1107 584 1088 Q584 1067 596 1050 L843 697 Q852 684 866.5 676.5 Q881 669 897 669 Q914 669 936 679.5 Q958 690 985.5 703 Q1013 716 1046 726.5 Q1079 737 1119 737 Q1164 737 1207.5 724.5 Q1251 712 1291.5 691 Q1332 670 1368.5 642 Q1405 614 1435 582 Q1460 555 1482.5 531.5 Q1505 508 1522.5 482.5 Q1540 457 1550.5 426.5 Q1561 396 1561 357 Q1561 312 1544.5 271.5 Q1528 231 1497 199 Q1472 174 1449 148.5 Q1426 123 1400.5 102.5 Q1375 82 1345 69.5 Q1315 57 1276 57 Z M1276 185 Q1293 185 1311 197 Q1329 209 1346 225.5 Q1363 242 1378 259.5 Q1393 277 1405 289 Q1433 317 1433 357 Q1433 379 1423.5 397.5 Q1414 416 1400.5 433 Q1387 450 1371 465 Q1355 480 1341 495 Q1320 517 1294.5 537.5 Q1269 558 1240.5 574 Q1212 590 1181 599.5 Q1150 609 1119 609 Q1089 609 1062 598.5 Q1035 588 1008.5 575 Q982 562 955 551.5 Q928 541 897 541 Q849 541 807 563.5 Q765 586 739 624 L491 977 Q474 1001 465 1029.5 Q456 1058 456 1088 Q456 1129 468.5 1157.5 Q481 1186 499.5 1208.5 Q518 1231 539.5 1250.5 Q561 1270 579.5 1292.5 Q598 1315 610.5 1343 Q623 1371 623 1410 Q623 1455 609.5 1501 Q596 1547 576 1588 Q565 1610 554.5 1634.5 Q544 1659 529.5 1679.5 Q515 1700 495 1713.5 Q475 1727 445 1727 Q430 1727 410.5 1720.5 Q391 1714 370.5 1705 Q350 1696 330.5 1686 Q311 1676 297 1670 Q278 1661 269 1643.5 Q260 1626 257 1604 Q254 1582 255 1560 Q256 1538 256 1520 Q256 1366 289 1219.5 Q322 1073 383.5 939.5 Q445 806 533.5 688 Q622 570 733 473.5 Q844 377 975.5 304 Q1107 231 1255 188 Q1266 185 1276 185 Z M1514 837 Q1488 837 1469 855.5 Q1450 874 1450 900 Q1450 926 1454.5 952 Q1459 978 1459 1004 Q1459 1080 1438 1152 Q1417 1224 1378 1286.5 Q1339 1349 1283.5 1400 Q1228 1451 1159 1484 Q1124 1501 1090 1511 Q1056 1521 1019 1529 Q996 1534 981 1551 Q966 1568 966 1592 Q966 1618 984.5 1637 Q1003 1656 1030 1656 Q1037 1656 1041 1655 Q1160 1632 1260 1573.5 Q1360 1515 1432.5 1429 Q1505 1343 1546 1235 Q1587 1127 1587 1005 Q1587 985 1586.5 956 Q1586 927 1579.5 900.5 Q1573 874 1558 855.5 Q1543 837 1514 837 Z M1150 920 Q1125 920 1105 939 Q1085 958 1086 984 Q1086 992 1087 999 Q1088 1006 1088 1014 Q1088 1069 1055.5 1106.5 Q1023 1144 972 1157 Q949 1163 935 1180 Q921 1197 921 1220 Q921 1246 940 1265 Q959 1284 985 1284 Q989 1284 992 1283.5 Q995 1283 999 1282 Q1046 1272 1086 1247 Q1126 1222 1155 1186.5 Q1184 1151 1200 1106.5 Q1216 1062 1216 1014 Q1216 998 1213.5 981 Q1211 964 1204 950.5 Q1197 937 1184 928.5 Q1171 920 1150 920 Z " />
<glyph glyph-name="MobileOk" unicode="&#xe712;" horiz-adv-x="2048" d="M1343 1920 L577 1920 Q537 1920 502 1905 Q467 1890 441 1863.5 Q415 1837 399.5 1802 Q384 1767 384 1727 L384 321 Q384 281 399.5 246 Q415 211 441 185 Q467 159 502 143.5 Q537 128 577 128 L1343 128 Q1383 128 1418 143.5 Q1453 159 1479.5 185 Q1506 211 1521 246 Q1536 281 1536 321 L1536 1727 Q1536 1767 1521 1802 Q1506 1837 1479.5 1863.5 Q1453 1890 1418 1905 Q1383 1920 1343 1920 Z M960 240 Q927 240 903.5 263.5 Q880 287 880 320 Q880 353 903.5 376.5 Q927 400 960 400 Q993 400 1016.5 376.5 Q1040 353 1040 320 Q1040 287 1016.5 263.5 Q993 240 960 240 Z M1408 512 L512 512 L512 1729 Q512 1755 530.5 1773.5 Q549 1792 575 1792 L1345 1792 Q1371 1792 1389.5 1773.5 Q1408 1755 1408 1729 L1408 512 Z M896 939 Q878 939 866 951 L695 1122 Q683 1134 683 1152 Q683 1169 695.5 1182 Q708 1195 725 1195 Q744 1195 755 1182 L896 1042 L1207 1353 Q1219 1365 1237 1365 Q1255 1365 1267.5 1352.5 Q1280 1340 1280 1323 Q1280 1304 1267 1293 L926 951 Q914 939 896 939 Z " />
<glyph glyph-name="Mobile" unicode="&#xe714;" horiz-adv-x="2048" d="M1343 1920 L577 1920 Q537 1920 502 1905 Q467 1890 441 1863.5 Q415 1837 399.5 1802 Q384 1767 384 1727 L384 321 Q384 281 399.5 246 Q415 211 441 185 Q467 159 502 143.5 Q537 128 577 128 L1343 128 Q1383 128 1418 143.5 Q1453 159 1479.5 185 Q1506 211 1521 246 Q1536 281 1536 321 L1536 1727 Q1536 1767 1521 1802 Q1506 1837 1479.5 1863.5 Q1453 1890 1418 1905 Q1383 1920 1343 1920 Z M960 240 Q927 240 903.5 263.5 Q880 287 880 320 Q880 353 903.5 376.5 Q927 400 960 400 Q993 400 1016.5 376.5 Q1040 353 1040 320 Q1040 287 1016.5 263.5 Q993 240 960 240 Z M1408 512 L512 512 L512 1729 Q512 1755 530.5 1773.5 Q549 1792 575 1792 L1345 1792 Q1371 1792 1389.5 1773.5 Q1408 1755 1408 1729 L1408 512 Z " />
<glyph glyph-name="MobileSMS" unicode="&#xe716;" horiz-adv-x="2048" d="M1024 1152 L1536 1152 L1536 1280 L1024 1280 L1024 1152 Z M1536 1536 L1536 1728 Q1536 1768 1521 1803 Q1506 1838 1480 1864 Q1454 1890 1419 1905 Q1384 1920 1344 1920 L576 1920 Q536 1920 501 1905 Q466 1890 440 1864 Q414 1838 399 1803 Q384 1768 384 1728 L384 320 Q384 280 399 245 Q414 210 440 184 Q466 158 501 143 Q536 128 576 128 L1344 128 Q1384 128 1419 143 Q1454 158 1480 184 Q1506 210 1521 245 Q1536 280 1536 320 L1536 505 L1408 612 L1408 512 L512 512 L512 1728 Q512 1754 531 1773 Q550 1792 576 1792 L1344 1792 Q1370 1792 1389 1773 Q1408 1754 1408 1728 L1408 1536 L898 1536 Q871 1536 847.5 1526 Q824 1516 806.5 1498.5 Q789 1481 778.5 1458 Q768 1435 768 1408 L768 896 Q768 869 778.5 846 Q789 823 806.5 805.5 Q824 788 847.5 778 Q871 768 898 768 L1436 768 Q1485 716 1533 663 Q1581 610 1632 560 L1641 564 Q1662 555 1684 555 Q1706 555 1725.5 563.5 Q1745 572 1760 586 Q1775 600 1783.5 619.5 Q1792 639 1792 661 L1792 1408 Q1792 1435 1781.5 1458 Q1771 1481 1753.5 1498.5 Q1736 1516 1712.5 1526 Q1689 1536 1662 1536 L1536 1536 Z M960 400 Q993 400 1016.5 376.5 Q1040 353 1040 320 Q1040 287 1016.5 263.5 Q993 240 960 240 Q927 240 903.5 263.5 Q880 287 880 320 Q880 353 903.5 376.5 Q927 400 960 400 Z M1664 712 L1524 862 Q1509 878 1488.5 887 Q1468 896 1446 896 L896 896 L896 1408 L1664 1408 L1664 712 Z " />
<glyph glyph-name="PrivateChat" unicode="&#xe805;" horiz-adv-x="2048" d="M1728 1920 L320 1920 Q280 1920 245 1905 Q210 1890 184 1864 Q158 1838 143 1803 Q128 1768 128 1728 L128 704 Q128 664 143 629 Q158 594 184 568 Q210 542 245 527 Q280 512 320 512 L1304 512 Q1311 512 1337.5 485.5 Q1364 459 1401.5 418.5 Q1439 378 1482.5 329 Q1526 280 1566.5 235 Q1607 190 1639.5 154.5 Q1672 119 1687 106 L1692 108 Q1727 85 1771 85 Q1802 85 1829 97 Q1856 109 1876.5 129 Q1897 149 1908.5 176.5 Q1920 204 1920 235 L1920 1728 Q1920 1768 1905 1803 Q1890 1838 1864 1864 Q1838 1890 1803 1905 Q1768 1920 1728 1920 Z M1771 213 Q1765 213 1758.5 218.5 Q1752 224 1745 231 Q1738 238 1732.5 245 Q1727 252 1723 256 L1721 255 L1396 612 L1392 612 Q1353 640 1306 640 L320 640 Q294 640 275 659 Q256 678 256 704 L256 1728 Q256 1754 275 1773 Q294 1792 320 1792 L1728 1792 Q1754 1792 1773 1773 Q1792 1754 1792 1728 L1792 235 Q1792 226 1785.5 219.5 Q1779 213 1771 213 Z M1280 1365 L1280 1425 Q1280 1479 1261 1530 Q1242 1581 1208.5 1620 Q1175 1659 1128 1683 Q1081 1707 1024 1707 Q967 1707 920 1683 Q873 1659 839.5 1620 Q806 1581 787 1530 Q768 1479 768 1425 L768 1365 Q742 1365 718.5 1356 Q695 1347 677.5 1331 Q660 1315 650 1292.5 Q640 1270 640 1243 L640 847 Q640 822 649.5 799.5 Q659 777 675.5 760.5 Q692 744 714.5 734.5 Q737 725 762 725 L1286 725 Q1311 725 1333.5 734.5 Q1356 744 1372.5 760.5 Q1389 777 1398.5 799.5 Q1408 822 1408 847 L1408 1243 Q1408 1270 1398 1292.5 Q1388 1315 1370.5 1331 Q1353 1347 1329.5 1356 Q1306 1365 1280 1365 Z M1067 989 L1067 853 L981 853 L981 989 Q943 1003 919.5 1035.5 Q896 1068 896 1109 Q896 1136 906 1159 Q916 1182 933.5 1199.5 Q951 1217 974.5 1227 Q998 1237 1024 1237 Q1050 1237 1073.5 1227 Q1097 1217 1114.5 1199.5 Q1132 1182 1142 1159 Q1152 1136 1152 1109 Q1152 1068 1128.5 1035.5 Q1105 1003 1067 989 Z M1152 1365 L896 1365 L896 1425 Q896 1452 905 1479 Q914 1506 930.5 1528.5 Q947 1551 970.5 1565 Q994 1579 1024 1579 Q1054 1579 1077.5 1565 Q1101 1551 1117.5 1528.5 Q1134 1506 1143 1479 Q1152 1452 1152 1425 L1152 1365 Z " />
<glyph glyph-name="PrivateSessionLock" unicode="&#xe808;" horiz-adv-x="2048" d="M1024 960 Q984 960 949 945 Q914 930 888 904 Q862 878 847 843 Q832 808 832 768 Q832 738 841.5 709.5 Q851 681 867.5 657.5 Q884 634 908 616 Q932 598 960 588 L960 384 L1088 384 L1088 588 Q1117 598 1140.5 616 Q1164 634 1180.5 657.5 Q1197 681 1206.5 709.5 Q1216 738 1216 768 Q1216 808 1201 843 Q1186 878 1160 904 Q1134 930 1099 945 Q1064 960 1024 960 Z M1024 704 Q998 704 979 723 Q960 742 960 768 Q960 794 979 813 Q998 832 1024 832 Q1050 832 1069 813 Q1088 794 1088 768 Q1088 742 1069 723 Q1050 704 1024 704 Z M1536 1280 L1536 1536 Q1536 1642 1495.5 1735 Q1455 1828 1385.5 1897.5 Q1316 1967 1223 2007.5 Q1130 2048 1024 2048 Q918 2048 825 2007.5 Q732 1967 662.5 1897.5 Q593 1828 552.5 1735 Q512 1642 512 1536 L512 1280 L448 1280 Q411 1280 376 1266.5 Q341 1253 314.5 1229 Q288 1205 272 1172 Q256 1139 256 1100 L256 308 Q256 269 272 236 Q288 203 314.5 179 Q341 155 376 141.5 Q411 128 448 128 L1600 128 Q1638 128 1672.5 141.5 Q1707 155 1733.5 179 Q1760 203 1776 236 Q1792 269 1792 308 L1792 1100 Q1792 1139 1776 1172 Q1760 1205 1733.5 1229 Q1707 1253 1672.5 1266.5 Q1638 1280 1600 1280 L1536 1280 Z M640 1536 Q640 1615 670.5 1685 Q701 1755 753 1807 Q805 1859 875 1889.5 Q945 1920 1024 1920 Q1103 1920 1173 1889.5 Q1243 1859 1295 1807 Q1347 1755 1377.5 1685 Q1408 1615 1408 1536 L1408 1280 L640 1280 L640 1536 Z M1664 308 Q1664 284 1643 270 Q1622 256 1600 256 L448 256 Q426 256 405 269.5 Q384 283 384 308 L384 1100 Q384 1124 405 1138 Q426 1152 448 1152 L1600 1152 Q1622 1152 1643 1138.5 Q1664 1125 1664 1100 L1664 308 Z " />
<glyph glyph-name="AvatarBotCertified" unicode="&#xf121;" horiz-adv-x="2048" d="M2048 572 Q2048 455 2002.5 351 Q1957 247 1879 169 Q1801 91 1697 45.5 Q1593 0 1476 0 Q1403 0 1332.5 18.5 Q1262 37 1199 72 Q1155 64 1111.5 60 Q1068 56 1024 56 Q891 56 768 91 Q645 126 537 189 Q429 252 340.5 340.5 Q252 429 189 537 Q126 645 91 768 Q56 891 56 1024 Q56 1068 60 1111.5 Q64 1155 72 1199 Q37 1262 18.5 1332.5 Q0 1403 0 1476 Q0 1593 45.5 1697 Q91 1801 169 1879 Q247 1957 351 2002.5 Q455 2048 572 2048 Q645 2048 715.5 2029.5 Q786 2011 849 1976 Q893 1984 936.5 1988 Q980 1992 1024 1992 Q1157 1992 1280 1957 Q1403 1922 1511 1859 Q1619 1796 1707.5 1707.5 Q1796 1619 1859 1511 Q1922 1403 1957 1280 Q1992 1157 1992 1024 Q1992 979 1988 936 Q1984 893 1976 849 Q2011 786 2029.5 715.5 Q2048 645 2048 572 Z M1457 1224 Q1457 1243 1449 1260.5 Q1441 1278 1428 1291 Q1415 1304 1397.5 1312 Q1380 1320 1361 1320 Q1321 1320 1293 1292 L931 928 L802 1056 Q789 1070 771.5 1077 Q754 1084 735 1084 Q716 1084 698.5 1076 Q681 1068 668 1055 Q655 1042 647 1024.5 Q639 1007 639 988 Q639 948 667 920 L863 724 Q891 696 931 696 Q971 696 999 724 L1429 1156 Q1457 1184 1457 1224 Z " />
<glyph glyph-name="Menu" unicode="&#xe700;" horiz-adv-x="2048" d="M277 1664 L1856 1664 Q1882 1664 1901 1683 Q1920 1702 1920 1728 Q1920 1754 1901 1773 Q1882 1792 1856 1792 L277 1792 Q251 1792 232 1773 Q213 1754 213 1728 Q213 1702 232 1683 Q251 1664 277 1664 Z M1856 1152 L277 1152 Q251 1152 232 1133 Q213 1114 213 1088 Q213 1062 232 1043 Q251 1024 277 1024 L1856 1024 Q1882 1024 1901 1043 Q1920 1062 1920 1088 Q1920 1114 1901 1133 Q1882 1152 1856 1152 Z M1856 512 L277 512 Q251 512 232 493 Q213 474 213 448 Q213 422 232 403 Q251 384 277 384 L1856 384 Q1882 384 1901 403 Q1920 422 1920 448 Q1920 474 1901 493 Q1882 512 1856 512 Z " />
<glyph glyph-name="CallRecord" unicode="&#xe6ff;" horiz-adv-x="2048" d="M1024 1877 Q907 1877 798 1846.5 Q689 1816 594 1760.5 Q499 1705 421 1627 Q343 1549 287.5 1454 Q232 1359 201.5 1250 Q171 1141 171 1024 Q171 907 201.5 798 Q232 689 287.5 594 Q343 499 421 421 Q499 343 594 287.5 Q689 232 798 201.5 Q907 171 1024 171 Q1142 171 1250.5 201.5 Q1359 232 1454 287.5 Q1549 343 1627 421 Q1705 499 1760.5 594 Q1816 689 1846.5 798 Q1877 907 1877 1024 Q1877 1142 1846.5 1250.5 Q1816 1359 1760.5 1454 Q1705 1549 1627 1627 Q1549 1705 1454 1760.5 Q1359 1816 1250 1846.5 Q1141 1877 1024 1877 Z M1024 299 Q874 299 742 356 Q610 413 511.5 511.5 Q413 610 356 742 Q299 874 299 1024 Q299 1174 356 1306 Q413 1438 511.5 1536.5 Q610 1635 742 1692 Q874 1749 1024 1749 Q1174 1749 1306 1692 Q1438 1635 1536.5 1536.5 Q1635 1438 1692 1306 Q1749 1174 1749 1024 Q1749 874 1692 742 Q1635 610 1536.5 511.5 Q1438 413 1306 356 Q1174 299 1024 299 Z M1024 1536 Q918 1536 825 1495.5 Q732 1455 662.5 1385.5 Q593 1316 552.5 1223 Q512 1130 512 1024 Q512 918 552.5 825 Q593 732 662.5 662.5 Q732 593 825 552.5 Q918 512 1024 512 Q1130 512 1223 552.5 Q1316 593 1385.5 662.5 Q1455 732 1495.5 825 Q1536 918 1536 1024 Q1536 1130 1495.5 1223 Q1455 1316 1385.5 1385.5 Q1316 1455 1223 1495.5 Q1130 1536 1024 1536 Z " />
<glyph glyph-name="SignOut" unicode="&#xe60d;" horiz-adv-x="2048" d="M1536 1472 Q1510 1472 1491 1453 Q1472 1434 1472 1408 Q1472 1382 1491 1363 L1702 1152 L832 1152 Q806 1152 787 1133 Q768 1114 768 1088 Q768 1062 787 1043 Q806 1024 832 1024 L1702 1024 L1491 813 Q1472 794 1472 768 Q1472 742 1491 723 Q1510 704 1536 704 Q1562 704 1581 723 L1901 1043 Q1920 1062 1920 1088 Q1920 1114 1901 1133 L1581 1453 Q1562 1472 1536 1472 Z M1088 128 Q1128 128 1163 143 Q1198 158 1224 184 Q1250 210 1265 245 Q1280 280 1280 320 L1280 704 Q1280 730 1261 749 Q1242 768 1216 768 Q1190 768 1171 749 Q1152 730 1152 704 L1152 320 Q1152 294 1133 275 Q1114 256 1088 256 L320 256 Q294 256 275 275 Q256 294 256 320 L256 1728 Q256 1754 275 1773 Q294 1792 320 1792 L1088 1792 Q1114 1792 1133 1773 Q1152 1754 1152 1728 L1152 1472 Q1152 1446 1171 1427 Q1190 1408 1216 1408 Q1242 1408 1261 1427 Q1280 1446 1280 1472 L1280 1728 Q1280 1768 1265 1803 Q1250 1838 1224 1864 Q1198 1890 1163 1905 Q1128 1920 1088 1920 L320 1920 Q280 1920 245 1905 Q210 1890 184 1864 Q158 1838 143 1803 Q128 1768 128 1728 L128 320 Q128 280 143 245 Q158 210 184 184 Q210 158 245 143 Q280 128 320 128 L1088 128 Z " />
<glyph glyph-name="ChromeClose" unicode="&#xe8bb;" horiz-adv-x="2048" d="M2044 1924 L1145 1024 L2044 124 L1924 4 L1024 903 L124 4 L4 124 L903 1024 L4 1924 L124 2044 L1024 1145 L1924 2044 L2044 1924 Z " />
<glyph glyph-name="ChromeMaximize" unicode="&#xe922;" horiz-adv-x="2048" d="M2048 0 L0 0 L0 2048 L2048 2048 L2048 0 Z M171 1877 L171 171 L1877 171 L1877 1877 L171 1877 Z " />
<glyph glyph-name="ChromeMinimize" unicode="&#xe921;" horiz-adv-x="2048" d="M2048 1024 L0 1024 L0 1195 L2048 1195 L2048 1024 Z " />
<glyph glyph-name="ChromeRestore" unicode="&#xe923;" horiz-adv-x="2048" d="M2048 341 L1707 341 L1707 0 L0 0 L0 1707 L341 1707 L341 2048 L2048 2048 L2048 341 Z M171 1536 L171 171 L1536 171 L1536 1536 L171 1536 Z M512 1877 L512 1707 L1707 1707 L1707 512 L1877 512 L1877 1877 L512 1877 Z " />
<glyph glyph-name="Money" unicode="&#xe50a;" horiz-adv-x="2048" d="M2048 1664 L2048 384 L128 384 L128 640 L0 640 L0 1792 L1792 1792 L1792 1664 L2048 1664 Z M128 1024 Q181 1024 227.5 1004 Q274 984 309 949 Q344 914 364 867.5 Q384 821 384 768 L1408 768 Q1408 821 1428 867.5 Q1448 914 1483 949 Q1518 984 1564.5 1004 Q1611 1024 1664 1024 L1664 1408 Q1611 1408 1564.5 1428 Q1518 1448 1483 1483 Q1448 1518 1428 1564.5 Q1408 1611 1408 1664 L384 1664 Q384 1611 364 1564.5 Q344 1518 309 1483 Q274 1448 227.5 1428 Q181 1408 128 1408 L128 1024 Z M128 1536 Q155 1536 178 1546 Q201 1556 218.5 1573.5 Q236 1591 246 1614 Q256 1637 256 1664 L128 1664 L128 1536 Z M128 768 L256 768 Q256 795 246 818 Q236 841 218.5 858.5 Q201 876 178 886 Q155 896 128 896 L128 768 Z M1920 1536 L1792 1536 L1792 640 L256 640 L256 512 L1920 512 L1920 1536 Z M448 1152 Q422 1152 403 1171 Q384 1190 384 1216 Q384 1242 403 1261 Q422 1280 448 1280 Q474 1280 493 1261 Q512 1242 512 1216 Q512 1190 493 1171 Q474 1152 448 1152 Z M896 896 Q843 896 796.5 916 Q750 936 715 971 Q680 1006 660 1052.5 Q640 1099 640 1152 L640 1280 Q640 1333 660 1379.5 Q680 1426 715 1461 Q750 1496 796.5 1516 Q843 1536 896 1536 Q949 1536 995.5 1516 Q1042 1496 1077 1461 Q1112 1426 1132 1379.5 Q1152 1333 1152 1280 L1152 1152 Q1152 1099 1132 1052.5 Q1112 1006 1077 971 Q1042 936 995.5 916 Q949 896 896 896 Z M768 1152 Q768 1125 778 1102 Q788 1079 805.5 1061.5 Q823 1044 846 1034 Q869 1024 896 1024 Q923 1024 946 1034 Q969 1044 986.5 1061.5 Q1004 1079 1014 1102 Q1024 1125 1024 1152 L1024 1280 Q1024 1307 1014 1330 Q1004 1353 986.5 1370.5 Q969 1388 946 1398 Q923 1408 896 1408 Q869 1408 846 1398 Q823 1388 805.5 1370.5 Q788 1353 778 1330 Q768 1307 768 1280 L768 1152 Z M1344 1152 Q1318 1152 1299 1171 Q1280 1190 1280 1216 Q1280 1242 1299 1261 Q1318 1280 1344 1280 Q1370 1280 1389 1261 Q1408 1242 1408 1216 Q1408 1190 1389 1171 Q1370 1152 1344 1152 Z M1536 1664 Q1536 1637 1546 1614 Q1556 1591 1573.5 1573.5 Q1591 1556 1614 1546 Q1637 1536 1664 1536 L1664 1664 L1536 1664 Z M1664 896 Q1637 896 1614 886 Q1591 876 1573.5 858.5 Q1556 841 1546 818 Q1536 795 1536 768 L1664 768 L1664 896 Z " />
<glyph glyph-name="Settings" unicode="&#xe60a;" horiz-adv-x="2048" d="M1237 0 L939 0 L875 59 L858 262 Q807 278 757 303 L601 172 L515 176 L304 387 L300 473 L431 629 Q406 679 390 730 L187 747 L128 811 L128 1109 L187 1173 L390 1190 Q406 1241 431 1291 L300 1447 L304 1533 L515 1744 L601 1748 L757 1617 Q807 1642 858 1658 L875 1861 L939 1920 L1237 1920 L1301 1861 L1318 1658 Q1369 1642 1419 1617 L1575 1748 L1661 1744 L1872 1533 L1876 1447 L1745 1291 Q1768 1244 1787 1190 L1989 1173 L2048 1109 L2048 811 L1989 747 L1786 730 Q1770 679 1745 629 L1876 473 L1872 387 L1661 176 L1575 172 L1419 303 Q1369 278 1318 262 L1301 59 L1237 0 Z M998 128 L1178 128 L1194 316 L1242 372 Q1321 393 1395 436 L1468 429 L1612 308 L1740 436 L1619 579 L1612 653 Q1655 727 1676 806 L1732 854 L1920 869 L1920 1050 L1732 1066 L1676 1114 Q1655 1193 1612 1267 L1619 1340 L1740 1484 L1612 1612 L1469 1490 L1395 1484 Q1321 1527 1242 1548 L1194 1604 L1179 1792 L998 1792 L982 1604 L934 1548 Q855 1527 781 1484 L708 1491 L564 1612 L436 1484 L557 1341 L564 1267 Q521 1193 500 1114 L444 1066 L256 1051 L256 870 L444 854 L500 806 Q521 727 564 653 L557 580 L436 436 L564 308 L707 429 L781 436 Q855 393 934 372 L982 316 L998 128 Z M1088 647 Q1023 647 966 671.5 Q909 696 866.5 739 Q824 782 799.5 839 Q775 896 775 960 Q775 1025 799.5 1081.5 Q824 1138 867 1181 Q910 1224 967 1248.5 Q1024 1273 1088 1273 Q1153 1273 1209.5 1248.5 Q1266 1224 1309 1181 Q1352 1138 1376.5 1081.5 Q1401 1025 1401 960 Q1401 895 1376.5 838 Q1352 781 1309 738.5 Q1266 696 1209.5 671.5 Q1153 647 1088 647 Z M1088 1148 Q1049 1148 1015 1133 Q981 1118 955.5 1092.5 Q930 1067 915 1033 Q900 999 900 960 Q900 921 915 887 Q930 853 955.5 827.5 Q981 802 1015 787 Q1049 772 1088 772 Q1127 772 1161 787 Q1195 802 1220.5 827.5 Q1246 853 1261 887 Q1276 921 1276 960 Q1276 999 1261 1033 Q1246 1067 1220.5 1092.5 Q1195 1118 1161 1133 Q1127 1148 1088 1148 Z " />
</font>
</svg>
