<?xml version="1.0" encoding="utf-8"?>
<!-- Generator: Adobe Illustrator 19.2.0, SVG Export Plug-In . SVG Version: 6.00 Build 0)  -->
<svg version="1.1" id="Layer_1" xmlns="http://www.w3.org/2000/svg" xmlns:xlink="http://www.w3.org/1999/xlink" x="0px" y="0px"
	 viewBox="0 0 128 1704" style="enable-background:new 0 0 128 1704;" xml:space="preserve">
<style type="text/css">
	.st0{fill:#FFFFFF;stroke:#00AFF0;stroke-width:3;stroke-miterlimit:10;}
	.st1{fill:#00AFF0;}
</style>
<g>
	<circle class="st0" cx="64" cy="320" r="62.3"/>
</g>
<g>
	<circle class="st0" cx="64" cy="192" r="62.3"/>
</g>
<g>
	<circle class="st0" cx="64" cy="64.4" r="62.3"/>
</g>
<g>
	<path class="st1" d="M67.7,67.4l23-22.1H38.5l23,22.1C63.6,69.3,65.6,69.3,67.7,67.4z"/>
	<path class="st1" d="M71.3,72.1c-3.7,3.7-9.7,3.7-13.3,0L36.6,50.8v26.6c0,3.4,2.6,6,6,6h44.2c3.4,0,6-2.6,6-6V50.8L71.3,72.1z"/>
</g>
<g>
	<path class="st1" d="M40.5,315.6c3.2,0,5.9-3.2,5.9-7.1c0-3.8-2.6-6.7-5.9-6.7s-5.9,2.8-5.9,6.7C34.7,312.4,37.3,315.6,40.5,315.6z
		"/>
	<path class="st1" d="M58.3,320.8c4.4,0,8.1-4.6,8.1-9.9s-3.6-9.1-8.1-9.1s-8.1,3.8-8.1,9.1C50.2,316.2,53.9,320.8,58.3,320.8z"/>
	<path class="st1" d="M66,324.3c-0.8,0-1.4,0.2-2,0.2l0,0c-1.4,0.4-3.4,1-5.5,1l0,0l0,0l0,0l0,0l0,0l0,0c-2,0-4.2-0.6-5.5-1l0,0
		c-0.6-0.2-1.4-0.2-2-0.2c-5.1,0-8.9,4.6-8.9,10.5v1.4c0,1.2,1,2,2,2l0,0h29.1l0,0c1.2,0,2-1,2-2v-1.4
		C74.9,328.9,70.8,324.3,66,324.3z"/>
	<path class="st1" d="M99.1,301.4c-0.2-0.4-0.8-0.6-1.4-0.4l-5.3,2.2v5.5l5.3,2.2c0.2,0,0.4,0.2,0.6,0.2s0.2,0,0.4-0.2
		c0.4-0.2,0.6-0.6,0.6-1V302C99.1,301.6,99.1,301.4,99.1,301.4z"/>
	<path class="st1" d="M90.8,301.6L90.8,301.6v-0.2c0-1.2-0.8-2-2-2.2c-0.4,0-3,0-3,0s-4,0-6.7,0c-3.4,0-4,0-4,0.2
		c-0.8,0.2-1.4,0.8-1.6,1.4v0.2c-0.6,1.4-0.8,3.2-0.8,4.8s0.2,3.4,0.8,4.8c0,0.2,0,0.2,0.2,0.4c0.4,0.8,1,1.2,1.8,1.4
		c0.2,0,0.6,0.2,4,0.2c2.2,0,4.6,0,6.7,0c1.8,0,2.6,0,3,0c1-0.2,1.8-1.2,2-2.2c0,0,0,0,0-0.2c0,0,0,0,0-0.2v-8.5h-0.4V301.6z"/>
	<path class="st1" d="M50.4,320.2c-1.2-1.2-2.6-1.8-4.2-1.8c-0.6,0-1,0-1.4,0.2l0,0c-1,0.2-2.4,0.8-4,0.8l0,0l0,0l0,0l0,0l0,0l0,0
		c-1.6,0-3-0.4-4-0.8l0,0c-0.4-0.2-1-0.2-1.4-0.2c-3.6,0-6.5,3.4-6.5,7.7v1c0,0.8,0.6,1.4,1.4,1.4l0,0h9.1
		C41.1,323.7,45.4,320.2,50.4,320.2z"/>
</g>
<path class="st1" d="M37.9,180l8.6,11.8c0.3,0.5,0.9,0.7,1.5,0.6l15-3c1-0.2,1.6,1.2,0.7,1.8L51,199.7c-0.5,0.3-0.7,0.9-0.6,1.4
	l2.3,14.4c0.3,2,2.7,2.7,4.1,1.3l36.5-36.5c1.5-1.5,0.4-4.2-1.7-4.2H39.8C37.9,176.2,36.7,178.4,37.9,180z"/>
</svg>
