<svg xmlns="http://www.w3.org/2000/svg" xmlns:xlink="http://www.w3.org/1999/xlink" version="1.1" id="Layer_1" x="0px" y="0px" viewBox="0 0 364 687" style="enable-background:new 0 0 364 687;" xml:space="preserve"> <style type="text/css"> .st0{filter:url(#c);} .st1{opacity:0.5;fill-rule:evenodd;clip-rule:evenodd;fill:url(#SVGID_1_);} .st2{filter:url(#e);} .st3{opacity:0.1;fill-rule:evenodd;clip-rule:evenodd;fill:url(#SVGID_2_);} .st4{filter:url(#g);} .st5{opacity:0.5;fill-rule:evenodd;clip-rule:evenodd;fill:url(#SVGID_3_);} .st6{fill-rule:evenodd;clip-rule:evenodd;fill:#2B2B2B;} .st7{opacity:0.2;fill:none;stroke:#FFFFFF;stroke-width:2.6988;enable-background:new ;} .st8{opacity:0.2;fill-rule:evenodd;clip-rule:evenodd;fill:#FFFFFF;enable-background:new ;} </style> <filter height="300.1%" id="g" width="106.1%" x="-3.1%" y="-100.1%"> <feGaussianBlur in="SourceGraphic" stdDeviation="2.69879513"></feGaussianBlur> </filter> <filter height="263.7%" id="e" width="107.6%" x="-3.8%" y="-81.9%"> <feGaussianBlur in="SourceGraphic" stdDeviation="4.0481927"></feGaussianBlur> </filter> <filter height="561.8%" id="c" width="125.4%" x="-12.7%" y="-230.9%"> <feGaussianBlur in="SourceGraphic" stdDeviation="13.4939757"></feGaussianBlur> </filter> <g transform="translate(22)"> <g class="st0"> <radialGradient id="SVGID_1_" cx="-809.6796" cy="882.3056" r="0.9035" gradientTransform="matrix(0 -17.5319 -650.5327 0 574128.625 -13548.5371)" gradientUnits="userSpaceOnUse"> <stop offset="0" style="stop-color:#000000"></stop> <stop offset="1" style="stop-color:#FFFFFF"></stop> </radialGradient> <ellipse class="st1" cx="160" cy="646.7" rx="159.1" ry="8.8"></ellipse> </g> <g class="st2"> <radialGradient id="SVGID_2_" cx="-811.7123" cy="882.738" r="1" gradientTransform="matrix(0 -14.8347 -1019.6832 0 900273.0625 -11394.8154)" gradientUnits="userSpaceOnUse"> <stop offset="0" style="stop-color:#000000"></stop> <stop offset="1" style="stop-color:#FFFFFF"></stop> </radialGradient> <ellipse class="st3" cx="160" cy="646.7" rx="159.1" ry="7.4"></ellipse> </g> <g class="st4"> <radialGradient id="SVGID_3_" cx="-822.7226" cy="881.8925" r="1" gradientTransform="matrix(0 -8.0916 -483.3471 0 426420.1562 -6011.1846)" gradientUnits="userSpaceOnUse"> <stop offset="0" style="stop-color:#000000"></stop> <stop offset="1" style="stop-color:#FFFFFF"></stop> </radialGradient> <ellipse class="st5" cx="160" cy="646" rx="132.1" ry="4"></ellipse> </g> <path class="st6" d="M40.5,0h237.1c22.4,0,40.5,18.1,40.5,40.5v566.4c0,22.4-18.1,40.5-40.5,40.5H40.5C18.1,647.3,0,629.2,0,606.8 V40.5C0,18.1,18.1,0,40.5,0z"></path> <path class="st7" d="M159,591.8c-10.4,0-18.9,8.4-18.9,18.9v0c0,10.4,8.4,18.9,18.9,18.9s18.9-8.4,18.9-18.9v0 C177.9,600.3,169.4,591.8,159,591.8z"></path> <g> <path class="st8" d="M134.4,28.3h58c1.5,0,2.7,1.2,2.7,2.7c0,1.5-1.2,2.7-2.7,2.7h-58c-1.5,0-2.7-1.2-2.7-2.7 C131.7,29.5,132.9,28.3,134.4,28.3z"></path> <ellipse class="st8 x-hidden-focus" cx="99.3" cy="31" rx="5.4" ry="5.4"></ellipse> </g> </g> </svg>