<?xml version="1.0" encoding="UTF-8" standalone="no"?>
<svg
   xmlns:dc="http://purl.org/dc/elements/1.1/"
   xmlns:cc="http://creativecommons.org/ns#"
   xmlns:rdf="http://www.w3.org/1999/02/22-rdf-syntax-ns#"
   xmlns:svg="http://www.w3.org/2000/svg"
   xmlns="http://www.w3.org/2000/svg"
   version="1.1"
   width="20.109005"
   height="24.157003"
   viewBox="0 0 20.109005 24.157003"
   id="svg26">
  <metadata
     id="metadata32">
    <rdf:RDF>
      <cc:Work
         rdf:about="">
        <dc:format>image/svg+xml</dc:format>
        <dc:type
           rdf:resource="http://purl.org/dc/dcmitype/StillImage" />
        <dc:title>Play</dc:title>
      </cc:Work>
    </rdf:RDF>
  </metadata>
  <defs
     id="defs30" />
  <title
     id="title22">Play</title>
  <path
    fill="#0078CA"
     d="m 3.0000042,24.156004 q -0.625,0 -1.172,-0.234 -0.547,-0.234 -0.95299996,-0.641 -0.406,-0.407 -0.641,-0.953 -0.23500000271,-0.546 -0.2340000027119,-1.172 V 3.0000042 q 0,-0.625 0.2340000027119,-1.172 0.234,-0.547 0.641,-0.95299996 0.40699996,-0.406 0.95299996,-0.641 0.546,-0.23500000271 1.172,-0.2340000027119 0.422,0 0.828,0.1170000027119 0.406,0.117 0.766,0.352 L 18.703004,9.3600042 q 0.656,0.406 1.031,1.0779998 0.375,0.672 0.375,1.438 0,0.781 -0.352,1.445 -0.352,0.664 -1.008,1.086 l -14.1089998,9.25 q -0.734,0.5 -1.641,0.5 z m 0,-22.1559998 q -0.406,0 -0.703,0.289 -0.297,0.289 -0.297,0.711 V 21.156004 q 0,0.422 0.297,0.711 0.297,0.289 0.719,0.289 0.281,0 0.531,-0.172 l 14.1089998,-9.25 q 0.453,-0.297 0.453,-0.844 0,-0.266 -0.125,-0.484 -0.125,-0.218 -0.344,-0.359 L 3.5310042,2.1560042 q -0.266,-0.156 -0.531,-0.156 z"
     id="path24" />
</svg>
