<svg xmlns="http://www.w3.org/2000/svg" viewBox="0 0 36 324">
  <title>links_sprite</title>
  <path d="M33.5,153.339a13.582,13.582,0,0,1-3.247,3.355q.02.281.02.844a18.474,18.474,0,0,1-.762,5.213,18.86,18.86,0,0,1-2.315,4.992,19.61,19.61,0,0,1-3.7,4.229,16.453,16.453,0,0,1-5.171,2.933,18.883,18.883,0,0,1-6.469,1.1,17.946,17.946,0,0,1-9.941-2.913,13.823,13.823,0,0,0,1.563.08,12.655,12.655,0,0,0,8.037-2.772,6.489,6.489,0,0,1-6.053-4.5,8.181,8.181,0,0,0,1.223.1,6.682,6.682,0,0,0,1.7-.221,6.366,6.366,0,0,1-3.718-2.24A6.278,6.278,0,0,1,3.2,159.406v-.08a6.411,6.411,0,0,0,2.926.824,6.508,6.508,0,0,1-2-8.678,18.359,18.359,0,0,0,5.9,4.791,18,18,0,0,0,7.446,2,7.224,7.224,0,0,1-.16-1.487,6.474,6.474,0,0,1,6.459-6.489h.015a6.234,6.234,0,0,1,4.73,2.049,12.675,12.675,0,0,0,4.109-1.567,6.3,6.3,0,0,1-2.846,3.576A12.874,12.874,0,0,0,33.5,153.339Z" fill="#626f82"/>
  <rect x="12" y="305" width="21" height="3" fill="#626f82"/>
  <rect x="12" y="296" width="21" height="3" fill="#626f82"/>
  <rect x="12" y="314" width="21" height="3" fill="#626f82"/>
  <path d="M6.5,299.75a2.25,2.25,0,1,1,2.25-2.25A2.252,2.252,0,0,1,6.5,299.75Z" fill="#626f82"/>
  <path d="M6.5,308.75a2.25,2.25,0,1,1,2.25-2.25A2.252,2.252,0,0,1,6.5,308.75Z" fill="#626f82"/>
  <path d="M6.5,317.75a2.25,2.25,0,1,1,2.25-2.25A2.252,2.252,0,0,1,6.5,317.75Z" fill="#626f82"/>
  <path d="M18,240.75a5.256,5.256,0,0,1-5.25-5.25h1.5a3.75,3.75,0,0,0,7.5,0h1.5A5.256,5.256,0,0,1,18,240.75Z" fill="#626f82"/>
  <circle cx="13.5" cy="231" r="2.25" fill="#626f82"/>
  <circle cx="22.5" cy="231" r="2.25" fill="#626f82"/>
  <path d="M18,219a15,15,0,1,0,15,15A15,15,0,0,0,18,219Zm0,27a12,12,0,1,1,12-12A12.014,12.014,0,0,1,18,246Z" fill="#626f82"/>
  <path d="M30.363,260.952a1.54,1.54,0,0,0-1.815-1.129l-24.1,5.355A1.955,1.955,0,0,0,3,266.986v6.028a1.948,1.948,0,0,0,1.452,1.809l24.1,5.355a1.55,1.55,0,0,0,1.815-1.117,34.71,34.71,0,0,0,1.137-9.035A35.2,35.2,0,0,0,30.363,260.952ZM6,267.907l4.5-1,1.5-.333v6.854l-1.5-.333-4.5-1Zm21.79,9.029L15,274.094l-1.017-.226-.013-7.732,1.03-.229,12.79-2.843a34.444,34.444,0,0,1,.71,6.961A34.184,34.184,0,0,1,27.79,276.936Z" fill="#626f82"/>
  <path d="M4.5,133.5H3c0-4.548,3.759-7.5,8.379-7.5,3.787,0,7.115,1.761,8.095,5.355l-1.447.4c-.8-2.944-3.536-4.251-6.647-4.251C7.586,127.5,4.5,129.778,4.5,133.5Z" fill="#626f82"/>
  <path d="M33,141H30a6,6,0,0,0-12,0H15a9,9,0,0,1,18,0Z" fill="#626f82"/>
  <path d="M24,121.5a4.5,4.5,0,1,0,4.5,4.5A4.5,4.5,0,0,0,24,121.5Zm0,6a1.5,1.5,0,1,1,1.5-1.5A1.5,1.5,0,0,1,24,127.5Z" fill="#626f82"/>
  <path d="M11.5,115.5A4.5,4.5,0,1,0,16,120,4.5,4.5,0,0,0,11.5,115.5Zm0,7.5a3,3,0,1,1,3-3A3,3,0,0,1,11.5,123Z" fill="#626f82"/>
  <path d="M4.06,102.771a1.5,1.5,0,0,1-.007-2.112L16.414,88.3,19.6,91.479,7.234,103.841a1.489,1.489,0,0,1-2.112-.007Z" fill="#626f82" fill-rule="evenodd"/>
  <path d="M24.525,86.157l-.07-2.658c-.025-.959.587-1.28,1.353-.727l2.141,1.545,2.493-.907c.9-.327,1.394.138,1.1,1.065l-.815,2.536,1.611,2.1c.581.757.271,1.377-.676,1.385l-2.645.022-1.5,2.2c-.54.8-1.214.713-1.514-.209l-.82-2.523-2.536-.736c-.916-.266-1.042-.936-.26-1.514Z" fill="#626f82"/>
  <path d="M20.97,76.341l-.42-1.786c-.152-.645.217-.947.812-.681l1.663.744,1.557-.962c.562-.347.961-.1.89.566l-.2,1.827,1.382,1.192c.5.43.376.893-.263,1.03l-1.784.385-.7,1.7c-.254.613-.721.652-1.052.071l-.907-1.589-1.816-.142c-.656-.051-.835-.487-.388-.986Z" fill="#626f82"/>
  <rect x="8" y="15" width="18" height="2" fill="#626f82"/>
  <rect x="8" y="19" width="9" height="2" fill="#626f82"/>
  <path d="M27.986,6H7.014A6.009,6.009,0,0,0,1,11.994V24.006A6,6,0,0,0,7.014,30H34V11.994A6,6,0,0,0,27.986,6ZM31,27H7.015A3.008,3.008,0,0,1,4,24.006V11.995A3,3,0,0,1,7,9l21-.1a3.082,3.082,0,0,1,3,3.095Z" fill="#626f82"/>
  <path d="M12,48a6,6,0,1,1,6,6A6,6,0,0,1,12,48Zm3,0a3,3,0,1,0,3-3A3,3,0,0,0,15,48Z" fill="#626f82"/>
  <path d="M9,68a9,9,0,0,1,18,0h3A12,12,0,0,0,6,68Z" fill="#626f82"/>
  <path d="M34.424,36H26.576A1.522,1.522,0,0,0,25,37.486v6.028A1.54,1.54,0,0,0,26.576,45h7.848A1.522,1.522,0,0,0,36,43.514V37.486A1.54,1.54,0,0,0,34.424,36Zm-.588,1.493a3.2,3.2,0,0,1-3.336,2.77A3.2,3.2,0,0,1,27.164,37.5C28.614,37.5,32.382,37.5,33.836,37.493Zm-7.265,6.021s0-1.88,0-3.538a5.207,5.207,0,0,0,7.854,0c0,1.655,0,3.524,0,3.524S26.571,43.5,26.571,43.514Z" fill="#626f82"/>
  <path d="M18,186A12,12,0,1,1,6,198a12.014,12.014,0,0,1,12-12m0-3a15,15,0,1,0,15,15,15,15,0,0,0-15-15Z" fill="#626f82"/>
  <circle cx="18" cy="192" r="1.833" fill="#626f82"/>
  <rect x="17" y="196" width="2" height="10" fill="#626f82"/>
</svg>
