<?xml version="1.0" encoding="utf-8"?>
<!-- Generator: Adobe Illustrator 19.0.0, SVG Export Plug-In . SVG Version: 6.00 Build 0)  -->
<svg version="1.1" id="Layer_2" xmlns="http://www.w3.org/2000/svg" xmlns:xlink="http://www.w3.org/1999/xlink" x="0px" y="0px"
	 viewBox="-243 476.9 60 180" style="enable-background:new -243 476.9 60 180;" xml:space="preserve">
<style type="text/css">
	.st0{fill:#010202;fill-opacity:0;}
	.st1{fill:#0093DD;}
	.st2{fill:#00AFF0;}
</style>
<rect x="-243" y="476.9" class="st0" width="30" height="30"/>
<rect x="-243" y="506.9" class="st0" width="30" height="30"/>
<rect x="-213" y="476.9" class="st0" width="30" height="30"/>
<rect x="-213" y="506.9" class="st0" width="30" height="30"/>
<rect x="-243" y="536.9" class="st0" width="30" height="30"/>
<rect x="-243" y="566.9" class="st0" width="30" height="30"/>
<rect x="-213" y="536.9" class="st0" width="30" height="30"/>
<rect x="-213" y="566.9" class="st0" width="30" height="30"/>
<rect x="-243" y="596.9" class="st0" width="30" height="30"/>
<rect x="-213" y="596.9" class="st0" width="30" height="30"/>
<rect x="-243" y="626.9" class="st0" width="30" height="30"/>
<rect x="-213" y="626.9" class="st0" width="30" height="30"/>
<g>
	<path class="st1" d="M-203.5,515.2c0-0.6,0.2-1.2,0.7-1.6c0.9-0.9,2.3-0.9,3.2,0l6.4,6.4c0.9,0.9,0.9,2.3,0,3.2
		c-0.9,0.9-2.3,0.9-3.2,0l-6.4-6.4C-203.3,516.4-203.5,515.8-203.5,515.2z"/>
	<path class="st1" d="M-203.5,528.1c0-0.6,0.2-1.2,0.7-1.6l6.4-6.5c0.9-0.9,2.3-0.9,3.2,0c0.9,0.9,0.9,2.3,0,3.2l-6.4,6.5
		c-0.9,0.9-2.3,0.9-3.2,0C-203.3,529.3-203.5,528.7-203.5,528.1z"/>
</g>
<g>
	<path class="st1" d="M-192.5,558.3c0,0.6-0.2,1.2-0.7,1.6c-0.9,0.9-2.3,0.9-3.2,0l-6.4-6.4c-0.9-0.9-0.9-2.3,0-3.2
		c0.9-0.9,2.3-0.9,3.2,0l6.4,6.4C-192.7,557.1-192.5,557.7-192.5,558.3z"/>
	<path class="st1" d="M-192.5,545.4c0,0.6-0.2,1.2-0.7,1.6l-6.4,6.5c-0.9,0.9-2.3,0.9-3.2,0c-0.9-0.9-0.9-2.3,0-3.2l6.4-6.5
		c0.9-0.9,2.3-0.9,3.2,0C-192.7,544.2-192.5,544.8-192.5,545.4z"/>
</g>
<g>
	<path class="st1" d="M-204.4,586.7c-0.6,0-1.2-0.2-1.6-0.7c-0.9-0.9-0.9-2.3,0-3.2l6.4-6.4c0.9-0.9,2.3-0.9,3.2,0
		c0.9,0.9,0.9,2.3,0,3.2l-6.4,6.4C-203.3,586.5-203.9,586.7-204.4,586.7z"/>
	<path class="st1" d="M-191.6,586.7c-0.6,0-1.2-0.2-1.6-0.7l-6.5-6.4c-0.9-0.9-0.9-2.3,0-3.2c0.9-0.9,2.3-0.9,3.2,0l6.5,6.4
		c0.9,0.9,0.9,2.3,0,3.2C-190.4,586.5-191,586.7-191.6,586.7z"/>
</g>
<g>
	<path class="st2" d="M-232.5,516.4c0-0.5,0.2-1,0.5-1.3c0.7-0.7,1.9-0.7,2.6,0l5.3,5.3c0.7,0.7,0.7,1.9,0,2.6
		c-0.7,0.7-1.9,0.7-2.6,0l-5.3-5.3C-232.3,517.4-232.5,516.9-232.5,516.4z"/>
	<path class="st2" d="M-232.5,527c0-0.5,0.2-1,0.5-1.3l5.3-5.3c0.7-0.7,1.9-0.7,2.6,0c0.7,0.7,0.7,1.9,0,2.6l-5.3,5.3
		c-0.7,0.7-1.9,0.7-2.6,0C-232.3,527.9-232.5,527.5-232.5,527z"/>
</g>
<g>
	<path class="st2" d="M-233.3,585.7c-0.5,0-1-0.2-1.3-0.5c-0.7-0.7-0.7-1.9,0-2.6l5.3-5.3c0.7-0.7,1.9-0.7,2.6,0
		c0.7,0.7,0.7,1.9,0,2.6l-5.3,5.3C-232.3,585.5-232.8,585.7-233.3,585.7z"/>
	<path class="st2" d="M-222.7,585.7c-0.5,0-1-0.2-1.3-0.5l-5.3-5.3c-0.7-0.7-0.7-1.9,0-2.6c0.7-0.7,1.9-0.7,2.6,0l5.3,5.3
		c0.7,0.7,0.7,1.9,0,2.6C-221.8,585.5-222.2,585.7-222.7,585.7z"/>
</g>
<g>
	<path class="st1" d="M-191.6,606.4c0.6,0,1.2,0.2,1.6,0.7c0.9,0.9,0.9,2.3,0,3.2l-6.4,6.4c-0.9,0.9-2.3,0.9-3.2,0
		c-0.9-0.9-0.9-2.3,0-3.2l6.4-6.4C-192.7,606.6-192.1,606.4-191.6,606.4z"/>
	<path class="st1" d="M-204.4,606.4c0.6,0,1.2,0.2,1.6,0.7l6.5,6.4c0.9,0.9,0.9,2.3,0,3.2c-0.9,0.9-2.3,0.9-3.2,0l-6.5-6.4
		c-0.9-0.9-0.9-2.3,0-3.2C-205.6,606.6-205,606.4-204.4,606.4z"/>
</g>
<g>
	<path class="st2" d="M-222.7,607.4c0.5,0,1,0.2,1.3,0.5c0.7,0.7,0.7,1.9,0,2.6l-5.3,5.3c-0.7,0.7-1.9,0.7-2.6,0
		c-0.7-0.7-0.7-1.9,0-2.6l5.3-5.3C-223.7,607.5-223.2,607.4-222.7,607.4z"/>
	<path class="st2" d="M-233.3,607.4c0.5,0,1,0.2,1.3,0.5l5.3,5.3c0.7,0.7,0.7,1.9,0,2.6c-0.7,0.7-1.9,0.7-2.6,0l-5.3-5.3
		c-0.7-0.7-0.7-1.9,0-2.6C-234.2,607.5-233.8,607.4-233.3,607.4z"/>
</g>
<g>
	<path class="st2" d="M-223.5,557.1c0,0.5-0.2,1-0.5,1.3c-0.7,0.7-1.9,0.7-2.6,0l-5.3-5.3c-0.7-0.7-0.7-1.9,0-2.6
		c0.7-0.7,1.9-0.7,2.6,0l5.3,5.3C-223.7,556.2-223.5,556.7-223.5,557.1z"/>
	<path class="st2" d="M-223.5,546.6c0,0.5-0.2,1-0.5,1.3l-5.3,5.3c-0.7,0.7-1.9,0.7-2.6,0c-0.7-0.7-0.7-1.9,0-2.6l5.3-5.3
		c0.7-0.7,1.9-0.7,2.6,0C-223.7,545.6-223.5,546.1-223.5,546.6z"/>
</g>
<g>
	<path class="st1" d="M-193.2,491.6c-0.4,0-0.9-0.2-1.2-0.5l-4.8-4.8c-0.7-0.7-0.7-1.7,0-2.4c0.7-0.7,1.7-0.7,2.4,0l4.8,4.8
		c0.7,0.7,0.7,1.7,0,2.4C-192.3,491.4-192.7,491.6-193.2,491.6z"/>
	<path class="st1" d="M-198,500.4c-0.9,0-1.7-0.8-1.7-1.7v-9.5l-1.9,1.9c-0.7,0.7-1.7,0.7-2.4,0c-0.7-0.7-0.7-1.7,0-2.4l4.8-4.8
		c0.5-0.5,1.2-0.6,1.9-0.4c0.6,0.3,1,0.9,1,1.6v13.6C-196.3,499.6-197.1,500.4-198,500.4z"/>
</g>
<g>
	<path class="st2" d="M-224.3,491.3c-0.3,0-0.7-0.1-0.9-0.4l-3.7-3.7c-0.5-0.5-0.5-1.3,0-1.8c0.5-0.5,1.3-0.5,1.8,0l3.7,3.7
		c0.5,0.5,0.5,1.3,0,1.8C-223.7,491.2-224,491.3-224.3,491.3z"/>
	<path class="st2" d="M-228,498.1c-0.7,0-1.3-0.6-1.3-1.3v-7.3l-1.5,1.5c-0.5,0.5-1.3,0.5-1.8,0c-0.5-0.5-0.5-1.3,0-1.8l3.7-3.7
		c0.4-0.4,0.9-0.5,1.4-0.3c0.5,0.2,0.8,0.7,0.8,1.2v10.4C-226.7,497.5-227.3,498.1-228,498.1z"/>
</g>
<g>
	<path class="st1" d="M-202.8,642.2c0.4,0,0.9,0.2,1.2,0.5l4.8,4.8c0.7,0.7,0.7,1.7,0,2.4c-0.7,0.7-1.7,0.7-2.4,0l-4.8-4.8
		c-0.7-0.7-0.7-1.7,0-2.4C-203.7,642.3-203.3,642.2-202.8,642.2z"/>
	<path class="st1" d="M-198,633.4c0.9,0,1.7,0.8,1.7,1.7v9.5l1.9-1.9c0.7-0.7,1.7-0.7,2.4,0c0.7,0.7,0.7,1.7,0,2.4l-4.8,4.8
		c-0.5,0.5-1.2,0.6-1.9,0.4s-1-0.9-1-1.6v-13.6C-199.7,634.1-199,633.4-198,633.4z"/>
</g>
<g>
	<path class="st2" d="M-231.7,642.1c0.3,0,0.7,0.1,0.9,0.4l3.7,3.7c0.5,0.5,0.5,1.3,0,1.8c-0.5,0.5-1.3,0.5-1.8,0l-3.7-3.7
		c-0.5-0.5-0.5-1.3,0-1.8C-232.4,642.2-232,642.1-231.7,642.1z"/>
	<path class="st2" d="M-228,635.4c0.7,0,1.3,0.6,1.3,1.3v7.3l1.5-1.5c0.5-0.5,1.3-0.5,1.8,0c0.5,0.5,0.5,1.3,0,1.8l-3.7,3.7
		c-0.4,0.4-0.9,0.5-1.4,0.3c-0.5-0.2-0.8-0.7-0.8-1.2v-10.4C-229.3,635.9-228.7,635.4-228,635.4z"/>
</g>
</svg>
