<?xml version="1.0" encoding="iso-8859-1"?>
<!-- Generator: Adobe Illustrator 18.1.1, SVG Export Plug-In . SVG Version: 6.00 Build 0)  -->
<svg version="1.1" id="Layer_1" xmlns="http://www.w3.org/2000/svg" xmlns:xlink="http://www.w3.org/1999/xlink" x="0px" y="0px" width="60px" height="47px" viewBox="0 0 60 47" style="enable-background:new 0 0 60 47;" xml:space="preserve">
<g id="OK_1_">
	<path style="fill:#7FBB42;" d="M28.987,1.048c-1.397-1.397-3.592-1.397-4.989,0L10.727,14.518l-4.69-4.79
		c-1.397-1.397-3.592-1.397-4.989,0s-1.397,3.592,0,4.989l7.184,7.284l0,0l0,0c0.1,0.1,0.2,0.1,0.2,0.2c0.1,0.1,0.2,0.2,0.299,0.299
		c0.1,0.1,0.2,0.1,0.299,0.1c0.1,0.1,0.2,0.1,0.299,0.2c0.1,0,0.2,0.1,0.299,0.1c0.1,0,0.2,0.1,0.399,0.1c0.1,0,0.2,0,0.299,0
		s0.2,0,0.399,0c0.1,0,0.2,0,0.299,0c0.1,0,0.2,0,0.399,0c0.1,0,0.2-0.1,0.299-0.1c0.1,0,0.2-0.1,0.399-0.1c0.1,0,0.2-0.1,0.299-0.1
		c0.1-0.1,0.2-0.1,0.399-0.2c0.1-0.1,0.1-0.1,0.2-0.2s0.2-0.2,0.299-0.299l0,0l0,0L28.987,6.037
		C30.284,4.74,30.284,2.445,28.987,1.048z"/>
</g>
<g id="OK_2_">
	<path style="fill:#7FBB42;" d="M59.215,0.748c-0.897-0.997-2.393-0.997-3.29,0l-8.872,9.271l-3.09-3.19
		c-0.897-0.997-2.393-0.997-3.29,0c-0.897,0.997-0.897,2.492,0,3.489l4.785,4.984l0,0l0,0c0,0.1,0.1,0.1,0.199,0.1
		c0.1,0.1,0.1,0.1,0.199,0.199c0.1,0,0.1,0.1,0.199,0.1c0.1,0,0.199,0.1,0.199,0.1c0.1,0,0.1,0,0.199,0.1c0.1,0,0.199,0.1,0.199,0.1
		c0.1,0,0.1,0,0.199,0c0.1,0,0.199,0,0.199,0c0.1,0,0.1,0,0.199,0c0.1,0,0.199,0,0.199,0c0.1,0,0.1,0,0.199-0.1
		c0.1,0,0.199,0,0.199-0.1c0.1,0,0.1-0.1,0.199-0.1c0.1,0,0.199-0.1,0.199-0.1c0.1,0,0.1-0.1,0.1-0.1c0.1-0.1,0.199-0.1,0.199-0.199
		l0,0l0,0L59.215,4.237C60.112,3.24,60.112,1.745,59.215,0.748z"/>
</g>
<g id="OK_3_">
	<path style="fill:#2BADE3;" d="M28.987,25.048c-1.397-1.397-3.592-1.397-4.989,0L10.727,38.518l-4.69-4.79
		c-1.397-1.397-3.592-1.397-4.989,0c-1.397,1.397-1.397,3.592,0,4.989l7.184,7.284l0,0l0,0c0.1,0.1,0.2,0.1,0.2,0.2
		c0.1,0.1,0.2,0.2,0.299,0.299c0.1,0.1,0.2,0.1,0.299,0.1c0.1,0.1,0.2,0.1,0.299,0.2c0.1,0,0.2,0.1,0.299,0.1
		c0.1,0,0.2,0.1,0.399,0.1c0.1,0,0.2,0,0.299,0s0.2,0,0.399,0c0.1,0,0.2,0,0.299,0c0.1,0,0.2,0,0.399,0c0.1,0,0.2-0.1,0.299-0.1
		c0.1,0,0.2-0.1,0.399-0.1c0.1,0,0.2-0.1,0.299-0.1c0.1-0.1,0.2-0.1,0.399-0.2c0.1-0.1,0.1-0.1,0.2-0.2c0.1-0.1,0.2-0.2,0.299-0.299
		l0,0l0,0l15.666-15.965C30.284,28.74,30.284,26.445,28.987,25.048z"/>
</g>
<g id="OK_4_">
	<path style="fill:#2BADE3;" d="M59.215,24.748c-0.897-0.997-2.393-0.997-3.29,0l-8.872,9.271l-3.09-3.19
		c-0.897-0.997-2.393-0.997-3.29,0c-0.897,0.997-0.897,2.492,0,3.489l4.785,4.984l0,0l0,0c0,0.1,0.1,0.1,0.199,0.1
		c0.1,0.1,0.1,0.1,0.199,0.199c0.1,0,0.1,0.1,0.199,0.1c0.1,0,0.199,0.1,0.199,0.1c0.1,0,0.1,0,0.199,0.1c0.1,0,0.199,0.1,0.199,0.1
		c0.1,0,0.1,0,0.199,0c0.1,0,0.199,0,0.199,0c0.1,0,0.1,0,0.199,0c0.1,0,0.199,0,0.199,0c0.1,0,0.1,0,0.199-0.1
		c0.1,0,0.199,0,0.199-0.1c0.1,0,0.1-0.1,0.199-0.1c0.1,0,0.199-0.1,0.199-0.1c0.1,0,0.1-0.1,0.1-0.1c0.1-0.1,0.199-0.1,0.199-0.199
		l0,0l0,0l10.667-11.065C60.112,27.24,60.112,25.745,59.215,24.748z"/>
</g>
</svg>
