<?xml version="1.0" encoding="utf-8"?>
<!-- Generator: Adobe Illustrator 19.2.1, SVG Export Plug-In . SVG Version: 6.00 Build 0)  -->
<svg version="1.1" id="Layer_2" xmlns="http://www.w3.org/2000/svg" xmlns:xlink="http://www.w3.org/1999/xlink" x="0px" y="0px"
	 width="62px" height="68px" viewBox="0 0 62 68" style="enable-background:new 0 0 62 68;" xml:space="preserve">
<style type="text/css">
	.st0{fill:#FFFFFF;}
	.st1{fill:#333534;}
	.st2{fill:#0061A2;}
	.st3{fill:#953CAC;}
</style>
<path class="st0" d="M13.7,6.6L7.8,0.3c-0.4-0.5-1.1-0.5-1.6,0L0.3,6.6C0.1,6.8,0,7.1,0,7.5c0,0.7,0.5,1.2,1.1,1.2
	c0.2,0,0.4-0.1,0.5-0.1l3.2-1.9l0.6,9.2c0,0.7,0.5,1.2,1.1,1.2c0.2,0,0.4,0,0.5,0c0.2,0,0.4,0,0.6,0c0.6,0,1.1-0.5,1.1-1.2l0.6-9.2
	l3.2,1.9c0.2,0.1,0.3,0.1,0.5,0.1c0.6,0,1.1-0.5,1.1-1.2C14,7.1,13.9,6.8,13.7,6.6z"/>
<path class="st1" d="M13.7,23.6l-5.9-6.3c-0.4-0.5-1.1-0.5-1.6,0l-5.9,6.3C0.1,23.8,0,24.1,0,24.5c0,0.7,0.5,1.2,1.1,1.2
	c0.2,0,0.4-0.1,0.5-0.1l3.2-1.9l0.6,9.2c0,0.7,0.5,1.2,1.1,1.2c0.2,0,0.4,0,0.5,0c0.2,0,0.4,0,0.6,0c0.6,0,1.1-0.5,1.1-1.2l0.6-9.2
	l3.2,1.9c0.2,0.1,0.3,0.1,0.5,0.1c0.6,0,1.1-0.5,1.1-1.2C14,24.1,13.9,23.8,13.7,23.6z"/>
<path class="st2" d="M13.7,40.6l-5.9-6.3c-0.4-0.5-1.1-0.5-1.6,0l-5.9,6.3C0.1,40.8,0,41.1,0,41.5c0,0.7,0.5,1.2,1.1,1.2
	c0.2,0,0.4-0.1,0.5-0.1l3.2-1.9l0.6,9.2c0,0.7,0.5,1.2,1.1,1.2c0.2,0,0.4,0,0.5,0c0.2,0,0.4,0,0.6,0c0.6,0,1.1-0.5,1.1-1.2l0.6-9.2
	l3.2,1.9c0.2,0.1,0.3,0.1,0.5,0.1c0.6,0,1.1-0.5,1.1-1.2C14,41.1,13.9,40.8,13.7,40.6z"/>
<path class="st3" d="M13.7,57.6l-5.9-6.3c-0.4-0.5-1.1-0.5-1.6,0l-5.9,6.3C0.1,57.8,0,58.1,0,58.5c0,0.7,0.5,1.2,1.1,1.2
	c0.2,0,0.4-0.1,0.5-0.1l3.2-1.9l0.6,9.2c0,0.7,0.5,1.2,1.1,1.2c0.2,0,0.4,0,0.5,0c0.2,0,0.4,0,0.6,0c0.6,0,1.1-0.5,1.1-1.2l0.6-9.2
	l3.2,1.9c0.2,0.1,0.3,0.1,0.5,0.1c0.6,0,1.1-0.5,1.1-1.2C14,58.1,13.9,57.8,13.7,57.6z"/>
<path class="st0" d="M28,9.5c0-0.7-0.5-1.2-1.1-1.2c-0.2,0-0.4,0-0.5,0.1l-3.2,1.9l-0.6-9.2c0-0.7-0.5-1.2-1.1-1.2
	c-0.2,0-0.4,0-0.6,0s-0.4,0-0.5,0c-0.6,0-1.1,0.5-1.1,1.2l-0.6,9.2l-3.1-1.9c-0.2-0.1-0.3-0.1-0.5-0.1c-0.6,0-1.1,0.5-1.1,1.2
	c0,0.3,0.1,0.6,0.3,0.8l5.9,6.3c0.4,0.5,1.1,0.5,1.6,0l5.9-6.3C27.9,10.2,28,9.9,28,9.5z"/>
<path class="st1" d="M28,26.5c0-0.7-0.5-1.2-1.1-1.2c-0.2,0-0.4,0-0.5,0.1l-3.2,1.9l-0.6-9.2c0-0.7-0.5-1.2-1.1-1.2
	c-0.2,0-0.4,0-0.6,0s-0.4,0-0.5,0c-0.6,0-1.1,0.5-1.1,1.2l-0.6,9.2l-3.1-1.9c-0.2-0.1-0.3-0.1-0.5-0.1c-0.6,0-1.1,0.5-1.1,1.2
	c0,0.3,0.1,0.6,0.3,0.8l5.9,6.3c0.4,0.5,1.1,0.5,1.6,0l5.9-6.3C27.9,27.2,28,26.9,28,26.5z"/>
<path class="st2" d="M28,43.5c0-0.7-0.5-1.2-1.1-1.2c-0.2,0-0.4,0-0.5,0.1l-3.2,1.9l-0.6-9.2c0-0.7-0.5-1.2-1.1-1.2
	c-0.2,0-0.4,0-0.6,0s-0.4,0-0.5,0c-0.6,0-1.1,0.5-1.1,1.2l-0.6,9.2l-3.1-1.9c-0.2-0.1-0.3-0.1-0.5-0.1c-0.6,0-1.1,0.5-1.1,1.2
	c0,0.3,0.1,0.6,0.3,0.8l5.9,6.3c0.4,0.5,1.1,0.5,1.6,0l5.9-6.3C27.9,44.2,28,43.9,28,43.5z"/>
<path class="st3" d="M28,60.5c0-0.7-0.5-1.2-1.1-1.2c-0.2,0-0.4,0-0.5,0.1l-3.2,1.9l-0.6-9.2c0-0.7-0.5-1.2-1.1-1.2
	c-0.2,0-0.4,0-0.6,0s-0.4,0-0.5,0c-0.6,0-1.1,0.5-1.1,1.2l-0.6,9.2l-3.1-1.9c-0.2-0.1-0.3-0.1-0.5-0.1c-0.6,0-1.1,0.5-1.1,1.2
	c0,0.3,0.1,0.6,0.3,0.8l5.9,6.3c0.4,0.5,1.1,0.5,1.6,0l5.9-6.3C27.9,61.2,28,60.9,28,60.5z"/>
<path class="st0" d="M37.5,0c-0.7,0-1.2,0.5-1.2,1.1c0,0.2,0,0.4,0.1,0.5l1.9,3.2l-9.2,0.6c-0.7,0-1.2,0.5-1.2,1.1
	c0,0.2,0,0.4,0,0.6s0,0.4,0,0.5c0,0.6,0.5,1.1,1.2,1.1l9.2,0.6l-1.9,3.1c-0.1,0.2-0.1,0.3-0.1,0.5c0,0.6,0.5,1.1,1.2,1.1
	c0.3,0,0.6-0.1,0.8-0.3l6.3-5.9c0.5-0.4,0.5-1.1,0-1.6l-6.3-5.9C38.2,0.1,37.9,0,37.5,0z"/>
<path class="st1" d="M37.5,17c-0.7,0-1.2,0.5-1.2,1.1c0,0.2,0,0.4,0.1,0.5l1.9,3.2l-9.2,0.6c-0.7,0-1.2,0.5-1.2,1.1
	c0,0.2,0,0.4,0,0.6s0,0.4,0,0.5c0,0.6,0.5,1.1,1.2,1.1l9.2,0.6l-1.9,3.1c-0.1,0.2-0.1,0.3-0.1,0.5c0,0.6,0.5,1.1,1.2,1.1
	c0.3,0,0.6-0.1,0.8-0.3l6.3-5.9c0.5-0.4,0.5-1.1,0-1.6l-6.3-5.9C38.2,17.1,37.9,17,37.5,17z"/>
<path class="st2" d="M37.5,34c-0.7,0-1.2,0.5-1.2,1.1c0,0.2,0,0.4,0.1,0.5l1.9,3.2l-9.2,0.6c-0.7,0-1.2,0.5-1.2,1.1
	c0,0.2,0,0.4,0,0.6c0,0.2,0,0.4,0,0.5c0,0.6,0.5,1.1,1.2,1.1l9.2,0.6l-1.9,3.1c-0.1,0.2-0.1,0.3-0.1,0.5c0,0.6,0.5,1.1,1.2,1.1
	c0.3,0,0.6-0.1,0.8-0.3l6.3-5.9c0.5-0.4,0.5-1.1,0-1.6l-6.3-5.9C38.2,34.1,37.9,34,37.5,34z"/>
<path class="st3" d="M37.5,51c-0.7,0-1.2,0.5-1.2,1.1c0,0.2,0,0.4,0.1,0.5l1.9,3.2l-9.2,0.6c-0.7,0-1.2,0.5-1.2,1.1
	c0,0.2,0,0.4,0,0.6c0,0.2,0,0.4,0,0.5c0,0.6,0.5,1.1,1.2,1.1l9.2,0.6l-1.9,3.1c-0.1,0.2-0.1,0.3-0.1,0.5c0,0.6,0.5,1.1,1.2,1.1
	c0.3,0,0.6-0.1,0.8-0.3l6.3-5.9c0.5-0.4,0.5-1.1,0-1.6l-6.3-5.9C38.2,51.1,37.9,51,37.5,51z"/>
<path class="st0" d="M51.6,0.3l-6.3,5.9c-0.5,0.4-0.5,1.1,0,1.6l6.3,5.9c0.2,0.2,0.5,0.3,0.8,0.3c0.7,0,1.2-0.5,1.2-1.1
	c0-0.2-0.1-0.4-0.1-0.5l-1.9-3.1l9.2-0.6c0.7,0,1.2-0.5,1.2-1.1c0-0.2,0-0.4,0-0.5c0-0.2,0-0.4,0-0.6c0-0.6-0.5-1.1-1.2-1.1
	l-9.2-0.6l1.9-3.2c0.1-0.2,0.1-0.3,0.1-0.5c0-0.6-0.5-1.1-1.2-1.1C52.1,0,51.8,0.1,51.6,0.3z"/>
<path class="st1" d="M51.6,17.3l-6.3,5.9c-0.5,0.4-0.5,1.1,0,1.6l6.3,5.9c0.2,0.2,0.5,0.3,0.8,0.3c0.7,0,1.2-0.5,1.2-1.1
	c0-0.2-0.1-0.4-0.1-0.5l-1.9-3.1l9.2-0.6c0.7,0,1.2-0.5,1.2-1.1c0-0.2,0-0.4,0-0.5c0-0.2,0-0.4,0-0.6c0-0.6-0.5-1.1-1.2-1.1
	l-9.2-0.6l1.9-3.2c0.1-0.2,0.1-0.3,0.1-0.5c0-0.6-0.5-1.1-1.2-1.1C52.1,17,51.8,17.1,51.6,17.3z"/>
<path class="st2" d="M51.6,34.3l-6.3,5.9c-0.5,0.4-0.5,1.1,0,1.6l6.3,5.9c0.2,0.2,0.5,0.3,0.8,0.3c0.7,0,1.2-0.5,1.2-1.1
	c0-0.2-0.1-0.4-0.1-0.5l-1.9-3.1l9.2-0.6c0.7,0,1.2-0.5,1.2-1.1c0-0.2,0-0.4,0-0.5c0-0.2,0-0.4,0-0.6c0-0.6-0.5-1.1-1.2-1.1
	l-9.2-0.6l1.9-3.2c0.1-0.2,0.1-0.3,0.1-0.5c0-0.6-0.5-1.1-1.2-1.1C52.1,34,51.8,34.1,51.6,34.3z"/>
<path class="st3" d="M51.6,51.3l-6.3,5.9c-0.5,0.4-0.5,1.1,0,1.6l6.3,5.9c0.2,0.2,0.5,0.3,0.8,0.3c0.7,0,1.2-0.5,1.2-1.1
	c0-0.2-0.1-0.4-0.1-0.5l-1.9-3.1l9.2-0.6c0.7,0,1.2-0.5,1.2-1.1c0-0.2,0-0.4,0-0.5c0-0.2,0-0.4,0-0.6c0-0.6-0.5-1.1-1.2-1.1
	l-9.2-0.6l1.9-3.2c0.1-0.2,0.1-0.3,0.1-0.5c0-0.6-0.5-1.1-1.2-1.1C52.1,51,51.8,51.1,51.6,51.3z"/>
</svg>
