<?xml version="1.0" encoding="utf-8"?>
<!-- Generator: Adobe Illustrator 16.0.0, SVG Export Plug-In . SVG Version: 6.00 Build 0)  -->
<!DOCTYPE svg PUBLIC "-//W3C//DTD SVG 1.1//EN" "http://www.w3.org/Graphics/SVG/1.1/DTD/svg11.dtd">
<svg version="1.1" id="Layer_1" xmlns="http://www.w3.org/2000/svg" xmlns:xlink="http://www.w3.org/1999/xlink" x="0px" y="0px"
	 width="1400px" height="180px" viewBox="0 0 1400 180" enable-background="new 0 0 1400 180" xml:space="preserve">
<rect fill="#E4EEF2" width="1400" height="180"/>
<g>
	<g>
		<defs>
			<rect id="SVGID_1_" x="963.096" y="25.329" width="410.571" height="154.671"/>
		</defs>
		<clipPath id="SVGID_2_">
			<use xlink:href="#SVGID_1_"  overflow="visible"/>
		</clipPath>
		<g clip-path="url(#SVGID_2_)">
			<path fill="#CCE399" d="M1119.512,96.561c68.855,0,124.674,55.818,124.674,124.675c0,68.855-55.818,124.674-124.674,124.674
				c-68.857,0-124.677-55.82-124.677-124.674C994.835,152.379,1050.656,96.561,1119.512,96.561L1119.512,96.561z"/>
			<path fill="#B2D666" d="M1119.43,108.247c62.401,0,112.988,50.586,112.988,112.987c0,62.401-50.587,112.987-112.988,112.987
				s-112.988-50.586-112.988-112.987C1006.441,158.833,1057.027,108.247,1119.43,108.247L1119.43,108.247z"/>
			<path fill="#99C833" d="M1119.51,119.822c55.946,0,101.298,45.354,101.298,101.3c0,55.946-45.352,101.299-101.298,101.299
				c-55.945,0-101.299-45.353-101.299-101.299C1018.211,165.177,1063.564,119.822,1119.51,119.822L1119.51,119.822z"/>
			<path fill="#7FBA00" d="M1119.496,131.625c49.488,0,89.607,40.12,89.607,89.61c0,49.49-40.119,89.61-89.607,89.61
				c-49.49,0-89.61-40.12-89.61-89.61C1029.886,171.745,1070.007,131.625,1119.496,131.625L1119.496,131.625z"/>
			<path fill="#FFFFFF" d="M1119.508,143.315c43.037,0,77.924,34.887,77.924,77.92c0,43.037-34.887,77.924-77.924,77.924
				c-43.034,0-77.92-34.888-77.92-77.924C1041.588,178.202,1076.474,143.315,1119.508,143.315L1119.508,143.315z"/>
			<path fill="#FFFFFF" d="M1326.413,182.14c0,53.865-43.668,97.538-97.54,97.538c-53.871,0-97.541-43.673-97.541-97.538
				c0-53.873,43.67-97.544,97.541-97.544C1282.745,84.596,1326.413,128.268,1326.413,182.14z"/>
			<path fill="#FFFFFF" d="M1375.226,211.639c0,26.815-21.741,48.56-48.562,48.56c-26.816,0-48.56-21.744-48.56-48.56
				c0-26.821,21.743-48.563,48.56-48.563C1353.484,163.075,1375.226,184.817,1375.226,211.639z"/>
		</g>
	</g>
</g>
<g>
	<g>
		<defs>
			<rect id="SVGID_3_" x="45.199" y="108.498" width="239.468" height="71.502"/>
		</defs>
		<clipPath id="SVGID_4_">
			<use xlink:href="#SVGID_3_"  overflow="visible"/>
		</clipPath>
		<g clip-path="url(#SVGID_4_)">
			<circle fill="#FFFFFF" cx="156.584" cy="192.94" r="63.201"/>
			<circle fill="#FFFFFF" cx="228.407" cy="218.806" r="50.417"/>
			<circle fill="#FFFFFF" cx="93.832" cy="212.479" r="31.598"/>
		</g>
	</g>
</g>
</svg>
