<?xml version="1.0" encoding="UTF-8" standalone="no"?>
<!-- Created with Inkscape (http://www.inkscape.org/) -->

<svg
   xmlns:dc="http://purl.org/dc/elements/1.1/"
   xmlns:cc="http://creativecommons.org/ns#"
   xmlns:rdf="http://www.w3.org/1999/02/22-rdf-syntax-ns#"
   xmlns:svg="http://www.w3.org/2000/svg"
   xmlns="http://www.w3.org/2000/svg"
   version="1.1"
   width="128.0098"
   height="87.023125"
   viewBox="-634.5 405.5 128.00979 87.023124"
   id="Layer_1"
   xml:space="preserve"><metadata
   id="metadata9"><rdf:RDF><cc:Work
       rdf:about=""><dc:format>image/svg+xml</dc:format><dc:type
         rdf:resource="http://purl.org/dc/dcmitype/StillImage" /><dc:title></dc:title></cc:Work></rdf:RDF></metadata><defs
   id="defs7" />
<path
   d="m -621.5,411.999 c 0,0.655 -0.485,1.198 -1.117,1.287 -1.239,0.167 -2.497,0.276 -3.768,0.329 -0.052,1.271 -0.162,2.529 -0.328,3.768 -0.088,0.632 -0.631,1.118 -1.288,1.117 -0.656,10e-4 -1.197,-0.486 -1.287,-1.117 -0.167,-1.238 -0.276,-2.496 -0.328,-3.769 -1.271,-0.052 -2.529,-0.161 -3.768,-0.328 -0.631,-0.089 -1.116,-0.632 -1.116,-1.287 0,-0.655 0.487,-1.198 1.116,-1.287 1.238,-0.167 2.497,-0.277 3.768,-0.329 0.053,-1.271 0.161,-2.528 0.328,-3.767 0.09,-0.631 0.631,-1.116 1.287,-1.116 0.657,0 1.199,0.485 1.288,1.116 0.167,1.238 0.276,2.495 0.328,3.767 1.271,0.052 2.529,0.161 3.768,0.329 0.632,0.089 1.117,0.632 1.117,1.287 z"
   id="path3"
   style="fill:#25abf2;fill-opacity:1" />
<path
   d="m -612.16786,405.76107 -5.052,4.712 c -0.311,0.289 -0.36,0.729 -0.151,1.066 0.261,0.424 0.841,0.568 1.294,0.324 l 2.497,-1.344 0.503,7.049 c 0.007,0.218 0.1,0.433 0.277,0.599 0.128,0.118 0.284,0.196 0.447,0.233 0.259,0.063 0.53,0.102 0.81,0.102 h 0.051 c 0.28,0 0.552,-0.038 0.81,-0.102 0.164,-0.037 0.32,-0.115 0.447,-0.233 0.178,-0.166 0.271,-0.381 0.277,-0.599 l 0.542,-7.049 2.497,1.344 c 0.454,0.244 1.032,0.1 1.293,-0.324 0.209,-0.338 0.161,-0.777 -0.15,-1.066 l -5.052,-4.712 c -0.37,-0.345 -0.969,-0.345 -1.34,0 z"
   id="path3126"
   style="fill:#25abf2;fill-opacity:1" /><g
   transform="translate(-633.49858,421.49604)"
   id="g3078"><path
     d="m 23.118252,2.74275 c -0.237,-0.451 -0.159,-1.015 0.232,-1.391 0.484,-0.46899999 1.271,-0.46899999 1.758,0 l 6.524,6.299 c 0.226,0.218 0.368,0.518 0.368,0.853 0,0.335 -0.142,0.636 -0.368,0.853 l -6.524,6.3 c -0.486,0.469 -1.273,0.469 -1.758,0 -0.392,-0.375 -0.469,-0.941 -0.232,-1.391 l 4.375,-5.762 -4.375,-5.761 z"
     id="path3-9"
     style="fill:#25abf2;fill-opacity:1" /><path
     d="m 14.266252,4.15375 c 0.452,-0.236 1.016,-0.158 1.391,0.234 0.469,0.485 0.468,1.272 -0.002,1.758 l -6.3060005,6.518 c -0.218,0.226 -0.519,0.367 -0.853,0.367 -0.334,0 -0.635,-0.142 -0.853,-0.369 l -6.293,-6.53 c -0.46800008,-0.488 -0.46700008,-1.275 0.003,-1.759 0.376,-0.392 0.941,-0.468 1.391,-0.231 l 5.758,4.381 5.7640005,-4.369 z"
     id="path5"
     style="fill:#25abf2;fill-opacity:1" /><path
     d="m 52.266252,12.884322 c 0.452,0.236 1.016,0.158 1.391,-0.234 0.469,-0.485 0.468,-1.272 -0.002,-1.758 l -6.306,-6.5179999 c -0.218,-0.226 -0.519,-0.367 -0.853,-0.367 -0.334,0 -0.635,0.142 -0.853,0.369 l -6.293,6.5299999 c -0.468,0.488 -0.467,1.275 0.003,1.759 0.376,0.392 0.941,0.468 1.391,0.231 l 5.758,-4.3809999 5.764,4.3689999 z"
     id="path3010"
     style="fill:#25abf2;fill-opacity:1" /><path
     d="m 14.122179,36.054899 c -0.15859,-0.270095 -0.106393,-0.607862 0.155242,-0.833042 0.323866,-0.280874 0.850485,-0.280874 1.176359,0 l 4.365517,3.772343 c 0.151227,0.130556 0.246247,0.31022 0.246247,0.510844 0,0.200625 -0.09503,0.380888 -0.246247,0.510845 l -4.365517,3.77294 c -0.325205,0.280875 -0.851824,0.280875 -1.176359,0 -0.262306,-0.224579 -0.313832,-0.563544 -0.155242,-0.83304 l 2.927518,-3.450745 -2.927518,-3.450145 z"
     id="path3047"
     style="fill:#25abf2;fill-opacity:1" /><path
     d="m 8.9567348,36.57853 c 0.270095,-0.15859 0.607862,-0.106393 0.833042,0.155242 0.2808742,0.323866 0.2808742,0.850485 0,1.176359 l -3.772343,4.365517 c -0.130556,0.151227 -0.31022,0.246247 -0.510844,0.246247 -0.200625,0 -0.380888,-0.09503 -0.510845,-0.246247 l -3.77294,-4.365517 c -0.28087509,-0.325205 -0.28087509,-0.851824 0,-1.176359 0.224579,-0.262306 0.563544,-0.313832 0.83304,-0.155242 l 3.450745,2.927518 3.450145,-2.927518 z"
     id="path3051"
     style="fill:#25abf2;fill-opacity:1" /><path
     d="m 25.075255,42.432156 c -0.270095,0.15859 -0.607862,0.106393 -0.833042,-0.155242 -0.280873,-0.323866 -0.280873,-0.850485 0,-1.176359 l 3.772343,-4.365517 c 0.130556,-0.151227 0.31022,-0.246247 0.510844,-0.246247 0.200625,0 0.380888,0.09503 0.510845,0.246247 l 3.77294,4.365517 c 0.280875,0.325205 0.280875,0.851824 0,1.176359 -0.224579,0.262306 -0.563544,0.313832 -0.83304,0.155242 L 28.5254,39.504638 25.075255,42.432156 z"
     id="path3053"
     style="fill:#25abf2;fill-opacity:1" /><path
     d="m 16.101993,21.255287 c -0.15859,-0.329587 -0.106393,-0.741753 0.155242,-1.016532 0.323866,-0.342741 0.850485,-0.342741 1.176359,0 l 4.365517,4.603262 c 0.151227,0.159313 0.246247,0.378551 0.246247,0.623365 0,0.244816 -0.09503,0.464785 -0.246247,0.623367 l -4.365517,4.603991 c -0.325205,0.342742 -0.851824,0.342742 -1.176359,0 -0.262306,-0.274047 -0.313832,-0.687674 -0.155242,-1.016531 l 2.927518,-4.210827 -2.927518,-4.210095 z"
     id="path3055"
     style="fill:#25abf2;fill-opacity:1" /><path
     d="m 10.711317,22.538935 c 0.329587,-0.15859 0.741753,-0.106393 1.016532,0.155242 0.342741,0.323866 0.342741,0.850485 0,1.176359 l -4.6032623,4.365517 c -0.159313,0.151227 -0.378551,0.246247 -0.623365,0.246247 -0.244816,0 -0.464785,-0.09503 -0.623367,-0.246247 l -4.603991,-4.365517 c -0.34274202,-0.325205 -0.34274202,-0.851824 0,-1.176359 0.274047,-0.262306 0.687674,-0.313832 1.016531,-0.155242 l 4.210827,2.927518 4.2100953,-2.927518 z"
     id="path3061"
     style="fill:#25abf2;fill-opacity:1" /><path
     d="m 27.27642,28.392561 c -0.329587,0.15859 -0.741753,0.106393 -1.016532,-0.155242 -0.342741,-0.323866 -0.342741,-0.850485 0,-1.176359 l 4.603262,-4.365517 c 0.159313,-0.151227 0.378551,-0.246247 0.623365,-0.246247 0.244816,0 0.464785,0.09503 0.623367,0.246247 l 4.603991,4.365517 c 0.342742,0.325205 0.342742,0.851824 0,1.176359 -0.274047,0.262306 -0.687674,0.313832 -1.016531,0.155242 l -4.210827,-2.927518 -4.210095,2.927518 z"
     id="path3063"
     style="fill:#25abf2;fill-opacity:1" /><path
     d="m 17.78583,51.15953 c 0.571787,-0.31357 1.285257,-0.209933 1.759638,0.310913 0.593293,0.644413 0.592028,1.690091 -0.0025,2.335832 l -7.977197,8.660384 c -0.275774,0.300284 -0.656544,0.487628 -1.07906,0.487628 -0.422515,0 -0.8032851,-0.188673 -1.0790589,-0.490285 L 1.4468699,53.787674 c -0.59202793,-0.6484 -0.59076292,-1.694077 0.0038,-2.337161 0.4756464,-0.520846 1.190381,-0.621826 1.7596387,-0.306927 l 7.2839674,5.820979 7.291559,-5.805035 z"
     id="path3028"
     style="fill:#1d8fdc;fill-opacity:1" /><path
     d="m 24.186254,50.245048 c -0.31357,-0.571787 -0.209933,-1.285257 0.310913,-1.759638 0.644413,-0.593293 1.690091,-0.592028 2.335832,0.0025 l 8.660384,7.977197 c 0.300284,0.275774 0.487628,0.656544 0.487628,1.07906 0,0.422515 -0.188673,0.803285 -0.490285,1.079058 l -8.676328,7.960783 c -0.6484,0.592028 -1.694077,0.590763 -2.337161,-0.0038 -0.520846,-0.475647 -0.621826,-1.190381 -0.306927,-1.759639 l 5.820979,-7.283967 -5.805035,-7.291559 z"
     id="path3030"
     style="fill:#1d8fdc;fill-opacity:1" /><path
     d="m 42.231073,62.75973 c -0.571787,0.31357 -1.285257,0.209933 -1.759638,-0.310913 -0.593293,-0.644413 -0.592028,-1.690091 0.0025,-2.335832 l 7.977197,-8.660384 c 0.275774,-0.300284 0.656544,-0.487628 1.07906,-0.487628 0.422515,0 0.803285,0.188673 1.079059,0.490285 l 7.960782,8.676328 c 0.592028,0.6484 0.590763,1.694077 -0.0038,2.337161 -0.475647,0.520846 -1.190381,0.621826 -1.759639,0.306927 l -7.283967,-5.820979 -7.291559,5.805035 z"
     id="path3032"
     style="fill:#1d8fdc;fill-opacity:1" /></g><g
   transform="translate(-564.49858,421.49604)"
   id="g3151"
   style="fill:#ffffff"><path
     d="m 23.118252,2.74275 c -0.237,-0.451 -0.159,-1.015 0.232,-1.391 0.484,-0.46899999 1.271,-0.46899999 1.758,0 l 6.524,6.299 c 0.226,0.218 0.368,0.518 0.368,0.853 0,0.335 -0.142,0.636 -0.368,0.853 l -6.524,6.3 c -0.486,0.469 -1.273,0.469 -1.758,0 -0.392,-0.375 -0.469,-0.941 -0.232,-1.391 l 4.375,-5.762 -4.375,-5.761 z"
     id="path3153"
     style="fill:#ffffff" /><path
     d="m 14.266252,4.15375 c 0.452,-0.236 1.016,-0.158 1.391,0.234 0.469,0.485 0.468,1.272 -0.002,1.758 l -6.3060005,6.518 c -0.218,0.226 -0.519,0.367 -0.853,0.367 -0.334,0 -0.635,-0.142 -0.853,-0.369 l -6.293,-6.53 c -0.46800008,-0.488 -0.46700008,-1.275 0.003,-1.759 0.376,-0.392 0.941,-0.468 1.391,-0.231 l 5.758,4.381 5.7640005,-4.369 z"
     id="path3155"
     style="fill:#ffffff" /><path
     d="m 52.266252,12.884322 c 0.452,0.236 1.016,0.158 1.391,-0.234 0.469,-0.485 0.468,-1.272 -0.002,-1.758 l -6.306,-6.5179999 c -0.218,-0.226 -0.519,-0.367 -0.853,-0.367 -0.334,0 -0.635,0.142 -0.853,0.369 l -6.293,6.5299999 c -0.468,0.488 -0.467,1.275 0.003,1.759 0.376,0.392 0.941,0.468 1.391,0.231 l 5.758,-4.3809999 5.764,4.3689999 z"
     id="path3157"
     style="fill:#ffffff" /><path
     d="m 14.122179,36.054899 c -0.15859,-0.270095 -0.106393,-0.607862 0.155242,-0.833042 0.323866,-0.280874 0.850485,-0.280874 1.176359,0 l 4.365517,3.772343 c 0.151227,0.130556 0.246247,0.31022 0.246247,0.510844 0,0.200625 -0.09503,0.380888 -0.246247,0.510845 l -4.365517,3.77294 c -0.325205,0.280875 -0.851824,0.280875 -1.176359,0 -0.262306,-0.224579 -0.313832,-0.563544 -0.155242,-0.83304 l 2.927518,-3.450745 -2.927518,-3.450145 z"
     id="path3159"
     style="fill:#ffffff" /><path
     d="m 8.9567348,36.57853 c 0.270095,-0.15859 0.607862,-0.106393 0.833042,0.155242 0.2808742,0.323866 0.2808742,0.850485 0,1.176359 l -3.772343,4.365517 c -0.130556,0.151227 -0.31022,0.246247 -0.510844,0.246247 -0.200625,0 -0.380888,-0.09503 -0.510845,-0.246247 l -3.77294,-4.365517 c -0.28087509,-0.325205 -0.28087509,-0.851824 0,-1.176359 0.224579,-0.262306 0.563544,-0.313832 0.83304,-0.155242 l 3.450745,2.927518 3.450145,-2.927518 z"
     id="path3161"
     style="fill:#ffffff" /><path
     d="m 25.075255,42.432156 c -0.270095,0.15859 -0.607862,0.106393 -0.833042,-0.155242 -0.280873,-0.323866 -0.280873,-0.850485 0,-1.176359 l 3.772343,-4.365517 c 0.130556,-0.151227 0.31022,-0.246247 0.510844,-0.246247 0.200625,0 0.380888,0.09503 0.510845,0.246247 l 3.77294,4.365517 c 0.280875,0.325205 0.280875,0.851824 0,1.176359 -0.224579,0.262306 -0.563544,0.313832 -0.83304,0.155242 L 28.5254,39.504638 25.075255,42.432156 z"
     id="path3163"
     style="fill:#ffffff" /><path
     d="m 16.101993,21.255287 c -0.15859,-0.329587 -0.106393,-0.741753 0.155242,-1.016532 0.323866,-0.342741 0.850485,-0.342741 1.176359,0 l 4.365517,4.603262 c 0.151227,0.159313 0.246247,0.378551 0.246247,0.623365 0,0.244816 -0.09503,0.464785 -0.246247,0.623367 l -4.365517,4.603991 c -0.325205,0.342742 -0.851824,0.342742 -1.176359,0 -0.262306,-0.274047 -0.313832,-0.687674 -0.155242,-1.016531 l 2.927518,-4.210827 -2.927518,-4.210095 z"
     id="path3165"
     style="fill:#ffffff" /><path
     d="m 10.711317,22.538935 c 0.329587,-0.15859 0.741753,-0.106393 1.016532,0.155242 0.342741,0.323866 0.342741,0.850485 0,1.176359 l -4.6032623,4.365517 c -0.159313,0.151227 -0.378551,0.246247 -0.623365,0.246247 -0.244816,0 -0.464785,-0.09503 -0.623367,-0.246247 l -4.603991,-4.365517 c -0.34274202,-0.325205 -0.34274202,-0.851824 0,-1.176359 0.274047,-0.262306 0.687674,-0.313832 1.016531,-0.155242 l 4.210827,2.927518 4.2100953,-2.927518 z"
     id="path3167"
     style="fill:#ffffff" /><path
     d="m 27.27642,28.392561 c -0.329587,0.15859 -0.741753,0.106393 -1.016532,-0.155242 -0.342741,-0.323866 -0.342741,-0.850485 0,-1.176359 l 4.603262,-4.365517 c 0.159313,-0.151227 0.378551,-0.246247 0.623365,-0.246247 0.244816,0 0.464785,0.09503 0.623367,0.246247 l 4.603991,4.365517 c 0.342742,0.325205 0.342742,0.851824 0,1.176359 -0.274047,0.262306 -0.687674,0.313832 -1.016531,0.155242 l -4.210827,-2.927518 -4.210095,2.927518 z"
     id="path3169"
     style="fill:#ffffff" /></g></svg>