<?xml version="1.0" encoding="UTF-8" standalone="no"?>
<svg width="110" height="1440" viewBox="0 0 110 1440" version="1.1" xmlns="http://www.w3.org/2000/svg">
 <g fill="none" fill-rule="evenodd">
  <g>
   <path d="M102,64.5 L102,64.9951185 C102,66.102384 101.104253,67 99.9928896,67 L12.0071104,67 C10.8986139,67 10,66.1061002 10,64.9951185 L10,64.5 L10,62 L102,62 L102,64.5 Z M96,58.497752 L96,16.004496 C96,14.8969189 95.1056896,14 94.0025017,14 L17.9974983,14 C16.8984375,14 16,14.8974435 16,16.004496 L16,58.497752 L16,61 L96,61 L96,58.497752 Z M56,17 C56.5522847,17 57,16.5522847 57,16 C57,15.4477153 56.5522847,15 56,15 C55.4477153,15 55,15.4477153 55,16 C55,16.5522847 55.4477153,17 56,17 Z M18,18 L94,18 L94,56 L18,56 L18,18 Z" fill="#00aff0"/>
   <path d="M42,103.009893 C42,100.79529 43.7941203,99 45.9968389,99 L66.0031611,99 C68.2105543,99 70,100.794052 70,103.009893 L70,142.990107 C70,145.20471 68.2058797,147 66.0031611,147 L45.9968389,147 C43.7894457,147 42,145.205948 42,142.990107 L42,103.009893 Z M60,103 C60.5522847,103 61,102.552285 61,102 C61,101.447715 60.5522847,101 60,101 C59.4477153,101 59,101.447715 59,102 C59,102.552285 59.4477153,103 60,103 Z M51,102 C51,101.447715 51.4509752,101 51.990778,101 L56.009222,101 C56.5564136,101 57,101.443865 57,102 C57,102.552285 56.5490248,103 56.009222,103 L51.990778,103 C51.4435864,103 51,102.556135 51,102 Z M45,105 L67,105 L67,141 L45,141 L45,105 Z" fill="#00aff0"/>
   <path d="M34,170.996491 C34,169.89386 34.8988551,169 36.0049233,169 L75.9950767,169 C77.1023652,169 78,169.887832 78,170.996491 L78,225.003509 C78,226.10614 77.1011449,227 75.9950767,227 L36.0049233,227 C34.8976348,227 34,226.112168 34,225.003509 L34,170.996491 Z M36,175 L76,175 L76,221 L36,221 L36,175 Z M60,173 C60.5522847,173 61,172.552285 61,172 C61,171.447715 60.5522847,171 60,171 C59.4477153,171 59,171.447715 59,172 C59,172.552285 59.4477153,173 60,173 Z M51,172 C51,171.447715 51.4509752,171 51.990778,171 L56.009222,171 C56.5564136,171 57,171.443865 57,172 C57,172.552285 56.5490248,173 56.009222,173 L51.990778,173 C51.4435864,173 51,172.556135 51,172 Z" fill="#00aff0"/>
   <path d="M51,288 L51,286.990778 C51,286.450975 50.5522847,286 50,286 C49.4438648,286 49,286.443586 49,286.990778 L49,288 L47.990778,288 C47.4509752,288 47,288.447715 47,289 C47,289.556135 47.4435864,290 47.990778,290 L49,290 L49,291.009222 C49,291.549025 49.4477153,292 50,292 C50.5561352,292 51,291.556414 51,291.009222 L51,290 L52.009222,290 C52.5490248,290 53,289.552285 53,289 C53,288.443865 52.5564136,288 52.009222,288 L51,288 Z M28,300.103363 C28,292.450798 29.52,280.971951 34.84,275.615155 C40.16,270.25836 49.253789,274.778816 56.12,274.849899 C63.0386399,274.921525 72.08,270.25836 77.4,275.615155 C82.72,280.971951 84.9999942,293.216054 84.9999979,300.103363 C85.0000015,306.990671 78.9199979,306.989521 78.9199979,306.989521 L67.2623479,298.014226 C66.5651724,297.477467 65.2850574,297.042337 64.3996942,297.042337 L47.8403058,297.042337 C46.9564813,297.042337 45.668173,297.48259 44.9776519,298.014226 L33.32,306.98952 C33.32,306.98952 28,307.569346 28,300.103363 Z M40.92,285.934783 C43.018682,285.934783 44.72,284.231518 44.72,282.130435 C44.72,280.029351 43.018682,278.326087 40.92,278.326087 C38.821318,278.326087 37.12,280.029351 37.12,282.130435 C37.12,284.231518 38.821318,285.934783 40.92,285.934783 Z M61.24,293 C63.449139,293 65.24,291.209139 65.24,289 C65.24,286.790861 63.449139,285 61.24,285 C59.030861,285 57.24,286.790861 57.24,289 C57.24,291.209139 59.030861,293 61.24,293 Z M71.5,281 C72.3284271,281 73,280.328427 73,279.5 C73,278.671573 72.3284271,278 71.5,278 C70.6715729,278 70,278.671573 70,279.5 C70,280.328427 70.6715729,281 71.5,281 Z M68.5,284 C69.3284271,284 70,283.328427 70,282.5 C70,281.671573 69.3284271,281 68.5,281 C67.6715729,281 67,281.671573 67,282.5 C67,283.328427 67.6715729,284 68.5,284 Z M74.5,284 C75.3284271,284 76,283.328427 76,282.5 C76,281.671573 75.3284271,281 74.5,281 C73.6715729,281 73,281.671573 73,282.5 C73,283.328427 73.6715729,284 74.5,284 Z M71.5,287 C72.3284271,287 73,286.328427 73,285.5 C73,284.671573 72.3284271,284 71.5,284 C70.6715729,284 70,284.671573 70,285.5 C70,286.328427 70.6715729,287 71.5,287 Z" fill="#00aff0"/>
   <path d="M47.5844877,356.810643 C47.8182969,353.91832 48.0332326,351.727104 48.0332326,351.727104 C48.1726744,350.220966 49.5092646,349 51.0262554,349 L60.9737446,349 C62.4873037,349 63.8283843,350.209974 63.9667674,351.727104 C63.9667674,351.727104 64.1817031,353.91832 64.4155123,356.810643 C62.0730109,355.046056 59.1586652,354 56,354 C52.8413348,354 49.9269891,355.046056 47.5844877,356.810643 Z M64.3899058,379.2086 C64.1620909,382.108696 63.9576303,384.27383 63.9576303,384.27383 C63.8232348,385.779452 62.4907354,387 60.9737446,387 L51.0262554,387 C49.5126963,387 48.1749822,385.781446 48.0423697,384.27383 C48.0423697,384.27383 47.8379091,382.108696 47.6100942,379.2086 C49.9482119,380.961547 52.852834,382 56,382 C59.147166,382 62.0517881,380.961547 64.3899058,379.2086 Z M56,380 C62.627417,380 68,374.627417 68,368 C68,361.372583 62.627417,356 56,356 C49.372583,356 44,361.372583 44,368 C44,374.627417 49.372583,380 56,380 Z M56,378 C61.5228475,378 66,373.522847 66,368 C66,362.477153 61.5228475,358 56,358 C50.4771525,358 46,362.477153 46,368 C46,373.522847 50.4771525,378 56,378 Z M60,371.121747 C60,371.010222 59.9744084,370.900093 59.9232246,370.791357 C59.8720407,370.68262 59.798465,370.58922 59.7024952,370.511152 L56.9961612,368.169145 L56.9961612,363.869888 C56.9961612,363.747211 56.9705697,363.6329 56.9193858,363.526952 C56.8682019,363.421003 56.7962257,363.328997 56.7034549,363.250929 C56.6106841,363.172862 56.5035195,363.111524 56.3819578,363.066914 C56.2603961,363.022305 56.1324383,363 55.9980806,363 C55.8637229,363 55.7357652,363.022305 55.6142035,363.066914 C55.4926417,363.111524 55.3854771,363.172862 55.2927063,363.250929 C55.1999356,363.328997 55.1279593,363.421003 55.0767754,363.526952 C55.0255916,363.6329 55,363.747211 55,363.869888 L55,368.512082 C55,368.763012 55.0991673,368.974906 55.2975048,369.14777 L58.2917466,371.740706 C58.4900842,371.91357 58.726806,372 59.0019194,372 C59.1362771,372 59.2642348,371.977695 59.3857965,371.933086 C59.5073583,371.888476 59.6145229,371.825744 59.7072937,371.744888 C59.8000644,371.664033 59.8720407,371.570632 59.9232246,371.464684 C59.9744084,371.358736 60,371.244424 60,371.121747 Z" fill="#00aff0"/>
   <path d="M102,544.5 L102,544.995118 C102,546.102384 101.104253,547 99.9928896,547 L12.0071104,547 C10.8986139,547 10,546.1061 10,544.995118 L10,544.5 L10,542 L102,542 L102,544.5 Z M96,538.497752 L96,496.004496 C96,494.896919 95.1056896,494 94.0025017,494 L17.9974983,494 C16.8984375,494 16,494.897443 16,496.004496 L16,538.497752 L16,541 L96,541 L96,538.497752 Z M56,497 C56.5522847,497 57,496.552285 57,496 C57,495.447715 56.5522847,495 56,495 C55.4477153,495 55,495.447715 55,496 C55,496.552285 55.4477153,497 56,497 Z M18,498 L94,498 L94,536 L18,536 L18,498 Z" fill="#ffffff"/>
   <path d="M42,583.009893 C42,580.79529 43.7941203,579 45.9968389,579 L66.0031611,579 C68.2105543,579 70,580.794052 70,583.009893 L70,622.990107 C70,625.20471 68.2058797,627 66.0031611,627 L45.9968389,627 C43.7894457,627 42,625.205948 42,622.990107 L42,583.009893 Z M60,583 C60.5522847,583 61,582.552285 61,582 C61,581.447715 60.5522847,581 60,581 C59.4477153,581 59,581.447715 59,582 C59,582.552285 59.4477153,583 60,583 Z M51,582 C51,581.447715 51.4509752,581 51.990778,581 L56.009222,581 C56.5564136,581 57,581.443865 57,582 C57,582.552285 56.5490248,583 56.009222,583 L51.990778,583 C51.4435864,583 51,582.556135 51,582 Z M45,585 L67,585 L67,621 L45,621 L45,585 Z" fill="#ffffff"/>
   <path d="M34,650.996491 C34,649.89386 34.8988551,649 36.0049233,649 L75.9950767,649 C77.1023652,649 78,649.887832 78,650.996491 L78,705.003509 C78,706.10614 77.1011449,707 75.9950767,707 L36.0049233,707 C34.8976348,707 34,706.112168 34,705.003509 L34,650.996491 Z M36,655 L76,655 L76,701 L36,701 L36,655 Z M60,653 C60.5522847,653 61,652.552285 61,652 C61,651.447715 60.5522847,651 60,651 C59.4477153,651 59,651.447715 59,652 C59,652.552285 59.4477153,653 60,653 Z M51,652 C51,651.447715 51.4509752,651 51.990778,651 L56.009222,651 C56.5564136,651 57,651.443865 57,652 C57,652.552285 56.5490248,653 56.009222,653 L51.990778,653 C51.4435864,653 51,652.556135 51,652 Z" fill="#ffffff"/>
   <path d="M51,768 L51,766.990778 C51,766.450975 50.5522847,766 50,766 C49.4438648,766 49,766.443586 49,766.990778 L49,768 L47.990778,768 C47.4509752,768 47,768.447715 47,769 C47,769.556135 47.4435864,770 47.990778,770 L49,770 L49,771.009222 C49,771.549025 49.4477153,772 50,772 C50.5561352,772 51,771.556414 51,771.009222 L51,770 L52.009222,770 C52.5490248,770 53,769.552285 53,769 C53,768.443865 52.5564136,768 52.009222,768 L51,768 Z M28,780.103363 C28,772.450798 29.52,760.971951 34.84,755.615155 C40.16,750.25836 49.253789,754.778816 56.12,754.849899 C63.0386399,754.921525 72.08,750.25836 77.4,755.615155 C82.72,760.971951 84.9999942,773.216054 84.9999979,780.103363 C85.0000015,786.990671 78.9199979,786.989521 78.9199979,786.989521 L67.2623479,778.014226 C66.5651724,777.477467 65.2850574,777.042337 64.3996942,777.042337 L47.8403058,777.042337 C46.9564813,777.042337 45.668173,777.48259 44.9776519,778.014226 L33.32,786.98952 C33.32,786.98952 28,787.569346 28,780.103363 Z M40.92,765.934783 C43.018682,765.934783 44.72,764.231518 44.72,762.130435 C44.72,760.029351 43.018682,758.326087 40.92,758.326087 C38.821318,758.326087 37.12,760.029351 37.12,762.130435 C37.12,764.231518 38.821318,765.934783 40.92,765.934783 Z M61.24,773 C63.449139,773 65.24,771.209139 65.24,769 C65.24,766.790861 63.449139,765 61.24,765 C59.030861,765 57.24,766.790861 57.24,769 C57.24,771.209139 59.030861,773 61.24,773 Z M71.5,761 C72.3284271,761 73,760.328427 73,759.5 C73,758.671573 72.3284271,758 71.5,758 C70.6715729,758 70,758.671573 70,759.5 C70,760.328427 70.6715729,761 71.5,761 Z M68.5,764 C69.3284271,764 70,763.328427 70,762.5 C70,761.671573 69.3284271,761 68.5,761 C67.6715729,761 67,761.671573 67,762.5 C67,763.328427 67.6715729,764 68.5,764 Z M74.5,764 C75.3284271,764 76,763.328427 76,762.5 C76,761.671573 75.3284271,761 74.5,761 C73.6715729,761 73,761.671573 73,762.5 C73,763.328427 73.6715729,764 74.5,764 Z M71.5,767 C72.3284271,767 73,766.328427 73,765.5 C73,764.671573 72.3284271,764 71.5,764 C70.6715729,764 70,764.671573 70,765.5 C70,766.328427 70.6715729,767 71.5,767 Z" fill="#ffffff"/>
   <path d="M47.5844877,836.810643 C47.8182969,833.91832 48.0332326,831.727104 48.0332326,831.727104 C48.1726744,830.220966 49.5092646,829 51.0262554,829 L60.9737446,829 C62.4873037,829 63.8283843,830.209974 63.9667674,831.727104 C63.9667674,831.727104 64.1817031,833.91832 64.4155123,836.810643 C62.0730109,835.046056 59.1586652,834 56,834 C52.8413348,834 49.9269891,835.046056 47.5844877,836.810643 Z M64.3899058,859.2086 C64.1620909,862.108696 63.9576303,864.27383 63.9576303,864.27383 C63.8232348,865.779452 62.4907354,867 60.9737446,867 L51.0262554,867 C49.5126963,867 48.1749822,865.781446 48.0423697,864.27383 C48.0423697,864.27383 47.8379091,862.108696 47.6100942,859.2086 C49.9482119,860.961547 52.852834,862 56,862 C59.147166,862 62.0517881,860.961547 64.3899058,859.2086 Z M56,860 C62.627417,860 68,854.627417 68,848 C68,841.372583 62.627417,836 56,836 C49.372583,836 44,841.372583 44,848 C44,854.627417 49.372583,860 56,860 Z M56,858 C61.5228475,858 66,853.522847 66,848 C66,842.477153 61.5228475,838 56,838 C50.4771525,838 46,842.477153 46,848 C46,853.522847 50.4771525,858 56,858 Z M60,851.121747 C60,851.010222 59.9744084,850.900093 59.9232246,850.791357 C59.8720407,850.68262 59.798465,850.58922 59.7024952,850.511152 L56.9961612,848.169145 L56.9961612,843.869888 C56.9961612,843.747211 56.9705697,843.6329 56.9193858,843.526952 C56.8682019,843.421003 56.7962257,843.328997 56.7034549,843.250929 C56.6106841,843.172862 56.5035195,843.111524 56.3819578,843.066914 C56.2603961,843.022305 56.1324383,843 55.9980806,843 C55.8637229,843 55.7357652,843.022305 55.6142035,843.066914 C55.4926417,843.111524 55.3854771,843.172862 55.2927063,843.250929 C55.1999356,843.328997 55.1279593,843.421003 55.0767754,843.526952 C55.0255916,843.6329 55,843.747211 55,843.869888 L55,848.512082 C55,848.763012 55.0991673,848.974906 55.2975048,849.14777 L58.2917466,851.740706 C58.4900842,851.91357 58.726806,852 59.0019194,852 C59.1362771,852 59.2642348,851.977695 59.3857965,851.933086 C59.5073583,851.888476 59.6145229,851.825744 59.7072937,851.744888 C59.8000644,851.664033 59.8720407,851.570632 59.9232246,851.464684 C59.9744084,851.358736 60,851.244424 60,851.121747 Z" fill="#ffffff"/>
   <path d="M75,945 C75,943.88773 74.1034952,943 72.9976004,943 L40.0023996,943 C38.8962786,943 38,943.895431 38,945 L38,947 L75,947 L75,945 Z M11,890.992336 C11,890.444284 11.441796,890 11.995349,890 L100.004651,890 C100.554367,890 101,890.449543 101,890.992336 L101,941.007664 C101,941.555716 100.558204,942 100.004651,942 L11.995349,942 C11.4456329,942 11,941.550457 11,941.007664 L11,890.992336 Z M13,892.012987 L99,892.012987 L99,936.012987 L13,936.012987 L13,892.012987 Z" fill="#ffffff"/>
   <path d="M75,465 C75,463.88773 74.1034952,463 72.9976004,463 L40.0023996,463 C38.8962786,463 38,463.895431 38,465 L38,467 L75,467 L75,465 Z M11,410.992336 C11,410.444284 11.441796,410 11.995349,410 L100.004651,410 C100.554367,410 101,410.449543 101,410.992336 L101,461.007664 C101,461.555716 100.558204,462 100.004651,462 L11.995349,462 C11.4456329,462 11,461.550457 11,461.007664 L11,410.992336 Z M13,412.012987 L99,412.012987 L99,456.012987 L13,456.012987 L13,412.012987 Z" fill="#00aff0"/>
  </g>
 </g>
</svg>
