<?xml version="1.0" encoding="UTF-8" standalone="no"?>
<!-- Generator: Adobe Illustrator 16.0.0, SVG Export Plug-In . SVG Version: 6.00 Build 0)  -->

<svg
   xmlns:dc="http://purl.org/dc/elements/1.1/"
   xmlns:cc="http://creativecommons.org/ns#"
   xmlns:rdf="http://www.w3.org/1999/02/22-rdf-syntax-ns#"
   xmlns:svg="http://www.w3.org/2000/svg"
   xmlns="http://www.w3.org/2000/svg"
   xmlns:sodipodi="http://sodipodi.sourceforge.net/DTD/sodipodi-0.dtd"
   xmlns:inkscape="http://www.inkscape.org/namespaces/inkscape"
   version="1.1"
   x="0px"
   y="0px"
   width="16px"
   height="144px"
   viewBox="0 0 16 144"
   enable-background="new 0 0 16 144"
   xml:space="preserve"
   id="svg3127"
   inkscape:version="0.48.2 r9819"
   sodipodi:docname="os_icons_sprite.svg"><metadata
   id="metadata3213"><rdf:RDF><cc:Work
       rdf:about=""><dc:format>image/svg+xml</dc:format><dc:type
         rdf:resource="http://purl.org/dc/dcmitype/StillImage" /><dc:title></dc:title></cc:Work></rdf:RDF></metadata><defs
   id="defs3211" /><sodipodi:namedview
   pagecolor="#ffffff"
   bordercolor="#666666"
   borderopacity="1"
   objecttolerance="10"
   gridtolerance="10"
   guidetolerance="10"
   inkscape:pageopacity="0"
   inkscape:pageshadow="2"
   inkscape:window-width="1624"
   inkscape:window-height="962"
   id="namedview3209"
   showgrid="false"
   inkscape:zoom="5.8410081"
   inkscape:cx="-21.789378"
   inkscape:cy="44.598466"
   inkscape:window-x="2060"
   inkscape:window-y="14"
   inkscape:window-maximized="0"
   inkscape:current-layer="svg3127" />
<g
   id="Layer_1">
</g>
<g
   id="Layer_2">
	<rect
   x="1"
   y="129"
   fill-rule="evenodd"
   clip-rule="evenodd"
   fill="#BCD1DA"
   width="14"
   height="14"
   id="rect3131" />
	<g
   id="g3133">
		<g
   id="g3135">
			<path
   fill="#BCD1DA"
   d="M11.909,11.354c0,0.26-0.209,0.471-0.468,0.471H4.559c-0.259,0-0.468-0.211-0.468-0.471V5.191     c0-0.259,0.209-0.469,0.468-0.469h6.882c0.259,0,0.468,0.21,0.468,0.469V11.354z"
   id="path3137" />
			<rect
   x="4.084"
   y="4.722"
   fill="#BCD1DA"
   width="7.832"
   height="3.235"
   id="rect3139" />
		</g>
		<g
   id="g3141">
			<path
   fill="#BCD1DA"
   d="M14,9.049c0,0.461-0.373,0.836-0.833,0.836l0,0c-0.459,0-0.833-0.375-0.833-0.836V5.29     c0-0.461,0.373-0.837,0.833-0.837l0,0C13.627,4.453,14,4.829,14,5.29V9.049z"
   id="path3143" />
			<path
   fill="#BCD1DA"
   d="M3.666,9.049c0,0.461-0.374,0.836-0.833,0.836l0,0C2.373,9.885,2,9.51,2,9.049V5.29     c0-0.461,0.373-0.837,0.833-0.837l0,0c0.459,0,0.833,0.375,0.833,0.837V9.049z"
   id="path3145" />
		</g>
		<g
   id="g3147">
			<path
   fill="#BCD1DA"
   d="M6.166,1.389c0.015,0.019,0.057,0.013,0.095-0.015l0,0C6.299,1.348,6.32,1.31,6.306,1.291L5.581,0.261     c-0.013-0.02-0.057-0.013-0.095,0.014l0,0C5.447,0.304,5.427,0.341,5.441,0.36L6.166,1.389z"
   id="path3149" />
			<path
   fill="#BCD1DA"
   d="M9.833,1.389C9.819,1.408,9.777,1.402,9.738,1.375l0,0C9.7,1.348,9.68,1.31,9.694,1.291l0.725-1.029     c0.014-0.02,0.057-0.013,0.095,0.014l0,0c0.039,0.028,0.059,0.066,0.044,0.084L9.833,1.389z"
   id="path3151" />
		</g>
		<g
   id="g3153">
			<path
   fill="#BCD1DA"
   d="M10.441,13.913c0,0.462-0.373,0.837-0.834,0.837l0,0c-0.459,0-0.833-0.375-0.833-0.837v-3.759     c0-0.461,0.374-0.836,0.833-0.836l0,0c0.461,0,0.834,0.375,0.834,0.836V13.913z"
   id="path3155" />
			<path
   fill="#BCD1DA"
   d="M7.226,13.913c0,0.462-0.373,0.837-0.833,0.837l0,0c-0.461,0-0.834-0.375-0.834-0.837v-3.759     c0-0.461,0.373-0.836,0.834-0.836l0,0c0.46,0,0.833,0.375,0.833,0.836V13.913z"
   id="path3157" />
		</g>
		<path
   fill="#BCD1DA"
   d="M8,0.941C4.202,0.93,4.117,4.258,4.117,4.258h7.767C11.884,4.258,11.762,0.953,8,0.941z M6.295,3.029    c-0.258,0-0.467-0.21-0.467-0.47c0-0.259,0.209-0.47,0.467-0.47c0.259,0,0.468,0.21,0.468,0.47    C6.763,2.819,6.554,3.029,6.295,3.029z M9.705,3.029c-0.259,0-0.468-0.21-0.468-0.47c0-0.259,0.209-0.47,0.468-0.47    c0.258,0,0.467,0.21,0.467,0.47C10.172,2.819,9.963,3.029,9.705,3.029z"
   id="path3159" />
	</g>
	<path
   fill-rule="evenodd"
   clip-rule="evenodd"
   fill="#BCD1DA"
   d="M4.54,42.756v-8.444c1.14-0.086,2.296-0.129,3.46-0.129   c1.166,0,2.32,0.043,3.461,0.129v8.444H4.54z M9.19,45.375c0,0.621-0.533,1.124-1.19,1.125c-0.657-0.001-1.189-0.504-1.189-1.125   c0-0.622,0.532-1.125,1.189-1.125C8.657,44.25,9.19,44.753,9.19,45.375z M13,37.961v-3.818c0-0.709-0.478-1.315-1.146-1.54   c-0.521-0.175-1.079-0.314-1.666-0.417C9.493,32.065,8.76,32,8,32c-0.76,0-1.493,0.065-2.187,0.186   c-0.587,0.103-1.146,0.242-1.665,0.417C3.478,32.827,3,33.434,3,34.143v10.463c0,1.547,1.524,2.85,3.609,3.259   C7.052,47.95,7.517,48,8,48c0.484,0,0.95-0.05,1.392-0.136C11.475,47.455,13,46.152,13,44.605V37.961z"
   id="path3161" />
	<g
   id="g3163">
		<path
   fill="#BCD1DA"
   d="M12.018,56.443c-0.021-1.822,1.519-2.699,1.588-2.741c-0.868-1.238-2.215-1.405-2.696-1.425    c-1.148-0.111-2.238,0.662-2.82,0.664c-0.582,0.001-1.481-0.641-2.432-0.623c-1.251,0.021-2.403,0.715-3.046,1.809    c-1.295,2.205-0.325,5.468,0.944,7.253c0.62,0.872,1.359,1.855,2.328,1.819c0.934-0.037,1.286-0.592,2.413-0.593    c1.128-0.001,1.446,0.587,2.433,0.566c1.003-0.017,1.639-0.891,2.252-1.77c0.709-1.015,1-1.999,1.018-2.05    C13.978,59.344,12.042,58.622,12.018,56.443"
   id="path3165" />
		<path
   fill="#BCD1DA"
   d="M10.166,51.099c0.514-0.609,0.861-1.455,0.766-2.299c-0.741,0.03-1.639,0.482-2.17,1.091    c-0.477,0.54-0.895,1.401-0.781,2.229C8.807,52.18,9.651,51.706,10.166,51.099"
   id="path3167" />
	</g>
	<g
   id="g3169">
		<g
   id="g3171">
			<path
   fill-rule="evenodd"
   clip-rule="evenodd"
   fill="#BCD1DA"
   d="M13.99,76.72c-0.315-0.305-0.828-0.553-1.041-0.943     c-0.133-0.243,0.102-0.733-0.201-0.842c-0.029-0.022-0.091-0.029-0.116-0.014c-0.151,0-0.145,0.085-0.216,0.157v0.014h-0.03     c0.025-0.07,0.093-0.152,0.145-0.199c0.044-0.026,0.111,0.001,0.145-0.015c0.082-0.035,0.188-0.405,0.216-0.515     c0.006-0.095,0.01-0.19,0.015-0.284c0.043-0.203-0.038-0.501-0.086-0.672c-0.108-0.38-0.195-0.698-0.347-1.026     c-0.354-0.77-0.858-1.399-1.314-2.071c-0.194-0.283-0.414-0.584-0.549-0.928c-0.154-0.39-0.214-0.802-0.318-1.256V67.87     c0-0.296,0.038-0.546-0.028-0.8c-0.314-1.205-0.681-1.746-1.922-2.04H8.168c-0.672-0.149-1.571,0.296-1.834,0.656     c-0.188,0.255-0.247,0.572-0.333,0.94c-0.005,0.13-0.01,0.258-0.014,0.387c-0.033,0.145-0.032,0.426,0,0.569     c0.037,0.169-0.003,0.359,0.029,0.501c0.005,0.156,0.009,0.313,0.014,0.471c0.028,0.125-0.005,0.293,0.029,0.441     c0.036,0.157,0.072,0.46,0.028,0.63c-0.106,0.419-0.37,0.657-0.591,0.955c-0.189,0.254-0.394,0.502-0.564,0.771     c-0.23,0.36-0.399,0.811-0.563,1.229c-0.069,0.175-0.089,0.347-0.173,0.513c-0.171,0.335-0.406,0.652-0.52,1.028     c-0.04,0.126,0.061,0.403,0.086,0.499c0.148-0.031,0.23-0.238,0.449-0.199c0.285,0.049,0.489,0.356,0.635,0.556     c0.272,0.373,0.534,0.749,0.78,1.155c0.123,0.205,0.299,0.396,0.404,0.616c0.212-0.003,0.353-0.063,0.492-0.129     c0.032-0.165,0.037-0.375-0.029-0.516c-0.064-0.135-0.257-0.239-0.376-0.328c-0.319-0.234-0.602-0.537-0.924-0.77     c-0.117-0.085-0.394-0.243-0.434-0.386v-0.357c0-0.387,0.052-0.671,0.13-0.955c0.051-0.188,0.057-0.335,0.13-0.499     c0.145-0.328,0.346-0.63,0.505-0.958c0.059-0.121,0.054-0.249,0.102-0.386c0.064-0.185,0.125-0.405,0.216-0.585     c0.078-0.152,0.188-0.319,0.29-0.457c0.062-0.085,0.158-0.166,0.202-0.271c0.067-0.158,0.014-0.416,0.014-0.626v-0.243     c-0.039-0.097-0.202-0.2-0.159-0.372c0.057-0.227,0.236-0.267,0.318-0.442c-0.31-0.23-0.333-1.303,0.086-1.427     c0.076-0.054,0.214-0.018,0.289,0.014c0.219,0.096,0.331,0.333,0.391,0.586c0.033,0.143-0.075,0.299-0.03,0.385     c-0.025,0.044-0.248,0.132-0.303,0.172c-0.105,0.073-0.189,0.184-0.289,0.256c-0.123,0.092-0.279,0.187-0.361,0.315     c-0.017,0.025-0.025,0.117-0.029,0.142c-0.047,0.24,0.225,0.466,0.347,0.557c0.301,0.225,0.346,0.514,0.896,0.514     c0.101-0.004,0.202-0.009,0.304-0.013c0.284-0.075,0.477-0.277,0.707-0.401c0.191-0.101,0.456-0.16,0.579-0.327     c0.065-0.091,0.054-0.256,0.115-0.343c0.012-0.449-0.338-0.44-0.665-0.543c-0.004-0.003-0.01-0.009-0.014-0.015     c0.101-0.059,0.218-0.042,0.289-0.127c0.184-0.223,0.07-0.635-0.159-0.729c-0.345-0.144-0.495,0.208-0.476,0.457     c0.006,0.092-0.003,0.164,0.043,0.213c0.026,0.059,0.095,0.066,0.144,0.101h0.015v0.028c-0.118-0.009-0.145-0.067-0.217-0.114     c-0.084-0.053-0.211-0.107-0.303-0.143C7.8,68.002,7.409,68.018,7.33,68.013c0.042-0.031,0.433-0.053,0.491-0.014     c0.033-0.004,0.035-0.008,0.058-0.014c-0.017-0.104-0.1-0.333-0.044-0.487c0.119-0.323,0.402-0.722,0.911-0.556     c0.49,0.159,0.665,1.111,0.289,1.526c0.036,0.064,0.137,0.076,0.188,0.129c0.023,0.024,0.015,0.049,0.043,0.071     c0.009,0.183,0.002,0.43-0.115,0.528c0.069,0.413,0.349,0.733,0.506,1.07c0.048,0.104,0.048,0.194,0.087,0.3     c0.076,0.216,0.164,0.459,0.259,0.657c0.033,0.068,0.024,0.13,0.058,0.199c0.166,0.338,0.354,0.678,0.505,1.043     c0.005,0.042,0.01,0.084,0.015,0.128c0.073,0.224,0.102,0.505,0.159,0.756v0.214c0.035,0.154,0.071,0.713,0.03,0.899     c-0.025,0.108-0.082,0.188-0.102,0.286c0.1,0.009,0.125,0.06,0.202,0.085c0.019,0.163,0,0.341,0,0.514     c0.077,0.072,0.173,0.204,0.26,0.258h0.087c0.172,0.06,0.39,0.049,0.563,0c0.009,0.009,0.019,0.02,0.029,0.028     c-0.364,0.134-0.692,0.031-0.896-0.171c-0.034-0.035-0.09-0.075-0.101-0.129c-0.021-0.101,0.066-0.332,0-0.442     c-0.015-0.058-0.043-0.06-0.072-0.101c-0.299-0.022-0.434-0.031-0.635,0.101c-0.118,0.452,0.004,1.127-0.102,1.613     c-0.033,0.149-0.001,0.516-0.072,0.6v0.014H9.916c-0.001-0.143,0.016-0.213,0.043-0.302c0.025-0.078-0.024-0.194,0.014-0.256     c-0.005-0.028-0.003-0.026-0.014-0.042c-0.004-0.005-0.008-0.01-0.014-0.014c-0.067,0.1-0.178,0.183-0.275,0.256     c-0.057,0.056-0.115,0.113-0.172,0.171c-0.317,0.228-0.672,0.415-1.07,0.558c-0.206,0.073-0.464,0.079-0.679,0.128H7.46     c-0.207,0.043-0.773-0.033-0.837-0.156H6.579c0.028,0.095,0.096,0.177,0.129,0.271c0.052,0.142,0.042,0.63-0.043,0.714v0.014     c0.128-0.013,0.255-0.083,0.375-0.114c0.188-0.005,0.375-0.009,0.563-0.015c0.15-0.032,0.345,0.009,0.52-0.029     c0.258-0.056,0.685-0.052,0.939,0h0.202c0.097,0.024,0.394,0.063,0.462,0.115c0.034-0.004,0.036-0.006,0.058-0.015     c-0.013-0.159-0.013-0.296,0-0.428c0.009-0.087-0.024-0.227,0.015-0.286c0.009-0.024,0.003-0.014,0.014-0.029     c0.026,0.139-0.033,0.299,0,0.443c0.065,0.296,0.059,0.528,0.246,0.701c0.198,0.179,0.841,0.23,1.17,0.126     c0.353-0.11,0.508-0.363,0.766-0.555c0.222-0.166,0.447-0.355,0.68-0.501c0.27-0.169,0.554-0.321,0.823-0.485     c0.173-0.105,0.389-0.186,0.477-0.371C14.02,76.926,13.99,76.823,13.99,76.72z M8.543,67.543h0.086     c0.072,0.071,0.147,0.105,0.174,0.227c-0.017,0.017-0.032,0.037-0.044,0.057c-0.143-0.004-0.171-0.141-0.246-0.214     C8.522,67.568,8.527,67.572,8.543,67.543z M8.471,68.298h0.043v0.029c-0.071,0.002-0.095,0.009-0.115-0.044     C8.436,68.285,8.453,68.285,8.471,68.298z M7.518,69.339c0.317-0.104,0.627-0.213,0.895-0.371     c0.099-0.057,0.184-0.162,0.275-0.227c0.049-0.035,0.104-0.047,0.145-0.086h0.042c0.01,0.01,0.02,0.019,0.029,0.028     c-0.061,0.09-0.2,0.137-0.289,0.199c-0.338,0.241-0.678,0.429-1.156,0.543c-0.358,0.086-0.906-0.102-1.011-0.3h-0.03V69.11     c0.193,0.058,0.325,0.176,0.535,0.229C7.09,69.374,7.386,69.384,7.518,69.339z M9.858,77.59     c-0.039-0.045-0.029-0.123-0.015-0.186C9.868,77.439,9.861,77.531,9.858,77.59z M9.887,77.348v0.014H9.873     c0.013-0.055,0.002-0.166,0.029-0.228C9.936,77.183,9.917,77.312,9.887,77.348z M11.881,75.606h-0.044     c0.005-0.016,0.01-0.029,0.015-0.045h0.043C11.891,75.577,11.886,75.591,11.881,75.606z M12.069,75.478     c-0.049,0.031-0.091,0.029-0.117,0.084H11.91v-0.041h0.042c0.04-0.088,0.301-0.24,0.376-0.357h0.014     C12.325,75.241,12.131,75.437,12.069,75.478z M12.372,75.136v0.013h-0.029c0.005-0.013,0.01-0.027,0.014-0.041h0.029     C12.377,75.133,12.383,75.121,12.372,75.136z M6.969,68.14c0.032-0.044,0.013-0.088,0.029-0.154     c0.054-0.229-0.059-0.334-0.145-0.458c-0.074-0.017-0.11-0.042-0.202-0.043c-0.04,0.032-0.104,0.061-0.144,0.086     c-0.121,0.271-0.025,0.642,0.173,0.77c0.005,0.006,0.01,0.012,0.014,0.015C6.764,68.267,6.903,68.231,6.969,68.14z M6.666,67.712     c-0.004-0.061-0.006-0.06,0.015-0.113h0.102c0.023,0.031,0.066,0.063,0.101,0.084c0.009,0.086,0.079,0.228,0.028,0.303     c-0.004,0.014-0.01,0.027-0.014,0.041C6.779,68.012,6.76,67.784,6.666,67.712z M6.102,76.947     c-0.29-0.427-0.553-0.864-0.823-1.312c-0.043-0.073-0.13-0.143-0.173-0.214c-0.183-0.3-0.571-0.913-1.026-0.915     c-0.113,0.088-0.249,0.117-0.347,0.214c-0.228,0.228-0.339,0.602-0.636,0.758c-0.335,0.176-0.945,0.087-1.055,0.485     c-0.034,0.123,0.045,0.663,0.072,0.786c0.08,0.354-0.202,0.851-0.086,1.111c0.092,0.209,0.33,0.239,0.563,0.315     c0.502,0.162,1.098,0.213,1.604,0.385c0.38,0.131,0.758,0.297,1.155,0.413c0.167,0.05,0.479,0.023,0.607-0.028     c0.145-0.058,0.244-0.212,0.361-0.3c0.095-0.07,0.228-0.141,0.289-0.242c0.086-0.146,0.066-0.606,0-0.758     C6.487,77.369,6.262,77.184,6.102,76.947z"
   id="path3173" />
		</g>
	</g>
	<g
   id="g3175">
		<path
   fill="#BCD1DA"
   d="M6.361,83v9.33L8.478,93v-7.825c0-0.366,0.164-0.612,0.43-0.527c0.345,0.096,0.412,0.434,0.412,0.799    v3.127c1.321,0.635,2.36-0.001,2.36-1.678c0-1.723-0.608-2.485-2.401-3.099C8.572,83.561,7.261,83.166,6.361,83"
   id="path3177" />
		<path
   fill="#BCD1DA"
   d="M8.88,91.636l3.405-1.21c0.387-0.138,0.446-0.333,0.132-0.435c-0.314-0.103-0.881-0.074-1.269,0.064    L8.88,90.853v-1.269l0.13-0.043c0,0,0.656-0.232,1.579-0.333c0.922-0.103,2.051,0.014,2.937,0.349    c1,0.313,1.112,0.777,0.858,1.098c-0.253,0.318-0.876,0.546-0.876,0.546L8.88,92.858V91.636"
   id="path3179" />
		<path
   fill="#BCD1DA"
   d="M2.476,91.509c-1.025-0.288-1.196-0.889-0.729-1.233c0.432-0.319,1.167-0.56,1.167-0.56l3.036-1.077v1.227    l-2.184,0.78c-0.387,0.139-0.446,0.333-0.132,0.436c0.314,0.104,0.882,0.073,1.269-0.064l1.047-0.38v1.099    c-0.066,0.011-0.141,0.022-0.209,0.034C4.692,91.94,3.576,91.868,2.476,91.509"
   id="path3181" />
		<path
   fill="#BCD1DA"
   d="M13.709,92.982c0.133,0,0.257-0.052,0.351-0.145s0.146-0.217,0.146-0.351c0-0.13-0.052-0.254-0.146-0.348    c-0.094-0.095-0.218-0.146-0.351-0.146c-0.273,0-0.495,0.222-0.495,0.493c0,0.134,0.051,0.258,0.145,0.351    C13.453,92.931,13.577,92.982,13.709,92.982 M13.297,92.487c0-0.109,0.043-0.212,0.121-0.289s0.182-0.121,0.292-0.121    c0.111,0,0.214,0.044,0.292,0.121c0.077,0.077,0.121,0.18,0.121,0.289c0,0.229-0.185,0.412-0.413,0.412    c-0.11,0-0.214-0.042-0.292-0.121C13.34,92.702,13.297,92.598,13.297,92.487"
   id="path3183" />
		<path
   fill="#BCD1DA"
   d="M13.954,92.718c-0.007-0.002-0.013-0.011-0.016-0.023c-0.002-0.01-0.005-0.023-0.005-0.043l-0.002-0.07    c0-0.032-0.007-0.057-0.021-0.072c-0.008-0.01-0.019-0.021-0.033-0.027c0.017-0.011,0.032-0.023,0.042-0.04    c0.013-0.022,0.021-0.051,0.021-0.084c0-0.065-0.027-0.111-0.082-0.135c-0.027-0.014-0.062-0.019-0.105-0.019h-0.256v0.549h0.096    v-0.226h0.15c0.027,0,0.047,0.003,0.059,0.009c0.02,0.01,0.03,0.029,0.031,0.059l0.004,0.088c0.001,0.021,0.002,0.035,0.004,0.043    c0.001,0.01,0.003,0.016,0.007,0.021l0.003,0.006h0.107v-0.031L13.954,92.718z M13.844,92.364c0,0.03-0.008,0.051-0.023,0.062    c-0.018,0.012-0.042,0.018-0.073,0.018h-0.153v-0.155h0.163c0.022,0,0.041,0.003,0.052,0.009    C13.833,92.31,13.844,92.332,13.844,92.364"
   id="path3185" />
	</g>
	<path
   fill="#BCD1DA"
   d="M13.486,99.382h-4.2C9.286,98.618,8.71,98,8,98s-1.286,0.618-1.286,1.382h-4.2   C2.23,99.382,2,99.629,2,99.934v7.178c0,0.229,0.129,0.424,0.313,0.51c0.034,0.015,0.068,0.024,0.104,0.032   c0.979,0.316,1.992,0.55,3.03,0.698V109h5.105v-0.648c1.038-0.148,2.051-0.382,3.03-0.698c0.036-0.008,0.071-0.018,0.104-0.032   c0.184-0.086,0.313-0.28,0.313-0.51v-7.178C14,99.629,13.77,99.382,13.486,99.382z M8,98.828c0.284,0,0.514,0.247,0.514,0.554   c0,0.305-0.23,0.552-0.514,0.552s-0.514-0.247-0.514-0.552C7.486,99.075,7.716,98.828,8,98.828z M12.972,106.56H3.028v-6.075h9.943   V106.56z"
   id="path3187" />
	<g
   id="g3189">
		<g
   id="g3191">
			<path
   fill-rule="evenodd"
   clip-rule="evenodd"
   fill="#BCD1DA"
   d="M4.328,117.754c1.122-0.291,2.746,0.327,3.246,0.868     c0.144-0.091,0.284-0.953,0.357-1.188c0.237-0.759,0.447-1.589,0.687-2.345c0.112-0.354,0.119-0.809,0.303-1.103     c-0.03-0.265-0.415-0.33-0.604-0.434c-0.643-0.354-1.298-0.582-2.338-0.55c-0.192,0.029-0.385,0.057-0.577,0.086     c-0.421,0.119-1.229,0.263-1.513,0.521c-0.169,0.223-0.207,0.794-0.302,1.101c-0.255,0.814-0.46,1.707-0.716,2.521     c-0.1,0.321-0.1,0.756-0.274,1.014v0.058c0.302-0.116,0.604-0.23,0.907-0.348C3.769,117.864,4.064,117.821,4.328,117.754z      M11.231,115.292c-0.588-0.203-1.034-0.52-1.513-0.812c-0.035,0.409-0.217,0.825-0.33,1.187c-0.21,0.674-0.347,1.353-0.55,1.999     c-0.128,0.408-0.215,1.193-0.413,1.506c0.053,0.246,0.673,0.474,0.907,0.579c1.054,0.474,2.418,0.562,3.576,0.118     c0.261-0.102,0.588-0.139,0.771-0.32c0.149-0.093,0.282-0.948,0.357-1.188c0.249-0.796,0.464-1.667,0.715-2.462     c0.093-0.291,0.09-0.665,0.248-0.897v-0.146C14.085,115.314,12.474,115.719,11.231,115.292z M7.381,119.751     c-0.092-0.195-0.399-0.261-0.578-0.376c-0.538-0.344-1.244-0.604-2.118-0.579c-0.155,0.105-0.469,0.036-0.66,0.088     c-0.476,0.126-1.377,0.287-1.706,0.549c-0.181,0.241-0.226,0.855-0.33,1.188c-0.24,0.767-0.447,1.61-0.688,2.376     c-0.11,0.349-0.113,0.821-0.303,1.101v0.058c0.275-0.105,0.55-0.212,0.826-0.319c0.265-0.091,0.561-0.135,0.825-0.201     c1.158-0.299,2.815,0.312,3.328,0.869h0.055c0.25-1.094,0.602-2.219,0.936-3.274C7.091,120.84,7.187,120.032,7.381,119.751z      M9.499,121.055c-0.335-0.114-0.703-0.275-0.989-0.463c-0.13-0.085-0.242-0.213-0.386-0.289c-0.227,1.059-0.562,2.143-0.88,3.157     c-0.121,0.386-0.222,1.228-0.413,1.506c0.094,0.204,0.63,0.389,0.853,0.492c0.445,0.206,0.912,0.387,1.458,0.521     c0.171,0.043,0.351,0.004,0.468,0c1.027-0.041,1.775-0.314,2.53-0.638c0.412-1.486,0.826-2.973,1.238-4.461v-0.115     C12.389,121.19,10.701,121.472,9.499,121.055z"
   id="path3193" />
		</g>
	</g>
	<g
   id="g3195">
		<g
   id="g3197">
			<path
   fill-rule="evenodd"
   clip-rule="evenodd"
   fill="#FFFFFF"
   d="M5.377,134.858c0.801-0.189,1.961,0.215,2.318,0.567     c0.103-0.058,0.204-0.623,0.256-0.776c0.169-0.495,0.32-1.039,0.491-1.533c0.08-0.232,0.085-0.528,0.217-0.722     c-0.022-0.171-0.297-0.215-0.433-0.283c-0.458-0.23-0.927-0.38-1.669-0.359c-0.138,0.019-0.275,0.038-0.413,0.056     c-0.301,0.078-0.878,0.173-1.081,0.343c-0.121,0.146-0.148,0.518-0.216,0.719c-0.182,0.532-0.329,1.115-0.511,1.647     c-0.071,0.211-0.071,0.495-0.196,0.664v0.038c0.216-0.077,0.432-0.152,0.648-0.229C4.978,134.931,5.189,134.902,5.377,134.858z      M10.308,133.249c-0.42-0.133-0.739-0.34-1.08-0.53c-0.025,0.268-0.155,0.539-0.236,0.775c-0.15,0.439-0.249,0.885-0.393,1.307     c-0.091,0.267-0.154,0.78-0.294,0.985c0.037,0.162,0.48,0.311,0.648,0.379c0.753,0.31,1.727,0.367,2.554,0.075     c0.186-0.064,0.419-0.089,0.549-0.207c0.107-0.062,0.202-0.62,0.255-0.776c0.178-0.521,0.331-1.092,0.511-1.61     c0.066-0.192,0.064-0.437,0.177-0.588v-0.094C12.347,133.264,11.196,133.527,10.308,133.249z M7.558,136.165     c-0.066-0.129-0.285-0.172-0.413-0.246c-0.384-0.226-0.889-0.396-1.513-0.379c-0.111,0.069-0.335,0.022-0.471,0.057     c-0.34,0.083-0.983,0.189-1.218,0.36c-0.13,0.156-0.162,0.559-0.236,0.775c-0.171,0.503-0.319,1.053-0.491,1.554     c-0.078,0.229-0.081,0.537-0.216,0.72v0.038c0.196-0.068,0.393-0.138,0.59-0.208c0.189-0.062,0.4-0.089,0.589-0.133     c0.827-0.195,2.011,0.204,2.378,0.567h0.039c0.178-0.714,0.43-1.45,0.668-2.14C7.351,136.877,7.419,136.35,7.558,136.165z      M9.071,137.018c-0.24-0.075-0.503-0.18-0.708-0.304c-0.093-0.056-0.172-0.14-0.275-0.189c-0.162,0.693-0.401,1.401-0.629,2.065     c-0.086,0.252-0.158,0.802-0.294,0.984c0.067,0.134,0.449,0.254,0.61,0.322c0.317,0.135,0.651,0.253,1.041,0.341     c0.122,0.027,0.25,0.003,0.334,0c0.733-0.027,1.268-0.206,1.807-0.417c0.295-0.972,0.59-1.943,0.885-2.916v-0.075     C11.135,137.105,9.929,137.289,9.071,137.018z"
   id="path3199" />
		</g>
	</g>
	<g
   id="g27">
		<path
   id="path29"
   connector-curvature="0"
   fill="#BCD1DA"
   d="M5.866,20.46c0-0.424-0.244-0.96-1.269-0.96    c-0.421,0-1.58,0-1.58,0l-0.449,2.21c0,0,0.854,0,1.646,0C5.501,21.71,5.866,21.063,5.866,20.46z" />
		<path
   id="path31"
   connector-curvature="0"
   fill="#BCD1DA"
   d="M10.12,20.46c0-0.424-0.243-0.96-1.269-0.96    c-0.42,0-1.579,0-1.579,0l-0.45,2.21c0,0,0.854,0,1.646,0C9.755,21.71,10.12,21.063,10.12,20.46z" />
		<path
   id="path33"
   connector-curvature="0"
   fill="#BCD1DA"
   d="M5.297,23.787c0-0.423-0.244-0.961-1.27-0.961    c-0.421,0-1.579,0-1.579,0L2,25.038c0,0,0.854,0,1.646,0C4.931,25.038,5.297,24.389,5.297,23.787z" />
		<path
   id="path35"
   connector-curvature="0"
   fill="#BCD1DA"
   d="M9.55,23.787c0-0.423-0.244-0.961-1.269-0.961    c-0.421,0-1.58,0-1.58,0l-0.449,2.212c0,0,0.853,0,1.646,0C9.185,25.038,9.55,24.389,9.55,23.787z" />
		<path
   id="path37"
   connector-curvature="0"
   fill="#BCD1DA"
   d="M14,22.439c0-0.426-0.244-0.962-1.269-0.962    c-0.42,0-1.579,0-1.579,0l-0.45,2.211c0,0,0.854,0,1.646,0C13.634,23.688,14,23.042,14,22.439z" />
		<path
   id="path39"
   connector-curvature="0"
   fill="#BCD1DA"
   d="M13.387,25.902c0-0.424-0.244-0.961-1.269-0.961    c-0.421,0-1.579,0-1.579,0l-0.449,2.212c0,0,0.852,0,1.645,0C13.021,27.153,13.387,26.503,13.387,25.902z" />
		<path
   id="path41"
   connector-curvature="0"
   fill="#BCD1DA"
   d="M8.939,27.253c0-0.427-0.243-0.964-1.268-0.964    c-0.422,0-1.58,0-1.58,0L5.642,28.5c0,0,0.854,0,1.646,0C8.574,28.501,8.939,27.854,8.939,27.253z" />
	</g>
</g>
</svg>