<?xml version="1.0" encoding="utf-8"?>
<!-- Generator: Adobe Illustrator 16.0.0, SVG Export Plug-In . SVG Version: 6.00 Build 0)  -->
<!DOCTYPE svg PUBLIC "-//W3C//DTD SVG 1.1//EN" "http://www.w3.org/Graphics/SVG/1.1/DTD/svg11.dtd">
<svg version="1.1" id="Layer_1_copy" xmlns="http://www.w3.org/2000/svg" xmlns:xlink="http://www.w3.org/1999/xlink" x="0px"
	 y="0px" width="1460px" height="278px" viewBox="0 0 1460 278" enable-background="new 0 0 1460 278" xml:space="preserve">
<rect fill="#E4EEF2" width="1460" height="278"/>
<g>
	<defs>
		<rect id="SVGID_1_" x="102" y="176" width="281" height="101.944"/>
	</defs>
	<clipPath id="SVGID_2_">
		<use xlink:href="#SVGID_1_"  overflow="visible"/>
	</clipPath>
	<g clip-path="url(#SVGID_2_)">
		<circle fill="#FFFFFF" cx="232.704" cy="275.088" r="74.162"/>
		<circle fill="#FFFFFF" cx="316.984" cy="305.44" r="59.162"/>
		<circle fill="#FFFFFF" cx="159.068" cy="298.016" r="37.078"/>
	</g>
</g>
<g>
	<defs>
		<rect id="SVGID_3_" x="933.167" y="68.556" width="526.833" height="210.444"/>
	</defs>
	<clipPath id="SVGID_4_">
		<use xlink:href="#SVGID_3_"  overflow="visible"/>
	</clipPath>
	<g clip-path="url(#SVGID_4_)">
		<path fill-rule="evenodd" clip-rule="evenodd" fill="#CCE399" d="M1133.874,159.959c88.355,0,159.98,71.625,159.98,159.98
			c0,88.353-71.625,159.98-159.98,159.98c-88.354,0-159.98-71.628-159.98-159.98C973.894,231.584,1045.521,159.959,1133.874,159.959
			L1133.874,159.959z"/>
		<path fill-rule="evenodd" clip-rule="evenodd" fill="#B2D666" d="M1133.77,174.954c80.072,0,144.982,64.91,144.982,144.982
			c0,80.071-64.91,144.981-144.982,144.981s-144.982-64.91-144.982-144.981C988.787,239.864,1053.697,174.954,1133.77,174.954
			L1133.77,174.954z"/>
		<path fill-rule="evenodd" clip-rule="evenodd" fill="#99C833" d="M1133.873,189.807c71.787,0,129.982,58.198,129.982,129.986
			s-58.195,129.983-129.982,129.983c-71.789,0-129.984-58.195-129.984-129.983S1062.084,189.807,1133.873,189.807L1133.873,189.807z
			"/>
		<path fill-rule="evenodd" clip-rule="evenodd" fill="#7FBA00" d="M1133.854,204.952c63.504,0,114.984,51.481,114.984,114.985
			s-51.48,114.985-114.984,114.985s-114.984-51.481-114.984-114.985S1070.351,204.952,1133.854,204.952L1133.854,204.952z"/>
		<path fill-rule="evenodd" clip-rule="evenodd" fill="#FFFFFF" d="M1133.871,219.952c55.223,0,99.988,44.766,99.988,99.986
			c0,55.223-44.766,99.989-99.988,99.989c-55.221,0-99.986-44.767-99.986-99.989C1033.885,264.718,1078.65,219.952,1133.871,219.952
			L1133.871,219.952z"/>
		<path fill="#FFFFFF" d="M1399.365,269.771c0,69.119-56.035,125.159-125.161,125.159c-69.125,0-125.162-56.04-125.162-125.159
			c0-69.127,56.037-125.165,125.162-125.165C1343.33,144.606,1399.365,200.645,1399.365,269.771z"/>
		<path fill="#FFFFFF" d="M1462,307.623c0,34.409-27.897,62.311-62.313,62.311c-34.413,0-62.312-27.901-62.312-62.311
			c0-34.416,27.899-62.315,62.312-62.315C1434.103,245.308,1462,273.207,1462,307.623z"/>
	</g>
</g>
</svg>
