<?xml version="1.0" encoding="UTF-8" standalone="no"?>
<!-- Generator: Adobe Illustrator 16.0.0, SVG Export Plug-In . SVG Version: 6.00 Build 0)  -->

<svg
   xmlns:dc="http://purl.org/dc/elements/1.1/"
   xmlns:cc="http://creativecommons.org/ns#"
   xmlns:rdf="http://www.w3.org/1999/02/22-rdf-syntax-ns#"
   xmlns:svg="http://www.w3.org/2000/svg"
   xmlns="http://www.w3.org/2000/svg"
   xmlns:sodipodi="http://sodipodi.sourceforge.net/DTD/sodipodi-0.dtd"
   xmlns:inkscape="http://www.inkscape.org/namespaces/inkscape"
   version="1.1"
   id="Layer_1"
   x="0px"
   y="0px"
   width="51.008377"
   height="40.999485"
   viewBox="0 0 51.008377 40.999485"
   enable-background="new 0 0 34 17"
   xml:space="preserve"
   inkscape:version="0.48.2 r9819"
   sodipodi:docname="category_arrow_icon_sprite.svg"
   inkscape:export-filename="/Users/vaikohansson/Sites/knowledgebase/src/main/webapp/images/responsive/elements/category_arrow_icon_sprite.png"
   inkscape:export-xdpi="90"
   inkscape:export-ydpi="90"><metadata
   id="metadata11"><rdf:RDF><cc:Work
       rdf:about=""><dc:format>image/svg+xml</dc:format><dc:type
         rdf:resource="http://purl.org/dc/dcmitype/StillImage" /><dc:title></dc:title></cc:Work></rdf:RDF></metadata><defs
   id="defs9" /><sodipodi:namedview
   pagecolor="#ffffff"
   bordercolor="#666666"
   borderopacity="1"
   objecttolerance="10"
   gridtolerance="10"
   guidetolerance="10"
   inkscape:pageopacity="0"
   inkscape:pageshadow="2"
   inkscape:window-width="1729"
   inkscape:window-height="928"
   id="namedview7"
   showgrid="true"
   inkscape:zoom="37.882353"
   inkscape:cx="18.229741"
   inkscape:cy="18.59097"
   inkscape:window-x="2035"
   inkscape:window-y="21"
   inkscape:window-maximized="0"
   inkscape:current-layer="Layer_1"
   fit-margin-bottom="14"
   fit-margin-top="1"
   fit-margin-left="1"
   fit-margin-right="1"
   inkscape:snap-global="false"><inkscape:grid
     type="xygrid"
     id="grid2984"
     empspacing="5"
     visible="true"
     enabled="true"
     snapvisiblegridlinesonly="true" /></sodipodi:namedview>
<path
   d="m 21.118252,2.74275 c -0.237,-0.451 -0.159,-1.015 0.232,-1.391 0.484,-0.46899999 1.271,-0.46899999 1.758,0 l 6.524,6.299 c 0.226,0.218 0.368,0.518 0.368,0.853 0,0.335 -0.142,0.636 -0.368,0.853 l -6.524,6.3 c -0.486,0.469 -1.273,0.469 -1.758,0 -0.392,-0.375 -0.469,-0.941 -0.232,-1.391 l 4.375,-5.762 -4.375,-5.761 z"
   id="path3"
   inkscape:connector-curvature="0"
   style="fill:#00aff0" />
<path
   d="m 14.266252,4.15375 c 0.452,-0.236 1.016,-0.158 1.391,0.234 0.469,0.485 0.468,1.272 -0.002,1.758 l -6.3060005,6.518 c -0.218,0.226 -0.519,0.367 -0.853,0.367 -0.334,0 -0.635,-0.142 -0.853,-0.369 l -6.293,-6.53 c -0.46800008,-0.488 -0.46700008,-1.275 0.003,-1.759 0.376,-0.392 0.941,-0.468 1.391,-0.231 l 5.758,4.381 5.7640005,-4.369 z"
   id="path5"
   inkscape:connector-curvature="0"
   style="fill:#00aff0" />
<path
   style="fill:#00aff0"
   inkscape:connector-curvature="0"
   id="path3010"
   d="m 48.266252,12.884322 c 0.452,0.236 1.016,0.158 1.391,-0.234 0.469,-0.485 0.468,-1.272 -0.002,-1.758 l -6.306,-6.5179999 c -0.218,-0.226 -0.519,-0.367 -0.853,-0.367 -0.334,0 -0.635,0.142 -0.853,0.369 l -6.293,6.5299999 c -0.468,0.488 -0.467,1.275 0.003,1.759 0.376,0.392 0.941,0.468 1.391,0.231 l 5.758,-4.3809999 5.764,4.3689999 z" /><path
   style="fill:#00aff0"
   inkscape:connector-curvature="0"
   id="path3047"
   d="m 12.122179,32.054899 c -0.15859,-0.270095 -0.106393,-0.607862 0.155242,-0.833042 0.323866,-0.280874 0.850485,-0.280874 1.176359,0 l 4.365517,3.772343 c 0.151227,0.130556 0.246247,0.31022 0.246247,0.510844 0,0.200625 -0.09503,0.380888 -0.246247,0.510845 l -4.365517,3.77294 c -0.325205,0.280875 -0.851824,0.280875 -1.176359,0 -0.262306,-0.224579 -0.313832,-0.563544 -0.155242,-0.83304 l 2.927518,-3.450745 -2.927518,-3.450145 z" /><path
   d="m 8.9567348,32.57853 c 0.270095,-0.15859 0.607862,-0.106393 0.833042,0.155242 0.2808742,0.323866 0.2808742,0.850485 0,1.176359 l -3.772343,4.365517 c -0.130556,0.151227 -0.31022,0.246247 -0.510844,0.246247 -0.200625,0 -0.380888,-0.09503 -0.510845,-0.246247 l -3.77294,-4.365517 c -0.28087509,-0.325205 -0.28087509,-0.851824 0,-1.176359 0.224579,-0.262306 0.563544,-0.313832 0.83304,-0.155242 l 3.450745,2.927518 3.450145,-2.927518 z"
   id="path3051"
   inkscape:connector-curvature="0"
   style="fill:#00aff0" /><path
   style="fill:#00aff0"
   inkscape:connector-curvature="0"
   id="path3053"
   d="m 21.075255,38.432156 c -0.270095,0.15859 -0.607862,0.106393 -0.833042,-0.155242 -0.280873,-0.323866 -0.280873,-0.850485 0,-1.176359 l 3.772343,-4.365517 c 0.130556,-0.151227 0.31022,-0.246247 0.510844,-0.246247 0.200625,0 0.380888,0.09503 0.510845,0.246247 l 3.77294,4.365517 c 0.280875,0.325205 0.280875,0.851824 0,1.176359 -0.224579,0.262306 -0.563544,0.313832 -0.83304,0.155242 L 24.5254,35.504638 21.075255,38.432156 z" /><path
   d="m 14.101993,19.255287 c -0.15859,-0.329587 -0.106393,-0.741753 0.155242,-1.016532 0.323866,-0.342741 0.850485,-0.342741 1.176359,0 l 4.365517,4.603262 c 0.151227,0.159313 0.246247,0.378551 0.246247,0.623365 0,0.244816 -0.09503,0.464785 -0.246247,0.623367 l -4.365517,4.603991 c -0.325205,0.342742 -0.851824,0.342742 -1.176359,0 -0.262306,-0.274047 -0.313832,-0.687674 -0.155242,-1.016531 l 2.927518,-4.210827 -2.927518,-4.210095 z"
   id="path3055"
   inkscape:connector-curvature="0"
   style="fill:#00aff0" /><path
   style="fill:#00aff0"
   inkscape:connector-curvature="0"
   id="path3061"
   d="m 10.711317,20.538935 c 0.329587,-0.15859 0.741753,-0.106393 1.016532,0.155242 0.342741,0.323866 0.342741,0.850485 0,1.176359 l -4.6032623,4.365517 c -0.159313,0.151227 -0.378551,0.246247 -0.623365,0.246247 -0.244816,0 -0.464785,-0.09503 -0.623367,-0.246247 l -4.603991,-4.365517 c -0.34274202,-0.325205 -0.34274202,-0.851824 0,-1.176359 0.274047,-0.262306 0.687674,-0.313832 1.016531,-0.155242 l 4.210827,2.927518 4.2100953,-2.927518 z" /><path
   d="m 23.27642,26.392561 c -0.329587,0.15859 -0.741753,0.106393 -1.016532,-0.155242 -0.342741,-0.323866 -0.342741,-0.850485 0,-1.176359 l 4.603262,-4.365517 c 0.159313,-0.151227 0.378551,-0.246247 0.623365,-0.246247 0.244816,0 0.464785,0.09503 0.623367,0.246247 l 4.603991,4.365517 c 0.342742,0.325205 0.342742,0.851824 0,1.176359 -0.274047,0.262306 -0.687674,0.313832 -1.016531,0.155242 l -4.210827,-2.927518 -4.210095,2.927518 z"
   id="path3063"
   inkscape:connector-curvature="0"
   style="fill:#00aff0" /></svg>