<?xml version="1.0" encoding="UTF-8" standalone="no"?>
<!-- Generator: Adobe Illustrator 16.0.0, SVG Export Plug-In . SVG Version: 6.00 Build 0)  -->

<svg
   xmlns:dc="http://purl.org/dc/elements/1.1/"
   xmlns:cc="http://creativecommons.org/ns#"
   xmlns:rdf="http://www.w3.org/1999/02/22-rdf-syntax-ns#"
   xmlns:svg="http://www.w3.org/2000/svg"
   xmlns="http://www.w3.org/2000/svg"
   xmlns:sodipodi="http://sodipodi.sourceforge.net/DTD/sodipodi-0.dtd"
   xmlns:inkscape="http://www.inkscape.org/namespaces/inkscape"
   version="1.1"
   id="Layer_1"
   x="0px"
   y="0px"
   width="80"
   height="26"
   viewBox="0 0 79.999999 26"
   enable-background="new 0 0 71.999 24"
   xml:space="preserve"
   inkscape:version="0.48.4 r9939"
   sodipodi:docname="elements-search-close-sprite.svg"><metadata
   id="metadata3069"><rdf:RDF><cc:Work
       rdf:about=""><dc:format>image/svg+xml</dc:format><dc:type
         rdf:resource="http://purl.org/dc/dcmitype/StillImage" /></cc:Work></rdf:RDF></metadata><defs
   id="defs3067" /><sodipodi:namedview
   pagecolor="#ffffff"
   bordercolor="#666666"
   borderopacity="1"
   objecttolerance="10"
   gridtolerance="10"
   guidetolerance="10"
   inkscape:pageopacity="0"
   inkscape:pageshadow="2"
   inkscape:window-width="640"
   inkscape:window-height="480"
   id="namedview3065"
   showgrid="false"
   inkscape:zoom="4.8567297"
   inkscape:cx="35.9995"
   inkscape:cy="20.235995"
   inkscape:window-x="284"
   inkscape:window-y="555"
   inkscape:window-maximized="0"
   inkscape:current-layer="Layer_1" />
<g
   id="Layer_2"
   transform="translate(0,2)">
</g>
<circle
   cx="11.996"
   cy="12"
   r="12"
   id="circle3053"
   sodipodi:cx="11.996"
   sodipodi:cy="12"
   sodipodi:rx="12"
   sodipodi:ry="12"
   style="fill:#a2c5d3" />
<path
   d="M 16.756,14.552 C 15.996,13.541 15.179,12.566 14.308,11.62 15.179,10.674 15.996,9.699 16.755,8.688 17.124,8.178 17.079,7.46 16.619,7 16.159,6.541 15.441,6.495 14.931,6.864 13.921,7.624 12.946,8.441 12,9.312 11.054,8.441 10.079,7.624 9.068,6.865 8.558,6.496 7.84,6.541 7.38,7.001 6.921,7.461 6.875,8.178 7.245,8.689 c 0.759,1.011 1.576,1.986 2.447,2.932 -0.871,0.946 -1.688,1.921 -2.448,2.932 -0.369,0.511 -0.323,1.229 0.136,1.688 0.46,0.459 1.177,0.505 1.688,0.136 1.011,-0.759 1.986,-1.576 2.933,-2.447 0.946,0.871 1.921,1.688 2.932,2.448 0.511,0.369 1.229,0.324 1.688,-0.136 0.459,-0.461 0.504,-1.179 0.135,-1.69 z"
   id="path3055"
   inkscape:connector-curvature="0"
   style="fill:#ffffff" />
<circle
   cx="35.995998"
   cy="12"
   r="12"
   id="circle3057"
   sodipodi:cx="35.995998"
   sodipodi:cy="12"
   sodipodi:rx="12"
   sodipodi:ry="12"
   transform="translate(4,0)"
   style="fill:#00aff0" />
<path
   d="M 44.756,14.552 C 43.996,13.541 43.179,12.566 42.308,11.62 43.179,10.674 43.996,9.699 44.755,8.688 45.124,8.178 45.079,7.46 44.619,7 44.159,6.541 43.441,6.495 42.931,6.864 41.921,7.624 40.946,8.441 40,9.312 39.054,8.441 38.079,7.624 37.068,6.865 36.558,6.496 35.84,6.541 35.38,7.001 34.92,7.46 34.874,8.178 35.243,8.689 c 0.759,1.011 1.576,1.986 2.447,2.932 -0.871,0.946 -1.688,1.921 -2.447,2.932 -0.369,0.511 -0.324,1.229 0.136,1.688 0.46,0.459 1.177,0.505 1.688,0.136 1.011,-0.759 1.986,-1.576 2.933,-2.447 0.946,0.871 1.921,1.688 2.932,2.448 0.511,0.369 1.229,0.324 1.688,-0.136 0.46,-0.461 0.505,-1.179 0.136,-1.69 z"
   id="path3059"
   inkscape:connector-curvature="0"
   style="fill:#ffffff" />
<circle
   cx="59.998001"
   cy="12"
   r="12"
   id="circle3061"
   sodipodi:cx="59.998001"
   sodipodi:cy="12"
   sodipodi:rx="12"
   sodipodi:ry="12"
   transform="translate(8,0)"
   style="fill:#009dd8" />
<path
   d="M 72.758,14.552 C 71.998,13.541 71.181,12.566 70.31,11.62 71.181,10.674 71.998,9.699 72.757,8.688 73.126,8.178 73.081,7.46 72.621,7 72.161,6.541 71.443,6.495 70.933,6.864 69.922,7.623 68.947,8.441 68.001,9.311 67.055,8.44 66.08,7.623 65.069,6.864 64.559,6.495 63.841,6.54 63.381,7 c -0.46,0.459 -0.506,1.177 -0.137,1.688 0.759,1.011 1.576,1.986 2.447,2.932 -0.871,0.946 -1.688,1.921 -2.447,2.932 -0.369,0.511 -0.324,1.229 0.136,1.688 0.46,0.459 1.177,0.505 1.688,0.136 1.011,-0.759 1.986,-1.576 2.933,-2.447 0.946,0.871 1.921,1.688 2.932,2.448 0.511,0.369 1.229,0.324 1.688,-0.136 0.461,-0.46 0.505,-1.178 0.137,-1.689 z"
   id="path3063"
   inkscape:connector-curvature="0"
   style="fill:#ffffff" />
</svg>