<?xml version="1.0" encoding="UTF-8" standalone="no"?>
<!-- Generator: Adobe Illustrator 16.0.0, SVG Export Plug-In . SVG Version: 6.00 Build 0)  -->

<svg
   xmlns:dc="http://purl.org/dc/elements/1.1/"
   xmlns:cc="http://creativecommons.org/ns#"
   xmlns:rdf="http://www.w3.org/1999/02/22-rdf-syntax-ns#"
   xmlns:svg="http://www.w3.org/2000/svg"
   xmlns="http://www.w3.org/2000/svg"
   xmlns:sodipodi="http://sodipodi.sourceforge.net/DTD/sodipodi-0.dtd"
   xmlns:inkscape="http://www.inkscape.org/namespaces/inkscape"
   version="1.1"
   id="Layer_1_copy"
   x="0px"
   y="0px"
   width="80px"
   height="78px"
   viewBox="0 0 80 78"
   enable-background="new 0 0 80 78"
   xml:space="preserve"
   inkscape:version="0.48.4 r9939"
   sodipodi:docname="elements-search-sprite.svg"><metadata
   id="metadata3029"><rdf:RDF><cc:Work
       rdf:about=""><dc:format>image/svg+xml</dc:format><dc:type
         rdf:resource="http://purl.org/dc/dcmitype/StillImage" /><dc:title></dc:title></cc:Work></rdf:RDF></metadata><defs
   id="defs3027" /><sodipodi:namedview
   pagecolor="#ff121e"
   bordercolor="#666666"
   borderopacity="1"
   objecttolerance="10"
   gridtolerance="10"
   guidetolerance="10"
   inkscape:pageopacity="0"
   inkscape:pageshadow="2"
   inkscape:window-width="1232"
   inkscape:window-height="480"
   id="namedview3025"
   showgrid="false"
   inkscape:zoom="3.6993189"
   inkscape:cx="40"
   inkscape:cy="39"
   inkscape:window-x="269"
   inkscape:window-y="500"
   inkscape:window-maximized="0"
   inkscape:current-layer="Layer_1_copy" />
<g
   id="g3009">
	<path
   fill="#FFFFFF"
   d="M31.473,26.947c-1.971-2.919-4.23-5.699-6.754-8.321c0.822-1.699,1.296-3.601,1.296-5.618   C26.015,5.825,20.191,0,13.007,0C5.822,0,0,5.825,0,13.008c0,7.186,5.822,13.009,13.007,13.009c2.014,0,3.917-0.472,5.617-1.295   c2.619,2.523,5.395,4.781,8.312,6.747c1.264,0.833,2.992,0.682,4.101-0.427C32.148,29.93,32.304,28.211,31.473,26.947z    M13.007,19.514c-3.592,0-6.503-2.913-6.503-6.506c0-3.591,2.911-6.504,6.503-6.504c3.591,0,6.503,2.914,6.503,6.504   C19.511,16.601,16.598,19.514,13.007,19.514z"
   id="path3011" />
</g>
<g
   id="g3013">
	<path
   fill="#FFFFFF"
   d="M48.964,31.042c1.108,1.109,2.837,1.26,4.101,0.427c2.917-1.966,5.693-4.224,8.312-6.747   c1.7,0.823,3.603,1.295,5.616,1.295C74.178,26.018,80,20.194,80,13.008C80,5.825,74.178,0,66.992,0   c-7.184,0-13.008,5.825-13.008,13.008c0,2.018,0.475,3.919,1.297,5.618c-2.523,2.622-4.783,5.401-6.754,8.321   C47.696,28.211,47.852,29.93,48.964,31.042z M60.489,13.008c0-3.591,2.913-6.504,6.503-6.504c3.593,0,6.504,2.914,6.504,6.504   c0,3.593-2.911,6.506-6.504,6.506C63.402,19.514,60.489,16.601,60.489,13.008z"
   id="path3015" />
</g>
<g
   id="g3017"
   transform="translate(0,2)"
   inkscape:export-filename="C:\Users\anterol\workspace\knowledgebase\src\main\webapp\images\responsive\elements\elements-search-sprite.png"
   inkscape:export-xdpi="90"
   inkscape:export-ydpi="90">
	<path
   d="M 21.638,61.526 C 20.283,59.518 18.729,57.608 16.995,55.805 17.56,54.637 17.886,53.33 17.886,51.943 17.886,47.004 13.882,43 8.943,43 4.003,43 0,47.004 0,51.943 c 0,4.94 4.003,8.944 8.942,8.944 1.385,0 2.693,-0.325 3.862,-0.891 1.8,1.735 3.708,3.287 5.714,4.639 0.869,0.573 2.057,0.469 2.819,-0.294 0.765,-0.764 0.872,-1.946 0.301,-2.815 z M 8.942,56.416 c -2.469,0 -4.471,-2.002 -4.471,-4.472 0,-2.469 2.001,-4.472 4.471,-4.472 2.469,0 4.472,2.003 4.472,4.472 0,2.469 -2.003,4.472 -4.472,4.472 z"
   id="path3019"
   inkscape:connector-curvature="0"
   style="fill:#ffffff" />
</g>
<g
   id="g3021"
   transform="translate(0,2)"
   inkscape:export-xdpi="90"
   inkscape:export-ydpi="90"
   inkscape:export-filename="C:\Users\anterol\workspace\knowledgebase\src\main\webapp\images\responsive\elements\elements-search-sprite.png">
	<path
   d="m 33.662,64.341 c 0.763,0.763 1.951,0.867 2.82,0.294 2.005,-1.352 3.914,-2.904 5.713,-4.639 1.17,0.566 2.478,0.891 3.862,0.891 4.939,0 8.942,-4.004 8.942,-8.944 C 55,47.004 50.997,43 46.058,43 c -4.938,0 -8.942,4.004 -8.942,8.943 0,1.387 0.325,2.694 0.891,3.862 -1.734,1.802 -3.289,3.713 -4.644,5.721 -0.572,0.869 -0.465,2.051 0.299,2.815 z m 7.924,-12.398 c 0,-2.469 2.003,-4.472 4.472,-4.472 2.47,0 4.471,2.003 4.471,4.472 0,2.47 -2.001,4.472 -4.471,4.472 -2.469,10e-4 -4.472,-2.002 -4.472,-4.472 z"
   id="path3023"
   inkscape:connector-curvature="0"
   style="fill:#ffffff" />
</g>
</svg>