<?xml version="1.0" encoding="UTF-8" standalone="no"?>
<!-- Generator: Adobe Illustrator 16.0.0, SVG Export Plug-In . SVG Version: 6.00 Build 0)  -->

<svg
   xmlns:dc="http://purl.org/dc/elements/1.1/"
   xmlns:cc="http://creativecommons.org/ns#"
   xmlns:rdf="http://www.w3.org/1999/02/22-rdf-syntax-ns#"
   xmlns:svg="http://www.w3.org/2000/svg"
   xmlns="http://www.w3.org/2000/svg"
   xmlns:sodipodi="http://sodipodi.sourceforge.net/DTD/sodipodi-0.dtd"
   xmlns:inkscape="http://www.inkscape.org/namespaces/inkscape"
   version="1.1"
   id="Layer_1"
   x="0px"
   y="0px"
   width="26"
   height="24.00033"
   viewBox="8 8 26 24.00033"
   enable-background="new 8 8 24 22"
   xml:space="preserve"
   inkscape:version="0.48.2 r9819"
   sodipodi:docname="forum-icon-mobile.svg"><metadata
   id="metadata11"><rdf:RDF><cc:Work
       rdf:about=""><dc:format>image/svg+xml</dc:format><dc:type
         rdf:resource="http://purl.org/dc/dcmitype/StillImage" /></cc:Work></rdf:RDF></metadata><defs
   id="defs9" /><sodipodi:namedview
   pagecolor="#ffffff"
   bordercolor="#666666"
   borderopacity="1"
   objecttolerance="10"
   gridtolerance="10"
   guidetolerance="10"
   inkscape:pageopacity="0"
   inkscape:pageshadow="2"
   inkscape:window-width="1760"
   inkscape:window-height="978"
   id="namedview7"
   showgrid="false"
   fit-margin-top="1"
   fit-margin-left="1"
   fit-margin-bottom="1"
   fit-margin-right="1"
   inkscape:zoom="10.727273"
   inkscape:cx="13"
   inkscape:cy="12.00033"
   inkscape:window-x="0"
   inkscape:window-y="0"
   inkscape:window-maximized="0"
   inkscape:current-layer="Layer_1" />
<g
   id="g3"
   transform="translate(1,1)">
	<path
   d="M 31.612,13.856 C 30.966,11.131 28.725,9.014 25.908,8.506 23.989,8.174 22.015,8 20,8 17.984,8 16.012,8.174 14.094,8.507 11.276,9.015 9.033,11.132 8.39,13.857 8.135,14.813 8,15.816 8,16.853 c 0,1.037 0.135,2.039 0.389,2.998 0.645,2.724 2.887,4.841 5.705,5.349 1.67,0.292 3.385,0.451 5.129,0.489 l 4.047,3.918 c 0.095,0.062 0.219,0.209 0.329,0.259 1.014,0.472 1.587,-0.426 1.587,-0.753 v -3.666 c 0.572,-0.069 0.155,-0.148 0.719,-0.247 2.818,-0.508 5.059,-2.625 5.705,-5.349 0.255,-0.959 0.39,-1.962 0.39,-2.998 0,-1.036 -0.135,-2.04 -0.388,-2.997 z"
   id="path5"
   inkscape:connector-curvature="0"
   style="fill:#00aff0" />
</g>
</svg>