<?xml version="1.0" encoding="utf-8"?>
<!-- Generator: Adobe Illustrator 16.0.0, SVG Export Plug-In . SVG Version: 6.00 Build 0)  -->
<!DOCTYPE svg PUBLIC "-//W3C//DTD SVG 1.1//EN" "http://www.w3.org/Graphics/SVG/1.1/DTD/svg11.dtd">
<svg version="1.1" id="Layer_1" xmlns="http://www.w3.org/2000/svg" xmlns:xlink="http://www.w3.org/1999/xlink" x="0px" y="0px"
	 width="26px" height="26px" viewBox="0 0 26 26" enable-background="new 0 0 26 26" xml:space="preserve">
<rect x="10" y="6" fill="#FFFFFF" width="6" height="17"/>
<g>
	<path fill="#FF8C00" d="M24.726,20.508L14.759,3.027C14.384,2.367,13.7,2,13,2c-0.702,0-1.384,0.367-1.76,1.027L1.272,20.508
		c-0.561,0.983-0.228,2.24,0.744,2.809c0.11,0.064,0.226,0.116,0.344,0.158C5.739,24.467,9.305,25,13,25
		c3.694,0,7.26-0.533,10.638-1.525c0.12-0.042,0.236-0.094,0.347-0.158C24.956,22.749,25.288,21.491,24.726,20.508z M13.147,22.562
		c-1.122,0-2.031-0.92-2.031-2.056c0-1.137,0.909-2.057,2.031-2.057c1.123,0,2.032,0.92,2.032,2.057
		C15.179,21.642,14.27,22.562,13.147,22.562z M14.403,16.216c-0.197,0.509-0.685,0.863-1.256,0.863
		c-0.572,0-1.059-0.354-1.257-0.863c-0.616-1.622-0.955-3.384-0.955-5.226c0-0.829,0.069-1.641,0.2-2.433
		c0.14-0.999,0.987-1.76,2.012-1.76c1.024,0,1.872,0.762,2.013,1.76c0.129,0.792,0.198,1.604,0.198,2.433
		C15.358,12.832,15.021,14.594,14.403,16.216z"/>
</g>
</svg>
