<?xml version="1.0" encoding="utf-8"?>
<!-- Generator: Adobe Illustrator 16.0.0, SVG Export Plug-In . SVG Version: 6.00 Build 0)  -->
<!DOCTYPE svg PUBLIC "-//W3C//DTD SVG 1.1//EN" "http://www.w3.org/Graphics/SVG/1.1/DTD/svg11.dtd">
<svg version="1.1" id="Layer_1" xmlns="http://www.w3.org/2000/svg" xmlns:xlink="http://www.w3.org/1999/xlink" x="0px" y="0px"
	 width="23px" height="23px" viewBox="0 0 23 23" enable-background="new 0 0 23 23" xml:space="preserve">
<rect x="8.75" y="4" fill="#FFFFFF" width="5.25" height="17"/>
<g>
	<path fill="#FF8C00" d="M22.738,17.703L13.186,0.982C12.827,0.351,12.172,0,11.501,0c-0.673,0-1.326,0.351-1.686,0.982
		L0.262,17.703c-0.538,0.94-0.219,2.145,0.713,2.688c0.105,0.062,0.217,0.11,0.33,0.151C4.542,21.49,7.96,22,11.501,22
		c3.539,0,6.957-0.51,10.195-1.458c0.114-0.041,0.226-0.09,0.331-0.151C22.958,19.848,23.276,18.644,22.738,17.703z M11.642,19.669
		c-1.075,0-1.946-0.88-1.946-1.968s0.871-1.968,1.946-1.968c1.076,0,1.948,0.88,1.948,1.968S12.717,19.669,11.642,19.669z
		 M12.845,13.599c-0.188,0.486-0.656,0.825-1.203,0.825c-0.548,0-1.015-0.339-1.204-0.825c-0.591-1.552-0.915-3.237-0.915-5
		c0-0.793,0.065-1.57,0.191-2.327c0.134-0.956,0.945-1.684,1.928-1.684c0.981,0,1.795,0.729,1.93,1.684
		c0.124,0.757,0.188,1.534,0.188,2.327C13.76,10.361,13.438,12.046,12.845,13.599z"/>
</g>
</svg>
