<?xml version="1.0" encoding="utf-8"?>
<!-- Generator: Adobe Illustrator 16.0.0, SVG Export Plug-In . SVG Version: 6.00 Build 0)  -->
<!DOCTYPE svg PUBLIC "-//W3C//DTD SVG 1.1//EN" "http://www.w3.org/Graphics/SVG/1.1/DTD/svg11.dtd">
<svg version="1.1" id="Layer_1" xmlns="http://www.w3.org/2000/svg" xmlns:xlink="http://www.w3.org/1999/xlink" x="0px" y="0px"
	 width="41px" height="81px" viewBox="-1 -1 41 81" enable-background="new -1 -1 41 81" xml:space="preserve">
<g>
	<circle fill="#333534" cx="19.5" cy="19.5" r="19.5"/>
	<path fill="#FFFFFF" d="M26.134,23.573c-1.065-1.399-2.208-2.759-3.42-4.074c1.212-1.316,2.354-2.675,3.418-4.072
		c0.539-0.718,0.483-1.737-0.168-2.391c-0.653-0.653-1.675-0.708-2.392-0.171c-1.396,1.065-2.758,2.209-4.074,3.421
		c-1.313-1.212-2.674-2.355-4.07-3.42c-0.716-0.538-1.739-0.482-2.391,0.17c-0.652,0.653-0.708,1.673-0.169,2.391
		c1.066,1.397,2.207,2.757,3.421,4.072c-1.214,1.315-2.355,2.675-3.422,4.073c-0.54,0.718-0.481,1.738,0.17,2.393
		c0.652,0.65,1.674,0.71,2.391,0.166c1.397-1.064,2.756-2.205,4.071-3.417c1.319,1.212,2.678,2.353,4.075,3.42
		c0.716,0.541,1.738,0.481,2.391-0.169C26.618,25.311,26.672,24.29,26.134,23.573z"/>
</g>
<g>
	<circle cx="19.5" cy="59.5" r="19.5"/>
	<path fill="#FFFFFF" d="M26.134,63.573c-1.065-1.399-2.208-2.759-3.42-4.074c1.212-1.315,2.354-2.675,3.418-4.072
		c0.539-0.718,0.483-1.737-0.168-2.391c-0.653-0.653-1.675-0.708-2.392-0.171c-1.396,1.064-2.758,2.209-4.074,3.421
		c-1.313-1.212-2.674-2.354-4.07-3.42c-0.716-0.538-1.739-0.482-2.391,0.17c-0.652,0.653-0.708,1.673-0.169,2.391
		c1.066,1.397,2.207,2.757,3.421,4.072c-1.214,1.315-2.355,2.675-3.422,4.073c-0.54,0.718-0.481,1.738,0.17,2.393
		c0.652,0.65,1.674,0.71,2.391,0.166c1.397-1.064,2.756-2.205,4.071-3.417c1.319,1.212,2.678,2.353,4.075,3.42
		c0.716,0.541,1.738,0.481,2.391-0.169C26.618,65.311,26.672,64.29,26.134,63.573z"/>
</g>
</svg>
