<?xml version="1.0" encoding="utf-8"?>
<!-- Generator: Adobe Illustrator 16.0.0, SVG Export Plug-In . SVG Version: 6.00 Build 0)  -->
<!DOCTYPE svg PUBLIC "-//W3C//DTD SVG 1.1//EN" "http://www.w3.org/Graphics/SVG/1.1/DTD/svg11.dtd">
<svg version="1.1" id="Layer_1" xmlns="http://www.w3.org/2000/svg" xmlns:xlink="http://www.w3.org/1999/xlink" x="0px" y="0px"
	 width="22.997px" height="185px" viewBox="0 0.079 22.997 185" enable-background="new 0 0.079 22.997 185" xml:space="preserve">
<g id="Layer_1_1_">
	<circle fill="#00AFF0" cx="11.5" cy="11.5" r="11.5"/>
	<circle fill="#00AFF0" cx="11.5" cy="38.5" r="11.5"/>
	<circle fill="#00AFF0" cx="11.5" cy="65.5" r="11.5"/>
	<circle fill="#00AFF0" cx="11.5" cy="92.5" r="11.5"/>
	<circle fill="#7FBA00" cx="11.5" cy="119.5" r="11.5"/>
	<rect x="8.6" y="139.302" fill="#FFFFFF" width="5.734" height="15.764"/>
	<g>
		<path fill="#FF8C00" d="M22.738,152.703l-9.553-16.721C12.827,135.35,12.17,135,11.5,135c-0.672,0-1.326,0.352-1.686,0.982
			L0.26,152.703c-0.537,0.939-0.218,2.145,0.713,2.688c0.105,0.062,0.216,0.11,0.33,0.15C4.542,156.489,7.958,157,11.5,157
			c3.54,0,6.958-0.511,10.194-1.458c0.116-0.04,0.227-0.091,0.331-0.15C22.958,154.846,23.277,153.644,22.738,152.703z
			 M11.642,154.668c-1.077,0-1.947-0.879-1.947-1.967c0-1.087,0.871-1.966,1.947-1.966c1.073,0,1.944,0.879,1.944,1.966
			C13.586,153.789,12.715,154.668,11.642,154.668z M12.846,148.599c-0.189,0.482-0.657,0.823-1.203,0.823
			c-0.548,0-1.015-0.341-1.205-0.823c-0.591-1.554-0.914-3.238-0.914-5c0-0.793,0.065-1.571,0.191-2.329
			c0.133-0.955,0.945-1.685,1.929-1.685c0.979,0,1.792,0.729,1.929,1.685c0.124,0.758,0.188,1.536,0.188,2.329
			C13.76,145.359,13.435,147.047,12.846,148.599z"/>
	</g>
	<path fill="#FFFFFF" d="M15.758,8.848c-0.674-0.191-1.387-0.301-2.121-0.313c-0.447,0-0.812-0.351-0.812-0.783
		c0-0.021,0-0.042,0.004-0.062c0.034-0.235,0.055-0.476,0.055-0.72c0-0.556-0.098-1.089-0.274-1.588h-0.001
		c-0.107-0.307-0.41-0.525-0.764-0.525l0,0c-0.125-0.002-0.25-0.004-0.376-0.004c-1.432,0-2.836,0.13-4.195,0.374
		C6.899,5.296,6.617,5.613,6.617,5.995L6.615,16.94c0,0.381,0.283,0.698,0.656,0.767c1.359,0.246,2.763,0.375,4.195,0.375
		c1.433,0,2.838-0.129,4.197-0.375c0.375-0.067,0.654-0.386,0.654-0.767V9.589C16.316,9.242,16.083,8.949,15.758,8.848z"/>
	<path fill="#2AACE2" d="M12.811,16.09H9.096c-0.239,0-0.43-0.245-0.43-0.545s0.191-0.544,0.43-0.544h3.715
		c0.238,0,0.43,0.245,0.43,0.544S13.049,16.09,12.811,16.09z"/>
	<path fill="#2AACE2" d="M14.243,14.019H9.096c-0.239,0-0.43-0.244-0.43-0.544c0-0.303,0.191-0.545,0.43-0.545h5.146
		c0.234,0,0.426,0.243,0.426,0.545C14.67,13.774,14.479,14.019,14.243,14.019z"/>
	<path fill="#2AACE2" d="M14.243,11.528H9.096c-0.239,0-0.43-0.243-0.43-0.545c0-0.3,0.191-0.544,0.43-0.544h5.146
		c0.234,0,0.426,0.244,0.426,0.544C14.67,11.285,14.479,11.528,14.243,11.528z"/>
	<g>
		<path fill="#FFFFFF" d="M13.482,36.099c-0.082-0.188-0.271-0.315-0.487-0.315c-0.143,0-0.271,0.056-0.367,0.144
			c-0.019,0.02-0.035,0.038-0.053,0.06c-0.65,0.679-1.57,1.104-2.594,1.104H5.873c-0.789,0-1.429,0.633-1.429,1.41l0,0
			c0,0.779,0.64,1.412,1.429,1.412h0.716c0,0.875,0.72,1.587,1.606,1.587c0.886,0,1.608-0.712,1.608-1.587h0.178
			c1.021,0,1.943,0.425,2.594,1.104c0.018,0.02,0.034,0.041,0.053,0.059c0.097,0.088,0.226,0.146,0.367,0.146
			c0.217,0,0.405-0.131,0.487-0.315c0.011-0.017,0.015-0.037,0.021-0.054c0.263-0.734,0.41-1.523,0.41-2.348l0,0
			c0-0.823-0.146-1.611-0.41-2.348C13.497,36.134,13.493,36.115,13.482,36.099z M8.195,40.441c-0.295,0-0.536-0.237-0.536-0.53
			h1.072C8.73,40.202,8.491,40.441,8.195,40.441z"/>
		<path fill="#FFFFFF" d="M18.021,37.971H15.52c-0.297,0-0.536,0.235-0.536,0.527s0.239,0.529,0.536,0.529h2.501
			c0.295,0,0.535-0.235,0.535-0.529C18.556,38.206,18.316,37.971,18.021,37.971z"/>
		<path fill="#FFFFFF" d="M14.866,36.03c0.092,0,0.184-0.021,0.27-0.07l1.547-0.883c0.256-0.146,0.346-0.47,0.197-0.724
			c-0.148-0.252-0.478-0.339-0.732-0.193l-1.548,0.882c-0.257,0.146-0.345,0.472-0.196,0.726C14.5,35.936,14.679,36.03,14.866,36.03
			z"/>
		<path fill="#FFFFFF" d="M16.68,41.922l-1.547-0.883c-0.256-0.146-0.584-0.059-0.731,0.194s-0.06,0.577,0.196,0.723l1.548,0.883
			c0.084,0.05,0.176,0.071,0.269,0.071c0.185,0,0.364-0.095,0.465-0.265C17.027,42.392,16.936,42.068,16.68,41.922z"/>
	</g>
	<g>
		<path fill="#FFFFFF" d="M17.674,64.95L17.674,64.95L17.674,64.95c0-0.548-0.07-1.078-0.201-1.585
			c-0.33-1.439-1.486-2.56-2.934-2.828c-0.986-0.176-2.004-0.269-3.041-0.269c-1.037,0-2.051,0.092-3.039,0.269
			c-1.45,0.269-2.603,1.389-2.934,2.828c-0.134,0.507-0.201,1.038-0.201,1.585l0,0l0,0l0,0l0,0c0,0.548,0.067,1.077,0.201,1.583
			c0.331,1.441,1.483,2.561,2.934,2.829c0.988,0.176,2.003,0.151,3.039,0.151c1.037,0,2.052,0.023,3.041-0.151
			c1.446-0.269,2.604-1.388,2.934-2.829C17.603,66.027,17.674,65.498,17.674,64.95L17.674,64.95L17.674,64.95z"/>
		<g>
			<polygon fill="#FFFFFF" points="16.014,68.722 12.245,71.64 11.499,71.268 11.499,68.615 			"/>
			<circle fill="#FFFFFF" cx="11.961" cy="71.268" r="0.463"/>
		</g>
	</g>
	<ellipse fill="#FFFFFF" cx="11.5" cy="87" rx="1.792" ry="1.778"/>
	<path fill="#FFFFFF" d="M14.486,98.327c-0.45,0.736-1.269,1.229-2.202,1.229c-1.423,0-2.577-1.146-2.577-2.558v-3.443
		c0-0.438-0.32-0.805-0.74-0.876c-0.315-0.056-0.554-0.326-0.554-0.655c0-0.128,0.037-0.248,0.099-0.351
		c0.454-0.736,1.27-1.23,2.204-1.23c1.423,0,2.578,1.146,2.578,2.558v3.444c0,0.438,0.319,0.803,0.742,0.875
		c0.312,0.056,0.553,0.327,0.553,0.655C14.586,98.101,14.549,98.224,14.486,98.327z"/>
	<path fill="#FFFFFF" d="M17.94,117.01c-1.014,1.496-2.199,2.914-3.557,4.229c-1.355,1.311-2.814,2.453-4.355,3.432
		c-0.192,0.111-0.42,0.181-0.661,0.181c-0.264,0-0.51-0.072-0.714-0.205c-0.683-0.453-1.333-0.976-1.941-1.562
		c-0.593-0.574-1.121-1.188-1.583-1.834c-0.154-0.205-0.243-0.461-0.243-0.733c0-0.685,0.572-1.238,1.28-1.238
		c0.27,0,0.521,0.08,0.726,0.219c0.679,0.451,1.324,0.965,1.928,1.549l0.318,0.31l2.68-2.594c1.324-1.281,2.753-2.404,4.257-3.367
		c0.211-0.152,0.477-0.242,0.76-0.242c0.707,0,1.279,0.555,1.279,1.238C18.116,116.615,18.053,116.826,17.94,117.01z"/>
</g>
<g id="Layer_2">
</g>
<g>
	<path fill="#E81123" d="M11.503,160.98C5.148,160.98,0,166.131,0,172.48c0,6.351,5.148,11.5,11.504,11.5
		c6.344,0,11.497-5.149,11.497-11.5C23,166.131,17.847,160.98,11.503,160.98z M11.503,178.927c-0.798,0-1.443-0.645-1.443-1.438
		c0-0.792,0.64-1.438,1.443-1.438c0.785,0,1.437,0.641,1.437,1.438C12.94,178.282,12.289,178.927,11.503,178.927z M12.491,174.195
		c-0.157,0.393-0.539,0.67-0.987,0.67c-0.455,0-0.843-0.277-1.006-0.67c-0.589-1.457-0.915-3.053-0.915-4.724
		c0-0.601,0.04-1.192,0.124-1.774c0.067-0.931,0.842-1.662,1.797-1.662c0.942,0,1.718,0.731,1.785,1.662
		c0.078,0.58,0.123,1.174,0.123,1.774C13.412,171.142,13.086,172.738,12.491,174.195z"/>
	<path fill="#FFFFFF" d="M11.503,178.927c-0.798,0-1.443-0.645-1.443-1.438c0-0.792,0.64-1.438,1.443-1.438
		c0.785,0,1.437,0.641,1.437,1.438C12.94,178.282,12.289,178.927,11.503,178.927z M12.491,174.195
		c-0.157,0.393-0.539,0.67-0.987,0.67c-0.455,0-0.843-0.277-1.006-0.67c-0.589-1.457-0.915-3.053-0.915-4.724
		c0-0.601,0.04-1.192,0.124-1.774c0.067-0.931,0.842-1.662,1.797-1.662c0.942,0,1.718,0.731,1.785,1.662
		c0.078,0.58,0.123,1.174,0.123,1.774C13.412,171.142,13.086,172.738,12.491,174.195z"/>
</g>
</svg>
