<?xml version="1.0" encoding="utf-8"?>
<!-- Generator: Adobe Illustrator 16.0.0, SVG Export Plug-In . SVG Version: 6.00 Build 0)  -->
<!DOCTYPE svg PUBLIC "-//W3C//DTD SVG 1.1//EN" "http://www.w3.org/Graphics/SVG/1.1/DTD/svg11.dtd">
<svg version="1.1" id="Layer_1" xmlns="http://www.w3.org/2000/svg" xmlns:xlink="http://www.w3.org/1999/xlink" x="0px" y="0px"
	 width="26px" height="206px" viewBox="-0.5 0.5 26 206" enable-background="new -0.5 0.5 26 206" xml:space="preserve">
<g id="Layer_1_1_">
	<circle fill="#00AFF0" cx="12.5" cy="13.5" r="13"/>
	<circle fill="#00AFF0" cx="12.5" cy="43.5" r="13"/>
	<circle fill="#00AFF0" cx="12.5" cy="73.5" r="13"/>
	<circle fill="#00AFF0" cx="12.5" cy="103.5" r="13"/>
	<circle fill="#7FBA00" cx="12.5" cy="133.5" r="13"/>
	<rect x="9.25" y="154.848" fill="#FFFFFF" width="6.5" height="18.479"/>
	<g>
		<path fill="#FF8C00" d="M25.203,170.618l-10.799-19.002c-0.405-0.718-1.146-1.116-1.904-1.116c-0.76,0-1.499,0.398-1.906,1.116
			l-10.799,19.002c-0.608,1.067-0.247,2.435,0.805,3.053c0.12,0.07,0.245,0.126,0.373,0.172c3.661,1.078,7.523,1.657,11.527,1.657
			c4.002,0,7.865-0.579,11.523-1.657c0.131-0.045,0.256-0.102,0.375-0.172C25.452,173.053,25.812,171.688,25.203,170.618z
			 M12.66,172.85c-1.217,0-2.201-1-2.201-2.232c0-1.235,0.984-2.235,2.201-2.235c1.215,0,2.199,1,2.199,2.235
			C14.859,171.85,13.875,172.85,12.66,172.85z M14.021,165.952c-0.215,0.553-0.742,0.938-1.36,0.938
			c-0.621,0-1.148-0.387-1.363-0.938c-0.668-1.763-1.033-3.679-1.033-5.681c0-0.9,0.074-1.785,0.217-2.646
			c0.151-1.085,1.068-1.913,2.18-1.913c1.107,0,2.025,0.828,2.18,1.913c0.141,0.858,0.215,1.744,0.215,2.646
			C15.055,162.273,14.688,164.189,14.021,165.952z"/>
	</g>
	<path fill="#FFFFFF" d="M17.365,10.531c-0.764-0.216-1.571-0.339-2.405-0.354c-0.506,0-0.92-0.398-0.92-0.888
		c0-0.026,0-0.048,0.003-0.072c0.04-0.267,0.062-0.538,0.062-0.814c0-0.631-0.109-1.236-0.312-1.801h-0.002
		c-0.123-0.347-0.464-0.597-0.866-0.597l0,0C12.784,6.002,12.643,6,12.5,6c-1.624,0-3.216,0.147-4.757,0.424
		c-0.422,0.08-0.742,0.439-0.742,0.871L7,19.705c0,0.432,0.321,0.791,0.743,0.87C9.284,20.853,10.876,21,12.5,21
		s3.218-0.147,4.758-0.425C17.682,20.496,18,20.137,18,19.705v-8.334C17.999,10.978,17.732,10.646,17.365,10.531z"/>
	<path fill="#2AACE2" d="M14.023,18.741H9.812c-0.271,0-0.487-0.277-0.487-0.618c0-0.34,0.216-0.617,0.487-0.617h4.211
		c0.271,0,0.485,0.277,0.485,0.617C14.511,18.464,14.294,18.741,14.023,18.741z"/>
	<path fill="#2AACE2" d="M15.646,16.393H9.812c-0.271,0-0.487-0.277-0.487-0.617c0-0.341,0.216-0.618,0.487-0.618h5.834
		c0.268,0,0.483,0.277,0.483,0.618C16.132,16.116,15.914,16.393,15.646,16.393z"/>
	<path fill="#2AACE2" d="M15.646,13.57H9.812c-0.271,0-0.487-0.276-0.487-0.618c0-0.34,0.216-0.617,0.487-0.617h5.834
		c0.268,0,0.483,0.277,0.483,0.617C16.132,13.294,15.914,13.57,15.646,13.57z"/>
	<g>
		<path fill="#FFFFFF" d="M14.747,40.778c-0.095-0.21-0.308-0.357-0.554-0.357c-0.161,0-0.309,0.062-0.416,0.162
			c-0.021,0.021-0.041,0.043-0.062,0.067c-0.737,0.77-1.781,1.25-2.94,1.25H6.12c-0.895,0-1.62,0.716-1.62,1.6l0,0
			c0,0.884,0.725,1.6,1.62,1.6h0.81c0,0.993,0.816,1.8,1.822,1.8s1.823-0.807,1.823-1.8h0.202c1.159,0,2.203,0.481,2.94,1.251
			c0.02,0.023,0.039,0.046,0.061,0.067c0.108,0.1,0.256,0.163,0.416,0.163c0.246,0,0.459-0.147,0.555-0.358
			c0.01-0.019,0.016-0.041,0.021-0.061c0.297-0.833,0.463-1.727,0.463-2.661l0,0c0-0.934-0.166-1.828-0.463-2.661
			C14.762,40.818,14.757,40.797,14.747,40.778z M8.752,45.7c-0.335,0-0.607-0.269-0.607-0.601H9.36
			C9.359,45.431,9.088,45.7,8.752,45.7z"/>
		<path fill="#FFFFFF" d="M19.893,42.9h-2.836c-0.336,0-0.606,0.269-0.606,0.6s0.271,0.6,0.606,0.6h2.836
			c0.334,0,0.607-0.268,0.607-0.6S20.227,42.9,19.893,42.9z"/>
		<path fill="#FFFFFF" d="M16.314,40.7c0.104,0,0.207-0.025,0.304-0.081l1.754-1c0.291-0.166,0.392-0.533,0.224-0.82
			c-0.168-0.287-0.539-0.385-0.83-0.219l-1.755,1c-0.29,0.165-0.391,0.533-0.222,0.82C15.9,40.593,16.104,40.7,16.314,40.7z"/>
		<path fill="#FFFFFF" d="M18.372,47.38l-1.754-1c-0.29-0.166-0.661-0.067-0.829,0.22c-0.169,0.287-0.068,0.654,0.222,0.819l1.755,1
			c0.096,0.055,0.199,0.081,0.303,0.081c0.209,0,0.414-0.107,0.527-0.3C18.764,47.913,18.663,47.545,18.372,47.38z"/>
	</g>
	<g>
		<path fill="#FFFFFF" d="M19.5,73.307L19.5,73.307L19.5,73.307c0-0.621-0.079-1.223-0.229-1.797
			c-0.375-1.633-1.686-2.902-3.326-3.207C14.827,68.104,13.675,68,12.5,68c-1.176,0-2.326,0.104-3.446,0.303
			c-1.644,0.304-2.951,1.574-3.326,3.207C5.578,72.083,5.5,72.686,5.5,73.307l0,0l0,0l0,0l0,0c0,0.621,0.078,1.222,0.228,1.796
			c0.375,1.633,1.683,2.902,3.326,3.207c1.12,0.199,2.271,0.171,3.446,0.171s2.327,0.028,3.445-0.171
			c1.643-0.304,2.951-1.573,3.326-3.207C19.421,74.529,19.5,73.927,19.5,73.307L19.5,73.307L19.5,73.307z"/>
		<g>
			<polygon fill="#FFFFFF" points="17.619,77.583 13.344,80.891 12.499,80.47 12.499,77.462 			"/>
			<circle fill="#FFFFFF" cx="13.023" cy="80.47" r="0.525"/>
		</g>
	</g>
	<ellipse fill="#FFFFFF" cx="12.246" cy="97.515" rx="2.033" ry="2.015"/>
	<path fill="#FFFFFF" d="M15.887,110.105c-0.512,0.836-1.437,1.395-2.498,1.395c-1.613,0-2.921-1.297-2.921-2.898v-3.903
		c0-0.498-0.363-0.911-0.839-0.993c-0.359-0.062-0.628-0.37-0.628-0.743c0-0.145,0.042-0.281,0.112-0.396
		c0.514-0.836,1.439-1.396,2.499-1.396c1.613,0,2.922,1.297,2.922,2.896v3.906c0,0.496,0.362,0.909,0.84,0.992
		c0.356,0.062,0.627,0.37,0.627,0.743C16,109.852,15.959,109.99,15.887,110.105z"/>
	<path fill="#FFFFFF" d="M19.802,130.111c-1.147,1.695-2.493,3.304-4.032,4.795c-1.537,1.484-3.19,2.781-4.938,3.89
		c-0.218,0.127-0.477,0.204-0.75,0.204c-0.299,0-0.578-0.083-0.81-0.232c-0.774-0.515-1.511-1.104-2.2-1.771
		c-0.673-0.649-1.271-1.349-1.795-2.078c-0.175-0.231-0.275-0.522-0.275-0.833c0-0.773,0.649-1.402,1.451-1.402
		c0.307,0,0.591,0.09,0.824,0.246c0.77,0.514,1.501,1.094,2.186,1.756l0.36,0.35l3.039-2.939c1.502-1.453,3.123-2.727,4.828-3.818
		c0.24-0.172,0.539-0.273,0.86-0.273c0.804,0,1.451,0.629,1.451,1.404C20,129.664,19.93,129.902,19.802,130.111z"/>
</g>
<g>
	<path fill="#E81123" d="M12.5,179.5c-7.18,0-13,5.822-13,13c0,7.18,5.82,13,13,13c7.18,0,13-5.82,13-13
		C25.5,185.322,19.68,179.5,12.5,179.5z M12.5,199.787c-0.897,0-1.626-0.729-1.626-1.626c0-0.896,0.727-1.625,1.626-1.625
		c0.896,0,1.625,0.724,1.625,1.625C14.125,199.059,13.396,199.787,12.5,199.787z M13.628,194.438
		c-0.183,0.443-0.619,0.758-1.128,0.758c-0.51,0-0.946-0.312-1.13-0.758c-0.666-1.646-1.035-3.449-1.035-5.34
		c0-0.679,0.046-1.348,0.141-2.006c0.077-1.052,0.953-1.879,2.024-1.879c1.068,0,1.945,0.827,2.023,1.879
		c0.094,0.655,0.143,1.327,0.143,2.006C14.665,190.988,14.297,192.791,13.628,194.438z"/>
	<path fill="#FFFFFF" d="M12.5,199.787c-0.897,0-1.626-0.729-1.626-1.626c0-0.896,0.727-1.625,1.626-1.625
		c0.896,0,1.625,0.724,1.625,1.625C14.125,199.059,13.396,199.787,12.5,199.787z M13.628,194.438
		c-0.183,0.443-0.619,0.758-1.128,0.758c-0.51,0-0.946-0.312-1.13-0.758c-0.666-1.646-1.035-3.449-1.035-5.34
		c0-0.679,0.046-1.348,0.141-2.006c0.077-1.052,0.953-1.879,2.024-1.879c1.068,0,1.945,0.827,2.023,1.879
		c0.094,0.655,0.143,1.327,0.143,2.006C14.665,190.988,14.297,192.791,13.628,194.438z"/>
</g>
</svg>
