<?xml version="1.0" encoding="utf-8"?>
<!-- Generator: Adobe Illustrator 16.0.0, SVG Export Plug-In . SVG Version: 6.00 Build 0)  -->
<!DOCTYPE svg PUBLIC "-//W3C//DTD SVG 1.1//EN" "http://www.w3.org/Graphics/SVG/1.1/DTD/svg11.dtd">
<svg version="1.1" id="Layer_1" xmlns="http://www.w3.org/2000/svg" xmlns:xlink="http://www.w3.org/1999/xlink" x="0px" y="0px"
	 width="100px" height="25px" viewBox="-676.5 491 100 25" enable-background="new -676.5 491 100 25" xml:space="preserve">
<g>
	<rect x="-600.5" y="492" fill="#2AA9E0" width="23" height="23"/>
	<path fill="#FFFFFF" d="M-581.232,498.866c-0.565,0.252-1.171,0.422-1.807,0.496c0.649-0.389,1.148-1.004,1.383-1.742
		c-0.609,0.361-1.282,0.624-1.998,0.766c-0.574-0.609-1.392-0.995-2.296-0.995c-1.738,0-3.147,1.412-3.147,3.146
		c0,0.247,0.028,0.489,0.082,0.719c-2.614-0.135-4.933-1.384-6.483-3.286c-0.271,0.463-0.427,1.004-0.427,1.579
		c0,1.09,0.555,2.055,1.399,2.619c-0.515-0.018-1-0.159-1.424-0.392c0,0.01,0,0.023,0,0.037c0,1.524,1.084,2.794,2.522,3.085
		c-0.264,0.072-0.542,0.11-0.829,0.11c-0.203,0-0.4-0.021-0.592-0.056c0.4,1.249,1.562,2.158,2.939,2.183
		c-1.076,0.843-2.434,1.346-3.907,1.346c-0.254,0-0.505-0.014-0.751-0.041c1.393,0.892,3.046,1.411,4.823,1.411
		c5.787,0,8.951-4.793,8.951-8.95c0-0.135-0.003-0.272-0.009-0.406C-582.188,500.052-581.654,499.497-581.232,498.866z"/>
</g>
<g>
	<path fill="#3C5A98" d="M-615.5,513.686c0,0.723-0.592,1.314-1.314,1.314h-20.371c-0.723,0-1.314-0.592-1.314-1.314v-20.371
		c0-0.723,0.592-1.314,1.314-1.314h20.371c0.723,0,1.314,0.592,1.314,1.314V513.686z"/>
	<rect x="-636.857" y="510.071" fill="#6D84B3" width="19.714" height="3.286"/>
	<path fill="#FFFFFF" d="M-625.357,513.357v-8.456h-2.236v-3.044h2.236c0,0,0-1.248,0-2.601c0-2.043,1.32-3.92,4.364-3.92
		c1.232,0,2.143,0.118,2.143,0.118l-0.072,2.843c0,0-0.929-0.009-1.943-0.009c-1.098,0-1.273,0.506-1.273,1.345
		c0,0.664,0-1.414,0,2.224h3.304l-0.144,3.044h-3.16v8.456H-625.357z"/>
</g>
<circle fill="#00AFF0" cx="-664" cy="503.5" r="11.5"/>
<g>
	<path fill="#FFFFFF" d="M-662.758,505.195h-0.037c-0.352,1.051-1.04,1.575-2.065,1.575c-0.654,0-1.182-0.245-1.582-0.736
		c-0.4-0.49-0.601-1.15-0.601-1.981c0-1.098,0.274-2.011,0.824-2.738c0.549-0.728,1.273-1.092,2.171-1.092
		c0.342,0,0.647,0.094,0.916,0.282c0.269,0.188,0.442,0.413,0.52,0.677h0.022c0.015-0.136,0.051-0.417,0.11-0.842h1.216
		c-0.229,2.578-0.344,3.892-0.344,3.94c0,0.967,0.251,1.45,0.754,1.45c0.459,0,0.84-0.27,1.143-0.81
		c0.303-0.539,0.454-1.238,0.454-2.099c0-1.269-0.409-2.306-1.227-3.108c-0.818-0.804-1.952-1.205-3.402-1.205
		c-1.392,0-2.544,0.486-3.457,1.458s-1.37,2.188-1.37,3.646c0,1.441,0.439,2.604,1.318,3.486c0.879,0.885,2.063,1.326,3.552,1.326
		c1.172,0,2.175-0.2,3.01-0.601v1.128c-0.854,0.361-1.921,0.542-3.201,0.542c-1.797,0-3.245-0.537-4.343-1.611
		s-1.648-2.48-1.648-4.219c0-1.787,0.581-3.269,1.743-4.446c1.162-1.176,2.646-1.765,4.453-1.765c1.694,0,3.097,0.493,4.208,1.479
		s1.667,2.273,1.667,3.859c0,1.163-0.302,2.116-0.905,2.86c-0.603,0.745-1.339,1.117-2.208,1.117
		C-662.189,506.771-662.753,506.246-662.758,505.195z M-663.923,501.263c-0.537,0-0.971,0.264-1.3,0.791
		c-0.33,0.527-0.495,1.185-0.495,1.97c0,0.527,0.111,0.944,0.333,1.249c0.222,0.306,0.519,0.458,0.89,0.458
		c0.537,0,0.962-0.277,1.274-0.831c0.312-0.555,0.469-1.288,0.469-2.201C-662.751,501.741-663.142,501.263-663.923,501.263z"/>
</g>
</svg>
