<?xml version="1.0" encoding="utf-8"?>
<!-- Generator: Adobe Illustrator 15.0.0, SVG Export Plug-In . SVG Version: 6.00 Build 0)  -->
<!DOCTYPE svg PUBLIC "-//W3C//DTD SVG 1.1//EN" "http://www.w3.org/Graphics/SVG/1.1/DTD/svg11.dtd">
<svg version="1.1" id="Layer_2_1_" xmlns="http://www.w3.org/2000/svg" xmlns:xlink="http://www.w3.org/1999/xlink" x="0px" y="0px"
	 width="29px" height="281px" viewBox="0 0 29 281" enable-background="new 0 0 29 281" xml:space="preserve">
<g>
	<circle fill="#00AFF0" cx="14.5" cy="42.5" r="13.5"/>
	<rect x="9.618" y="35.04" fill="none" width="13.764" height="15.92"/>
	<g enable-background="new    ">
		<path fill="#FFFFFF" d="M16.404,39.372c0-0.387-0.061-0.724-0.181-1.011s-0.284-0.525-0.492-0.716s-0.452-0.333-0.734-0.427
			c-0.281-0.094-0.586-0.141-0.914-0.141c-0.281,0-0.557,0.038-0.826,0.114s-0.532,0.182-0.787,0.316s-0.501,0.296-0.738,0.483
			s-0.458,0.396-0.664,0.624v-1.547c0.404-0.393,0.857-0.692,1.358-0.9s1.112-0.312,1.833-0.312c0.516,0,0.993,0.074,1.432,0.225
			c0.439,0.148,0.82,0.367,1.143,0.654s0.576,0.642,0.761,1.063s0.276,0.905,0.276,1.45c0,0.498-0.057,0.949-0.171,1.354
			s-0.287,0.785-0.519,1.143s-0.523,0.7-0.875,1.028s-0.764,0.662-1.238,1.002c-0.592,0.422-1.08,0.782-1.464,1.081
			s-0.688,0.579-0.914,0.84s-0.384,0.521-0.475,0.781c-0.091,0.262-0.136,0.562-0.136,0.901h6.276v1.292h-7.779v-0.624
			c0-0.539,0.059-1.014,0.176-1.424s0.311-0.8,0.58-1.169s0.623-0.738,1.059-1.107s0.971-0.785,1.604-1.248
			c0.457-0.328,0.839-0.642,1.147-0.94s0.555-0.598,0.742-0.896s0.321-0.603,0.4-0.909C16.364,40.044,16.404,39.718,16.404,39.372z"
			/>
	</g>
	
		<text transform="matrix(1 0 0 1 19.3223 48.6709)" fill="#FFFFFF" font-family="'SegoeUI'" font-size="18.4145" letter-spacing="11"> </text>
</g>
<g>
	<circle fill="#00AFF0" cx="14.5" cy="14.5" r="13.5"/>
	<rect x="9.618" y="7.04" fill="none" width="13.764" height="15.92"/>
	<g enable-background="new    ">
		<path fill="#FFFFFF" d="M15.982,20.671h-1.442V9.781c-0.111,0.111-0.274,0.239-0.488,0.382c-0.214,0.145-0.454,0.286-0.721,0.427
			s-0.548,0.272-0.844,0.396s-0.584,0.22-0.866,0.29V9.816c0.316-0.088,0.652-0.206,1.006-0.356c0.354-0.148,0.703-0.316,1.046-0.5
			c0.343-0.186,0.667-0.379,0.971-0.58c0.305-0.203,0.569-0.4,0.792-0.594h0.545V20.671z"/>
	</g>
	
		<text transform="matrix(1 0 0 1 19.3223 20.6709)" fill="#FFFFFF" font-family="'SegoeUI'" font-size="18.4145" letter-spacing="11"> </text>
</g>
<g>
	<circle fill="#00AFF0" cx="14.5" cy="98.5" r="13.5"/>
	<rect x="9.618" y="91.039" fill="none" width="13.764" height="15.921"/>
	<g enable-background="new    ">
		<path fill="#FFFFFF" d="M17.09,91.761v8.323h1.617v1.318H17.09v2.962h-1.424v-2.962H9.742v-1.248
			c0.551-0.621,1.107-1.284,1.67-1.991c0.562-0.705,1.1-1.422,1.613-2.148s0.987-1.451,1.424-2.176
			c0.437-0.723,0.804-1.416,1.103-2.078H17.09z M11.368,100.084h4.298v-6.17c-0.439,0.768-0.856,1.453-1.249,2.057
			s-0.766,1.151-1.121,1.644s-0.693,0.938-1.015,1.336S11.655,99.727,11.368,100.084z"/>
	</g>
</g>
<g>
	<circle fill="#00AFF0" cx="14.5" cy="70.5" r="13.5"/>
	<rect x="9.618" y="63.04" fill="none" width="13.764" height="15.92"/>
	<g enable-background="new    ">
		<path fill="#FFFFFF" d="M17.994,73.103c0,0.568-0.106,1.086-0.32,1.551c-0.214,0.467-0.516,0.865-0.905,1.195
			c-0.39,0.332-0.856,0.588-1.401,0.77c-0.545,0.182-1.146,0.272-1.802,0.272c-1.201,0-2.156-0.229-2.865-0.686v-1.547
			c0.85,0.668,1.822,1.002,2.918,1.002c0.439,0,0.836-0.056,1.191-0.167s0.659-0.272,0.914-0.483s0.451-0.466,0.589-0.765
			s0.206-0.636,0.206-1.011c0-1.646-1.172-2.47-3.515-2.47h-1.046v-1.222h0.993c2.074,0,3.111-0.773,3.111-2.32
			c0-1.43-0.791-2.145-2.373-2.145c-0.891,0-1.726,0.299-2.505,0.896v-1.397c0.803-0.48,1.758-0.721,2.865-0.721
			c0.527,0,1.004,0.073,1.432,0.22s0.795,0.352,1.1,0.615s0.54,0.58,0.707,0.949s0.25,0.776,0.25,1.222
			c0,1.658-0.838,2.725-2.514,3.199v0.035c0.428,0.047,0.824,0.151,1.188,0.312s0.676,0.37,0.939,0.628s0.471,0.562,0.62,0.909
			C17.92,72.296,17.994,72.681,17.994,73.103z"/>
	</g>
	
		<text transform="matrix(1 0 0 1 19.3223 76.6709)" fill="#FFFFFF" font-family="'SegoeUI'" font-size="18.4145" letter-spacing="11"> </text>
</g>
<g>
	<circle fill="#00AFF0" cx="14.5" cy="154.5" r="13.5"/>
	<rect x="9.618" y="147.039" fill="none" width="13.764" height="15.921"/>
	<g enable-background="new    ">
		<path fill="#FFFFFF" d="M18.602,156.365c0,0.615-0.1,1.181-0.299,1.696s-0.475,0.961-0.826,1.336s-0.771,0.667-1.258,0.875
			c-0.486,0.207-1.014,0.312-1.582,0.312c-0.633,0-1.2-0.132-1.701-0.396s-0.926-0.643-1.274-1.139
			c-0.349-0.494-0.614-1.1-0.795-1.814s-0.272-1.521-0.272-2.417c0-1.096,0.122-2.09,0.365-2.983s0.589-1.658,1.037-2.295
			c0.448-0.635,0.989-1.126,1.622-1.472s1.339-0.519,2.119-0.519c0.867,0,1.564,0.12,2.092,0.36v1.362
			c-0.65-0.334-1.336-0.501-2.057-0.501c-0.562,0-1.07,0.126-1.521,0.378s-0.838,0.608-1.16,1.068s-0.57,1.015-0.743,1.665
			s-0.259,1.374-0.259,2.171h0.035c0.58-1.049,1.538-1.573,2.874-1.573c0.551,0,1.047,0.094,1.49,0.281s0.82,0.452,1.134,0.796
			c0.313,0.342,0.555,0.751,0.725,1.226S18.602,155.785,18.602,156.365z M17.125,156.55c0-0.439-0.057-0.835-0.168-1.187
			s-0.271-0.65-0.479-0.896s-0.465-0.435-0.77-0.567c-0.305-0.131-0.65-0.197-1.037-0.197c-0.357,0-0.688,0.067-0.993,0.202
			s-0.568,0.318-0.791,0.55s-0.397,0.5-0.523,0.809c-0.126,0.307-0.189,0.634-0.189,0.979c0,0.434,0.062,0.839,0.185,1.218
			c0.123,0.377,0.296,0.707,0.519,0.988s0.488,0.503,0.795,0.664s0.649,0.241,1.024,0.241c0.364,0,0.694-0.068,0.993-0.206
			s0.555-0.33,0.766-0.576s0.375-0.541,0.492-0.883C17.066,157.345,17.125,156.966,17.125,156.55z"/>
	</g>
</g>
<g>
	<circle fill="#00AFF0" cx="14.5" cy="126.5" r="13.5"/>
	<rect x="9.618" y="119.039" fill="none" width="13.764" height="15.921"/>
	<g enable-background="new    ">
		<path fill="#FFFFFF" d="M18.135,128.821c0,0.615-0.105,1.172-0.316,1.67s-0.511,0.926-0.9,1.283s-0.859,0.633-1.41,0.826
			c-0.551,0.193-1.164,0.29-1.837,0.29c-1.172,0-2.042-0.176-2.61-0.527v-1.529c0.855,0.551,1.731,0.826,2.628,0.826
			c0.457,0,0.869-0.067,1.235-0.202s0.679-0.322,0.937-0.562s0.455-0.53,0.593-0.87s0.206-0.712,0.206-1.116
			c0-0.82-0.275-1.463-0.826-1.93c-0.551-0.465-1.35-0.698-2.399-0.698c-0.17,0-0.349,0.003-0.536,0.009s-0.375,0.014-0.562,0.021
			c-0.188,0.01-0.371,0.02-0.549,0.031s-0.341,0.026-0.488,0.044l0.431-6.319h5.827v1.301h-4.579l-0.255,3.7
			c0.188-0.012,0.387-0.022,0.598-0.03c0.211-0.01,0.398-0.014,0.562-0.014c0.668,0,1.265,0.088,1.792,0.264
			s0.975,0.426,1.341,0.752c0.366,0.324,0.645,0.724,0.835,1.195S18.135,128.235,18.135,128.821z"/>
	</g>
	
		<text transform="matrix(1 0 0 1 19.3223 132.6709)" fill="#FFFFFF" font-family="'SegoeUI'" font-size="18.4145" letter-spacing="11"> </text>
</g>
<g>
	<circle fill="#00AFF0" cx="14.5" cy="210.5" r="13.5"/>
	<rect x="9.618" y="203.039" fill="none" width="13.764" height="15.921"/>
	<g enable-background="new    ">
		<path fill="#FFFFFF" d="M10.41,212.849c0-0.334,0.053-0.669,0.158-1.006s0.256-0.652,0.453-0.945s0.439-0.56,0.729-0.8
			s0.62-0.431,0.989-0.571c-0.545-0.305-0.979-0.695-1.301-1.174c-0.322-0.477-0.483-1.006-0.483-1.586
			c0-0.463,0.089-0.891,0.268-1.283s0.426-0.732,0.743-1.02s0.691-0.511,1.125-0.672s0.902-0.242,1.406-0.242
			c0.509,0,0.982,0.082,1.416,0.246s0.809,0.39,1.125,0.677s0.562,0.627,0.738,1.02s0.264,0.817,0.264,1.274
			c0,0.58-0.162,1.109-0.484,1.586c-0.322,0.479-0.75,0.869-1.283,1.174c0.363,0.141,0.689,0.331,0.977,0.571s0.528,0.507,0.725,0.8
			s0.348,0.608,0.453,0.945s0.158,0.672,0.158,1.006c0,0.551-0.1,1.055-0.299,1.512s-0.479,0.848-0.84,1.174
			c-0.36,0.324-0.791,0.578-1.292,0.76s-1.054,0.272-1.657,0.272c-0.598,0-1.146-0.091-1.644-0.272s-0.929-0.436-1.292-0.76
			c-0.363-0.326-0.646-0.717-0.848-1.174S10.41,213.399,10.41,212.849z M11.974,212.726c0,0.393,0.06,0.747,0.18,1.063
			s0.29,0.586,0.51,0.809s0.486,0.395,0.8,0.515s0.661,0.18,1.042,0.18c0.369,0,0.709-0.062,1.02-0.185s0.578-0.296,0.804-0.519
			s0.401-0.492,0.527-0.809s0.188-0.668,0.188-1.055c0-0.352-0.06-0.682-0.18-0.988c-0.12-0.309-0.291-0.579-0.514-0.813
			s-0.49-0.419-0.801-0.554s-0.659-0.202-1.045-0.202c-0.363,0-0.699,0.063-1.006,0.188c-0.308,0.127-0.574,0.303-0.8,0.527
			c-0.226,0.227-0.403,0.496-0.532,0.809C12.039,212.007,11.974,212.351,11.974,212.726z M12.422,206.881
			c0,0.299,0.054,0.575,0.163,0.831c0.108,0.254,0.258,0.478,0.448,0.668s0.412,0.34,0.664,0.447
			c0.252,0.109,0.521,0.163,0.809,0.163s0.558-0.056,0.813-0.167s0.477-0.262,0.664-0.453c0.188-0.189,0.336-0.412,0.447-0.668
			c0.111-0.254,0.168-0.528,0.168-0.821c0-0.305-0.055-0.586-0.163-0.844s-0.257-0.48-0.444-0.668s-0.408-0.335-0.663-0.444
			c-0.255-0.107-0.529-0.162-0.822-0.162c-0.311,0-0.593,0.056-0.848,0.167s-0.475,0.263-0.659,0.452
			c-0.185,0.191-0.327,0.415-0.426,0.673S12.422,206.588,12.422,206.881z"/>
	</g>
</g>
<g>
	<circle fill="#00AFF0" cx="14.5" cy="182.5" r="13.5"/>
	<rect x="9.618" y="175.039" fill="none" width="13.764" height="15.921"/>
	<g enable-background="new    ">
		<path fill="#FFFFFF" d="M18.496,176.902c-0.193,0.334-0.427,0.75-0.699,1.248s-0.561,1.058-0.865,1.679s-0.615,1.289-0.932,2.004
			s-0.613,1.453-0.889,2.215c-0.275,0.762-0.517,1.533-0.725,2.316c-0.208,0.781-0.359,1.551-0.453,2.307h-1.547
			c0.105-0.75,0.268-1.516,0.488-2.299c0.22-0.781,0.469-1.549,0.747-2.303c0.278-0.752,0.573-1.478,0.883-2.175
			s0.612-1.339,0.905-1.925s0.562-1.104,0.805-1.551c0.243-0.449,0.438-0.799,0.584-1.051H10.48v-1.301h8.016V176.902z"/>
	</g>
	
		<text transform="matrix(1 0 0 1 19.3223 188.6709)" fill="#FFFFFF" font-family="'SegoeUI'" font-size="18.4145" letter-spacing="11"> </text>
</g>
<g>
	<circle fill="#00AFF0" cx="14.5" cy="266.5" r="13.5"/>
	<rect x="4.618" y="259.079" fill="none" width="13.764" height="15.921"/>
	<g enable-background="new    ">
		<path fill="#FFFFFF" d="M11.511,272.404H10.07v-10.89c-0.111,0.111-0.274,0.239-0.488,0.382c-0.214,0.145-0.454,0.286-0.721,0.427
			s-0.548,0.272-0.844,0.396s-0.584,0.22-0.866,0.29v-1.459c0.316-0.088,0.652-0.206,1.006-0.356c0.354-0.148,0.703-0.316,1.046-0.5
			c0.343-0.186,0.667-0.379,0.971-0.58c0.305-0.203,0.568-0.4,0.791-0.594h0.545V272.404z"/>
	</g>
	<rect x="13.618" y="259.039" fill="none" width="13.764" height="15.921"/>
	<g enable-background="new    ">
		<path fill="#FFFFFF" d="M21.613,266.01c0,1.055-0.096,1.989-0.285,2.804c-0.191,0.814-0.467,1.502-0.826,2.061
			c-0.361,0.561-0.803,0.984-1.328,1.275c-0.523,0.289-1.12,0.435-1.788,0.435c-0.633,0-1.196-0.14-1.692-0.417
			c-0.494-0.278-0.912-0.685-1.252-1.218s-0.598-1.188-0.773-1.964s-0.264-1.666-0.264-2.668c0-1.102,0.092-2.074,0.277-2.918
			s0.456-1.551,0.813-2.123c0.357-0.57,0.801-1.002,1.332-1.291c0.529-0.291,1.138-0.436,1.823-0.436
			C20.292,259.55,21.613,261.703,21.613,266.01z M20.137,266.15c0-3.586-0.853-5.379-2.558-5.379c-1.799,0-2.698,1.825-2.698,5.476
			c0,3.404,0.882,5.106,2.646,5.106C19.267,271.354,20.137,269.619,20.137,266.15z"/>
	</g>
</g>
<g>
	<circle fill="#00AFF0" cx="14.5" cy="238.5" r="13.5"/>
	<rect x="9.618" y="231.039" fill="none" width="13.764" height="15.921"/>
	<g enable-background="new    ">
		<path fill="#FFFFFF" d="M18.443,237.613c0,1.154-0.115,2.182-0.344,3.081s-0.562,1.66-1.002,2.285
			c-0.439,0.623-0.975,1.098-1.607,1.424c-0.633,0.324-1.354,0.487-2.163,0.487c-0.832,0-1.564-0.146-2.197-0.439v-1.38
			c0.697,0.393,1.441,0.589,2.232,0.589c0.568,0,1.077-0.117,1.525-0.352s0.827-0.575,1.138-1.024c0.311-0.447,0.549-1,0.713-1.656
			s0.246-1.409,0.246-2.259h-0.035c-0.539,1.084-1.477,1.626-2.813,1.626c-0.539,0-1.034-0.095-1.485-0.285s-0.841-0.46-1.169-0.809
			s-0.583-0.764-0.765-1.244s-0.272-1.011-0.272-1.591c0-0.621,0.101-1.189,0.303-1.705s0.483-0.959,0.844-1.331
			s0.788-0.661,1.283-0.866s1.036-0.308,1.622-0.308c0.632,0,1.194,0.127,1.683,0.383c0.489,0.254,0.9,0.627,1.234,1.115
			c0.334,0.49,0.59,1.092,0.766,1.807S18.443,236.693,18.443,237.613z M16.887,236.321c0-0.486-0.062-0.929-0.188-1.327
			s-0.3-0.739-0.522-1.024c-0.223-0.283-0.488-0.503-0.796-0.658s-0.643-0.233-1.006-0.233c-0.346,0-0.668,0.069-0.967,0.206
			c-0.299,0.139-0.558,0.332-0.778,0.58c-0.22,0.25-0.393,0.545-0.519,0.889c-0.126,0.342-0.189,0.716-0.189,1.12
			c0,0.445,0.06,0.844,0.18,1.195s0.292,0.649,0.514,0.892c0.223,0.244,0.491,0.43,0.804,0.559s0.661,0.193,1.042,0.193
			c0.334,0,0.649-0.062,0.945-0.189c0.296-0.125,0.554-0.295,0.773-0.51c0.22-0.213,0.393-0.465,0.519-0.756
			C16.824,236.968,16.887,236.655,16.887,236.321z"/>
	</g>
	
		<text transform="matrix(1 0 0 1 19.3223 244.6709)" fill="#FFFFFF" font-family="'SegoeUI'" font-size="18.4145" letter-spacing="11"> </text>
</g>
</svg>
