<?xml version="1.0" encoding="utf-8"?>
<!-- Generator: Adobe Illustrator 16.0.0, SVG Export Plug-In . SVG Version: 6.00 Build 0)  -->
<!DOCTYPE svg PUBLIC "-//W3C//DTD SVG 1.1//EN" "http://www.w3.org/Graphics/SVG/1.1/DTD/svg11.dtd">
<svg version="1.1" id="Layer_2_1_" xmlns="http://www.w3.org/2000/svg" xmlns:xlink="http://www.w3.org/1999/xlink" x="0px" y="0px"
	 width="37px" height="361px" viewBox="0 0 37 361" enable-background="new 0 0 37 361" xml:space="preserve">
<g>
	<circle fill="#00AFF0" cx="18.5" cy="54.5" r="17.5"/>
	<rect x="12.031" y="45.625" fill="none" width="17.938" height="20.75"/>
	<g enable-background="new    ">
		<path fill="#FFFFFF" d="M21.078,50.992c0-0.516-0.08-0.965-0.24-1.348c-0.16-0.383-0.379-0.701-0.656-0.955
			s-0.604-0.443-0.979-0.568s-0.781-0.188-1.219-0.188c-0.375,0-0.742,0.051-1.102,0.152c-0.36,0.101-0.709,0.242-1.049,0.422
			c-0.34,0.18-0.668,0.395-0.984,0.645s-0.611,0.527-0.885,0.832v-2.062c0.539-0.523,1.143-0.924,1.811-1.201
			c0.668-0.277,1.482-0.416,2.443-0.416c0.688,0,1.324,0.1,1.91,0.299s1.095,0.49,1.522,0.873c0.43,0.383,0.769,0.855,1.015,1.418
			s0.369,1.207,0.369,1.934c0,0.664-0.076,1.266-0.229,1.805c-0.152,0.539-0.383,1.047-0.69,1.523
			c-0.308,0.476-0.697,0.934-1.166,1.371c-0.47,0.437-1.021,0.883-1.652,1.336c-0.789,0.562-1.439,1.043-1.951,1.441
			c-0.512,0.398-0.918,0.771-1.219,1.119c-0.301,0.348-0.512,0.695-0.633,1.043c-0.121,0.348-0.182,0.748-0.182,1.201h8.367v1.723
			H13.309v-0.832c0-0.719,0.078-1.352,0.234-1.898c0.156-0.546,0.414-1.066,0.773-1.559c0.359-0.493,0.83-0.984,1.412-1.477
			s1.295-1.047,2.139-1.664c0.609-0.438,1.119-0.855,1.529-1.254c0.41-0.399,0.739-0.797,0.989-1.195
			c0.25-0.397,0.429-0.803,0.533-1.213C21.023,51.889,21.078,51.453,21.078,50.992z"/>
	</g>
</g>
<g>
	<circle fill="#00AFF0" cx="18.5" cy="90.5" r="17.5"/>
	<rect x="12.031" y="81.625" fill="none" width="17.938" height="20.75"/>
	<g enable-background="new    ">
		<path fill="#FFFFFF" d="M23.199,94.633c0,0.758-0.143,1.447-0.428,2.068s-0.688,1.152-1.207,1.594s-1.143,0.783-1.869,1.025
			s-1.527,0.363-2.402,0.363c-1.602,0-2.875-0.305-3.82-0.914v-2.062c1.133,0.891,2.43,1.336,3.891,1.336
			c0.586,0,1.115-0.074,1.588-0.223s0.879-0.363,1.219-0.645s0.602-0.621,0.785-1.02s0.275-0.848,0.275-1.348
			c0-2.195-1.562-3.293-4.688-3.293h-1.395v-1.629h1.324c2.766,0,4.148-1.031,4.148-3.094c0-1.906-1.055-2.859-3.164-2.859
			c-1.188,0-2.301,0.398-3.34,1.195v-1.863c1.07-0.641,2.344-0.961,3.82-0.961c0.703,0,1.34,0.098,1.91,0.293
			s1.059,0.469,1.465,0.82s0.721,0.773,0.943,1.266s0.334,1.035,0.334,1.629c0,2.211-1.117,3.633-3.352,4.266v0.047
			c0.57,0.062,1.098,0.201,1.582,0.416s0.902,0.494,1.254,0.838s0.627,0.748,0.826,1.213S23.199,94.07,23.199,94.633z"/>
	</g>
</g>
<g>
	<circle fill="#00AFF0" cx="18.5" cy="18.5" r="17.5"/>
	<rect x="12.031" y="9.625" fill="none" width="17.938" height="20.75"/>
	<g enable-background="new    ">
		<path fill="#FFFFFF" d="M20.516,27.391h-1.922v-14.52c-0.148,0.148-0.365,0.318-0.65,0.51c-0.285,0.192-0.605,0.381-0.961,0.568
			c-0.356,0.187-0.73,0.363-1.125,0.527s-0.779,0.293-1.154,0.387v-1.945c0.422-0.117,0.869-0.275,1.342-0.475
			c0.473-0.2,0.938-0.422,1.395-0.668s0.889-0.504,1.295-0.773c0.407-0.269,0.758-0.533,1.055-0.791h0.727v17.18H20.516z"/>
	</g>
	<text transform="matrix(1 0 0 1 24.9688 27.3906)" fill="#FFFFFF" font-family="'SegoeUI'" font-size="24" letter-spacing="15"> </text>
</g>
<g>
	<circle fill="#00AFF0" cx="18.5" cy="162.5" r="17.5"/>
	<rect x="12.031" y="153.625" fill="none" width="17.938" height="20.75"/>
	<g enable-background="new    ">
		<path fill="#FFFFFF" d="M23.387,166.258c0,0.82-0.141,1.562-0.422,2.227s-0.682,1.234-1.201,1.711
			c-0.519,0.477-1.146,0.844-1.881,1.102c-0.734,0.258-1.551,0.387-2.449,0.387c-1.562,0-2.723-0.234-3.48-0.703v-2.039
			c1.141,0.734,2.309,1.102,3.504,1.102c0.609,0,1.158-0.09,1.646-0.27c0.488-0.18,0.904-0.43,1.248-0.75s0.607-0.707,0.791-1.16
			c0.185-0.453,0.275-0.949,0.275-1.488c0-1.094-0.367-1.951-1.102-2.572c-0.735-0.621-1.801-0.932-3.199-0.932
			c-0.227,0-0.465,0.004-0.715,0.012c-0.25,0.008-0.5,0.018-0.75,0.029c-0.25,0.011-0.494,0.025-0.732,0.041
			c-0.238,0.016-0.455,0.035-0.65,0.059l0.574-8.426h7.771v1.734h-6.105l-0.34,4.934c0.25-0.016,0.516-0.029,0.797-0.041
			c0.281-0.012,0.531-0.018,0.75-0.018c0.891,0,1.688,0.117,2.392,0.352c0.703,0.235,1.299,0.568,1.787,1.002
			c0.487,0.434,0.858,0.965,1.112,1.594C23.262,164.774,23.387,165.477,23.387,166.258z"/>
	</g>
</g>
<g>
	<circle fill="#00AFF0" cx="18.5" cy="198.5" r="17.5"/>
	<rect x="12.031" y="189.625" fill="none" width="17.938" height="20.75"/>
	<g enable-background="new    ">
		<path fill="#FFFFFF" d="M24.008,202.059c0,0.82-0.133,1.574-0.398,2.262c-0.264,0.688-0.633,1.281-1.102,1.781
			s-1.027,0.89-1.676,1.166c-0.648,0.277-1.352,0.416-2.109,0.416c-0.844,0-1.6-0.176-2.268-0.526s-1.234-0.857-1.699-1.519
			c-0.465-0.66-0.818-1.467-1.061-2.42c-0.243-0.953-0.363-2.027-0.363-3.223c0-1.461,0.162-2.787,0.486-3.979
			c0.324-1.192,0.785-2.211,1.383-3.06c0.598-0.849,1.318-1.502,2.162-1.963c0.844-0.461,1.786-0.69,2.825-0.69
			c1.155,0,2.086,0.159,2.789,0.479v1.815c-0.867-0.445-1.781-0.668-2.742-0.668c-0.75,0-1.426,0.168-2.027,0.504
			s-1.117,0.812-1.547,1.424c-0.43,0.613-0.76,1.354-0.99,2.222c-0.23,0.866-0.346,1.832-0.346,2.896h0.047
			c0.773-1.398,2.051-2.099,3.832-2.099c0.734,0,1.396,0.125,1.986,0.375s1.094,0.604,1.512,1.062s0.74,1.002,0.967,1.635
			S24.008,201.285,24.008,202.059z M22.039,202.305c0-0.586-0.074-1.113-0.223-1.582c-0.149-0.469-0.361-0.867-0.64-1.195
			c-0.278-0.327-0.618-0.579-1.024-0.756c-0.406-0.176-0.867-0.264-1.383-0.264c-0.477,0-0.918,0.09-1.324,0.27
			c-0.406,0.181-0.758,0.425-1.055,0.732c-0.297,0.309-0.529,0.668-0.697,1.078s-0.252,0.846-0.252,1.307
			c0,0.578,0.082,1.119,0.246,1.623s0.395,0.943,0.691,1.318s0.65,0.67,1.061,0.885s0.865,0.322,1.365,0.322
			c0.484,0,0.926-0.092,1.324-0.275c0.397-0.183,0.738-0.438,1.021-0.768c0.281-0.329,0.5-0.721,0.656-1.178
			C21.96,203.365,22.039,202.859,22.039,202.305z"/>
	</g>
</g>
<g>
	<circle fill="#00AFF0" cx="18.5" cy="126.5" r="17.5"/>
	<rect x="12.031" y="117.625" fill="none" width="17.938" height="20.75"/>
	<g enable-background="new    ">
		<path fill="#FFFFFF" d="M21.992,118.586v11.098h2.156v1.758h-2.156v3.949h-1.898v-3.949h-7.898v-1.664
			c0.734-0.828,1.477-1.713,2.227-2.654s1.467-1.896,2.15-2.865c0.683-0.969,1.316-1.936,1.898-2.9
			c0.582-0.964,1.072-1.889,1.47-2.771h2.051V118.586z M14.363,129.684h5.73v-8.227c-0.586,1.023-1.141,1.938-1.664,2.742
			c-0.523,0.804-1.021,1.535-1.494,2.191c-0.473,0.656-0.924,1.25-1.354,1.781C15.151,128.702,14.746,129.207,14.363,129.684z"/>
	</g>
	<text transform="matrix(1 0 0 1 24.9688 135.3906)" fill="#FFFFFF" font-family="'SegoeUI'" font-size="24" letter-spacing="15"> </text>
</g>
<g>
	<circle fill="#00AFF0" cx="18.5" cy="270.5" r="17.5"/>
	<rect x="12.031" y="261.625" fill="none" width="17.938" height="20.75"/>
	<g enable-background="new    ">
		<path fill="#FFFFFF" d="M13.086,274.703c0-0.445,0.07-0.893,0.211-1.342c0.141-0.449,0.342-0.869,0.604-1.26
			c0.262-0.392,0.586-0.746,0.973-1.066c0.387-0.32,0.826-0.574,1.318-0.762c-0.727-0.406-1.305-0.929-1.734-1.564
			s-0.645-1.342-0.645-2.115c0-0.617,0.119-1.188,0.357-1.711c0.238-0.523,0.568-0.977,0.99-1.359
			c0.422-0.381,0.922-0.682,1.5-0.896c0.578-0.214,1.203-0.321,1.875-0.321c0.68,0,1.309,0.108,1.887,0.327
			c0.578,0.22,1.078,0.521,1.5,0.902s0.75,0.836,0.984,1.358c0.234,0.523,0.352,1.09,0.352,1.699c0,0.773-0.215,1.479-0.645,2.115
			c-0.43,0.637-1,1.158-1.711,1.564c0.483,0.188,0.918,0.44,1.301,0.762c0.383,0.32,0.705,0.676,0.967,1.066
			c0.262,0.39,0.463,0.811,0.604,1.26c0.142,0.449,0.211,0.896,0.211,1.342c0,0.734-0.133,1.406-0.397,2.016
			c-0.265,0.61-0.639,1.131-1.119,1.564c-0.479,0.433-1.055,0.771-1.723,1.014c-0.668,0.243-1.404,0.363-2.209,0.363
			c-0.797,0-1.527-0.121-2.191-0.363c-0.664-0.242-1.238-0.58-1.723-1.014s-0.861-0.955-1.131-1.564
			C13.221,276.109,13.086,275.438,13.086,274.703z M15.172,274.539c0,0.523,0.08,0.996,0.24,1.418
			c0.16,0.422,0.387,0.781,0.68,1.078s0.648,0.525,1.066,0.686c0.418,0.161,0.881,0.24,1.389,0.24c0.492,0,0.945-0.082,1.359-0.246
			s0.771-0.395,1.072-0.691c0.301-0.295,0.535-0.655,0.703-1.078c0.168-0.422,0.252-0.891,0.252-1.405c0-0.47-0.08-0.908-0.24-1.317
			c-0.16-0.41-0.389-0.771-0.687-1.084c-0.297-0.313-0.651-0.56-1.065-0.738c-0.414-0.18-0.879-0.271-1.396-0.271
			c-0.484,0-0.932,0.084-1.342,0.252s-0.766,0.402-1.066,0.703c-0.3,0.301-0.537,0.66-0.709,1.078
			C15.257,273.581,15.172,274.039,15.172,274.539z M15.77,266.746c0,0.398,0.072,0.768,0.217,1.107
			c0.145,0.338,0.344,0.637,0.598,0.891s0.549,0.453,0.885,0.598c0.336,0.145,0.695,0.217,1.078,0.217
			c0.383,0,0.744-0.074,1.084-0.223c0.341-0.148,0.636-0.35,0.886-0.604s0.448-0.551,0.598-0.892
			c0.148-0.34,0.223-0.704,0.223-1.096c0-0.406-0.072-0.781-0.217-1.125c-0.145-0.345-0.342-0.642-0.592-0.892
			s-0.545-0.446-0.885-0.592c-0.34-0.145-0.706-0.217-1.097-0.217c-0.414,0-0.791,0.074-1.131,0.223
			c-0.34,0.149-0.633,0.351-0.879,0.604s-0.436,0.553-0.568,0.896C15.838,265.986,15.77,266.355,15.77,266.746z"/>
	</g>
</g>
<g>
	<circle fill="#00AFF0" cx="18.5" cy="306.5" r="17.5"/>
	<rect x="12.031" y="297.625" fill="none" width="17.938" height="20.75"/>
	<g enable-background="new    ">
		<path fill="#FFFFFF" d="M23.797,305.98c0,1.538-0.152,2.907-0.457,4.106s-0.75,2.215-1.336,3.047s-1.301,1.465-2.145,1.898
			c-0.844,0.433-1.805,0.649-2.883,0.649c-1.109,0-2.086-0.194-2.93-0.586v-1.84c0.93,0.523,1.922,0.785,2.977,0.785
			c0.758,0,1.436-0.156,2.034-0.469c0.596-0.313,1.104-0.769,1.518-1.365s0.73-1.334,0.949-2.209s0.328-1.879,0.328-3.012h-0.047
			c-0.72,1.444-1.97,2.168-3.75,2.168c-0.719,0-1.379-0.127-1.98-0.381c-0.601-0.255-1.121-0.613-1.559-1.078
			s-0.777-1.019-1.02-1.658c-0.243-0.641-0.363-1.348-0.363-2.121c0-0.828,0.135-1.586,0.404-2.273
			c0.269-0.687,0.645-1.278,1.125-1.774s1.051-0.882,1.711-1.154s1.381-0.409,2.162-0.409c0.844,0,1.592,0.17,2.243,0.51
			c0.652,0.34,1.201,0.836,1.646,1.488c0.445,0.651,0.785,1.454,1.02,2.407C23.68,303.663,23.797,304.754,23.797,305.98z
			 M21.723,304.258c0-0.648-0.084-1.238-0.252-1.77c-0.168-0.532-0.4-0.986-0.697-1.365s-0.649-0.672-1.061-0.879
			s-0.857-0.311-1.342-0.311c-0.461,0-0.891,0.092-1.289,0.274s-0.744,0.44-1.037,0.772s-0.523,0.728-0.691,1.185
			s-0.252,0.955-0.252,1.494c0,0.594,0.08,1.125,0.24,1.594c0.16,0.47,0.389,0.865,0.686,1.189c0.297,0.323,0.654,0.571,1.072,0.743
			c0.418,0.173,0.881,0.259,1.389,0.259c0.445,0,0.864-0.084,1.26-0.252s0.737-0.396,1.03-0.681
			c0.294-0.285,0.523-0.621,0.691-1.008S21.723,304.703,21.723,304.258z"/>
	</g>
</g>
<g>
	<circle fill="#00AFF0" cx="18.5" cy="342.5" r="17.5"/>
	<rect x="5.031" y="333.625" fill="none" width="17.938" height="20.75"/>
	<g enable-background="new    ">
		<path fill="#FFFFFF" d="M14.516,351.391h-1.922v-14.52c-0.148,0.147-0.365,0.318-0.65,0.51c-0.285,0.192-0.605,0.381-0.961,0.568
			c-0.356,0.187-0.73,0.363-1.125,0.526c-0.395,0.164-0.779,0.293-1.154,0.388v-1.945c0.422-0.117,0.869-0.275,1.342-0.475
			c0.473-0.2,0.938-0.422,1.395-0.668s0.889-0.504,1.295-0.773c0.406-0.269,0.758-0.533,1.055-0.791h0.727v17.18H14.516z"/>
	</g>
	<rect x="17.031" y="333.625" fill="none" width="17.938" height="20.75"/>
	<g enable-background="new    ">
		<path fill="#FFFFFF" d="M27.984,342.918c0,1.406-0.127,2.652-0.381,3.738s-0.621,2.002-1.103,2.748s-1.069,1.312-1.771,1.698
			c-0.699,0.388-1.494,0.58-2.385,0.58c-0.844,0-1.596-0.186-2.256-0.557s-1.217-0.912-1.67-1.623s-0.797-1.584-1.031-2.619
			c-0.234-1.035-0.352-2.221-0.352-3.557c0-1.469,0.123-2.767,0.369-3.892c0.246-1.125,0.607-2.067,1.084-2.829
			c0.477-0.763,1.068-1.337,1.775-1.724s1.518-0.58,2.432-0.58C26.223,334.305,27.984,337.176,27.984,342.918z M26.016,343.105
			c0-4.781-1.137-7.173-3.41-7.173c-2.397,0-3.598,2.435-3.598,7.302c0,4.539,1.176,6.809,3.527,6.809
			C24.855,350.043,26.016,347.73,26.016,343.105z"/>
	</g>
</g>
<g>
	<circle fill="#00AFF0" cx="18.5" cy="234.5" r="17.5"/>
	<rect x="12.031" y="225.625" fill="none" width="17.938" height="20.75"/>
	<g enable-background="new    ">
		<path fill="#FFFFFF" d="M23.867,227.699c-0.258,0.445-0.568,1-0.932,1.664c-0.365,0.664-0.748,1.41-1.154,2.238
			s-0.82,1.719-1.242,2.672s-0.816,1.938-1.184,2.953c-0.369,1.015-0.689,2.045-0.967,3.088c-0.278,1.043-0.479,2.067-0.604,3.076
			h-2.062c0.141-1,0.357-2.021,0.65-3.064s0.625-2.066,0.996-3.07s0.764-1.971,1.178-2.9c0.414-0.929,0.815-1.785,1.207-2.565
			c0.392-0.781,0.748-1.472,1.072-2.067c0.323-0.598,0.584-1.064,0.778-1.4H13.18v-1.734h10.688L23.867,227.699L23.867,227.699z"/>
	</g>
	<text transform="matrix(1 0 0 1 24.9688 243.3906)" fill="#FFFFFF" font-family="'SegoeUI'" font-size="24" letter-spacing="15"> </text>
</g>
</svg>
