<?xml version="1.0" encoding="utf-8"?>
<!-- Generator: Adobe Illustrator 21.1.0, SVG Export Plug-In . SVG Version: 6.00 Build 0)  -->
<svg version="1.1" id="Layer_1" xmlns="http://www.w3.org/2000/svg" xmlns:xlink="http://www.w3.org/1999/xlink" x="0px" y="0px"
	 viewBox="0 0 574 374" style="enable-background:new 0 0 574 374;" xml:space="preserve">
<style type="text/css">
	.st0{clip-path:url(#SVGID_2_);fill:#333333;}
	.st1{clip-path:url(#SVGID_4_);fill:#FFFFFF;}
	.st2{opacity:0.4;clip-path:url(#SVGID_6_);fill:#FFFFFF;enable-background:new    ;}
</style>
<g>
	<g>
		<defs>
			<path id="SVGID_1_" d="M9.2,0h555.6c5.1,0,9.2,3.9,9.2,8.7v356.5c0,4.8-4.1,8.7-9.2,8.7H9.2c-5.1,0-9.2-3.9-9.2-8.7V8.7
				C0,3.9,4.1,0,9.2,0z"/>
		</defs>
		<clipPath id="SVGID_2_">
			<use xlink:href="#SVGID_1_"  style="overflow:visible;"/>
		</clipPath>
		<rect x="-4.6" y="-4.4" class="st0" width="583.2" height="382.7"/>
	</g>
</g>
<g>
	<g>
		<defs>
			<path id="SVGID_3_" d="M557,187.2h6.5v4.8v0.2c-2.1-0.3-4.3-0.5-6.5-0.8V187.2z M551.5,187.2c1.6,0,3.2,0,4.9,0v4.2
				c-1.7-0.2-3.3-0.4-4.9-0.6V187.2z M551.5,183.1c1.6-0.2,3.2-0.4,4.9-0.6v4.1c-1.7,0-3.3,0-4.9,0V183.1z M557,182.6
				c2.1-0.3,4.3-0.6,6.5-0.8v0.1v4.9c-2.1,0-4.3,0-6.5,0V182.6z"/>
		</defs>
		<clipPath id="SVGID_4_">
			<use xlink:href="#SVGID_3_"  style="overflow:visible;"/>
		</clipPath>
		<rect x="546.5" y="176.6" class="st1" width="21.9" height="20.6"/>
	</g>
</g>
<g>
	<g>
		<defs>
			<circle id="SVGID_5_" cx="287" cy="13.7" r="3.2"/>
		</defs>
		<clipPath id="SVGID_6_">
			<use xlink:href="#SVGID_5_"  style="overflow:visible;"/>
		</clipPath>
		<rect x="278.8" y="5.6" class="st2" width="16.3" height="16.3"/>
	</g>
</g>
</svg>
