<?xml version="1.0" encoding="UTF-8" standalone="no"?>
<svg width="600" height="48" viewBox="0 0 600 48" version="1.1" xmlns="http://www.w3.org/2000/svg">
 <g fill="none" fill-rule="evenodd">
  <g fill="#00aff0">
   <path d="M282.240362,16.9329941 C282.386897,15.100834 282.521727,13.7116107 282.521727,13.7116107 C282.60835,12.7663142 283.451387,12 284.402521,12 L290.597479,12 C291.54959,12 292.39274,12.764194 292.478273,13.7116107 C292.478273,13.7116107 292.613103,15.100834 292.759638,16.9329941 C291.295584,15.8185444 289.47414,15.1578947 287.5,15.1578947 C285.52586,15.1578947 283.704416,15.8185444 282.240362,16.9329941 Z M292.743636,31.0791574 C292.600846,32.9164235 292.472574,34.2892305 292.472574,34.2892305 C292.389099,35.2340624 291.548613,36 290.597479,36 L284.402521,36 C283.45041,36 282.610059,35.2382483 282.527426,34.2892305 C282.527426,34.2892305 282.399154,32.9164235 282.256364,31.0791574 C283.717678,32.1862563 285.533046,32.8421053 287.5,32.8421053 C289.466954,32.8421053 291.282322,32.1862563 292.743636,31.0791574 Z M287.5,31.5789474 C291.642136,31.5789474 295,28.1857371 295,24 C295,19.8142629 291.642136,16.4210526 287.5,16.4210526 C283.357864,16.4210526 280,19.8142629 280,24 C280,28.1857371 283.357864,31.5789474 287.5,31.5789474 Z M287.5,30.3157895 C290.95178,30.3157895 293.75,27.4881142 293.75,24 C293.75,20.5118858 290.95178,17.6842105 287.5,17.6842105 C284.04822,17.6842105 281.25,20.5118858 281.25,24 C281.25,27.4881142 284.04822,30.3157895 287.5,30.3157895 Z M290,25.9716298 C290,25.9011932 289.984005,25.831638 289.952015,25.7629622 C289.920025,25.6942865 289.874041,25.6352967 289.81406,25.585991 L288.122601,24.1068284 L288.122601,21.3915085 C288.122601,21.3140282 288.106606,21.2418317 288.074616,21.1749168 C288.042626,21.108002 287.997641,21.0498926 287.939659,21.000587 C287.881678,20.9512813 287.8147,20.9125417 287.738724,20.8843671 C287.662748,20.8561924 287.582774,20.8421053 287.4988,20.8421053 C287.414827,20.8421053 287.334853,20.8561924 287.258877,20.8843671 C287.182901,20.9125417 287.115923,20.9512813 287.057941,21.000587 C286.99996,21.0498926 286.954975,21.108002 286.922985,21.1749168 C286.890995,21.2418317 286.875,21.3140282 286.875,21.3915085 L286.875,24.3234201 C286.875,24.4819026 286.93698,24.6157302 287.06094,24.7249071 L288.932342,26.3625514 C289.056303,26.4717282 289.204254,26.5263158 289.3762,26.5263158 C289.460173,26.5263158 289.540147,26.5122287 289.616123,26.484054 C289.692099,26.4558793 289.759077,26.4162593 289.817059,26.3651927 C289.87504,26.3141261 289.920025,26.2551363 289.952015,26.1882215 C289.984005,26.1213067 290,26.0491102 290,25.9716298 Z"/>
   <path d="M220,23.993614 L220,23.489003 C220,23.2093666 219.776142,22.993614 219.5,22.993614 C219.231934,22.993614 219,23.2154072 219,23.489003 L219,23.993614 L218.495389,23.993614 C218.215753,23.993614 218,24.2174716 218,24.493614 C218,24.7616804 218.221793,24.993614 218.495389,24.993614 L219,24.993614 L219,25.498225 C219,25.7778614 219.223858,25.993614 219.5,25.993614 C219.768066,25.993614 220,25.7718208 220,25.498225 L220,24.993614 L220.504611,24.993614 C220.784247,24.993614 221,24.7697564 221,24.493614 C221,24.2255476 220.778207,23.993614 220.504611,23.993614 L220,23.993614 Z M208,29.342453 C208,25.2910952 208.826667,19.2140586 211.72,16.3781081 C214.613334,13.5421576 219.265745,15.9559817 223,15.993614 C226.762769,16.0315337 231.973334,13.5421576 234.866668,16.3781081 C237.760001,19.2140586 238.999998,25.6962309 239,29.342453 C239.000002,32.9886751 236,32.9880657 236,32.9880657 L229.696778,28.4907605 C229.311958,28.2161941 228.608504,27.993614 228.136848,27.993614 L218.863152,27.993614 C218.386446,27.993614 217.681035,28.2211934 217.303222,28.4907605 L211,32.9880657 C211,32.9880657 208,33.2950325 208,29.342453 Z M215,21.993614 C216.104569,21.993614 217,21.0981835 217,19.993614 C217,18.8890445 216.104569,17.993614 215,17.993614 C213.895431,17.993614 213,18.8890445 213,19.993614 C213,21.0981835 213.895431,21.993614 215,21.993614 Z M225,25.993614 C226.104569,25.993614 227,25.0981835 227,23.993614 C227,22.8890445 226.104569,21.993614 225,21.993614 C223.895431,21.993614 223,22.8890445 223,23.993614 C223,25.0981835 223.895431,25.993614 225,25.993614 Z M232,19.993614 C232.552285,19.993614 233,19.5458987 233,18.993614 C233,18.4413292 232.552285,17.993614 232,17.993614 C231.447715,17.993614 231,18.4413292 231,18.993614 C231,19.5458987 231.447715,19.993614 232,19.993614 Z M230,21.993614 C230.552285,21.993614 231,21.5458987 231,20.993614 C231,20.4413292 230.552285,19.993614 230,19.993614 C229.447715,19.993614 229,20.4413292 229,20.993614 C229,21.5458987 229.447715,21.993614 230,21.993614 Z M232,23.993614 C232.552285,23.993614 233,23.5458987 233,22.993614 C233,22.4413292 232.552285,21.993614 232,21.993614 C231.447715,21.993614 231,22.4413292 231,22.993614 C231,23.5458987 231.447715,23.993614 232,23.993614 Z M234,21.993614 C234.552285,21.993614 235,21.5458987 235,20.993614 C235,20.4413292 234.552285,19.993614 234,19.993614 C233.447715,19.993614 233,20.4413292 233,20.993614 C233,21.5458987 233.447715,21.993614 234,21.993614 Z"/>
   <path d="M87,12.3391044 C87,11.0472527 88.0378355,10 89.3281323,10 L101.671868,10 C102.95766,10 104,11.0465306 104,12.3391044 L104,35.6608956 C104,36.9527473 102.962164,38 101.671868,38 L89.3281323,38 C88.0423403,38 87,36.9534694 87,35.6608956 L87,12.3391044 Z M97.5,12 C97.7761424,12 98,11.7761424 98,11.5 C98,11.2238576 97.7761424,11 97.5,11 C97.2238576,11 97,11.2238576 97,11.5 C97,11.7761424 97.2238576,12 97.5,12 Z M92,11.5 C92,11.2238576 92.2150574,11 92.4904785,11 L95.5095215,11 C95.7804053,11 96,11.2319336 96,11.5 C96,11.7761424 95.7849426,12 95.5095215,12 L92.4904785,12 C92.2195947,12 92,11.7680664 92,11.5 Z M89,13 L102,13 L102,34 L89,34 L89,13 Z"/>
   <path d="M53,36 L53,35 L10,35 L10,36 C10,36.5561352 10.4475409,37 10.9996105,37 L52.0003895,37 C52.5461844,37 53,36.5522847 53,36 Z M49.9999955,33 C49.9999985,32.9989768 50,32.9979533 50,32.9969294 L50,12.0030706 C50,11.4389178 49.5483226,11 48.9911502,11 L14.0088498,11 C13.4413032,11 13,11.44909 13,12.0030706 L13,32.9969294 C13,32.9979534 13.0000015,32.9989769 13.0000045,33 L13,34 L50,34 L50,33 Z M31.5,12.5 C31.7761424,12.5 32,12.2761424 32,12 C32,11.7238576 31.7761424,11.5 31.5,11.5 C31.2238576,11.5 31,11.7238576 31,12 C31,12.2761424 31.2238576,12.5 31.5,12.5 Z M14,13 L49,13 L49,32 L14,32 L14,13 Z"/>
   <path d="M148,10.0326679 C148,9.46234117 148.459434,9 149.032944,9 L169.967056,9 C170.537535,9 171,9.47122836 171,10.0326679 L171,37.9673321 C171,38.5376588 170.540566,39 169.967056,39 L149.032944,39 C148.462465,39 148,38.5287716 148,37.9673321 L148,10.0326679 Z M149.5,12 L169.5,12 L169.5,36 L149.5,36 L149.5,12 Z M161.5,11 C161.776142,11 162,10.7761424 162,10.5 C162,10.2238576 161.776142,10 161.5,10 C161.223858,10 161,10.2238576 161,10.5 C161,10.7761424 161.223858,11 161.5,11 Z M157,10.5 C157,10.2238576 157.215753,10 157.495389,10 L159.504611,10 C159.778207,10 160,10.2319336 160,10.5 C160,10.7761424 159.784247,11 159.504611,11 L157.495389,11 C157.221793,11 157,10.7680664 157,10.5 Z"/>
   <path d="M331,11.5017776 C331,11.2246535 331.220591,11 331.5036,11 L371.4964,11 C371.774531,11 372,11.2276391 372,11.5017776 L372,33.4982224 C372,33.7753465 371.779409,34 371.4964,34 L331.5036,34 C331.225469,34 331,33.7723609 331,33.4982224 L331,11.5017776 Z M332,12 L371,12 L371,31 L332,31 L332,12 Z M343,35.9063721 C343,35.4057966 343.40346,35 343.890058,35 L359.109942,35 C359.601507,35 360,35.4047298 360,35.9063721 L360,36.0936279 C360,36.5942034 359.59654,37 359.109942,37 L343.890058,37 C343.398493,37 343,36.5952702 343,36.0936279 L343,35.9063721 Z"/>
  </g>
 </g>
</svg>
