<?xml version="1.0" encoding="utf-8"?>
<!-- Generator: Adobe Illustrator 19.2.1, SVG Export Plug-In . SVG Version: 6.00 Build 0)  -->
<svg version="1.1" id="Layer_1" xmlns="http://www.w3.org/2000/svg" xmlns:xlink="http://www.w3.org/1999/xlink" x="0px" y="0px"
	 width="68px" height="160px" viewBox="0 0 68 160" style="enable-background:new 0 0 68 160;" xml:space="preserve">
<style type="text/css">
	.st0{fill:#00AFF0;}
	.st1{fill:#A2B5C3;}
</style>
<path class="st0" d="M6,46.3c1.6,0,2.7-1.7,2.7-3.6S7.5,39.6,6,39.6S3.3,41,3.3,42.8C3,44.7,4.3,46.3,6,46.3z M14.4,49
	c2.3,0,3.9-2.3,3.9-4.9s-1.8-4.4-3.9-4.4s-3.9,1.8-3.9,4.4S12.3,49,14.4,49z M6.6,56.6c0,0.5,0.5,1,1,1l0,0h13.8l0,0l0,0
	c0.6,0,1-0.5,1-1v-0.7c0-2.9-1.9-5.2-4.3-5.2l0,0c-0.4,0-0.7,0-1,0.1l0,0c-0.6,0.2-1.6,0.5-2.6,0.5l0,0l0,0l0,0c-1,0-2-0.5-2.6-0.5
	l0,0c-0.4-0.1-0.6-0.1-1-0.1l0,0c-2.4,0-4.3,2.4-4.3,5.2L6.6,56.6L6.6,56.6z M33.5,44.1c-0.1,0-0.2,0-0.2,0l-2.4-1.2v-2.7l2.4-1
	c0.2-0.1,0.5,0,0.6,0.2c0.1,0,0.1,0.2,0.1,0.4v3.8c0,0.1-0.1,0.5-0.2,0.5C33.8,44.1,33.8,44.1,33.5,44.1z M29.9,43.6v-3.9l0,0l0,0
	c0-0.6-0.4-1-1-1.2c-0.1,0-1.4,0-1.4,0s-1.9,0-3.2,0c-1.6,0-1.9,0-1.9,0c-0.4,0.1-0.6,0.5-0.8,0.7v0.1c-0.2,0.7-0.4,1.7-0.4,2.5
	s0.1,1.6,0.4,2.4v0.1c0.1,0.5,0.5,0.6,0.8,0.7c0,0,0.4,0,1.9,0c1.1,0,2.3,0,3.2,0c0.8,0,1.4,0,1.4,0C29.6,44.8,29.9,44.3,29.9,43.6
	C29.9,43.7,29.9,43.7,29.9,43.6C29.9,43.7,29.9,43.6,29.9,43.6z M7.4,52.7H11l0,0l0,0c0.4,0,0.7-0.5,0.7-0.7v-0.5
	c0-0.2,0-0.5-0.1-0.7c-0.2,0-0.5-0.1-0.8-0.1l0,0C9.3,50.5,8,51.3,7.4,52.7z M5.1,52.7c1-2.4,3.1-4.1,5.4-4.2c-0.5-0.6-1.2-1-2-1
	l0,0c-0.2,0-0.5,0-0.7,0.1l0,0c-0.5,0.1-1.2,0.5-1.9,0.5l0,0c-0.7,0-1.4-0.2-1.9-0.5l0,0c-0.4-0.1-0.5-0.1-0.7-0.1l0,0
	c-1.7,0-3.2,1.6-3.2,3.7v0.5c0,0.5,0.4,0.7,0.7,0.7l0,0L5.1,52.7C5.1,52.5,5.1,52.7,5.1,52.7z"/>
<path class="st0" d="M32.5,73.4c-1-3.5-3.8-6.4-7.5-7.2c-2.6-0.3-5.1-0.6-7.8-0.6s-5.3,0.2-7.8,0.6c-3.7,0.6-6.7,3.5-7.5,7
	c-0.5,1.4-0.8,2.8-0.8,4.1l0,0c0,1.4,0.2,2.7,0.6,4c1,3.5,3.8,6.4,7.5,7.2c2.6,0.5,5.1,0.3,7.8,0.3c0,0,0,5,0,4.3
	c0,0.6,0.6,1.3,1.1,1.3c0.2,0,0.6-0.2,0.6-0.2l0,0l9.6-7.2c1.9-1.4,3.4-3.2,4-5.6c0.3-1.3,0.6-2.6,0.6-4l0,0
	C32.9,76.2,32.8,74.7,32.5,73.4z M18.1,80.8H9.6c-0.6,0-1-0.5-1-1c0-0.6,0.5-1,1-1h8.6c0.6,0,1,0.5,1,1S18.7,80.8,18.1,80.8z
	 M24.5,76.5H9.6c-0.6,0-1.1-0.5-1.1-1s0.6-1,1.1-1h15c0.6,0,1.1,0.5,1.1,1S25.1,76.5,24.5,76.5z"/>
<path class="st0" d="M19.6,143v12.6h-16V143H19.6 M20.5,140.4H2.8c-1.1,0-1.8,0.8-1.8,1.8v14.3c0,1.1,0.8,1.8,1.8,1.8h17.8
	c1.1,0,1.8-0.8,1.8-1.8V142C22.3,141.3,21.6,140.4,20.5,140.4z M31.2,129.6H13.5c-1.1,0-1.8,0.8-1.8,1.8v5.5h2.6v-4.7h16v12.6h-4.4
	v2.7h5.3c1.1,0,1.8-0.8,1.8-1.8v-14.5C33,130.4,32.2,129.6,31.2,129.6z"/>
<path class="st0" d="M29.6,102.2c0.6,0,0.9-0.6,0.9-1.1c0-0.6-0.6-1.1-0.9-1.1h-0.8l0.4-2c0-0.2,0-0.2,0-0.2c0-0.6-0.6-1.1-0.9-1.1
	c-0.4,0-0.9,0.6-0.9,0.9l-0.6,2.3H25l0.4-1.8c0-0.2,0-0.2,0-0.2c0-0.6-0.6-1.1-0.9-1.1c-0.6,0-0.9,0.6-0.9,0.9L23,100h-0.9
	c-0.6,0-0.9,0.6-0.9,1.1c0,0.6,0.6,0.9,1.1,0.9h0.8l-0.4,1.5h-1.1c-0.6,0-0.9,0.6-0.9,1.1c0,0.6,0.6,1.1,0.9,1.1h0.6l-0.4,2.3
	c0,0.2,0,0.2,0,0.2c0,0.6,0.6,1.1,0.9,1.1s0.9-0.6,0.9-0.9l0.6-2.5H26l-0.6,2.2c0,0.2,0,0.2,0,0.2c0,0.6,0.6,1.1,0.9,1.1
	c0.4,0,0.9-0.6,0.9-0.9l0.6-2.5h0.8c0.6,0,0.9-0.6,0.9-1.1c0-0.6-0.6-1.1-0.9-1.1H28l0.4-1.5L29.6,102.2L29.6,102.2z M26.3,103.6
	h-1.8l0.2-1.5h1.8L26.3,103.6z M31.9,120.5c-0.2-1.3-1.1-2.2-2.3-2.5l-5.4-1.5c-1.8-0.6-3.7,0.6-4,2.3l-0.2,0.6
	c-2.3-0.8-4.9-2.2-6.8-4c-2-2-3.3-4.4-4-6.8l0.4-0.2c1.8-0.6,2.9-2.3,2.3-4L10.7,99c-0.4-1.3-1.3-2.2-2.5-2.3c-0.9-0.2-2-0.2-2.9,0
	c-1.1,0.4-2,0.9-2.7,1.6c-0.7,0.6-1.1,1.4-1.1,2.2v0.2c0,7,2.5,13.8,7.8,19l0,0c5.3,5.3,12.2,7.8,19,7.8h0.2c0.9,0,1.6-0.4,2.3-0.9
	c0.8-0.8,1.3-1.6,1.6-2.7C32.3,122.6,32.3,121.5,31.9,120.5z"/>
<path class="st0" d="M31.8,24.6c-0.2-1.3-1.1-2.2-2.3-2.5l-5.4-1.4c-1.8-0.6-3.7,0.6-4,2.3l-0.3,0.6c-2.3-0.8-4.9-2.2-6.7-4
	c-2-2-3.3-4.3-4-6.7l0.4-0.2c1.8-0.6,2.9-2.3,2.3-4l-1.3-5.6C10.1,1.8,9.2,0.9,8,0.7c-0.9-0.2-2-0.2-2.9,0C3.9,1,3.1,1.6,2.3,2.3
	C2,3,1.6,3.7,1.6,4.6v0.2c0,6.9,2.5,13.8,7.8,18.9l0,0c5.3,5.3,12.1,7.8,18.9,7.8h0.2c0.9,0,1.6-0.4,2.3-0.9
	c0.8-0.8,1.3-1.6,1.6-2.7C32.2,26.6,32.2,25.5,31.8,24.6z"/>
<path class="st1" d="M40,46.3c1.6,0,2.7-1.7,2.7-3.6s-1.2-3.1-2.7-3.1s-2.7,1.4-2.7,3.2C37,44.7,38.3,46.3,40,46.3z M48.4,49
	c2.3,0,3.9-2.3,3.9-4.9s-1.8-4.4-3.9-4.4c-2.1,0-3.9,1.8-3.9,4.4S46.3,49,48.4,49z M40.6,56.6c0,0.5,0.5,1,1,1l0,0h13.8l0,0l0,0
	c0.6,0,1-0.5,1-1v-0.7c0-2.9-1.9-5.2-4.3-5.2l0,0c-0.4,0-0.7,0-1,0.1l0,0c-0.6,0.2-1.6,0.5-2.6,0.5l0,0l0,0l0,0c-1,0-2-0.5-2.6-0.5
	l0,0c-0.4-0.1-0.6-0.1-1-0.1l0,0c-2.4,0-4.3,2.4-4.3,5.2L40.6,56.6L40.6,56.6z M67.5,44.1c-0.1,0-0.2,0-0.2,0l-2.4-1.2v-2.7l2.4-1
	c0.2-0.1,0.5,0,0.6,0.2c0.1,0,0.1,0.2,0.1,0.4v3.8c0,0.1-0.1,0.5-0.2,0.5C67.8,44.1,67.8,44.1,67.5,44.1z M63.9,43.6v-3.9l0,0l0,0
	c0-0.6-0.4-1-1-1.2c-0.1,0-1.4,0-1.4,0s-1.9,0-3.2,0c-1.6,0-1.9,0-1.9,0c-0.4,0.1-0.6,0.5-0.8,0.7v0.1c-0.2,0.7-0.4,1.7-0.4,2.5
	s0.1,1.6,0.4,2.4v0.1c0.1,0.5,0.5,0.6,0.8,0.7c0,0,0.4,0,1.9,0c1.1,0,2.3,0,3.2,0c0.8,0,1.4,0,1.4,0C63.6,44.8,63.9,44.3,63.9,43.6
	C63.9,43.7,63.9,43.7,63.9,43.6C63.9,43.7,63.9,43.6,63.9,43.6z M41.4,52.7H45l0,0l0,0c0.4,0,0.7-0.5,0.7-0.7v-0.5
	c0-0.2,0-0.5-0.1-0.7c-0.2,0-0.5-0.1-0.8-0.1l0,0C43.3,50.5,42,51.3,41.4,52.7z M39.1,52.7c1-2.4,3.1-4.1,5.4-4.2
	c-0.5-0.6-1.2-1-2-1l0,0c-0.2,0-0.5,0-0.7,0.1l0,0c-0.5,0.1-1.2,0.5-1.9,0.5l0,0c-0.7,0-1.4-0.2-1.9-0.5l0,0
	c-0.4-0.1-0.5-0.1-0.7-0.1l0,0c-1.7,0-3.2,1.6-3.2,3.7v0.5c0,0.5,0.4,0.7,0.7,0.7l0,0L39.1,52.7C39.1,52.5,39.1,52.7,39.1,52.7z"/>
<path class="st1" d="M66.5,73.4c-1-3.5-3.8-6.4-7.5-7.2c-2.6-0.3-5.1-0.6-7.8-0.6s-5.3,0.2-7.8,0.6c-3.7,0.6-6.7,3.5-7.5,7
	c-0.5,1.4-0.8,2.8-0.8,4.1l0,0c0,1.4,0.2,2.7,0.6,4c1,3.5,3.8,6.4,7.5,7.2c2.6,0.5,5.1,0.3,7.8,0.3c0,0,0,5,0,4.3
	c0,0.6,0.6,1.3,1.1,1.3c0.2,0,0.6-0.2,0.6-0.2l0,0l9.6-7.2c1.9-1.4,3.4-3.2,4-5.6c0.3-1.3,0.6-2.6,0.6-4l0,0
	C66.9,76.2,66.8,74.7,66.5,73.4z M52.1,80.8h-8.5c-0.6,0-1-0.5-1-1c0-0.6,0.5-1,1-1h8.6c0.6,0,1,0.5,1,1S52.7,80.8,52.1,80.8z
	 M58.5,76.5H43.6c-0.6,0-1.1-0.5-1.1-1s0.6-1,1.1-1h15c0.6,0,1.1,0.5,1.1,1S59.1,76.5,58.5,76.5z"/>
<path class="st1" d="M53.6,143v12.6h-16V143H53.6 M54.5,140.4H36.8c-1.1,0-1.8,0.8-1.8,1.8v14.3c0,1.1,0.8,1.8,1.8,1.8h17.8
	c1.1,0,1.8-0.8,1.8-1.8V142C56.3,141.3,55.6,140.4,54.5,140.4z M65.2,129.6H47.5c-1.1,0-1.8,0.8-1.8,1.8v5.5h2.6v-4.7h16v12.6h-4.4
	v2.7h5.3c1.1,0,1.8-0.8,1.8-1.8v-14.5C67,130.4,66.2,129.6,65.2,129.6z"/>
<path class="st1" d="M63.6,102.2c0.6,0,0.9-0.6,0.9-1.1c0-0.6-0.6-1.1-0.9-1.1h-0.8l0.4-2c0-0.2,0-0.2,0-0.2c0-0.6-0.6-1.1-0.9-1.1
	c-0.4,0-0.9,0.6-0.9,0.9l-0.6,2.3H59l0.4-1.8c0-0.2,0-0.2,0-0.2c0-0.6-0.6-1.1-0.9-1.1c-0.6,0-0.9,0.6-0.9,0.9L57,100h-0.9
	c-0.6,0-0.9,0.6-0.9,1.1c0,0.6,0.6,0.9,1.1,0.9h0.8l-0.4,1.5h-1.1c-0.6,0-0.9,0.6-0.9,1.1c0,0.6,0.6,1.1,0.9,1.1h0.6l-0.4,2.3
	c0,0.2,0,0.2,0,0.2c0,0.6,0.6,1.1,0.9,1.1c0.3,0,0.9-0.6,0.9-0.9l0.6-2.5H60l-0.6,2.2c0,0.2,0,0.2,0,0.2c0,0.6,0.6,1.1,0.9,1.1
	c0.4,0,0.9-0.6,0.9-0.9l0.6-2.5h0.8c0.6,0,0.9-0.6,0.9-1.1c0-0.6-0.6-1.1-0.9-1.1H62l0.4-1.5L63.6,102.2L63.6,102.2z M60.3,103.6
	h-1.8l0.2-1.5h1.8L60.3,103.6z M65.9,120.5c-0.2-1.3-1.1-2.2-2.3-2.5l-5.4-1.5c-1.8-0.6-3.7,0.6-4,2.3l-0.2,0.6
	c-2.3-0.8-4.9-2.2-6.8-4c-2-2-3.3-4.4-4-6.8l0.4-0.2c1.8-0.6,2.9-2.3,2.3-4L44.7,99c-0.4-1.3-1.3-2.2-2.5-2.3c-0.9-0.2-2-0.2-2.9,0
	c-1.1,0.4-2,0.9-2.7,1.6c-0.7,0.6-1.1,1.4-1.1,2.2v0.2c0,7,2.5,13.8,7.8,19l0,0c5.3,5.3,12.2,7.8,19,7.8h0.2c0.9,0,1.6-0.4,2.3-0.9
	c0.8-0.8,1.3-1.6,1.6-2.7C66.3,122.6,66.3,121.5,65.9,120.5z"/>
<path class="st1" d="M65.8,24.6c-0.2-1.3-1.1-2.2-2.3-2.5l-5.4-1.4c-1.8-0.6-3.7,0.6-4,2.3l-0.3,0.6c-2.3-0.8-4.9-2.2-6.7-4
	c-2-2-3.3-4.3-4-6.7l0.4-0.2c1.8-0.6,2.9-2.3,2.3-4l-1.3-5.6c-0.4-1.3-1.3-2.2-2.5-2.4c-0.9-0.2-2-0.2-2.9,0c-1.2,0.3-2,0.9-2.8,1.6
	C36,3,35.6,3.7,35.6,4.6v0.2c0,6.9,2.5,13.8,7.8,18.9l0,0c5.3,5.3,12.1,7.8,18.9,7.8h0.2c0.9,0,1.6-0.4,2.3-0.9
	c0.8-0.8,1.3-1.6,1.6-2.7C66.2,26.6,66.2,25.5,65.8,24.6z"/>
</svg>
