<?xml version="1.0" encoding="utf-8"?>
<!-- Generator: Adobe Illustrator 19.2.0, SVG Export Plug-In . SVG Version: 6.00 Build 0)  -->
<svg version="1.1" id="Layer_1" xmlns="http://www.w3.org/2000/svg" xmlns:xlink="http://www.w3.org/1999/xlink" x="0px" y="0px"
	 width="50px" height="3380px" viewBox="97.6 258.4 50 3380" enable-background="new 97.6 258.4 50 3380" xml:space="preserve">
<g id="XMLID_68_">
	<path id="XMLID_67_" fill="#00AEEF" d="M137.4,1206.5c0,0-4.2,8-14.3,8c-0.2,0-0.3,0-0.5,0s-0.3,0-0.5,0c-10,0-14.3-8-14.3-8
		s-0.3-0.5-0.3-1.1c0-0.4,0.2-1,0.7-1.4c0.3-0.2,0.5-0.3,0.8-0.3c1.2-0.1,1.9,0.6,2.5,1.5c0.6,1,4.3,5.3,10.9,5.5
		c6.7-0.2,10.3-4.5,10.9-5.5c0.5-0.9,1.3-1.7,2.5-1.5c0.3,0,0.5,0.1,0.8,0.3c0.5,0.4,0.7,0.8,0.7,1.4
		C137.5,1206.2,137.4,1206.5,137.4,1206.5"/>
	<path id="XMLID_137_" fill="#00AEEF" d="M130.5,1193.8v-3.2h-3.2v-3.2h-3.2v3.2h-3v-3.2H118v3.2h-3.2v3.2h3.2v3h-3.2v3.2h3.2v3.2
		h3.2v-3.2h3v3.2h3.2v-3.2h3.2v-3.2h-3.2v-3H130.5z M124.2,1196.7h-3v-3h3V1196.7z"/>
</g>
<g>
	<path fill="#00AFF0" d="M122.6,1705.8c-8.4,0-15.1,6.8-15.1,15.1c0,8.4,6.8,15.1,15.1,15.1c8.4,0,15.1-6.8,15.1-15.1
		C137.8,1712.6,131,1705.8,122.6,1705.8z M122.6,1733.6c-7,0-12.6-5.6-12.6-12.6c0-7,5.6-12.6,12.6-12.6c7,0,12.6,5.6,12.6,12.6
		C135.2,1727.9,129.6,1733.6,122.6,1733.6z"/>
	<circle fill="#00AFF0" cx="122.6" cy="1720.8" r="3.4"/>
	<circle fill="#00AFF0" cx="115.5" cy="1720.8" r="2.1"/>
	<circle fill="#00AFF0" cx="129.8" cy="1720.8" r="2.1"/>
</g>
<g>
	<path fill="#00AFF0" d="M134.8,1840.8h-24.2c-4.4,0-8.1,3.6-8.1,8.1s3.6,8.1,8.1,8.1h14.6l0.2-5.6l5.3,5.6h3.9
		c4.4,0,8.1-3.6,8.1-8.1C142.9,1844.4,139.2,1840.8,134.8,1840.8z M119.4,1852.8c-0.1,0.3-0.2,0.6-0.5,0.8c-0.2,0.2-0.4,0.3-0.7,0.3
		c-2.1,0-4.1-0.8-5.7-2.3c-1.6-1.6-2.3-3.6-2.3-5.7c0-0.3,0-0.5,0.2-0.7c0.2-0.2,0.5-0.4,0.8-0.5c0.3-0.1,0.6-0.1,0.9,0
		c0.4,0.1,0.6,0.3,0.7,0.7l0.4,1.6c0.1,0.5-0.2,1.1-0.7,1.2h-0.1c0.2,0.7,0.6,1.4,1.2,2s1.3,1,2,1.2v-0.1c0.1-0.5,0.7-0.8,1.2-0.7
		l1.6,0.4c0.4,0.1,0.6,0.4,0.7,0.8C119.5,1852.2,119.5,1852.5,119.4,1852.8z"/>
	<polygon fill="#00AFF0" points="126.3,1853.8 125.8,1865.6 128.8,1863.2 130.5,1867 133,1867 131.1,1862.3 134.3,1862.1 	"/>
</g>
<path fill="#00B0F2" d="M133.2,1905.3c-2.7-2.7-6.5-4.4-10.6-4.4c-4.1,0-7.9,1.7-10.6,4.4c-2.7,2.7-4.4,6.5-4.4,10.6
	c0,4.1,1.7,7.9,4.4,10.6c2.7,2.7,6.5,4.4,10.6,4.4c4.1,0,7.9-1.7,10.6-4.4c2.7-2.7,4.4-6.5,4.4-10.6
	C137.6,1911.8,136,1908,133.2,1905.3z M134.6,1911.1h-4c-0.7-3.1-2.1-5.8-3.8-7.4c1.9,0.6,3.6,1.7,5,3.1
	C132.9,1908.1,133.9,1909.5,134.6,1911.1z M135.5,1915.9c0,0.9-0.1,1.8-0.3,2.7h-4.3c0.1-0.9,0.2-1.8,0.2-2.7c0-0.9-0.1-1.8-0.2-2.7
	h4.3C135.4,1914.1,135.5,1915,135.5,1915.9z M109.8,1915.9c0-0.9,0.1-1.8,0.3-2.7h4.3c-0.1,0.9-0.2,1.8-0.2,2.7
	c0,0.9,0.1,1.8,0.2,2.7h-4.3C109.9,1917.8,109.8,1916.9,109.8,1915.9z M116.4,1915.9c0-0.9,0.1-1.8,0.2-2.7h5v5.4h-5
	C116.4,1917.8,116.4,1916.9,116.4,1915.9z M123.7,1904.3c1.4,0.5,2.5,1.9,3,2.9c0.7,1.1,1.2,2.4,1.6,3.9h-4.6V1904.3z M121.6,1904.3
	v6.8H117c0.4-1.5,0.9-2.8,1.6-3.9C119.1,1906.3,120.1,1904.9,121.6,1904.3z M121.6,1920.8v6.8c-1.4-0.5-2.5-1.9-3-2.9
	c-0.7-1.1-1.2-2.4-1.6-3.9H121.6z M123.7,1927.5v-6.8h4.6c-0.4,1.5-0.9,2.8-1.6,3.9C126.2,1925.6,125.1,1927,123.7,1927.5z
	 M123.7,1918.6v-5.4h5c0.1,0.9,0.2,1.8,0.2,2.7s-0.1,1.8-0.2,2.7H123.7z M113.5,1906.9c1.4-1.4,3.1-2.5,5-3.1
	c-1.8,1.6-3.1,4.2-3.8,7.4h-4C111.4,1909.5,112.3,1908.1,113.5,1906.9z M110.7,1920.8h4c0.7,3.1,2.1,5.8,3.8,7.4
	c-1.9-0.6-3.6-1.7-5-3.1C112.3,1923.8,111.4,1922.4,110.7,1920.8z M131.7,1925c-1.4,1.4-3.1,2.5-5,3.1c1.8-1.6,3.1-4.2,3.8-7.4h4
	C133.9,1922.4,132.9,1923.8,131.7,1925z"/>
<g>
	<circle fill="#00AFF0" cx="122.6" cy="1980.9" r="12.5"/>
	<g>
		<g>
			<path fill="#FFFFFF" d="M129.1,1983.9c0,0.5-0.1,1-0.3,1.5c-0.2,0.5-0.5,0.8-0.8,1.2c-0.3,0.3-0.7,0.6-1.2,0.8
				c-0.5,0.2-0.9,0.3-1.5,0.3c-0.3,0-0.6,0-0.9-0.1c-0.3-0.1-0.6-0.2-0.9-0.3c-0.2,0-0.4,0.1-0.6,0.1c-0.2,0-0.4,0-0.6,0
				c-0.6,0-1.1-0.1-1.7-0.2c-0.5-0.1-1-0.4-1.5-0.6c-0.5-0.3-0.9-0.6-1.3-1c-0.4-0.4-0.7-0.8-1-1.3c-0.3-0.5-0.5-1-0.6-1.5
				c-0.2-0.5-0.2-1.1-0.2-1.7c0-0.2,0-0.4,0-0.6c0-0.2,0-0.4,0.1-0.6c-0.2-0.3-0.3-0.6-0.3-0.9c-0.1-0.3-0.1-0.6-0.1-0.9
				c0-0.5,0.1-1,0.3-1.5c0.2-0.5,0.5-0.9,0.8-1.2c0.3-0.3,0.7-0.6,1.2-0.8c0.5-0.2,0.9-0.3,1.5-0.3c0.3,0,0.6,0,0.9,0.1
				c0.3,0.1,0.6,0.2,0.9,0.3c0.2,0,0.4-0.1,0.6-0.1c0.2,0,0.4,0,0.6,0c0.6,0,1.1,0.1,1.7,0.2c0.5,0.2,1,0.4,1.5,0.6
				c0.5,0.3,0.9,0.6,1.3,1c0.4,0.4,0.7,0.8,1,1.3c0.3,0.5,0.5,1,0.6,1.5c0.2,0.5,0.2,1.1,0.2,1.7c0,0.2,0,0.4,0,0.6
				c0,0.2,0,0.4-0.1,0.6c0.2,0.3,0.3,0.6,0.3,0.9C129.1,1983.2,129.1,1983.5,129.1,1983.9z M125.7,1982.5c0-0.3-0.1-0.6-0.2-0.9
				s-0.2-0.5-0.4-0.6c-0.2-0.2-0.4-0.3-0.6-0.4c-0.2-0.1-0.5-0.2-0.8-0.3c-0.2-0.1-0.5-0.1-0.7-0.2c-0.2-0.1-0.5-0.1-0.7-0.2
				c-0.1,0-0.2-0.1-0.4-0.1c-0.1,0-0.3-0.1-0.4-0.1c-0.1-0.1-0.2-0.1-0.3-0.2c-0.1-0.1-0.1-0.2-0.1-0.4c0-0.2,0-0.3,0.1-0.4
				c0.1-0.1,0.2-0.2,0.3-0.3c0.1-0.1,0.3-0.1,0.4-0.2c0.1,0,0.3,0,0.4,0c0.3,0,0.5,0,0.7,0.1c0.2,0.1,0.3,0.1,0.5,0.2
				c0.1,0.1,0.2,0.2,0.3,0.3c0.1,0.1,0.2,0.2,0.3,0.3c0.1,0.1,0.2,0.2,0.3,0.2s0.2,0.1,0.3,0.1c0.1,0,0.2,0,0.3,0
				c0.1,0,0.2-0.1,0.3-0.1c0.1-0.1,0.1-0.1,0.2-0.2c0-0.1,0.1-0.2,0.1-0.3c0-0.2-0.1-0.4-0.2-0.6c-0.1-0.2-0.2-0.3-0.4-0.5
				c-0.2-0.1-0.4-0.2-0.6-0.3c-0.2-0.1-0.4-0.2-0.7-0.2s-0.4-0.1-0.7-0.1s-0.4,0-0.6,0c-0.4,0-0.7,0-1.1,0.1c-0.4,0.1-0.7,0.2-1,0.4
				c-0.3,0.2-0.5,0.4-0.7,0.7c-0.2,0.3-0.3,0.7-0.3,1.1c0,0.3,0,0.6,0.1,0.8c0.1,0.2,0.2,0.4,0.4,0.6c0.2,0.2,0.4,0.3,0.6,0.4
				c0.2,0.1,0.5,0.2,0.8,0.3c0.3,0.1,0.7,0.2,1,0.3c0.3,0.1,0.7,0.2,1,0.3c0.1,0,0.2,0.1,0.3,0.1c0.1,0,0.2,0.1,0.2,0.2
				s0.1,0.1,0.2,0.2c0,0.1,0.1,0.2,0.1,0.3c0,0.2,0,0.3-0.1,0.5c-0.1,0.1-0.2,0.2-0.4,0.3c-0.1,0.1-0.3,0.1-0.5,0.2
				c-0.2,0-0.3,0.1-0.5,0.1c-0.3,0-0.5,0-0.7-0.1c-0.2-0.1-0.4-0.2-0.5-0.3c-0.1-0.1-0.2-0.2-0.3-0.3c-0.1-0.1-0.2-0.2-0.3-0.3
				c-0.1-0.1-0.2-0.2-0.3-0.3c-0.1-0.1-0.2-0.1-0.4-0.1c-0.2,0-0.4,0.1-0.5,0.2c-0.1,0.1-0.2,0.3-0.2,0.5c0,0.1,0,0.3,0.1,0.4
				c0,0.1,0.1,0.2,0.2,0.4c0.2,0.2,0.4,0.4,0.6,0.6c0.2,0.1,0.5,0.3,0.8,0.4c0.3,0.1,0.5,0.2,0.8,0.2c0.3,0,0.6,0.1,0.8,0.1
				c0.4,0,0.8,0,1.2-0.1c0.4-0.1,0.7-0.2,1-0.4c0.3-0.2,0.5-0.4,0.7-0.7C125.6,1983.3,125.7,1982.9,125.7,1982.5z"/>
		</g>
	</g>
</g>
<g>
	<path fill="#00AFF0" d="M135.1,280.1c0,0,0-0.1,0-0.1c0-0.7-0.5-1.3-1.2-1.5c0,0,0,0,0,0c-0.1,0-0.1,0-0.2,0c0,0,0,0,0,0
		c0,0-0.1,0-0.1,0l-7,0c-0.8,0-1.5,0.7-1.5,1.5c0,0.8,0.7,1.5,1.5,1.5l3.3,0l-7.2,7.2c-0.6,0.6-0.6,1.6,0,2.2c0.6,0.6,1.6,0.6,2.2,0
		l7.2-7.2l0,3.3c0,0.8,0.7,1.5,1.5,1.5s1.5-0.7,1.5-1.5h0L135.1,280.1z"/>
	<path fill="#00AFF0" d="M132.3,296.3l-4.3-1.1c-1.4-0.4-2.8,0.5-3.2,1.8l-0.1,0.3c-1.9-0.6-3.7-1.7-5.3-3.2
		c-1.5-1.5-2.6-3.3-3.2-5.3l0.3-0.1c1.4-0.4,2.2-1.8,1.8-3.2l-1.1-4.3c-0.3-1-1-1.7-2-1.9c-0.8-0.2-1.6-0.2-2.4,0
		c-0.8,0.2-1.6,0.6-2.1,1.2c-0.5,0.5-0.7,1.1-0.7,1.8l0,0.1c0,5.4,2,10.7,6.1,14.8l0,0c4.1,4.1,9.5,6.1,14.8,6.1l0.1,0
		c0.7,0,1.3-0.3,1.8-0.7c0.6-0.6,1-1.3,1.2-2.1c0.2-0.8,0.2-1.6,0-2.4C133.9,297.3,133.2,296.5,132.3,296.3z"/>
</g>
<g>
	<path fill="#00AFF0" d="M140.1,418.2c-0.1-0.4-0.4-0.7-0.8-0.8l-1.8-0.5c-0.6-0.2-1.2,0.2-1.4,0.8l0,0.1c-0.8-0.3-1.6-0.7-2.3-1.4
		c-0.7-0.7-1.1-1.4-1.4-2.3l0.1,0c0.6-0.2,1-0.8,0.8-1.4l-0.5-1.8c-0.1-0.4-0.4-0.7-0.8-0.8c-0.3-0.1-0.7-0.1-1,0
		c-0.4,0.1-0.7,0.3-0.9,0.5c-0.2,0.2-0.3,0.5-0.3,0.8l0,0c0,2.3,0.9,4.6,2.6,6.4l0,0c1.8,1.8,4.1,2.6,6.4,2.6l0,0
		c0.3,0,0.6-0.1,0.8-0.3c0.2-0.2,0.4-0.6,0.5-0.9C140.2,418.9,140.2,418.5,140.1,418.2z"/>
	<path fill="#00AFF0" d="M111.3,420.2c1.7,0,3-1.7,3-3.7s-1.4-3.4-3-3.4c-1.7,0-3,1.5-3,3.4S109.6,420.2,111.3,420.2z"/>
	<path fill="#00AFF0" d="M120.5,422.9c2.3,0,4.2-2.4,4.2-5.1c0-2.7-1.9-4.7-4.2-4.7s-4.2,2-4.2,4.7
		C116.3,420.5,118.2,422.9,120.5,422.9z"/>
	<path fill="#00AFF0" d="M124.4,424.6c-0.4,0-0.7,0.1-1.1,0.1l0,0c-0.7,0.2-1.8,0.5-2.8,0.5h0v0l0,0l0,0v0h0c-1.1,0-2.1-0.3-2.8-0.5
		l0,0c-0.3-0.1-0.7-0.1-1.1-0.1c-2.5,0-4.6,2.4-4.6,5.4v0.7c0,0.6,0.5,1.1,1.1,1.1l0,0h14.9l0,0c0.6,0,1.1-0.5,1.1-1.1V430
		C129,427,126.9,424.6,124.4,424.6z"/>
	<path fill="#00AFF0" d="M116.4,422.5c-0.6-0.6-1.4-1-2.2-1c-0.3,0-0.5,0-0.8,0.1l0,0c-0.5,0.1-1.3,0.4-2.1,0.4h0v0l0,0l0,0v0h0
		c-0.8,0-1.6-0.3-2.1-0.4l0,0c-0.2-0.1-0.5-0.1-0.8-0.1c-1.8,0-3.3,1.8-3.3,3.9v0.5c0,0.4,0.3,0.8,0.8,0.8l0,0h4.6
		C111.6,424.3,113.8,422.6,116.4,422.5z"/>
</g>
<g>
	<path fill="#00AFF0" d="M126.4,481h0.6l-0.3,1.9c0,0,0,0.1,0,0.1c0,0.5,0.4,0.9,0.8,0.9c0.4,0,0.8-0.3,0.8-0.7l0.4-2.1h1.4
		l-0.3,1.9c0,0,0,0.1,0,0.1c0,0.5,0.4,0.9,0.8,0.9c0.4,0,0.8-0.3,0.8-0.7l0.4-2.1h0.8c0.5,0,0.8-0.4,0.8-0.9c0-0.5-0.4-0.9-0.8-0.9
		h-0.5l0.2-1.1h0.8c0.5,0,0.8-0.4,0.8-0.9c0-0.5-0.4-0.9-0.8-0.9h-0.6l0.3-1.6c0,0,0-0.1,0-0.1c0-0.5-0.4-0.9-0.8-0.9
		c-0.4,0-0.8,0.3-0.8,0.7l-0.3,1.8h-1.4l0.3-1.6c0,0,0-0.1,0-0.1c0-0.5-0.4-0.9-0.8-0.9c-0.4,0-0.8,0.3-0.8,0.7l-0.3,1.8H127
		c-0.5,0-0.8,0.4-0.8,0.9c0,0.5,0.4,0.9,0.8,0.9h0.5l-0.2,1.1h-0.9c-0.5,0-0.8,0.4-0.8,0.9C125.6,480.7,126,481,126.4,481z
		 M129.2,478.2h1.4l-0.2,1.1H129L129.2,478.2z"/>
	<path fill="#00AFF0" d="M135,493.1c-0.2-1-0.9-1.8-1.9-2l-4.4-1.2c-1.4-0.4-2.9,0.5-3.3,1.9l-0.1,0.3c-2-0.6-3.9-1.7-5.5-3.3
		c-1.6-1.6-2.7-3.5-3.3-5.5l0.3-0.1c1.4-0.4,2.3-1.9,1.9-3.3l-1.2-4.4c-0.3-1-1.1-1.7-2-1.9c-0.8-0.2-1.6-0.2-2.4,0
		c-0.9,0.2-1.6,0.7-2.2,1.3c-0.5,0.5-0.7,1.2-0.7,1.9l0,0.1c0,5.5,2.1,11.1,6.3,15.3l0,0c4.2,4.2,9.8,6.3,15.3,6.3l0.1,0
		c0.7,0,1.4-0.3,1.8-0.7c0.6-0.6,1-1.3,1.3-2.2C135.2,494.7,135.2,493.8,135,493.1z"/>
</g>
<g>
	<path fill="#00AFF0" d="M134.6,551.5c0,0,0-0.1,0-0.1c0,0,0,0,0-0.1c0,0,0-0.1,0-0.1c0,0,0-0.1,0-0.1c0,0,0-0.1,0-0.1
		c0-0.1,0-0.1,0-0.2c0,0,0,0,0-0.1c0-0.1,0-0.1,0-0.2c0,0,0,0,0,0c-0.1-0.3-0.2-0.6-0.4-0.8c0,0,0,0-0.1-0.1l-4.7-4.8
		c-0.6-0.6-1.5-0.6-2.1,0c-0.6,0.6-0.6,1.5,0,2.1l0,0l2.3,2.3l-10,0c-0.8,0-1.5,0.7-1.5,1.5c0,0.8,0.7,1.5,1.5,1.5l10,0l-2.3,2.3
		c-0.6,0.6-0.6,1.5,0,2.1c0.6,0.6,1.5,0.6,2.1,0l4.7-4.8c0.1-0.1,0.3-0.3,0.3-0.4C134.5,551.6,134.5,551.6,134.6,551.5
		C134.6,551.6,134.6,551.6,134.6,551.5z"/>
	<path fill="#00AFF0" d="M120.1,557.5c-0.7-1.2-2.2-1.6-3.4-0.9l-0.3,0.2c-0.9-1.7-1.4-3.7-1.4-5.8c0-2.1,0.5-4,1.4-5.8l0.3,0.2
		c1.2,0.7,2.7,0.3,3.4-0.9l2.1-3.7c0.5-0.8,0.4-1.8-0.1-2.6c-0.4-0.6-0.9-1.2-1.6-1.6c-0.7-0.4-1.5-0.6-2.3-0.6
		c-0.6,0-1.2,0.3-1.7,0.7l0,0c-3.7,3.6-5.9,8.7-5.9,14.2l0,0c0,5.6,2.3,10.6,5.9,14.2l0,0c0.5,0.5,1.1,0.7,1.7,0.7
		c0.8,0,1.6-0.2,2.3-0.6c0.7-0.4,1.2-0.9,1.6-1.6c0.5-0.8,0.5-1.8,0.1-2.6L120.1,557.5z"/>
</g>
<g>
	<path fill="#00AFF0" d="M128.8,613.2h0.9h1.2c2.3,0,4.2-1.9,4.2-4.2c0-2.3-1.9-4.2-4.2-4.2h-2.1c-0.5,0-0.9,0.4-0.9,0.9v6.6
		C127.9,612.8,128.3,613.2,128.8,613.2z M129.7,606.6h1.2c1.3,0,2.4,1.1,2.4,2.4c0,1.3-1.1,2.4-2.4,2.4h-1.2V606.6z"/>
	<path fill="#00AFF0" d="M125.1,613.2c0.5,0,0.9-0.4,0.9-0.9v-6.6c0-0.5-0.4-0.9-0.9-0.9c-0.5,0-0.9,0.4-0.9,0.9v6.6
		C124.2,612.8,124.6,613.2,125.1,613.2z"/>
	<path fill="#00AFF0" d="M133.1,621l-4.4-1.2c-1.4-0.4-2.9,0.5-3.3,1.9l-0.1,0.3c-2-0.6-3.9-1.7-5.5-3.3c-1.6-1.6-2.7-3.5-3.3-5.5
		l0.3-0.1c1.4-0.4,2.3-1.9,1.9-3.3l-1.2-4.4c-0.3-1-1.1-1.7-2-1.9c-0.8-0.2-1.6-0.2-2.4,0c-0.9,0.2-1.6,0.7-2.2,1.3
		c-0.5,0.5-0.7,1.2-0.7,1.9l0,0.1c0,5.5,2.1,11.1,6.3,15.3l0,0c4.2,4.2,9.8,6.3,15.3,6.3l0.1,0c0.7,0,1.4-0.3,1.8-0.7
		c0.6-0.6,1-1.3,1.3-2.2c0.2-0.8,0.2-1.7,0-2.4C134.8,622.1,134.1,621.3,133.1,621z"/>
</g>
<g>
	<circle fill-rule="evenodd" clip-rule="evenodd" fill="#00AFF0" cx="129.4" cy="1135.7" r="2.1"/>
	<circle fill-rule="evenodd" clip-rule="evenodd" fill="#00AFF0" cx="115.8" cy="1135.7" r="2.1"/>
	<path fill-rule="evenodd" clip-rule="evenodd" fill="#00AFF0" d="M135.7,1127.3c-4.1-1.2-8.5-1.9-13-1.9h0c-4.5,0-8.9,0.6-13,1.7
		c-1.1,0.3-2,1.3-2,2.5v14.5c0,1.2,1,2.3,2.1,2.3c4,0,21.6,0,25.8,0c1.1,0,2.1-0.9,2.1-2.1v-14.5
		C137.6,1128.6,136.8,1127.6,135.7,1127.3z M130.6,1140.5C130.6,1140.5,130.6,1140.5,130.6,1140.5c-0.2,0.1-3.6,1.1-8.3,1.2
		c-2.3,0-5-0.3-7.6-1.1l0,0c0,0,0,0-0.1,0c-2.1-0.5-3.7-2.5-3.7-4.8c0-2.7,2.2-4.9,4.9-4.9c2.7,0,4.9,2.2,4.9,4.9c0,1.1-0.4,2.1-1,3
		c0.9,0.1,1.8,0.1,2.6,0.1c1.1,0,2.2-0.1,3.1-0.2c-0.6-0.8-1-1.8-1-2.9c0-2.7,2.2-4.9,4.9-4.9c2.7,0,4.9,2.2,4.9,4.9
		C134.4,1138,132.8,1139.9,130.6,1140.5z"/>
</g>
<g>
	<path fill="#00AFF0" d="M137.6,936.5c0-0.2,0-0.4-0.2-0.6c-0.3-0.6-1-0.8-1.5-0.5l-5.8,2.4v6.1l5.8,2.4l0,0c0.3,0.2,0.8,0.2,1.1,0
		c0.4-0.2,0.6-0.6,0.6-1l0,0L137.6,936.5L137.6,936.5z"/>
	<g>
		<circle fill="#00AFF0" cx="122.3" cy="940.8" r="1.4"/>
		<path fill="#00AFF0" d="M128.3,945.5v-9.2c0,0,0-0.1,0-0.1s0-0.1,0-0.1c-0.1-1.3-1-2.3-2.2-2.6c-0.6,0-1.6,0-3.4,0
			c-3.5,0-7.3,0-7.5,0c-3.8,0-4.5,0.1-4.6,0.1c-0.9,0.2-1.5,0.8-1.9,1.6c0,0.1-0.1,0.1-0.1,0.2c-0.6,1.7-0.9,3.6-0.9,5.5
			c0,1.9,0.3,3.8,0.9,5.4c0,0.1,0.1,0.2,0.1,0.3c0.4,0.8,1.1,1.4,2,1.6c0,0,0.8,0.1,4.5,0.1c2.6,0,5.1,0,7.5,0c2.1,0,3.1,0,3.4-0.1
			c1.2-0.1,2.1-1.3,2.2-2.6c0-0.1,0-0.1,0-0.2C128.3,945.6,128.3,945.6,128.3,945.5z M123.1,943.9
			C123.1,943.9,123.1,943.9,123.1,943.9c-0.1,0-2.3,0.7-5.3,0.7c-1.5,0-3.2-0.2-4.9-0.7h0h0l0,0c0,0,0,0,0,0
			c-1.4-0.3-2.4-1.6-2.4-3.1c0-1.7,1.4-3.2,3.2-3.2c1.7,0,3.2,1.4,3.2,3.2c0,0.7-0.2,1.4-0.6,1.9c0.6,0.1,1.1,0.1,1.7,0.1
			c0.7,0,1.4,0,2-0.1c-0.4-0.5-0.6-1.2-0.6-1.9c0-1.7,1.4-3.2,3.2-3.2c1.7,0,3.2,1.4,3.2,3.2C125.5,942.3,124.5,943.5,123.1,943.9z"
			/>
		<circle fill="#00AFF0" cx="113.6" cy="940.8" r="1.4"/>
	</g>
</g>
<path fill="#00AFF0" d="M137.2,999.6c-0.8-3.4-3.6-6.1-7.1-6.8c-2.4-0.4-4.9-0.6-7.4-0.6c-2.5,0-5,0.2-7.4,0.6
	c-3.5,0.6-6.3,3.3-7.1,6.8c-0.3,1.2-0.5,2.5-0.5,3.8v0c0,1.3,0.2,2.6,0.5,3.8c0.8,3.4,3.6,6.1,7.1,6.8c2.4,0.4,4.8,0.3,7.4,0.3
	c0,0,0,4.7,0,4.1c0,0.6,0.5,1.2,1.1,1.2c0.3,0,0.5-0.1,0.7-0.2l0,0l9-6.8c1.9-1.2,3.2-3.2,3.7-5.4c0.3-1.2,0.5-2.5,0.5-3.8v0
	C137.6,1002.1,137.5,1000.8,137.2,999.6z M123.7,1006.5h-8.1c-0.6,0-1-0.5-1-1c0-0.6,0.5-1,1-1h8.1c0.6,0,1,0.5,1,1
	C124.7,1006,124.2,1006.5,123.7,1006.5z M129.7,1002.4h-14.1c-0.6,0-1.1-0.5-1.1-1c0-0.6,0.5-1,1.1-1h14.1c0.6,0,1.1,0.5,1.1,1
	C130.8,1001.9,130.3,1002.4,129.7,1002.4z"/>
<g>
	<g>
		<path fill="#00AFF0" d="M122.3,1071.9v5.4h-10.8v-17.4h8.5c0.6-1.4,1.4-2.8,2.5-3.8h-12.5c-1.1,0-2.3,1.2-2.3,2.3v25.4
			c0,1.1,1.2,2.3,2.3,2.3h13.8c1.1,0,2.3-1.2,2.3-2.3v-9C124.6,1074,123.3,1073,122.3,1071.9z M119.4,1081.6c0,0.6-0.5,1-1,1h-3.1
			c-0.6,0-1-0.5-1-1v0c0-0.6,0.5-1,1-1h3.1C119,1080.6,119.4,1081,119.4,1081.6L119.4,1081.6z"/>
	</g>
	<g>
		<path fill="#00AFF0" d="M137.4,1061.7c-0.4-1.6-1.7-2.8-3.3-3.1c-1.1-0.2-2.2-0.3-3.4-0.3c-1.2,0-2.3,0.1-3.4,0.3
			c-1.6,0.3-2.9,1.5-3.3,3.1c-0.1,0.6-0.2,1.1-0.2,1.8v0c0,0.6,0.1,1.2,0.2,1.8c0.4,1.6,1.7,2.8,3.3,3.1c1.1,0.2,2.2,0.2,3.4,0.2
			v1.9c0,0.3,0.2,0.5,0.5,0.5c0.1,0,0.2,0,0.3-0.1l0,0l4.1-3.2c0.9-0.6,1.5-1.5,1.7-2.5c0.1-0.6,0.2-1.1,0.2-1.8v0
			C137.6,1062.8,137.6,1062.2,137.4,1061.7z"/>
	</g>
</g>
<g>
	<path fill="#00AFF0" d="M111.1,874.4c1.6,0,2.9-1.6,2.9-3.5s-1.3-3.3-2.9-3.3s-2.9,1.4-2.9,3.3S109.5,874.4,111.1,874.4z"/>
	<path fill="#00AFF0" d="M119.9,877c2.2,0,4-2.3,4-4.9c0-2.6-1.8-4.5-4-4.5s-4,1.9-4,4.5C115.9,874.7,117.7,877,119.9,877z"/>
	<path fill="#00AFF0" d="M123.7,878.7c-0.4,0-0.7,0.1-1,0.1l0,0c-0.7,0.2-1.7,0.5-2.7,0.5h0v0l0,0l0,0v0h0c-1,0-2.1-0.3-2.7-0.5l0,0
		c-0.3-0.1-0.7-0.1-1-0.1c-2.5,0-4.4,2.3-4.4,5.2v0.7c0,0.6,0.5,1,1,1l0,0h14.4l0,0c0.6,0,1-0.5,1-1v-0.7
		C128.1,881,126.1,878.7,123.7,878.7z"/>
	<path fill="#00AFF0" d="M140.1,867.4c-0.1-0.2-0.4-0.3-0.7-0.2l-2.6,1.1v2.7l2.6,1.1c0.1,0,0.2,0.1,0.3,0.1c0.1,0,0.1,0,0.2-0.1
		c0.2-0.1,0.3-0.3,0.3-0.5l0-3.9C140.1,867.5,140.1,867.4,140.1,867.4z"/>
	<path fill="#00AFF0" d="M136,867.5L136,867.5v-0.1c0-0.6-0.4-1-1-1.1c-0.2,0-1.5,0-1.5,0s-2,0-3.3,0c-1.7,0-2,0-2,0.1
		c-0.4,0.1-0.7,0.4-0.8,0.7c0,0,0,0.1,0,0.1c-0.3,0.7-0.4,1.6-0.4,2.4c0,0.8,0.1,1.7,0.4,2.4c0,0.1,0,0.1,0.1,0.2
		c0.2,0.4,0.5,0.6,0.9,0.7c0.1,0,0.3,0.1,2,0.1c1.1,0,2.3,0,3.3,0c0.9,0,1.3,0,1.5,0c0.5-0.1,0.9-0.6,1-1.1c0,0,0,0,0-0.1s0,0,0-0.1
		V867.5z"/>
	<path fill="#00AFF0" d="M116,876.7c-0.6-0.6-1.3-0.9-2.1-0.9c-0.3,0-0.5,0-0.7,0.1l0,0c-0.5,0.1-1.2,0.4-2,0.4h0v0l0,0l0,0v0h0
		c-0.8,0-1.5-0.2-2-0.4l0,0c-0.2-0.1-0.5-0.1-0.7-0.1c-1.8,0-3.2,1.7-3.2,3.8v0.5c0,0.4,0.3,0.7,0.7,0.7l0,0h4.5
		C111.4,878.4,113.5,876.7,116,876.7z"/>
</g>
<g>
	<path fill="#00AFF0" d="M137.6,806.5c0-0.2,0-0.4-0.2-0.6c-0.3-0.6-1-0.8-1.5-0.5l-5.8,2.4v6.1l5.8,2.4l0,0c0.3,0.2,0.8,0.2,1.1,0
		c0.4-0.2,0.6-0.6,0.6-1l0,0L137.6,806.5L137.6,806.5z"/>
	<g>
		<path fill="#00AFF0" d="M128.3,815.5v-9.2c0,0,0-0.1,0-0.1s0-0.1,0-0.1c-0.1-1.3-1-2.3-2.2-2.6c-0.6,0-1.6,0-3.4,0
			c-3.5,0-7.3,0-7.5,0c-3.8,0-4.5,0.1-4.6,0.1c-0.9,0.2-1.5,0.8-1.9,1.6c0,0.1-0.1,0.1-0.1,0.2c-0.6,1.7-0.9,3.6-0.9,5.5
			c0,1.9,0.3,3.8,0.9,5.4c0,0.1,0.1,0.2,0.1,0.3c0.4,0.8,1.1,1.4,2,1.6c0,0,0.8,0.1,4.5,0.1c2.6,0,5.1,0,7.5,0c2.1,0,3.1,0,3.4-0.1
			c1.2-0.1,2.1-1.3,2.2-2.6c0-0.1,0-0.1,0-0.2C128.3,815.6,128.3,815.6,128.3,815.5z"/>
	</g>
</g>
<path fill="#00AFF0" d="M131,1258.3h-2.4c-0.8,0-1-0.4-1.4-1.1l-4.1-5.2c-0.5-0.7-1.2-1.1-2.1-1.1h-6.7c-1.4,0-2.5,1.1-2.5,2.4v25.1
	c0,1.4,1.1,2.4,2.5,2.4H131c1.4,0,2.5-1.1,2.5-2.4v-17.7C133.4,1259.4,132.3,1258.3,131,1258.3z M123.7,1274.5h-4.3
	c-0.6,0-1.1-0.5-1.1-1.1c0-0.6,0.5-1.1,1.1-1.1h4.3c0.6,0,1.1,0.5,1.1,1.1C124.8,1274,124.3,1274.5,123.7,1274.5z M125.9,1270.2
	h-6.4c-0.6,0-1.1-0.5-1.1-1.1c0-0.6,0.5-1.1,1.1-1.1h6.4c0.6,0,1.1,0.5,1.1,1.1C126.9,1269.8,126.4,1270.2,125.9,1270.2z"/>
<g>
	<path fill="#00AFF0" d="M126,1327.6h-16.7c-0.9,0-1.7,0.7-1.7,1.7v13.3c0,0.9,0.7,1.7,1.7,1.7H126c0.9,0,1.7-0.7,1.7-1.7v-13.3
		C127.6,1328.4,126.9,1327.6,126,1327.6z M125.1,1341.8h-15v-11.7h15V1341.8z"/>
	<path fill="#00AFF0" d="M136,1317.6h-16.7c-0.9,0-1.7,0.7-1.7,1.7v5h2.5v-4.2h15v11.7H131v2.5h5c0.9,0,1.7-0.7,1.7-1.7v-13.3
		C137.6,1318.4,136.9,1317.6,136,1317.6z"/>
</g>
<g>
	<path fill="#00AFF0" d="M136.5,1387.6h-8.2c-0.3,0-0.5,0.2-0.5,0.5v5.7c0,0.3,0.2,0.5,0.5,0.5h8.2c0.3,0,0.5-0.2,0.5-0.5v-5.7
		C137,1387.9,136.8,1387.6,136.5,1387.6z"/>
	<path fill="#00AFF0" d="M111.3,1395.7c1.7,0,3-1.7,3-3.7c0-2-1.4-3.4-3-3.4c-1.7,0-3,1.5-3,3.4
		C108.3,1394,109.7,1395.7,111.3,1395.7z"/>
	<path fill="#00AFF0" d="M120.5,1398.4c2.3,0,4.2-2.4,4.2-5.1s-1.9-4.7-4.2-4.7c-2.3,0-4.2,2-4.2,4.7S118.2,1398.4,120.5,1398.4z"/>
	<path fill="#00AFF0" d="M124.4,1400.1c-0.4,0-0.7,0.1-1.1,0.1l0,0c-0.7,0.2-1.8,0.5-2.8,0.5h0v0l0,0l0,0v0h0
		c-1.1,0-2.1-0.3-2.8-0.5l0,0c-0.3-0.1-0.7-0.1-1.1-0.1c-2.6,0-4.6,2.4-4.6,5.4v0.7c0,0.6,0.5,1.1,1.1,1.1l0,0h14.9l0,0
		c0.6,0,1.1-0.5,1.1-1.1v-0.7C129,1402.6,126.9,1400.1,124.4,1400.1z"/>
	<path fill="#00AFF0" d="M139.6,1384.5h-8.2c-0.3,0-0.5,0.2-0.5,0.5v1.5h5.6c0.9,0,1.6,0.7,1.6,1.6v3.1h1.5c0.3,0,0.5-0.2,0.5-0.5
		v-5.7C140.1,1384.8,139.9,1384.5,139.6,1384.5z"/>
	<path fill="#00AFF0" d="M116.4,1398.1c-0.6-0.6-1.4-1-2.2-1c-0.3,0-0.5,0-0.8,0.1l0,0c-0.5,0.1-1.3,0.4-2.1,0.4h0v0l0,0l0,0v0h0
		c-0.8,0-1.6-0.3-2.1-0.4l0,0c-0.2-0.1-0.5-0.1-0.8-0.1c-1.8,0-3.3,1.8-3.3,3.9v0.5c0,0.4,0.3,0.8,0.8,0.8h0h4.6
		C111.6,1399.9,113.8,1398.1,116.4,1398.1z"/>
</g>
<g>
	<path fill="#00AFF0" d="M117,1461.3c2.5,0,4.6-2.6,4.6-5.5c0-3-2.1-5.2-4.6-5.2s-4.6,2.2-4.6,5.2
		C112.4,1458.7,114.5,1461.3,117,1461.3z"/>
	<path fill="#00AFF0" d="M121.3,1463.2c-0.4,0-0.8,0.1-1.2,0.2l0,0c-0.8,0.2-1.9,0.6-3.1,0.6l0,0h0h0l0,0c-1.2,0-2.4-0.4-3.1-0.6
		l0,0c-0.4-0.1-0.8-0.2-1.2-0.2c-2.8,0-5.1,2.7-5.1,6v0.8c0,0.7,0.5,1.2,1.2,1.2l0,0h16.4l0,0c0.6,0,1.2-0.5,1.2-1.2v-0.8
		C126.4,1465.9,124.1,1463.2,121.3,1463.2z"/>
	<path fill="#00AFF0" d="M132.6,1457l4.6-4.5h-10.4l4.6,4.5C131.8,1457.4,132.2,1457.4,132.6,1457z"/>
	<path fill="#00AFF0" d="M133.4,1458c-0.7,0.7-1.9,0.7-2.7,0l-4.3-4.3v5.4c0,0.7,0.5,1.2,1.2,1.2h8.8c0.7,0,1.2-0.5,1.2-1.2v-5.4
		L133.4,1458z"/>
</g>
<g>
	<path fill="#00AFF0" d="M124.3,1787.6l12.3-11.8h-27.9l12.3,11.8C122.1,1788.6,123.2,1788.6,124.3,1787.6z"/>
	<path fill="#00AFF0" d="M126.2,1790.1c-2,2-5.2,2-7.1,0l-11.4-11.4v14.2c0,1.8,1.4,3.2,3.2,3.2h23.6c1.8,0,3.2-1.4,3.2-3.2v-14.2
		L126.2,1790.1z"/>
</g>
<g>
	<path fill="#00AFF0" d="M137.1,1587.2c-2-2-4.3-3.5-6.8-4.5c-2.5-1-5.1-1.5-7.7-1.5c-2.6,0-5.2,0.5-7.7,1.5c-2.5,1-4.8,2.5-6.8,4.5
		c-0.7,0.7-0.7,1.9,0,2.6c0.7,0.7,1.9,0.7,2.6,0c1.6-1.6,3.5-2.9,5.6-3.7c2-0.8,4.2-1.2,6.3-1.2c2.2,0,4.3,0.4,6.3,1.2
		c2,0.8,3.9,2,5.6,3.7c0.7,0.7,1.9,0.7,2.6,0C137.8,1589.1,137.8,1587.9,137.1,1587.2z"/>
	<path fill="#00AFF0" d="M127.6,1589.5c-1.6-0.6-3.3-1-4.9-1s-3.4,0.3-4.9,1c-1.6,0.6-3.1,1.6-4.4,2.9c-0.7,0.7-0.7,1.9,0,2.6
		c0.7,0.7,1.9,0.7,2.6,0l0,0c0.9-0.9,2-1.6,3.1-2.1c1.1-0.5,2.4-0.7,3.6-0.7c1.2,0,2.4,0.2,3.6,0.7c1.1,0.5,2.2,1.2,3.1,2.1
		c0.7,0.7,1.9,0.7,2.6,0c0.7-0.7,0.7-1.9,0-2.6C130.7,1591.1,129.2,1590.1,127.6,1589.5z"/>
	<path fill="#00AFF0" d="M124.8,1596.3c-0.7-0.3-1.5-0.4-2.2-0.4c-0.7,0-1.5,0.1-2.2,0.4c-0.7,0.3-1.4,0.7-1.9,1.3
		c-0.7,0.7-0.7,1.9,0,2.6c0.7,0.7,1.9,0.7,2.6,0c0.2-0.2,0.5-0.4,0.7-0.5c0.3-0.1,0.5-0.2,0.8-0.2c0.3,0,0.6,0.1,0.8,0.2
		c0.3,0.1,0.5,0.3,0.7,0.5c0.7,0.7,1.9,0.7,2.6,0c0.7-0.7,0.7-1.9,0-2.6C126.2,1597,125.5,1596.5,124.8,1596.3z"/>
</g>
<path fill="#00AFF0" d="M137.2,1519.6c-0.8-3.4-3.6-6.1-7.1-6.8c-2.4-0.4-4.9-0.6-7.4-0.6c-2.5,0-5,0.2-7.4,0.6
	c-3.5,0.6-6.3,3.3-7.1,6.8c-0.3,1.2-0.5,2.5-0.5,3.8v0c0,1.3,0.2,2.6,0.5,3.8c0.8,3.4,3.6,6.1,7.1,6.8c2.4,0.4,4.8,0.3,7.4,0.3
	c0,0,0,4.7,0,4.1c0,0.6,0.5,1.2,1.1,1.2c0.3,0,0.5-0.1,0.7-0.2l0,0l9-6.8c1.9-1.2,3.2-3.2,3.7-5.4c0.3-1.2,0.5-2.5,0.5-3.8v0
	C137.6,1522.1,137.5,1520.8,137.2,1519.6z M125.8,1519.7h-1.1c-0.9,0-1.1,0.5-1.1,1.1v1.4h2.1l-0.3,2.2h-1.9v5.6h-2.2v-5.6h-1.9
	v-2.2h1.9v-1.6c0-1.9,1.1-2.9,2.8-2.9c0.8,0,1.5,0.1,1.7,0.1V1519.7z"/>
<g>
	<path fill="#00AFF0" d="M133.9,1644.5c-3.4,0-6.2,2.8-6.2,6.2s2.8,6.2,6.2,6.2c3.4,0,6.2-2.8,6.2-6.2S137.3,1644.5,133.9,1644.5z
		 M134.3,1653.5v0.6c0,0.2-0.2,0.4-0.4,0.4c-0.2,0-0.4-0.2-0.4-0.4v-0.6c-1.3-0.1-1.9-0.8-1.9-1.4c0-0.3,0.2-0.5,0.5-0.5
		c0.7,0,0.5,1,1.8,1c0.7,0,1-0.4,1-0.7c0-0.2-0.1-0.5-0.5-0.6l-1.4-0.4c-1.2-0.3-1.4-0.9-1.4-1.5c0-1.1,0.9-1.6,1.9-1.7v-0.5
		c0-0.2,0.2-0.4,0.4-0.4c0.2,0,0.4,0.2,0.4,0.4v0.6c0.9,0.1,1.7,0.6,1.7,1.2c0,0.3-0.3,0.5-0.6,0.5c-0.6,0-0.5-0.8-1.7-0.8
		c-0.6,0-0.9,0.3-0.9,0.7c0,0.4,0.5,0.5,0.9,0.6l1.1,0.2c1.2,0.3,1.5,0.9,1.5,1.6C136.3,1652.7,135.6,1653.4,134.3,1653.5z"/>
	<path fill="#00AFF0" d="M111.3,1655.7c1.7,0,3-1.7,3-3.7s-1.4-3.4-3-3.4s-3,1.5-3,3.4S109.6,1655.7,111.3,1655.7z"/>
	<path fill="#00AFF0" d="M120.5,1658.4c2.3,0,4.2-2.4,4.2-5.1s-1.9-4.7-4.2-4.7c-2.3,0-4.2,2-4.2,4.7S118.2,1658.4,120.5,1658.4z"/>
	<path fill="#00AFF0" d="M124.4,1660.1c-0.4,0-0.7,0.1-1.1,0.1l0,0c-0.7,0.2-1.8,0.5-2.8,0.5h0l0,0h0h0l0,0h0
		c-1.1,0-2.1-0.3-2.8-0.5l0,0c-0.3-0.1-0.7-0.1-1.1-0.1c-2.5,0-4.6,2.4-4.6,5.4v0.7c0,0.6,0.5,1.1,1.1,1.1l0,0h14.9l0,0
		c0.6,0,1.1-0.5,1.1-1.1v-0.7C129,1662.5,126.9,1660.1,124.4,1660.1z"/>
	<path fill="#00AFF0" d="M116.4,1658c-0.6-0.6-1.4-1-2.2-1c-0.3,0-0.5,0-0.8,0.1l0,0c-0.5,0.1-1.3,0.4-2.1,0.4h0v0l0,0l0,0v0h0
		c-0.8,0-1.6-0.3-2.1-0.4l0,0c-0.2-0.1-0.5-0.1-0.8-0.1c-1.8,0-3.3,1.8-3.3,3.9v0.5c0,0.4,0.3,0.8,0.8,0.8l0,0h4.6
		C111.6,1659.9,113.8,1658.1,116.4,1658z"/>
</g>
<g>
	<path fill-rule="evenodd" clip-rule="evenodd" fill="#00AFF0" d="M125.6,358.8L125.6,358.8c-0.7,0-1.3-0.2-1.9-0.5l-2.8-1.7
		c-1.2-0.7-1.9-2.1-1.9-3.4c-0.7-0.2-1.5-0.3-2.3-0.3c-0.8,0-1.5,0.1-2.3,0.3c0.1,1.4-0.6,2.7-1.9,3.4l-2.8,1.7
		c-0.6,0.3-1.2,0.5-1.9,0.5c-0.1,0.7-0.2,1.2-0.1,1.2l-0.3,3c-0.1,0.5,0.3,1,0.8,1.2c0.1,0.1,1.3,0.2,2.8,0.2c2.6,0,9,0,11.6,0
		c1.5,0,2.7-0.1,2.8-0.2c0.4-0.2,0.8-0.7,0.8-1.2l-0.3-3C125.8,360,125.7,359.5,125.6,358.8z M116.8,361.9c-1.1,0-1.9-0.9-1.9-2
		c0-1.1,0.9-2,1.9-2c1.1,0,1.9,0.9,1.9,2C118.7,361,117.8,361.9,116.8,361.9z"/>
	<path fill-rule="evenodd" clip-rule="evenodd" fill="#00AFF0" d="M127.8,352.3c-2.8-2.9-6.7-4.6-11-4.6h0c-4.3,0-8.2,1.8-11,4.6
		l0,0c-0.4,0.4-0.6,0.8-0.6,1.3c0,0.6,0.2,1.2,0.5,1.8c0.3,0.5,0.7,1,1.2,1.3c0.3,0.2,0.7,0.3,1,0.3c0.3,0,0.7-0.1,1-0.3l2.8-1.7
		c0.9-0.5,1.2-1.7,0.7-2.7l-0.1-0.2c1.3-0.7,2.9-1.1,4.5-1.1c1.6,0,3.1,0.4,4.5,1.1l-0.1,0.2c-0.5,0.9-0.2,2.1,0.7,2.7l2.8,1.7
		c0.3,0.2,0.6,0.3,1,0.3c0.4,0,0.7-0.1,1-0.3c0.5-0.3,0.9-0.7,1.2-1.3c0.3-0.6,0.5-1.2,0.5-1.8C128.4,353.1,128.2,352.7,127.8,352.3
		L127.8,352.3z"/>
	<path fill-rule="evenodd" clip-rule="evenodd" fill="#00AFF0" d="M138.9,348.8h-7.1c-0.6,0-1.2,0.6-1.2,1.2v13.1
		c0,0.6,0.6,1.2,1.2,1.2h7.1c0.6,0,1.2-0.6,1.2-1.2V350C140.1,349.4,139.5,348.8,138.9,348.8z M136.7,362c0,0.3-0.2,0.5-0.5,0.5
		h-1.6c-0.3,0-0.5-0.2-0.5-0.5v0c0-0.3,0.2-0.5,0.5-0.5h1.6C136.5,361.5,136.7,361.7,136.7,362L136.7,362z M138.2,359.8h-5.6v-9h5.6
		V359.8z"/>
</g>
<g>
	<path fill="#00AFF0" d="M132.7,751.6l-4.4-1.2c-1.4-0.4-2.9,0.5-3.3,1.9l-0.1,0.3c-2-0.6-3.9-1.7-5.5-3.3c-1.6-1.6-2.7-3.5-3.3-5.5
		l0.3-0.1c1.4-0.4,2.3-1.9,1.9-3.3l-1.2-4.4c-0.3-1-1.1-1.7-2-1.9c-0.8-0.2-1.6-0.2-2.4,0c-0.9,0.2-1.6,0.7-2.2,1.3
		c-0.5,0.5-0.7,1.2-0.7,1.9l0,0.1c0,5.5,2.1,11.1,6.3,15.3l0,0c4.2,4.2,9.8,6.3,15.3,6.3l0.1,0c0.7,0,1.4-0.3,1.8-0.7
		c0.6-0.6,1-1.3,1.3-2.2c0.2-0.8,0.2-1.7,0-2.4C134.4,752.7,133.7,751.9,132.7,751.6z"/>
	<path fill="#00AFF0" d="M129.3,732.8c-3.4,0-6.2,2.8-6.2,6.2c0,3.4,2.8,6.2,6.2,6.2c3.4,0,6.2-2.8,6.2-6.2
		C135.5,735.6,132.7,732.8,129.3,732.8z M129.7,741.8v0.6c0,0.2-0.2,0.4-0.4,0.4c-0.2,0-0.4-0.2-0.4-0.4v-0.6
		c-1.3-0.1-1.9-0.8-1.9-1.4c0-0.3,0.2-0.5,0.5-0.5c0.7,0,0.5,1,1.8,1c0.7,0,1-0.4,1-0.7c0-0.2-0.1-0.5-0.5-0.6l-1.4-0.4
		c-1.2-0.3-1.4-0.9-1.4-1.5c0-1.1,0.9-1.6,1.9-1.7v-0.5c0-0.2,0.2-0.4,0.4-0.4c0.2,0,0.4,0.2,0.4,0.4v0.6c0.9,0.1,1.7,0.6,1.7,1.2
		c0,0.3-0.3,0.5-0.6,0.5c-0.6,0-0.5-0.8-1.7-0.8c-0.6,0-0.9,0.3-0.9,0.7c0,0.4,0.5,0.5,0.9,0.6l1.1,0.2c1.2,0.3,1.5,0.9,1.5,1.6
		C131.6,741,131,741.7,129.7,741.8z"/>
</g>
<g>
	<path fill-rule="evenodd" clip-rule="evenodd" fill="#00AFF0" d="M136.1,673.9h-4.2h-1.5c-0.8,0-1.4,0.6-1.4,1.4
		c0,0.8,0.6,1.4,1.4,1.4h1.5h1.2c-1.5,1.6-3.6,2.6-5.9,2.6c-1.6,0-3.1-0.4-4.4-1.3c-0.2-0.2-0.5-0.2-0.8-0.2c-0.5,0-0.9,0.2-1.2,0.6
		c-0.2,0.2-0.2,0.5-0.2,0.8c0,0.5,0.2,0.9,0.6,1.2c1.8,1.2,3.8,1.8,5.9,1.8c2.8,0,5.5-1.1,7.5-3v1.9c0,0.8,0.6,1.4,1.4,1.4
		c0.8,0,1.4-0.6,1.4-1.4v-5.7C137.5,674.5,136.9,673.9,136.1,673.9z"/>
	<path fill-rule="evenodd" clip-rule="evenodd" fill="#00AFF0" d="M128,687.2h-10.8v-17.4H128v2.2c0.7-0.5,1.5-0.8,2.4-0.8h1.5v-3
		c0-1.1-1.2-2.3-2.3-2.3h-13.8c-1.1,0-2.3,1.2-2.3,2.3v25.4c0,1.1,1.2,2.3,2.3,2.3h13.8c1.1,0,2.3-1.2,2.3-2.3v-9.8
		c-1.2,0.5-2.5,0.7-3.8,0.8V687.2z M125.2,691.6c0,0.6-0.5,1-1,1h-3.1c-0.6,0-1-0.5-1-1v0c0-0.6,0.5-1,1-1h3.1
		C124.7,690.6,125.2,691,125.2,691.6L125.2,691.6z"/>
</g>
<path fill="#00AFF0" d="M122.6,2030.9c-8.3,0-15,6.7-15,15c0,8.3,6.7,15,15,15c8.3,0,15-6.7,15-15
	C137.6,2037.7,130.9,2030.9,122.6,2030.9z M126.6,2040.3c1.2,0,2.1,0.9,2.1,2.1c0,1.2-0.9,2.1-2.1,2.1c-1.2,0-2.1-0.9-2.1-2.1
	C124.5,2041.3,125.5,2040.3,126.6,2040.3z M118.7,2040.3c1.2,0,2.1,0.9,2.1,2.1c0,1.2-0.9,2.1-2.1,2.1c-1.2,0-2.1-0.9-2.1-2.1
	C116.5,2041.3,117.5,2040.3,118.7,2040.3z M130.6,2049.7c-0.8,1.3-2,2.4-3.3,3.2c-1.4,0.8-2.9,1.2-4.6,1.2c-1.7,0-3.2-0.4-4.6-1.2
	c-1.4-0.8-2.5-1.9-3.3-3.2l0,0l0,0l0,0c-0.4-0.6-0.2-1.4,0.4-1.8c0.6-0.4,1.4-0.2,1.7,0.4c0.6,1,1.4,1.8,2.4,2.3
	c1,0.6,2.1,0.9,3.4,0.9c1.2,0,2.4-0.3,3.4-0.9c1-0.6,1.8-1.4,2.4-2.3c0.4-0.6,1.2-0.8,1.7-0.4C130.8,2048.3,131,2049.1,130.6,2049.7
	z"/>
<path fill="#00AFF0" d="M135.8,2101.6h-26.3c-1,0-1.9,0.8-1.9,1.8v15.1c0,1,0.8,1.8,1.9,1.8h26.3c1,0,1.9-0.8,1.9-1.8v-15.1
	C137.6,2102.4,136.8,2101.6,135.8,2101.6z M117,2105.3c1.4,0,2.5,1.2,2.5,2.8c0,1.6-1.1,3-2.5,3s-2.5-1.4-2.5-3
	C114.5,2106.5,115.6,2105.3,117,2105.3z M122.2,2115.9c0,0.4-0.3,0.6-0.6,0.6v0h-9l0,0c-0.4,0-0.6-0.3-0.6-0.6v-0.5
	c0-1.8,1.3-3.3,2.8-3.3c0.2,0,0.4,0,0.6,0.1l0,0c0.4,0.1,1.1,0.3,1.7,0.3v0l0,0v0v0c0.7,0,1.3-0.2,1.7-0.3l0,0
	c0.2-0.1,0.4-0.1,0.6-0.1c1.5,0,2.8,1.5,2.8,3.3V2115.9z M129.2,2111.9h-3.8c-0.5,0-0.9-0.4-0.9-0.9c0-0.5,0.4-0.9,0.9-0.9h3.8
	c0.5,0,0.9,0.4,0.9,0.9C130.1,2111.5,129.7,2111.9,129.2,2111.9z M131.1,2108.1h-5.6c-0.5,0-0.9-0.4-0.9-0.9c0-0.5,0.4-0.9,0.9-0.9
	h5.6c0.5,0,0.9,0.4,0.9,0.9C132,2107.7,131.6,2108.1,131.1,2108.1z"/>
<g>
	<path fill="#00B1F3" d="M108.5,2175.9c0,7.8,6.3,14.2,14.2,14.2c0.9,0,1.7-0.1,2.6-0.2c1.2,0.7,2.6,1.1,4.1,1.1
		c4.6,0,8.4-3.8,8.4-8.4c0-1.5-0.4-2.9-1-4.1c0.2-0.8,0.2-1.7,0.2-2.6c0-7.8-6.3-14.2-14.2-14.2c-0.9,0-1.7,0.1-2.6,0.2
		c-1.2-0.7-2.6-1.1-4.1-1.1c-4.6,0-8.4,3.8-8.4,8.4c0,1.5,0.4,2.9,1.1,4.1C108.5,2174.2,108.5,2175.1,108.5,2175.9"/>
	<path fill="#FFFFFF" d="M122.7,2184.9c-5,0-7.3-2.5-7.3-4.3c0-1,0.7-1.6,1.7-1.6c2.2,0,1.6,3.1,5.6,3.1c2.1,0,3.2-1.1,3.2-2.3
		c0-0.7-0.3-1.5-1.7-1.8l-4.5-1.1c-3.6-0.9-4.3-2.9-4.3-4.7c0-3.8,3.6-5.2,6.9-5.2c3.1,0,6.8,1.7,6.8,4c0,1-0.8,1.6-1.8,1.6
		c-1.8,0-1.5-2.6-5.2-2.6c-1.8,0-2.9,0.8-2.9,2c0,1.2,1.5,1.6,2.7,1.9l3.3,0.7c3.6,0.8,4.5,2.9,4.5,4.9
		C129.9,2182.6,127.5,2184.9,122.7,2184.9"/>
</g>
</svg>
