<?xml version="1.0" encoding="utf-8"?>
<!-- Generator: Adobe Illustrator 19.1.0, SVG Export Plug-In . SVG Version: 6.00 Build 0)  -->
<svg version="1.1" id="Layer_1" xmlns="http://www.w3.org/2000/svg" xmlns:xlink="http://www.w3.org/1999/xlink" x="0px" y="0px"
	 width="60px" height="360px" viewBox="0 0 60 360" style="enable-background:new 0 0 60 360;" xml:space="preserve">
<path style="fill:#00AFF0;" d="M22.999,310C10.298,310,0,320.297,0,333c0,12.702,10.298,23,22.999,23C35.701,356,46,345.701,46,333
	C46,320.297,35.702,310,22.999,310z M22.623,321c1.669,0,3.024,1.355,3.024,3.023c0,1.671-1.355,3.023-3.024,3.023
	s-3.024-1.352-3.024-3.023C19.599,322.355,20.954,321,22.623,321z M28.04,342.909c-0.764,1.254-2.128,2.091-3.706,2.091
	c-2.4,0-4.335-1.945-4.335-4.347v-5.858c0-0.746-0.553-1.366-1.261-1.489c-0.534-0.093-0.941-0.555-0.941-1.115
	c0-0.215,0.06-0.423,0.165-0.595c0.764-1.254,2.127-2.092,3.703-2.092c2.401,0,4.334,1.946,4.334,4.347v5.859
	c0,0.744,0.553,1.364,1.261,1.489c0.533,0.093,0.94,0.555,0.94,1.114C28.202,342.528,28.146,342.736,28.04,342.909z"/>
<path style="fill:#7FBA00;" d="M22.999,250C10.297,250,0,260.297,0,273s10.297,23,22.999,23C35.701,296,46,285.702,46,273
	C46,260.297,35.702,250,22.999,250z M33.846,267.797c-1.706,2.605-3.703,5.074-5.991,7.363c-2.28,2.281-4.74,4.271-7.335,5.973
	c-0.324,0.195-0.708,0.313-1.114,0.313c-0.444,0-0.86-0.127-1.203-0.357c-1.151-0.789-2.245-1.696-3.269-2.718
	c-1-0.999-1.889-2.069-2.666-3.191c-0.259-0.357-0.41-0.805-0.41-1.28c0-1.19,0.965-2.156,2.156-2.156
	c0.455,0,0.877,0.141,1.224,0.381c1.143,0.787,2.23,1.68,3.246,2.696l0.534,0.535l4.515-4.514c2.232-2.231,4.636-4.186,7.169-5.864
	c0.358-0.265,0.8-0.422,1.279-0.422c1.191,0,2.156,0.966,2.156,2.156C34.141,267.109,34.034,267.477,33.846,267.797z"/>
<g>
	<path style="fill:#FF8C00;" d="M48.027,227.016l-20.175-34.962c-0.762-1.319-2.143-2.052-3.562-2.054
		c-1.42,0.001-2.801,0.735-3.562,2.054L0.552,227.016c-1.135,1.967-0.462,4.482,1.505,5.617c0.224,0.13,0.458,0.234,0.697,0.317
		c6.838,1.984,14.057,3.05,21.535,3.05s14.697-1.066,21.534-3.05c0.242-0.083,0.477-0.187,0.699-0.317
		C48.49,231.498,49.162,228.982,48.027,227.016z M24.289,231.124c-2.272,0-4.113-1.841-4.113-4.113c0-2.272,1.841-4.113,4.113-4.113
		s4.113,1.841,4.113,4.113C28.402,229.283,26.561,231.124,24.289,231.124z M26.834,218.433c-0.4,1.016-1.386,1.724-2.545,1.724
		s-2.145-0.708-2.545-1.724c-1.248-3.244-1.932-6.769-1.932-10.453c0-1.657,0.139-3.283,0.404-4.865
		c0.282-1.997,1.999-3.521,4.073-3.521c2.075,0,3.79,1.524,4.073,3.521c0.266,1.582,0.404,3.208,0.404,4.865
		C28.766,211.664,28.082,215.189,26.834,218.433z"/>
</g>
<path style="fill:#E81123;" d="M23.001,130C10.298,130,0,140.297,0,153s10.298,23,23.001,23C35.702,176,46,165.701,46,153
	C46,140.297,35.702,130,23.001,130z M23,165.891c-1.588,0-2.875-1.288-2.875-2.875c0-1.588,1.287-2.875,2.875-2.875
	s2.875,1.287,2.875,2.875C25.875,164.603,24.588,165.891,23,165.891z M24.997,156.427c-0.321,0.787-1.094,1.341-1.997,1.341
	c-0.902,0-1.675-0.554-1.997-1.341c-1.182-2.915-1.836-6.107-1.836-9.447c0-1.205,0.084-2.389,0.249-3.549
	c0.139-1.858,1.69-3.323,3.584-3.323c1.893,0,3.444,1.465,3.583,3.323c0.164,1.16,0.249,2.344,0.249,3.549
	C26.832,150.322,26.179,153.51,24.997,156.427z"/>
<path style="fill:#00AFF0;" d="M12,90.5c-6.351,0-11.5,5.149-11.5,11.5c0,6.351,5.149,11.5,11.5,11.5c6.351,0,11.5-5.149,11.5-11.5
	C23.5,95.649,18.351,90.5,12,90.5z M11.811,96c0.834,0,1.512,0.678,1.512,1.512c0,0.835-0.677,1.512-1.512,1.512
	S10.3,98.347,10.3,97.512C10.3,96.678,10.977,96,11.811,96z M14.52,106.955c-0.382,0.627-1.314,1.045-2.103,1.045
	c-1.2,0-2.417-0.973-2.417-2.173v-2.929c0-0.373-0.026-0.683-0.381-0.744c-0.267-0.047-0.346-0.278-0.346-0.558
	c0-0.108,0.092-0.211,0.145-0.298c0.382-0.627,0.845-1.046,1.633-1.046c1.201,0,1.948,0.973,1.948,2.173v2.93
	c0,0.372,0.527,0.682,0.881,0.744c0.266,0.047,0.595,0.277,0.595,0.557C14.476,106.764,14.573,106.868,14.52,106.955z"/>
<path style="fill:#7FBA00;" d="M12,60.5C5.649,60.5,0.5,65.649,0.5,72S5.649,83.5,12,83.5c6.351,0,11.5-5.149,11.5-11.5
	C23.5,65.649,18.351,60.5,12,60.5z M17.423,69.398c-0.853,1.302-1.852,2.537-2.996,3.681c-1.14,1.14-2.37,2.136-3.668,2.986
	c-0.162,0.098-0.354,0.157-0.557,0.157c-0.222,0-0.43-0.064-0.601-0.179c-0.576-0.395-1.123-0.848-1.634-1.359
	c-0.5-0.5-0.944-1.035-1.333-1.596c-0.13-0.178-0.205-0.403-0.205-0.64c0-0.595,0.482-1.078,1.078-1.078
	c0.227,0,0.438,0.071,0.612,0.191c0.572,0.393,1.115,0.84,1.623,1.348l0.267,0.268l2.258-2.257c1.116-1.116,2.318-2.093,3.585-2.932
	c0.179-0.132,0.4-0.211,0.64-0.211c0.596,0,1.078,0.483,1.078,1.078C17.57,69.054,17.517,69.239,17.423,69.398z"/>
<g>
	<path style="fill:#FF8C00;" d="M24.227,48.787L14.26,31.515c-0.376-0.651-1.059-1.014-1.76-1.015
		c-0.702,0.001-1.384,0.363-1.76,1.015L0.772,48.787c-0.561,0.972-0.228,2.214,0.743,2.775c0.11,0.064,0.226,0.116,0.345,0.157
		c3.378,0.98,6.945,1.507,10.639,1.507s7.261-0.526,10.639-1.507c0.12-0.041,0.235-0.093,0.345-0.157
		C24.456,51.002,24.788,49.759,24.227,48.787z M12.5,50.817c-1.122,0-2.032-0.909-2.032-2.032c0-1.122,0.909-2.032,2.032-2.032
		s2.032,0.909,2.032,2.032C14.532,49.908,13.622,50.817,12.5,50.817z M13.757,44.547c-0.198,0.502-0.685,0.852-1.257,0.852
		s-1.06-0.35-1.257-0.852c-0.616-1.603-0.954-3.344-0.954-5.164c0-0.819,0.069-1.622,0.2-2.404c0.14-0.987,0.987-1.739,2.012-1.739
		c1.025,0,1.872,0.753,2.012,1.739c0.132,0.782,0.2,1.585,0.2,2.404C14.712,41.203,14.374,42.944,13.757,44.547z"/>
</g>
<path style="fill:#E81123;" d="M12,0.5C5.649,0.5,0.5,5.649,0.5,12S5.649,23.5,12,23.5c6.351,0,11.5-5.149,11.5-11.5
	C23.5,5.649,18.351,0.5,12,0.5z M12,18.446c-0.794,0-1.438-0.644-1.438-1.438c0-0.794,0.644-1.437,1.438-1.437
	s1.438,0.644,1.438,1.437C13.438,17.802,12.794,18.446,12,18.446z M12.998,13.714c-0.161,0.393-0.547,0.671-0.998,0.671
	c-0.451,0-0.838-0.277-0.998-0.671c-0.591-1.457-0.918-3.054-0.918-4.724c0-0.602,0.042-1.195,0.124-1.774
	C10.278,6.287,11.053,5.554,12,5.554c0.946,0,1.722,0.732,1.792,1.661c0.082,0.58,0.125,1.172,0.125,1.774
	C13.916,10.661,13.589,12.255,12.998,13.714z"/>
</svg>
