<?xml version="1.0" encoding="utf-8"?>
<!-- Generator: Adobe Illustrator 19.2.1, SVG Export Plug-In . SVG Version: 6.00 Build 0)  -->
<svg version="1.1" id="Layer_1" xmlns="http://www.w3.org/2000/svg" xmlns:xlink="http://www.w3.org/1999/xlink" x="0px" y="0px"
	 width="276px" height="216px" viewBox="0 0 276 216" style="enable-background:new 0 0 276 216;" xml:space="preserve">
<style type="text/css">
	.st0{fill:#00AFF0;}
	.st1{fill:#2B2B30;}
	.st2{fill:#BFCBD5;}
	.st3{fill:#FFFFFF;}
</style>
<path class="st0" d="M40.5,46.5c-1.1-4-4.3-7.2-8.5-8.2c-2.9-0.3-5.8-0.7-8.8-0.7s-6,0.2-8.8,0.7c-4.2,0.7-7.6,4-8.5,7.9
	C5.3,47.9,5,49.5,5,50.9l0,0c0,1.6,0.2,3.1,0.7,4.5c1.1,4,4.3,7.2,8.5,8.2c2.9,0.6,5.8,0.3,8.8,0.3c0,0,0,5.7,0,4.9
	c0,0.7,0.7,1.5,1.2,1.5c0.2,0,0.7-0.2,0.7-0.2l0,0l10.9-8.2c2.2-1.6,3.8-3.6,4.5-6.3c0.3-1.5,0.7-2.9,0.7-4.5l0,0
	C41,49.7,40.9,48,40.5,46.5z M24.2,54.9h-9.6c-0.7,0-1.1-0.6-1.1-1.1c0-0.7,0.6-1.1,1.1-1.1h9.7c0.7,0,1.1,0.6,1.1,1.1
	C25.5,54.3,24.9,54.9,24.2,54.9z M31.5,50H14.6c-0.7,0-1.2-0.6-1.2-1.1c0-0.6,0.7-1.1,1.2-1.1h17c0.7,0,1.2,0.6,1.2,1.1
	C32.8,49.5,32.2,50,31.5,50z"/>
<path class="st0" d="M25.9,88.9v14H8.1v-14H25.9 M26.9,86H7.2c-1.2,0-2,0.9-2,2v16c0,1.2,0.9,2,2,2H27c1.2,0,2-0.9,2-2V87.8
	C28.9,87,28.1,86,26.9,86z M38.8,74H19.1c-1.2,0-2,0.9-2,2v6.1H20v-5.2h17.8v14h-4.9v3h5.9c1.2,0,2-0.9,2-2V75.8
	C40.8,74.9,39.9,74,38.8,74z"/>
<path class="st0" d="M35.7,116.2c0.6,0,0.9-0.6,0.9-1.1c0-0.6-0.6-1.1-0.9-1.1h-0.8l0.4-2c0-0.2,0-0.2,0-0.2c0-0.6-0.6-1.1-0.9-1.1
	c-0.4,0-0.9,0.6-0.9,0.9l-0.6,2.3h-1.8l0.4-1.8c0-0.2,0-0.2,0-0.2c0-0.6-0.6-1.1-0.9-1.1c-0.6,0-0.9,0.6-0.9,0.9l-0.6,2.3h-0.9
	c-0.6,0-0.9,0.6-0.9,1.1c0,0.6,0.6,0.9,1.1,0.9h0.8l-0.4,1.5h-1.1c-0.6,0-0.9,0.6-0.9,1.1c0,0.6,0.6,1.1,0.9,1.1h0.6l-0.4,2.3
	c0,0.2,0,0.2,0,0.2c0,0.6,0.6,1.1,0.9,1.1s0.9-0.6,0.9-0.9l0.6-2.5h1.8l-0.6,2.2c0,0.2,0,0.2,0,0.2c0,0.6,0.6,1.1,0.9,1.1
	c0.4,0,0.9-0.6,0.9-0.9l0.6-2.5h0.8c0.6,0,0.9-0.6,0.9-1.1c0-0.6-0.6-1.1-0.9-1.1h-0.6l0.4-1.5L35.7,116.2L35.7,116.2z M32.4,117.6
	h-1.8l0.2-1.5h1.8L32.4,117.6z M38,134.5c-0.2-1.3-1.1-2.2-2.3-2.5l-5.4-1.5c-1.8-0.6-3.7,0.6-4,2.3l-0.2,0.6
	c-2.3-0.8-4.9-2.2-6.8-4c-2-2-3.3-4.4-4-6.8l0.4-0.2c1.8-0.6,2.9-2.3,2.3-4l-1.2-5.4c-0.4-1.3-1.3-2.2-2.5-2.3c-0.9-0.2-2-0.2-2.9,0
	c-1.1,0.4-2,0.9-2.7,1.6c-0.7,0.6-1.1,1.4-1.1,2.2v0.2c0,7,2.5,13.8,7.8,19l0,0c5.3,5.3,12.2,7.8,19,7.8h0.2c0.9,0,1.6-0.4,2.3-0.9
	c0.8-0.8,1.3-1.6,1.6-2.7C38.4,136.6,38.4,135.5,38,134.5z"/>
<path class="st0" d="M45,11.5c0-0.3-0.1-0.6-0.2-0.9c-0.5-0.8-1.5-1.1-2.3-0.7L34,13.5v8.9l8.5,3.6l0,0c0.5,0.3,1.1,0.3,1.6-0.1
	c0.6-0.3,0.9-0.9,0.9-1.5l0,0V11.5L45,11.5z M31.3,24.7V11.2c0-0.1,0-0.1,0-0.2c0-0.1,0-0.1,0-0.2C31.2,9,29.9,7.4,28.1,7
	c-0.9,0-2.3,0-5,0C18,7,12.4,7,12,7C6.5,7,5.5,7.1,5.3,7.2C4,7.5,3,8.4,2.5,9.5c0,0.2-0.1,0.2-0.1,0.4C1.5,12.4,1,15.2,1,18
	c0,2.7,0.5,5.5,1.3,8c0.1,0.2,0.1,0.3,0.2,0.5c0.5,1.2,1.6,2.1,2.9,2.3c0.1,0,1.1,0.2,6.6,0.2c3.8,0,7.5,0,11,0c3.1,0,4.5,0,5-0.1
	c1.8-0.2,3.1-1.9,3.2-3.8c0-0.1,0-0.1,0-0.2C31.3,24.8,31.3,24.8,31.3,24.7z"/>
<path class="st0" d="M23,162.3c2.1,0,3.7-2.1,3.7-4.4c0-2.4-1.6-4.1-3.7-4.1s-3.7,1.8-3.7,4.1C19.3,160.2,20.9,162.3,23,162.3z
	 M26.5,163.8c-0.3,0-0.6,0.1-1,0.1l0,0c-0.6,0.2-1.6,0.5-2.5,0.5l0,0l0,0l0,0l0,0c-1,0-1.9-0.3-2.5-0.5l0,0c-0.3-0.1-0.6-0.1-1-0.1
	c-2.3,0-4.1,2.1-4.1,4.8v0.7c0,0.5,0.4,1,1,1l0,0h13.2l0,0c0.5,0,1-0.4,1-1v-0.6C30.6,166,28.7,163.8,26.5,163.8z M42.7,147.8v28.4
	H3.3v-28.4H42.7 M42.7,145.5H3.3c-1.3,0-2.3,1-2.3,2.3v28.4c0,1.3,1,2.3,2.3,2.3h39.4c1.3,0,2.3-1,2.3-2.3v-28.4
	C45,146.5,44,145.5,42.7,145.5L42.7,145.5z"/>
<path class="st1" d="M28.6,196.9l-4.4,4.7l0,0l0,0l0,0c-0.2,0.3-0.7,0.4-1,0.4s-0.9-0.1-1-0.4l-4.6-4.7c-0.6-0.7-0.6-1.6,0-2.4
	c0.6-0.7,1.5-0.7,2.2,0l3.4,3.4l3.4-3.4c0.6-0.7,1.5-0.7,2.2,0C29.1,195.3,29.1,196.2,28.6,196.9z"/>
<path class="st1" d="M28.6,196.9l-4.4,4.7l0,0l0,0l0,0c-0.2,0.3-0.7,0.4-1,0.4s-0.9-0.1-1-0.4l-4.6-4.7c-0.6-0.7-0.6-1.6,0-2.4
	c0.6-0.7,1.5-0.7,2.2,0l3.4,3.4l3.4-3.4c0.6-0.7,1.5-0.7,2.2,0C29.1,195.3,29.1,196.2,28.6,196.9z"/>
<g>
	<path class="st2" d="M86.5,46.5c-1.1-4-4.3-7.2-8.5-8.2c-2.9-0.3-5.8-0.7-8.8-0.7s-6,0.2-8.8,0.7c-4.2,0.7-7.6,4-8.5,7.9
		c-0.6,1.6-0.9,3.2-0.9,4.6l0,0c0,1.6,0.2,3.1,0.7,4.5c1.1,4,4.3,7.2,8.5,8.2c2.9,0.6,5.8,0.3,8.8,0.3c0,0,0,5.7,0,4.9
		c0,0.7,0.7,1.5,1.2,1.5c0.2,0,0.7-0.2,0.7-0.2l0,0l10.9-8.2c2.2-1.6,3.8-3.6,4.5-6.3C86.6,54,87,52.6,87,51l0,0
		C87,49.7,86.9,48,86.5,46.5z M70.2,54.9h-9.6c-0.7,0-1.1-0.6-1.1-1.1c0-0.7,0.6-1.1,1.1-1.1h9.7c0.7,0,1.1,0.6,1.1,1.1
		C71.5,54.3,70.9,54.9,70.2,54.9z M77.5,50H60.6c-0.7,0-1.2-0.6-1.2-1.1c0-0.6,0.7-1.1,1.2-1.1h17c0.7,0,1.2,0.6,1.2,1.1
		C78.8,49.5,78.2,50,77.5,50z"/>
	<path class="st2" d="M71.9,88.9v14H54.1v-14H71.9 M72.9,86H53.2c-1.2,0-2,0.9-2,2v16c0,1.2,0.9,2,2,2H73c1.2,0,2-0.9,2-2V87.8
		C74.9,87,74.1,86,72.9,86z M84.8,74H65.1c-1.2,0-2,0.9-2,2v6.1H66v-5.2h17.8v14h-4.9v3h5.9c1.2,0,2-0.9,2-2V75.8
		C86.8,74.9,85.9,74,84.8,74z"/>
	<path class="st2" d="M81.7,116.2c0.6,0,0.9-0.6,0.9-1.1c0-0.6-0.6-1.1-0.9-1.1h-0.8l0.4-2c0-0.2,0-0.2,0-0.2c0-0.6-0.6-1.1-0.9-1.1
		c-0.4,0-0.9,0.6-0.9,0.9l-0.6,2.3h-1.8l0.4-1.8c0-0.2,0-0.2,0-0.2c0-0.6-0.6-1.1-0.9-1.1c-0.6,0-0.9,0.6-0.9,0.9l-0.6,2.3h-0.9
		c-0.6,0-0.9,0.6-0.9,1.1c0,0.6,0.6,0.9,1.1,0.9h0.8l-0.4,1.5h-1.1c-0.6,0-0.9,0.6-0.9,1.1c0,0.6,0.6,1.1,0.9,1.1h0.6l-0.4,2.3
		c0,0.2,0,0.2,0,0.2c0,0.6,0.6,1.1,0.9,1.1s0.9-0.6,0.9-0.9l0.6-2.5h1.8l-0.6,2.2c0,0.2,0,0.2,0,0.2c0,0.6,0.6,1.1,0.9,1.1
		c0.4,0,0.9-0.6,0.9-0.9l0.6-2.5h0.8c0.6,0,0.9-0.6,0.9-1.1c0-0.6-0.6-1.1-0.9-1.1h-0.6l0.4-1.5L81.7,116.2L81.7,116.2z M78.3,117.6
		h-1.8l0.2-1.5h1.8L78.3,117.6z M84,134.5c-0.2-1.3-1.1-2.2-2.3-2.5l-5.4-1.5c-1.8-0.6-3.7,0.6-4,2.3l-0.2,0.6
		c-2.3-0.8-4.9-2.2-6.8-4c-2-2-3.3-4.4-4-6.8l0.4-0.2c1.8-0.6,2.9-2.3,2.3-4l-1.2-5.4c-0.4-1.3-1.3-2.2-2.5-2.3
		c-0.9-0.2-2-0.2-2.9,0c-1.1,0.4-2,0.9-2.7,1.6c-0.7,0.6-1.1,1.4-1.1,2.2v0.2c0,7,2.5,13.8,7.8,19l0,0c5.3,5.3,12.2,7.8,19,7.8h0.2
		c0.9,0,1.6-0.4,2.3-0.9c0.8-0.8,1.3-1.6,1.6-2.7C84.3,136.6,84.3,135.5,84,134.5z"/>
	<path class="st2" d="M91,11.5c0-0.3-0.1-0.6-0.2-0.9c-0.5-0.8-1.5-1.1-2.3-0.7L80,13.5v8.9l8.5,3.6l0,0c0.5,0.3,1.1,0.3,1.6-0.1
		c0.6-0.3,0.9-0.9,0.9-1.5l0,0V11.5L91,11.5z M77.3,24.7V11.2c0-0.1,0-0.1,0-0.2c0-0.1,0-0.1,0-0.2C77.2,9,75.9,7.4,74.1,7
		c-0.9,0-2.3,0-5,0C64,7,58.4,7,58,7c-5.5,0-6.5,0.1-6.7,0.2C50,7.5,49,8.4,48.5,9.5c-0.1,0.1-0.1,0.2-0.1,0.3
		C47.5,12.4,47,15.2,47,18c0,2.7,0.5,5.5,1.3,8c0.1,0.2,0.1,0.3,0.2,0.5c0.5,1.2,1.6,2.1,2.9,2.3c0.1,0,1.1,0.2,6.6,0.2
		c3.8,0,7.5,0,11,0c3.1,0,4.5,0,5-0.1c1.8-0.2,3.1-1.9,3.2-3.8c0-0.1,0-0.1,0-0.2C77.3,24.8,77.3,24.8,77.3,24.7z"/>
	<path class="st2" d="M69,162.3c2.1,0,3.7-2.1,3.7-4.4c0-2.4-1.6-4.1-3.7-4.1s-3.7,1.8-3.7,4.1C65.3,160.2,66.9,162.3,69,162.3z
		 M72.5,163.8c-0.3,0-0.6,0.1-1,0.1l0,0c-0.6,0.2-1.6,0.5-2.5,0.5l0,0l0,0l0,0l0,0c-1,0-1.9-0.3-2.5-0.5l0,0c-0.3-0.1-0.6-0.1-1-0.1
		c-2.3,0-4.1,2.1-4.1,4.8v0.7c0,0.5,0.4,1,1,1l0,0h13.2l0,0c0.5,0,1-0.4,1-1v-0.6C76.6,166,74.7,163.8,72.5,163.8z M88.7,147.8v28.4
		H49.3v-28.4H88.7 M88.7,145.5H49.3c-1.3,0-2.3,1-2.3,2.3v28.4c0,1.3,1,2.3,2.3,2.3h39.4c1.3,0,2.3-1,2.3-2.3v-28.4
		C91,146.5,90,145.5,88.7,145.5L88.7,145.5z"/>
	<path class="st2" d="M74.6,196.9l-4.4,4.7l0,0l0,0l0,0c-0.2,0.3-0.7,0.4-1,0.4s-0.9-0.1-1-0.4l-4.6-4.7c-0.6-0.7-0.6-1.6,0-2.4
		c0.6-0.7,1.5-0.7,2.2,0l3.4,3.4l3.4-3.4c0.6-0.7,1.5-0.7,2.2,0C75.1,195.3,75.1,196.2,74.6,196.9z"/>
</g>
<g>
	<path class="st3" d="M132.5,46.5c-1.1-4-4.3-7.2-8.5-8.2c-2.9-0.3-5.8-0.7-8.8-0.7s-6,0.2-8.8,0.7c-4.2,0.7-7.6,4-8.5,7.9
		c-0.6,1.6-0.9,3.2-0.9,4.6l0,0c0,1.6,0.2,3.1,0.7,4.5c1.1,4,4.3,7.2,8.5,8.2c2.9,0.6,5.8,0.3,8.8,0.3c0,0,0,5.7,0,4.9
		c0,0.7,0.7,1.5,1.2,1.5c0.2,0,0.7-0.2,0.7-0.2l0,0l10.9-8.2c2.2-1.6,3.8-3.6,4.5-6.3c0.3-1.5,0.7-2.9,0.7-4.5l0,0
		C133,49.7,132.9,48,132.5,46.5z M116.2,54.9h-9.6c-0.7,0-1.1-0.6-1.1-1.1c0-0.7,0.6-1.1,1.1-1.1h9.7c0.7,0,1.1,0.6,1.1,1.1
		C117.5,54.3,116.9,54.9,116.2,54.9z M123.5,50h-16.9c-0.7,0-1.2-0.6-1.2-1.1c0-0.6,0.7-1.1,1.2-1.1h17c0.7,0,1.2,0.6,1.2,1.1
		C124.8,49.5,124.2,50,123.5,50z"/>
	<path class="st3" d="M117.9,88.9v14h-17.8v-14H117.9 M118.9,86H99.2c-1.2,0-2,0.9-2,2v16c0,1.2,0.9,2,2,2H119c1.2,0,2-0.9,2-2V87.8
		C120.9,87,120.1,86,118.9,86z M130.8,74h-19.7c-1.2,0-2,0.9-2,2v6.1h2.9v-5.2h17.8v14h-4.9v3h5.9c1.2,0,2-0.9,2-2V75.8
		C132.8,74.9,131.9,74,130.8,74z"/>
	<path class="st3" d="M127.7,116.2c0.6,0,0.9-0.6,0.9-1.1c0-0.6-0.6-1.1-0.9-1.1h-0.8l0.4-2c0-0.2,0-0.2,0-0.2
		c0-0.6-0.6-1.1-0.9-1.1c-0.4,0-0.9,0.6-0.9,0.9l-0.6,2.3h-1.8l0.4-1.8c0-0.2,0-0.2,0-0.2c0-0.6-0.6-1.1-0.9-1.1
		c-0.6,0-0.9,0.6-0.9,0.9l-0.6,2.3h-0.9c-0.6,0-0.9,0.6-0.9,1.1c0,0.6,0.6,0.9,1.1,0.9h0.8l-0.4,1.5h-1.1c-0.6,0-0.9,0.6-0.9,1.1
		c0,0.6,0.6,1.1,0.9,1.1h0.6l-0.4,2.3c0,0.2,0,0.2,0,0.2c0,0.6,0.6,1.1,0.9,1.1s0.9-0.6,0.9-0.9l0.6-2.5h1.8l-0.6,2.2
		c0,0.2,0,0.2,0,0.2c0,0.6,0.6,1.1,0.9,1.1c0.4,0,0.9-0.6,0.9-0.9l0.6-2.5h0.8c0.6,0,0.9-0.6,0.9-1.1c0-0.6-0.6-1.1-0.9-1.1h-0.6
		l0.4-1.5L127.7,116.2L127.7,116.2z M124.3,117.6h-1.8l0.2-1.5h1.8L124.3,117.6z M130,134.5c-0.2-1.3-1.1-2.2-2.3-2.5l-5.4-1.5
		c-1.8-0.6-3.7,0.6-4,2.3l-0.2,0.6c-2.3-0.8-4.9-2.2-6.8-4c-2-2-3.3-4.4-4-6.8l0.4-0.2c1.8-0.6,2.9-2.3,2.3-4l-1.2-5.4
		c-0.4-1.3-1.3-2.2-2.5-2.3c-0.9-0.2-2-0.2-2.9,0c-1.1,0.4-2,0.9-2.7,1.6c-0.7,0.6-1.1,1.4-1.1,2.2v0.2c0,7,2.5,13.8,7.8,19l0,0
		c5.3,5.3,12.2,7.8,19,7.8h0.2c0.9,0,1.6-0.4,2.3-0.9c0.8-0.8,1.3-1.6,1.6-2.7C130.3,136.6,130.3,135.5,130,134.5z"/>
	<path class="st3" d="M137,11.5c0-0.3-0.1-0.6-0.2-0.9c-0.5-0.8-1.5-1.1-2.3-0.7l-8.5,3.6v8.9l8.5,3.6l0,0c0.5,0.3,1.1,0.3,1.6-0.1
		c0.6-0.3,0.9-0.9,0.9-1.5l0,0V11.5L137,11.5z M123.3,24.7V11.2c0-0.1,0-0.1,0-0.2c0-0.1,0-0.1,0-0.2c-0.1-1.8-1.4-3.4-3.2-3.8
		c-0.9,0-2.3,0-5,0C110,7,104.4,7,104,7c-5.5,0-6.5,0.1-6.7,0.2C96,7.5,95,8.4,94.5,9.5c-0.1,0.1-0.1,0.2-0.1,0.3
		C93.5,12.4,93,15.2,93,18c0,2.7,0.5,5.5,1.3,8c0.1,0.2,0.1,0.3,0.2,0.5c0.5,1.2,1.6,2.1,2.9,2.3c0.1,0,1.1,0.2,6.6,0.2
		c3.8,0,7.5,0,11,0c3.1,0,4.5,0,5-0.1c1.8-0.2,3.1-1.9,3.2-3.8c0-0.1,0-0.1,0-0.2C123.3,24.8,123.3,24.8,123.3,24.7z"/>
	<path class="st3" d="M115,162.3c2.1,0,3.7-2.1,3.7-4.4c0-2.4-1.6-4.1-3.7-4.1s-3.7,1.8-3.7,4.1C111.3,160.2,112.9,162.3,115,162.3z
		 M118.5,163.8c-0.3,0-0.6,0.1-1,0.1l0,0c-0.6,0.2-1.6,0.5-2.5,0.5l0,0l0,0l0,0l0,0c-1,0-1.9-0.3-2.5-0.5l0,0
		c-0.3-0.1-0.6-0.1-1-0.1c-2.3,0-4.1,2.1-4.1,4.8v0.7c0,0.5,0.4,1,1,1l0,0h13.2l0,0c0.5,0,1-0.4,1-1v-0.6
		C122.6,166,120.7,163.8,118.5,163.8z M134.7,147.8v28.4H95.3v-28.4H134.7 M134.7,145.5H95.3c-1.3,0-2.3,1-2.3,2.3v28.4
		c0,1.3,1,2.3,2.3,2.3h39.4c1.3,0,2.3-1,2.3-2.3v-28.4C137,146.5,136,145.5,134.7,145.5L134.7,145.5z"/>
	<path class="st3" d="M120.6,196.9l-4.4,4.7l0,0l0,0l0,0c-0.2,0.3-0.7,0.4-1,0.4s-0.9-0.1-1-0.4l-4.6-4.7c-0.6-0.7-0.6-1.6,0-2.4
		c0.6-0.7,1.5-0.7,2.2,0l3.4,3.4l3.4-3.4c0.6-0.7,1.5-0.7,2.2,0C121.1,195.3,121.1,196.2,120.6,196.9z"/>
</g>
<g>
	<path class="st0" d="M179,12.7c0-0.2-0.1-0.5-0.2-0.7c-0.4-0.7-1.2-0.9-1.9-0.6l-7,2.9v7.3l7,2.9l0,0c0.4,0.2,0.9,0.2,1.3-0.1
		c0.5-0.2,0.7-0.7,0.7-1.2l0,0V12.7L179,12.7z M167.8,23.5v-11c0-0.1,0-0.1,0-0.2c0-0.1,0-0.1,0-0.2c-0.1-1.5-1.1-2.8-2.6-3.1
		c-0.7,0-1.9,0-4.1,0c-4.2,0-8.8,0-9.1,0c-4.5,0-5.3,0.1-5.5,0.2c-1.1,0.2-1.9,1-2.3,1.9c0,0.2-0.1,0.2-0.1,0.3
		c-0.7,2-1.1,4.3-1.1,6.6c0,2.2,0.4,4.5,1.1,6.5c0.1,0.2,0.1,0.2,0.2,0.4c0.4,1,1.3,1.7,2.4,1.9c0.1,0,0.9,0.2,5.4,0.2
		c3.1,0,6.1,0,9,0c2.5,0,3.7,0,4.1-0.1c1.5-0.2,2.5-1.6,2.6-3.1c0-0.1,0-0.1,0-0.2C167.8,23.6,167.8,23.6,167.8,23.5z"/>
	<path class="st0" d="M163.4,89.1v11.4h-14.5V89.1H163.4 M164.2,86.7h-16c-1,0-1.6,0.7-1.6,1.6v13c0,1,0.7,1.6,1.6,1.6h16.1
		c1,0,1.6-0.7,1.6-1.6V88.2C165.8,87.6,165.2,86.7,164.2,86.7z M173.9,77h-16c-1,0-1.6,0.7-1.6,1.6v5h2.4v-4.2h14.5v11.4h-4v2.4h4.8
		c1,0,1.6-0.7,1.6-1.6V78.4C175.5,77.7,174.8,77,173.9,77z"/>
	<path class="st0" d="M170.8,118.4c0.5,0,0.7-0.5,0.7-0.9c0-0.5-0.5-0.9-0.7-0.9h-0.6l0.3-1.6c0-0.2,0-0.2,0-0.2
		c0-0.5-0.5-0.9-0.7-0.9c-0.3,0-0.7,0.5-0.7,0.7l-0.5,1.8h-1.4l0.3-1.4c0-0.2,0-0.2,0-0.2c0-0.5-0.5-0.9-0.7-0.9
		c-0.5,0-0.7,0.5-0.7,0.7l-0.5,1.8H165c-0.5,0-0.7,0.5-0.7,0.9c0,0.5,0.5,0.7,0.9,0.7h0.6l-0.3,1.2h-0.9c-0.5,0-0.7,0.5-0.7,0.9
		c0,0.5,0.5,0.9,0.7,0.9h0.5l-0.3,1.8c0,0.2,0,0.2,0,0.2c0,0.5,0.5,0.9,0.7,0.9c0.2,0,0.7-0.5,0.7-0.7l0.5-1.9h1.4l-0.5,1.7
		c0,0.2,0,0.2,0,0.2c0,0.5,0.5,0.9,0.7,0.9c0.3,0,0.7-0.5,0.7-0.7l0.5-1.9h0.6c0.5,0,0.7-0.5,0.7-0.9c0-0.5-0.5-0.9-0.7-0.9h-0.5
		l0.3-1.2L170.8,118.4L170.8,118.4z M168.3,119.5h-1.4l0.2-1.2h1.4L168.3,119.5z M172.6,132.6c-0.2-1-0.9-1.7-1.8-1.9l-4.2-1.2
		c-1.4-0.5-2.9,0.5-3.1,1.8l-0.2,0.5c-1.8-0.6-3.8-1.7-5.3-3.1c-1.6-1.6-2.6-3.4-3.1-5.3l0.3-0.2c1.4-0.5,2.3-1.8,1.8-3.1l-0.9-4.2
		c-0.3-1-1-1.7-1.9-1.8c-0.7-0.2-1.6-0.2-2.3,0c-0.9,0.3-1.6,0.7-2.1,1.2c-0.5,0.5-0.9,1.1-0.9,1.7v0.2c0,5.4,1.9,10.7,6.1,14.8l0,0
		c4.1,4.1,9.5,6.1,14.8,6.1h0.2c0.7,0,1.2-0.3,1.8-0.7c0.6-0.6,1-1.2,1.2-2.1C172.9,134.2,172.9,133.4,172.6,132.6z"/>
	<path class="st0" d="M161,162.2c1.7,0,3-1.7,3-3.6c0-2-1.3-3.4-3-3.4s-3,1.5-3,3.4C158,160.5,159.3,162.2,161,162.2z M163.9,163.5
		c-0.2,0-0.5,0.1-0.8,0.1l0,0c-0.5,0.2-1.3,0.4-2,0.4l0,0l0,0l0,0l0,0c-0.8,0-1.6-0.2-2-0.4l0,0c-0.2-0.1-0.5-0.1-0.8-0.1
		c-1.9,0-3.4,1.7-3.4,3.9v0.6c0,0.4,0.3,0.8,0.8,0.8l0,0h10.8l0,0c0.4,0,0.8-0.3,0.8-0.8v-0.5C167.2,165.3,165.7,163.5,163.9,163.5z
		 M177.1,150.4v23.2h-32.2v-23.2H177.1 M177.1,148.5h-32.2c-1.1,0-1.9,0.8-1.9,1.9v23.2c0,1.1,0.8,1.9,1.9,1.9h32.2
		c1.1,0,1.9-0.8,1.9-1.9v-23.2C179,149.3,178.2,148.5,177.1,148.5L177.1,148.5z"/>
	<path class="st0" d="M175.3,47.9c-0.9-3.3-3.5-5.9-7-6.7c-2.4-0.2-4.8-0.6-7.2-0.6c-2.5,0-4.9,0.2-7.2,0.6c-3.4,0.6-6.2,3.3-7,6.5
		c-0.5,1.4-0.7,2.7-0.7,3.9l0,0c0,1.3,0.2,2.5,0.6,3.7c0.9,3.3,3.5,5.9,7,6.7c2.4,0.5,4.8,0.2,7.2,0.2c0,0,0,4.7,0,4
		c0,0.6,0.6,1.2,1,1.2c0.2,0,0.6-0.2,0.6-0.2l0,0l8.9-6.7c1.8-1.3,3.1-3,3.7-5.2c0.2-1.2,0.6-2.4,0.6-3.7l0,0
		C175.8,50.5,175.7,49.1,175.3,47.9z M162,54.8h-7.9c-0.6,0-0.9-0.5-0.9-0.9c0-0.6,0.5-0.9,0.9-0.9h7.9c0.6,0,0.9,0.5,0.9,0.9
		C163,54.3,162.6,54.8,162,54.8z M168,50.8h-13.8c-0.6,0-1-0.5-1-0.9c0-0.5,0.6-0.9,1-0.9H168c0.6,0,1,0.5,1,0.9
		C169,50.4,168.5,50.8,168,50.8z"/>
</g>
<g>
	<path class="st2" d="M225,12.7c0-0.2-0.1-0.5-0.2-0.7c-0.4-0.7-1.2-0.9-1.9-0.6l-7,2.9v7.3l7,2.9l0,0c0.4,0.2,0.9,0.2,1.3-0.1
		c0.5-0.2,0.7-0.7,0.7-1.2l0,0V12.7L225,12.7z M213.8,23.5v-11c0-0.1,0-0.1,0-0.2c0-0.1,0-0.1,0-0.2c-0.1-1.5-1.1-2.8-2.6-3.1
		c-0.7,0-1.9,0-4.1,0c-4.2,0-8.8,0-9.1,0c-4.5,0-5.3,0.1-5.5,0.2c-1.1,0.2-1.9,1-2.3,1.9c0,0.2-0.1,0.2-0.1,0.3
		c-0.7,2-1.1,4.3-1.1,6.6c0,2.2,0.4,4.5,1.1,6.5c0.1,0.2,0.1,0.2,0.2,0.4c0.4,1,1.3,1.7,2.4,1.9c0.1,0,0.9,0.2,5.4,0.2
		c3.1,0,6.1,0,9,0c2.5,0,3.7,0,4.1-0.1c1.5-0.2,2.5-1.6,2.6-3.1c0-0.1,0-0.1,0-0.2C213.8,23.6,213.8,23.6,213.8,23.5z"/>
	<path class="st2" d="M209.4,89.1v11.4h-14.5V89.1H209.4 M210.2,86.7h-16c-1,0-1.6,0.7-1.6,1.6v13c0,1,0.7,1.6,1.6,1.6h16.1
		c1,0,1.6-0.7,1.6-1.6V88.2C211.8,87.6,211.2,86.7,210.2,86.7z M219.9,77h-16c-1,0-1.6,0.7-1.6,1.6v5h2.4v-4.2h14.5v11.4h-4v2.4h4.8
		c1,0,1.6-0.7,1.6-1.6V78.4C221.5,77.7,220.8,77,219.9,77z"/>
	<path class="st2" d="M216.8,118.4c0.5,0,0.7-0.5,0.7-0.9c0-0.5-0.5-0.9-0.7-0.9h-0.6l0.3-1.6c0-0.2,0-0.2,0-0.2
		c0-0.5-0.5-0.9-0.7-0.9c-0.3,0-0.7,0.5-0.7,0.7l-0.5,1.8h-1.4l0.3-1.4c0-0.2,0-0.2,0-0.2c0-0.5-0.5-0.9-0.7-0.9
		c-0.5,0-0.7,0.5-0.7,0.7l-0.5,1.8H211c-0.5,0-0.7,0.5-0.7,0.9c0,0.5,0.5,0.7,0.9,0.7h0.6l-0.3,1.2h-0.9c-0.5,0-0.7,0.5-0.7,0.9
		c0,0.5,0.5,0.9,0.7,0.9h0.5l-0.3,1.8c0,0.2,0,0.2,0,0.2c0,0.5,0.5,0.9,0.7,0.9c0.2,0,0.7-0.5,0.7-0.7l0.5-1.9h1.4l-0.5,1.7
		c0,0.2,0,0.2,0,0.2c0,0.5,0.5,0.9,0.7,0.9c0.3,0,0.7-0.5,0.7-0.7l0.5-1.9h0.6c0.5,0,0.7-0.5,0.7-0.9c0-0.5-0.5-0.9-0.7-0.9h-0.5
		l0.3-1.2L216.8,118.4L216.8,118.4z M214.3,119.5h-1.4l0.2-1.2h1.4L214.3,119.5z M218.6,132.6c-0.2-1-0.9-1.7-1.8-1.9l-4.2-1.2
		c-1.4-0.5-2.9,0.5-3.1,1.8l-0.2,0.5c-1.8-0.6-3.8-1.7-5.3-3.1c-1.6-1.6-2.6-3.4-3.1-5.3l0.3-0.2c1.4-0.5,2.3-1.8,1.8-3.1l-0.9-4.2
		c-0.3-1-1-1.7-1.9-1.8c-0.7-0.2-1.6-0.2-2.3,0c-0.9,0.3-1.6,0.7-2.1,1.2c-0.5,0.5-0.9,1.1-0.9,1.7v0.2c0,5.4,1.9,10.7,6.1,14.8l0,0
		c4.1,4.1,9.5,6.1,14.8,6.1h0.2c0.7,0,1.2-0.3,1.8-0.7c0.6-0.6,1-1.2,1.2-2.1C218.9,134.2,218.9,133.4,218.6,132.6z"/>
	<path class="st2" d="M207,162.2c1.7,0,3-1.7,3-3.6c0-2-1.3-3.4-3-3.4s-3,1.5-3,3.4C204,160.5,205.3,162.2,207,162.2z M209.9,163.5
		c-0.2,0-0.5,0.1-0.8,0.1l0,0c-0.5,0.2-1.3,0.4-2,0.4l0,0l0,0l0,0l0,0c-0.8,0-1.6-0.2-2-0.4l0,0c-0.2-0.1-0.5-0.1-0.8-0.1
		c-1.9,0-3.4,1.7-3.4,3.9v0.6c0,0.4,0.3,0.8,0.8,0.8l0,0h10.8l0,0c0.4,0,0.8-0.3,0.8-0.8v-0.5C213.2,165.3,211.7,163.5,209.9,163.5z
		 M223.1,150.4v23.2h-32.2v-23.2H223.1 M223.1,148.5h-32.2c-1.1,0-1.9,0.8-1.9,1.9v23.2c0,1.1,0.8,1.9,1.9,1.9h32.2
		c1.1,0,1.9-0.8,1.9-1.9v-23.2C225,149.3,224.2,148.5,223.1,148.5L223.1,148.5z"/>
	<path class="st2" d="M221.3,47.9c-0.9-3.3-3.5-5.9-7-6.7c-2.4-0.2-4.8-0.6-7.2-0.6c-2.5,0-4.9,0.2-7.2,0.6c-3.4,0.6-6.2,3.3-7,6.5
		c-0.5,1.4-0.7,2.7-0.7,3.9l0,0c0,1.3,0.2,2.5,0.6,3.7c0.9,3.3,3.5,5.9,7,6.7c2.4,0.5,4.8,0.2,7.2,0.2c0,0,0,4.7,0,4
		c0,0.6,0.6,1.2,1,1.2c0.2,0,0.6-0.2,0.6-0.2l0,0l8.9-6.7c1.8-1.3,3.1-3,3.7-5.2c0.2-1.2,0.6-2.4,0.6-3.7l0,0
		C221.8,50.5,221.7,49.1,221.3,47.9z M208,54.8h-7.9c-0.6,0-0.9-0.5-0.9-0.9c0-0.6,0.5-0.9,0.9-0.9h7.9c0.6,0,0.9,0.5,0.9,0.9
		C209,54.3,208.6,54.8,208,54.8z M214,50.8h-13.8c-0.6,0-1-0.5-1-0.9c0-0.5,0.6-0.9,1-0.9H214c0.6,0,1,0.5,1,0.9
		C215,50.4,214.5,50.8,214,50.8z"/>
</g>
<g>
	<path class="st3" d="M271,12.7c0-0.2-0.1-0.5-0.2-0.7c-0.4-0.7-1.2-0.9-1.9-0.6l-7,2.9v7.3l7,2.9l0,0c0.4,0.2,0.9,0.2,1.3-0.1
		c0.5-0.2,0.7-0.7,0.7-1.2l0,0V12.7L271,12.7z M259.8,23.5v-11c0-0.1,0-0.1,0-0.2c0-0.1,0-0.1,0-0.2c-0.1-1.5-1.1-2.8-2.6-3.1
		c-0.7,0-1.9,0-4.1,0c-4.2,0-8.8,0-9.1,0c-4.5,0-5.3,0.1-5.5,0.2c-1.1,0.2-1.9,1-2.3,1.9c0,0.2-0.1,0.2-0.1,0.3
		c-0.7,2-1.1,4.3-1.1,6.6c0,2.2,0.4,4.5,1.1,6.5c0.1,0.2,0.1,0.2,0.2,0.4c0.4,1,1.3,1.7,2.4,1.9c0.1,0,0.9,0.2,5.4,0.2
		c3.1,0,6.1,0,9,0c2.5,0,3.7,0,4.1-0.1c1.5-0.2,2.5-1.6,2.6-3.1c0-0.1,0-0.1,0-0.2C259.8,23.6,259.8,23.6,259.8,23.5z"/>
	<path class="st3" d="M255.4,89.1v11.4h-14.5V89.1H255.4 M256.2,86.7h-16c-1,0-1.6,0.7-1.6,1.6v13c0,1,0.7,1.6,1.6,1.6h16.1
		c1,0,1.6-0.7,1.6-1.6V88.2C257.8,87.6,257.2,86.7,256.2,86.7z M265.9,77h-16c-1,0-1.6,0.7-1.6,1.6v5h2.4v-4.2h14.5v11.4h-4v2.4h4.8
		c1,0,1.6-0.7,1.6-1.6V78.4C267.5,77.7,266.8,77,265.9,77z"/>
	<path class="st3" d="M262.8,118.4c0.5,0,0.7-0.5,0.7-0.9c0-0.5-0.5-0.9-0.7-0.9h-0.6l0.3-1.6c0-0.2,0-0.2,0-0.2
		c0-0.5-0.5-0.9-0.7-0.9c-0.3,0-0.7,0.5-0.7,0.7l-0.5,1.8h-1.4l0.3-1.4c0-0.2,0-0.2,0-0.2c0-0.5-0.5-0.9-0.7-0.9
		c-0.5,0-0.7,0.5-0.7,0.7l-0.5,1.8H257c-0.5,0-0.7,0.5-0.7,0.9c0,0.5,0.5,0.7,0.9,0.7h0.6l-0.3,1.2h-0.9c-0.5,0-0.7,0.5-0.7,0.9
		c0,0.5,0.5,0.9,0.7,0.9h0.5l-0.3,1.8c0,0.2,0,0.2,0,0.2c0,0.5,0.5,0.9,0.7,0.9c0.2,0,0.7-0.5,0.7-0.7l0.5-1.9h1.4l-0.5,1.7
		c0,0.2,0,0.2,0,0.2c0,0.5,0.5,0.9,0.7,0.9c0.3,0,0.7-0.5,0.7-0.7l0.5-1.9h0.6c0.5,0,0.7-0.5,0.7-0.9c0-0.5-0.5-0.9-0.7-0.9h-0.5
		l0.3-1.2L262.8,118.4L262.8,118.4z M260.3,119.5h-1.4l0.2-1.2h1.4L260.3,119.5z M264.6,132.6c-0.2-1-0.9-1.7-1.8-1.9l-4.2-1.2
		c-1.4-0.5-2.9,0.5-3.1,1.8l-0.2,0.5c-1.8-0.6-3.8-1.7-5.3-3.1c-1.6-1.6-2.6-3.4-3.1-5.3l0.3-0.2c1.4-0.5,2.3-1.8,1.8-3.1l-0.9-4.2
		c-0.3-1-1-1.7-1.9-1.8c-0.7-0.2-1.6-0.2-2.3,0c-0.9,0.3-1.6,0.7-2.1,1.2c-0.5,0.5-0.9,1.1-0.9,1.7v0.2c0,5.4,1.9,10.7,6.1,14.8l0,0
		c4.1,4.1,9.5,6.1,14.8,6.1h0.2c0.7,0,1.2-0.3,1.8-0.7c0.6-0.6,1-1.2,1.2-2.1C264.9,134.2,264.9,133.4,264.6,132.6z"/>
	<path class="st3" d="M253,162.2c1.7,0,3-1.7,3-3.6c0-2-1.3-3.4-3-3.4s-3,1.5-3,3.4C250,160.5,251.3,162.2,253,162.2z M255.9,163.5
		c-0.2,0-0.5,0.1-0.8,0.1l0,0c-0.5,0.2-1.3,0.4-2,0.4l0,0l0,0l0,0l0,0c-0.8,0-1.6-0.2-2-0.4l0,0c-0.2-0.1-0.5-0.1-0.8-0.1
		c-1.9,0-3.4,1.7-3.4,3.9v0.6c0,0.4,0.3,0.8,0.8,0.8l0,0h10.8l0,0c0.4,0,0.8-0.3,0.8-0.8v-0.5C259.2,165.3,257.7,163.5,255.9,163.5z
		 M269.1,150.4v23.2h-32.2v-23.2H269.1 M269.1,148.5h-32.2c-1.1,0-1.9,0.8-1.9,1.9v23.2c0,1.1,0.8,1.9,1.9,1.9h32.2
		c1.1,0,1.9-0.8,1.9-1.9v-23.2C271,149.3,270.2,148.5,269.1,148.5L269.1,148.5z"/>
	<path class="st3" d="M267.3,47.9c-0.9-3.3-3.5-5.9-7-6.7c-2.4-0.2-4.8-0.6-7.2-0.6c-2.5,0-4.9,0.2-7.2,0.6c-3.4,0.6-6.2,3.3-7,6.5
		c-0.5,1.4-0.7,2.7-0.7,3.9l0,0c0,1.3,0.2,2.5,0.6,3.7c0.9,3.3,3.5,5.9,7,6.7c2.4,0.5,4.8,0.2,7.2,0.2c0,0,0,4.7,0,4
		c0,0.6,0.6,1.2,1,1.2c0.2,0,0.6-0.2,0.6-0.2l0,0l8.9-6.7c1.8-1.3,3.1-3,3.7-5.2c0.2-1.2,0.6-2.4,0.6-3.7l0,0
		C267.8,50.5,267.7,49.1,267.3,47.9z M254,54.8h-7.9c-0.6,0-0.9-0.5-0.9-0.9c0-0.6,0.5-0.9,0.9-0.9h7.9c0.6,0,0.9,0.5,0.9,0.9
		C255,54.3,254.6,54.8,254,54.8z M260,50.8h-13.8c-0.6,0-1-0.5-1-0.9c0-0.5,0.6-0.9,1-0.9H260c0.6,0,1,0.5,1,0.9
		C261,50.4,260.5,50.8,260,50.8z"/>
</g>
</svg>
