<?xml version="1.0" encoding="utf-8"?>
<!-- Generator: Adobe Illustrator 19.2.1, SVG Export Plug-In . SVG Version: 6.00 Build 0)  -->
<svg version="1.1" id="Layer_1" xmlns="http://www.w3.org/2000/svg" xmlns:xlink="http://www.w3.org/1999/xlink" x="0px" y="0px"
	 width="64px" height="512px" viewBox="0 0 64 512" style="enable-background:new 0 0 64 512;" xml:space="preserve">
<style type="text/css">
	.st0{fill:#FFFFFF;}
</style>
<path class="st0" d="M41.3,30.2l-7.4,7.4l0,0l0,0l0,0c-0.4,0.4-1.3,0.7-1.8,0.7s-1.4-0.2-1.8-0.7l-7.5-7.4c-1.1-1.1-1.1-2.5,0-3.8
	c1.1-1.1,2.5-1.1,3.8,0l5.6,5.4l5.6-5.4c1.1-1.1,2.5-1.1,3.8,0C42.2,27.7,42.2,29.2,41.3,30.2z"/>
<path class="st0" d="M22.8,417.7l7.4-7.4l0,0l0,0l0,0c0.4-0.4,1.3-0.7,1.8-0.7c0.5,0,1.4,0.2,1.8,0.7l7.5,7.4c1.1,1.1,1.1,2.5,0,3.8
	c-1.1,1.1-2.5,1.1-3.8,0l-5.6-5.4l-5.6,5.4c-1.1,1.1-2.5,1.1-3.8,0C21.9,420.2,21.9,418.7,22.8,417.7z"/>
<path class="st0" d="M39,94.7l-5.5,5.5l0,0l0,0l0,0c-0.3,0.3-0.9,0.5-1.3,0.5c-0.4,0-1.1-0.1-1.3-0.5l-5.7-5.5
	c-0.8-0.8-0.8-1.9,0-2.8c0.8-0.8,1.9-0.8,2.8,0l4.2,4l4.2-4c0.8-0.8,1.9-0.8,2.8,0C39.7,92.8,39.7,93.9,39,94.7z"/>
<path class="st0" d="M25.1,481.3l5.5-5.5l0,0l0,0l0,0c0.3-0.3,0.9-0.5,1.3-0.5c0.4,0,1.1,0.1,1.3,0.5l5.7,5.5c0.8,0.8,0.8,1.9,0,2.8
	c-0.8,0.8-1.9,0.8-2.8,0l-4.2-4l-4.2,4c-0.8,0.8-1.9,0.8-2.8,0C24.4,483.2,24.4,482.1,25.1,481.3z"/>
<path class="st0" d="M30.3,150.7l7.4,7.4l0,0l0,0l0,0c0.4,0.4,0.7,1.3,0.7,1.8s-0.2,1.4-0.7,1.8l-7.4,7.5c-1.1,1.1-2.5,1.1-3.8,0
	c-1.1-1.1-1.1-2.5,0-3.8l5.4-5.6l-5.4-5.6c-1.1-1.1-1.1-2.5,0-3.8C27.8,149.8,29.3,149.8,30.3,150.7z"/>
<path class="st0" d="M30.8,217.1l5.5,5.5l0,0l0,0l0,0c0.3,0.3,0.5,0.9,0.5,1.3c0,0.4-0.1,1.1-0.5,1.3l-5.5,5.7
	c-0.8,0.8-1.9,0.8-2.8,0c-0.8-0.8-0.8-1.9,0-2.8l4-4.2l-4-4.2c-0.8-0.8-0.8-1.9,0-2.8C28.9,216.4,30,216.4,30.8,217.1z"/>
<path class="st0" d="M33.7,297.3l-7.4-7.4l0,0l0,0l0,0c-0.4-0.4-0.7-1.3-0.7-1.8s0.2-1.4,0.7-1.8l7.4-7.5c1.1-1.1,2.5-1.1,3.8,0
	c1.1,1.1,1.1,2.5,0,3.8l-5.4,5.6l5.4,5.6c1.1,1.1,1.1,2.5,0,3.8C36.2,298.2,34.7,298.2,33.7,297.3z"/>
<path class="st0" d="M33.4,359l-5.5-5.5l0,0l0,0l0,0c-0.3-0.3-0.5-0.9-0.5-1.3s0.1-1.1,0.5-1.3l5.5-5.7c0.8-0.8,1.9-0.8,2.8,0
	c0.8,0.8,0.8,1.9,0,2.8l-4,4.2l4,4.2c0.8,0.8,0.8,1.9,0,2.8C35.3,359.7,34.2,359.7,33.4,359z"/>
</svg>
