<?xml version="1.0" encoding="utf-8"?>
<!-- Generator: Adobe Illustrator 16.0.1, SVG Export Plug-In . SVG Version: 6.00 Build 0)  -->
<!DOCTYPE svg PUBLIC "-//W3C//DTD SVG 1.1 Tiny//EN" "http://www.w3.org/Graphics/SVG/1.1/DTD/svg11-tiny.dtd">
<svg version="1.1" baseProfile="tiny" id="Layer_1" xmlns="http://www.w3.org/2000/svg" xmlns:xlink="http://www.w3.org/1999/xlink"
	 x="0px" y="0px" width="17px" height="17px" viewBox="0 0 17 17" xml:space="preserve">
<path id="Blue_1_" fill="#3C5A98" d="M16.062,17C16.58,17,17,16.58,17,16.062V0.938C17,0.42,16.58,0,16.062,0H0.938
	C0.42,0,0,0.42,0,0.938v15.124C0,16.58,0.42,17,0.938,17H16.062z"/>
<path id="f" fill="#FFFFFF" d="M11.729,17v-6.583h2.21l0.331-2.566h-2.541V6.213c0-0.743,0.206-1.249,1.271-1.249l1.358,0V2.668
	c-0.234-0.031-1.041-0.101-1.979-0.101c-1.958,0-3.3,1.196-3.3,3.392v1.892H6.865v2.566H9.08V17H11.729z"/>
<g>
</g>
<g>
</g>
<g>
</g>
<g>
</g>
<g>
</g>
<g>
</g>
</svg>
