<?xml version="1.0" encoding="utf-8"?>
<!-- Generator: Adobe Illustrator 16.0.1, SVG Export Plug-In . SVG Version: 6.00 Build 0)  -->
<!DOCTYPE svg PUBLIC "-//W3C//DTD SVG 1.1//EN" "http://www.w3.org/Graphics/SVG/1.1/DTD/svg11.dtd">
<svg version="1.1" id="Layer_2" xmlns="http://www.w3.org/2000/svg" xmlns:xlink="http://www.w3.org/1999/xlink" x="0px" y="0px"
	 width="600px" height="166px" viewBox="0 0 600 166" enable-background="new 0 0 600 166" xml:space="preserve">
<g>
	<defs>
		<rect id="SVGID_1_" width="600" height="166"/>
	</defs>
	<clipPath id="SVGID_2_">
		<use xlink:href="#SVGID_1_"  overflow="visible"/>
	</clipPath>
	<g id="RadGrads" clip-path="url(#SVGID_2_)">
		<g>
			<g>
				<path opacity="0.1" fill="#00AFF0" enable-background="new    " d="M3.278,177.583c0,78.188,63.383,141.571,141.574,141.571
					c78.195,0,141.581-63.383,141.581-141.571C286.434,99.385,223.048,36,144.853,36C66.66,36.001,3.278,99.385,3.278,177.583z"/>
			</g>
			<g>
				<path opacity="0.2" fill="#00AFF0" enable-background="new    " d="M16.761,177.583c0,70.742,57.346,128.089,128.091,128.089
					c70.748,0,128.098-57.347,128.098-128.089c0-70.752-57.349-128.099-128.098-128.099
					C74.106,49.484,16.761,106.831,16.761,177.583z"/>
			</g>
			<g>
				<path opacity="0.3" fill="#00AFF0" enable-background="new    " d="M30.401,177.271c0,63.296,51.311,114.606,114.609,114.606
					c63.3,0,114.612-51.309,114.612-114.606c0-63.304-51.312-114.614-114.612-114.614C81.712,62.656,30.401,113.967,30.401,177.271z
					"/>
			</g>
			<g>
				<path opacity="0.7" fill="#00AFF0" enable-background="new    " d="M43.728,177.581c0,55.851,45.274,101.124,101.126,101.124
					c55.854,0,101.129-45.273,101.129-101.124c0-55.854-45.275-101.13-101.128-101.13C87.32,76.451,43.728,123.603,43.728,177.581z"
					/>
			</g>
			<g>
				<path fill="#66CAF1" d="M57.212,177.58c0,48.403,39.238,87.641,87.641,87.641c48.406,0,87.645-39.238,87.645-87.641
					c0-48.408-39.239-87.646-87.645-87.646C96.45,89.935,57.212,129.173,57.212,177.58z"/>
			</g>
			<g>
				<path fill="#FFFFFF" d="M57.212,177.58c0,48.403,39.238,87.641,87.641,87.641c48.406,0,87.645-39.238,87.645-87.641
					c0-48.408-39.239-87.646-87.645-87.646C96.45,89.935,57.212,129.173,57.212,177.58z"/>
			</g>
		</g>
	</g>
	<g id="RadGrads_1_" clip-path="url(#SVGID_2_)">
		<g>
			<g>
				<path opacity="0.1" fill="#00AFF0" enable-background="new    " d="M314.278,177.583c0,78.188,63.383,141.571,141.574,141.571
					c78.195,0,141.581-63.383,141.581-141.571C597.434,99.385,534.048,36,455.853,36C377.66,36.001,314.278,99.385,314.278,177.583z
					"/>
			</g>
			<g>
				<path opacity="0.2" fill="#00AFF0" enable-background="new    " d="M327.762,177.583c0,70.742,57.346,128.089,128.091,128.089
					c70.748,0,128.098-57.347,128.098-128.089c0-70.752-57.349-128.099-128.098-128.099
					C385.105,49.484,327.762,106.831,327.762,177.583z"/>
			</g>
			<g>
				<path opacity="0.3" fill="#00AFF0" enable-background="new    " d="M341.401,177.271c0,63.296,51.311,114.606,114.609,114.606
					c63.3,0,114.612-51.309,114.612-114.606c0-63.304-51.312-114.614-114.612-114.614
					C392.712,62.656,341.401,113.967,341.401,177.271z"/>
			</g>
			<g>
				<path opacity="0.7" fill="#00AFF0" enable-background="new    " d="M354.728,177.581c0,55.851,45.274,101.124,101.126,101.124
					c55.854,0,101.129-45.273,101.129-101.124c0-55.854-45.275-101.13-101.128-101.13S354.728,121.727,354.728,177.581z"/>
			</g>
			<g>
				<path fill="#66CAF1" d="M368.213,177.58c0,48.403,39.237,87.641,87.641,87.641c48.406,0,87.645-39.238,87.645-87.641
					c0-48.408-39.239-87.646-87.645-87.646C407.45,89.935,368.213,129.173,368.213,177.58z"/>
			</g>
			<g>
				<path fill="#FFFFFF" d="M368.213,177.58c0,48.403,39.237,87.641,87.641,87.641c48.406,0,87.645-39.238,87.645-87.641
					c0-48.408-39.239-87.646-87.645-87.646C407.45,89.935,368.213,129.173,368.213,177.58z"/>
			</g>
		</g>
	</g>
	<circle clip-path="url(#SVGID_2_)" fill="#FFFFFF" cx="300" cy="152.5" r="141.5"/>
</g>
</svg>
