<?xml version="1.0" encoding="UTF-8" standalone="no"?>
<!-- Generator: Adobe Illustrator 16.0.0, SVG Export Plug-In . SVG Version: 6.00 Build 0)  -->

<svg
   xmlns:dc="http://purl.org/dc/elements/1.1/"
   xmlns:cc="http://creativecommons.org/ns#"
   xmlns:rdf="http://www.w3.org/1999/02/22-rdf-syntax-ns#"
   xmlns:svg="http://www.w3.org/2000/svg"
   xmlns="http://www.w3.org/2000/svg"
   xmlns:sodipodi="http://sodipodi.sourceforge.net/DTD/sodipodi-0.dtd"
   xmlns:inkscape="http://www.inkscape.org/namespaces/inkscape"
   version="1.1"
   id="Layer_1_copy"
   x="0px"
   y="0px"
   width="184"
   height="72"
   viewBox="0 0 184 71.999998"
   enable-background="new 0 0 80 78"
   xml:space="preserve"
   inkscape:version="0.48.2 r9819"
   sodipodi:docname="elements-search-sprite.svg"
   inkscape:export-filename="/Users/vaikohansson/Sites/knowledgebase/src/main/webapp/images/responsive/elements/elements-search-sprite.png"
   inkscape:export-xdpi="90"
   inkscape:export-ydpi="90"><metadata
   id="metadata3029"><rdf:RDF><cc:Work
       rdf:about=""><dc:format>image/svg+xml</dc:format><dc:type
         rdf:resource="http://purl.org/dc/dcmitype/StillImage" /><dc:title></dc:title></cc:Work></rdf:RDF></metadata><defs
   id="defs3027" /><sodipodi:namedview
   pagecolor="#ff121e"
   bordercolor="#666666"
   borderopacity="1"
   objecttolerance="10"
   gridtolerance="10"
   guidetolerance="10"
   inkscape:pageopacity="0"
   inkscape:pageshadow="2"
   inkscape:window-width="1500"
   inkscape:window-height="858"
   id="namedview3025"
   showgrid="true"
   inkscape:zoom="10.463254"
   inkscape:cx="97.8422"
   inkscape:cy="26.634287"
   inkscape:window-x="74"
   inkscape:window-y="88"
   inkscape:window-maximized="0"
   inkscape:current-layer="Layer_1_copy"
   inkscape:snap-global="false"
   fit-margin-top="0"
   fit-margin-left="0"
   fit-margin-right="0"
   fit-margin-bottom="0"><inkscape:grid
     type="xygrid"
     id="grid3005"
     empspacing="5"
     visible="true"
     enabled="true"
     snapvisiblegridlinesonly="true" /></sodipodi:namedview>
<g
   id="g3009"
   transform="translate(0.09557256,-0.04836357)">
	<path
   d="m 31.473,26.947 c -1.971,-2.919 -4.23,-5.699 -6.754,-8.321 0.822,-1.699 1.296,-3.601 1.296,-5.618 C 26.015,5.825 20.191,0 13.007,0 5.822,0 0,5.825 0,13.008 c 0,7.186 5.822,13.009 13.007,13.009 2.014,0 3.917,-0.472 5.617,-1.295 2.619,2.523 5.395,4.781 8.312,6.747 1.264,0.833 2.992,0.682 4.101,-0.427 1.111,-1.112 1.267,-2.831 0.436,-4.095 z M 13.007,19.514 c -3.592,0 -6.503,-2.913 -6.503,-6.506 0,-3.591 2.911,-6.504 6.503,-6.504 3.591,0 6.503,2.914 6.503,6.504 10e-4,3.593 -2.912,6.506 -6.503,6.506 z"
   id="path3011"
   inkscape:connector-curvature="0"
   style="fill:#ffffff" />
</g>
<g
   id="g3013"
   transform="translate(0.09557256,-0.04836357)">
	<path
   d="m 48.964,31.042 c 1.108,1.109 2.837,1.26 4.101,0.427 2.917,-1.966 5.693,-4.224 8.312,-6.747 1.7,0.823 3.603,1.295 5.616,1.295 C 74.178,26.018 80,20.194 80,13.008 80,5.825 74.178,0 66.992,0 59.808,0 53.984,5.825 53.984,13.008 c 0,2.018 0.475,3.919 1.297,5.618 -2.523,2.622 -4.783,5.401 -6.754,8.321 -0.831,1.264 -0.675,2.983 0.437,4.095 z M 60.489,13.008 c 0,-3.591 2.913,-6.504 6.503,-6.504 3.593,0 6.504,2.914 6.504,6.504 0,3.593 -2.911,6.506 -6.504,6.506 -3.59,0 -6.503,-2.913 -6.503,-6.506 z"
   id="path3015"
   inkscape:connector-curvature="0"
   style="fill:#ffffff" />
</g>
<g
   id="g3017"
   transform="translate(0,5.9586602)"
   inkscape:export-filename="C:\Users\anterol\workspace\knowledgebase\src\main\webapp\images\responsive\elements\elements-search-sprite.png"
   inkscape:export-xdpi="90"
   inkscape:export-ydpi="90">
	<path
   d="M 21.638,61.526 C 20.283,59.518 18.729,57.608 16.995,55.805 17.56,54.637 17.886,53.33 17.886,51.943 17.886,47.004 13.882,43 8.943,43 4.003,43 0,47.004 0,51.943 c 0,4.94 4.003,8.944 8.942,8.944 1.385,0 2.693,-0.325 3.862,-0.891 1.8,1.735 3.708,3.287 5.714,4.639 0.869,0.573 2.057,0.469 2.819,-0.294 0.765,-0.764 0.872,-1.946 0.301,-2.815 z M 8.942,56.416 c -2.469,0 -4.471,-2.002 -4.471,-4.472 0,-2.469 2.001,-4.472 4.471,-4.472 2.469,0 4.472,2.003 4.472,4.472 0,2.469 -2.003,4.472 -4.472,4.472 z"
   id="path3019"
   inkscape:connector-curvature="0"
   style="fill:#ffffff" />
</g>
<g
   id="g3021"
   transform="translate(0,5.9586602)"
   inkscape:export-xdpi="90"
   inkscape:export-ydpi="90"
   inkscape:export-filename="C:\Users\anterol\workspace\knowledgebase\src\main\webapp\images\responsive\elements\elements-search-sprite.png">
	<path
   d="m 33.662,64.341 c 0.763,0.763 1.951,0.867 2.82,0.294 2.005,-1.352 3.914,-2.904 5.713,-4.639 1.17,0.566 2.478,0.891 3.862,0.891 4.939,0 8.942,-4.004 8.942,-8.944 C 55,47.004 50.997,43 46.058,43 c -4.938,0 -8.942,4.004 -8.942,8.943 0,1.387 0.325,2.694 0.891,3.862 -1.734,1.802 -3.289,3.713 -4.644,5.721 -0.572,0.869 -0.465,2.051 0.299,2.815 z m 7.924,-12.398 c 0,-2.469 2.003,-4.472 4.472,-4.472 2.47,0 4.471,2.003 4.471,4.472 0,2.47 -2.001,4.472 -4.471,4.472 -2.469,10e-4 -4.472,-2.002 -4.472,-4.472 z"
   id="path3023"
   inkscape:connector-curvature="0"
   style="fill:#ffffff" />
</g>
<g
   id="g2989"
   transform="matrix(1.1275642,0,0,1.1275047,96.099364,-0.04836368)">
	<path
   id="path2991"
   d="m 31.473,26.947 c -1.971,-2.919 -4.23,-5.699 -6.754,-8.321 0.822,-1.699 1.296,-3.601 1.296,-5.618 C 26.015,5.825 20.191,0 13.007,0 5.822,0 0,5.825 0,13.008 c 0,7.186 5.822,13.009 13.007,13.009 2.014,0 3.917,-0.472 5.617,-1.295 2.619,2.523 5.395,4.781 8.312,6.747 1.264,0.833 2.992,0.682 4.101,-0.427 1.111,-1.112 1.267,-2.831 0.436,-4.095 z M 13.007,19.514 c -3.592,0 -6.503,-2.913 -6.503,-6.506 0,-3.591 2.911,-6.504 6.503,-6.504 3.591,0 6.503,2.914 6.503,6.504 10e-4,3.593 -2.912,6.506 -6.503,6.506 z"
   inkscape:connector-curvature="0"
   style="fill:#ffffff" />
</g><g
   id="g2993"
   transform="matrix(1.1148444,0,0,1.1275047,94.911811,-0.04836368)">
	<path
   id="path2995"
   d="m 48.964,31.042 c 1.108,1.109 2.837,1.26 4.101,0.427 2.917,-1.966 5.693,-4.224 8.312,-6.747 1.7,0.823 3.603,1.295 5.616,1.295 C 74.178,26.018 80,20.194 80,13.008 80,5.825 74.178,0 66.992,0 59.808,0 53.984,5.825 53.984,13.008 c 0,2.018 0.475,3.919 1.297,5.618 -2.523,2.622 -4.783,5.401 -6.754,8.321 -0.831,1.264 -0.675,2.983 0.437,4.095 z M 60.489,13.008 c 0,-3.591 2.913,-6.504 6.503,-6.504 3.593,0 6.504,2.914 6.504,6.504 0,3.593 -2.911,6.506 -6.504,6.506 -3.59,0 -6.503,-2.913 -6.503,-6.506 z"
   inkscape:connector-curvature="0"
   style="fill:#ffffff" />
</g><g
   inkscape:export-ydpi="90"
   inkscape:export-xdpi="90"
   inkscape:export-filename="C:\Users\anterol\workspace\knowledgebase\src\main\webapp\images\responsive\elements\elements-search-sprite.png"
   transform="matrix(1.0907946,0,0,1.0907703,96.003791,1.0998142)"
   id="g2997">
	<path
   style="fill:#ffffff"
   inkscape:connector-curvature="0"
   id="path2999"
   d="M 21.638,61.526 C 20.283,59.518 18.729,57.608 16.995,55.805 17.56,54.637 17.886,53.33 17.886,51.943 17.886,47.004 13.882,43 8.943,43 4.003,43 0,47.004 0,51.943 c 0,4.94 4.003,8.944 8.942,8.944 1.385,0 2.693,-0.325 3.862,-0.891 1.8,1.735 3.708,3.287 5.714,4.639 0.869,0.573 2.057,0.469 2.819,-0.294 0.765,-0.764 0.872,-1.946 0.301,-2.815 z M 8.942,56.416 c -2.469,0 -4.471,-2.002 -4.471,-4.472 0,-2.469 2.001,-4.472 4.471,-4.472 2.469,0 4.472,2.003 4.472,4.472 0,2.469 -2.003,4.472 -4.472,4.472 z" />
</g><g
   inkscape:export-filename="C:\Users\anterol\workspace\knowledgebase\src\main\webapp\images\responsive\elements\elements-search-sprite.png"
   inkscape:export-ydpi="90"
   inkscape:export-xdpi="90"
   transform="matrix(1.0911037,0,0,1.0907703,92.993178,1.0998142)"
   id="g3001">
	<path
   style="fill:#ffffff"
   inkscape:connector-curvature="0"
   id="path3003"
   d="m 33.662,64.341 c 0.763,0.763 1.951,0.867 2.82,0.294 2.005,-1.352 3.914,-2.904 5.713,-4.639 1.17,0.566 2.478,0.891 3.862,0.891 4.939,0 8.942,-4.004 8.942,-8.944 C 55,47.004 50.997,43 46.058,43 c -4.938,0 -8.942,4.004 -8.942,8.943 0,1.387 0.325,2.694 0.891,3.862 -1.734,1.802 -3.289,3.713 -4.644,5.721 -0.572,0.869 -0.465,2.051 0.299,2.815 z m 7.924,-12.398 c 0,-2.469 2.003,-4.472 4.472,-4.472 2.47,0 4.471,2.003 4.471,4.472 0,2.47 -2.001,4.472 -4.471,4.472 -2.469,10e-4 -4.472,-2.002 -4.472,-4.472 z" />
</g></svg>