<?xml version="1.0" encoding="UTF-8" standalone="no"?>
<!-- Generator: Adobe Illustrator 16.0.0, SVG Export Plug-In . SVG Version: 6.00 Build 0)  -->

<svg
   xmlns:dc="http://purl.org/dc/elements/1.1/"
   xmlns:cc="http://creativecommons.org/ns#"
   xmlns:rdf="http://www.w3.org/1999/02/22-rdf-syntax-ns#"
   xmlns:svg="http://www.w3.org/2000/svg"
   xmlns="http://www.w3.org/2000/svg"
   xmlns:sodipodi="http://sodipodi.sourceforge.net/DTD/sodipodi-0.dtd"
   xmlns:inkscape="http://www.inkscape.org/namespaces/inkscape"
   version="1.1"
   id="Layer_1"
   x="0px"
   y="0px"
   width="42"
   height="40.000744"
   viewBox="0 0 42 40.000744"
   enable-background="new 0 0 40 38"
   xml:space="preserve"
   inkscape:version="0.48.2 r9819"
   sodipodi:docname="forum-icon-desktop.svg"><metadata
   id="metadata11"><rdf:RDF><cc:Work
       rdf:about=""><dc:format>image/svg+xml</dc:format><dc:type
         rdf:resource="http://purl.org/dc/dcmitype/StillImage" /></cc:Work></rdf:RDF></metadata><defs
   id="defs9" /><sodipodi:namedview
   pagecolor="#ffffff"
   bordercolor="#666666"
   borderopacity="1"
   objecttolerance="10"
   gridtolerance="10"
   guidetolerance="10"
   inkscape:pageopacity="0"
   inkscape:pageshadow="2"
   inkscape:window-width="1564"
   inkscape:window-height="794"
   id="namedview7"
   showgrid="false"
   fit-margin-top="1"
   fit-margin-right="1"
   fit-margin-bottom="1"
   fit-margin-left="1"
   inkscape:zoom="6.2105263"
   inkscape:cx="21"
   inkscape:cy="20.000745"
   inkscape:window-x="0"
   inkscape:window-y="0"
   inkscape:window-maximized="0"
   inkscape:current-layer="Layer_1" />
<g
   id="g3"
   transform="translate(1,1)">
	<path
   d="M 39.354,10.114 C 38.276,5.408 34.542,1.752 29.848,0.874 26.648,0.3 23.357,0 20.001,0 16.643,0 13.354,0.3 10.157,0.875 5.46,1.752 1.723,5.409 0.651,10.115 0.225,11.769 0,13.502 0,15.292 c 0,1.789 0.225,3.522 0.649,5.177 1.074,4.706 4.811,8.363 9.508,9.24 2.783,0.502 5.642,0.777 8.549,0.846 l 6.746,6.768 c 0.157,0.105 0.366,0.359 0.549,0.447 1.688,0.812 2.646,-0.736 2.646,-1.301 v -6.333 c 0.953,-0.118 0.258,-0.258 1.199,-0.427 4.696,-0.877 8.432,-4.534 9.508,-9.24 C 39.775,18.814 40,17.081 40,15.292 c 0,-1.79 -0.225,-3.523 -0.646,-5.178 z"
   id="path5"
   inkscape:connector-curvature="0"
   style="fill:#ffffff" />
</g>
</svg>