<svg xmlns="http://www.w3.org/2000/svg" viewBox="0 0 300 240" height="240" width="300">
  <title>kb-sprite new</title>
  <g>
    <circle cx="250.012" cy="50" r="50" fill="#1973ba"/>
    <path d="M66.964,49.824l-25.3-12.486a1,1,0,0,0-1.6.97l.016,24.657a1,1,0,0,0,1.6.97L66.966,51.509C67.847,51.044,67.843,50.288,66.964,49.824Z" fill="#fff"/>
    <path d="M50,3A47,47,0,1,1,3,50,47.053,47.053,0,0,1,50,3m0-3a50,50,0,1,0,50,50A50,50,0,0,0,50,0Z" fill="#fff"/>
    <path d="M266.975,49.824l-25.3-12.486a1,1,0,0,0-1.6.97l.016,24.657a1,1,0,0,0,1.6.97l25.285-12.427C267.859,51.044,267.855,50.288,266.975,49.824Z" fill="#fff"/>
    <polygon points="30.393 179.759 27.544 176.951 16 188.663 4.456 176.951 1.607 179.759 13.192 191.511 1.607 203.264 4.456 206.071 16 194.36 27.544 206.071 30.393 203.264 18.808 191.511 30.393 179.759" fill="#fff"/>
    <path d="M38.5,127.25q-3.575,3.451-7.214,6.911c-1.062-1.1-2.124-2.187-3.186-3.311a2.717,2.717,0,0,0-3.3-.4c-.8.5-1.9,1.9-1,2.8,1.7,1.8,3.4,3.5,5.1,5.3a2.684,2.684,0,0,0,.534.405,2.463,2.463,0,0,0,3.266-.209c3-2.9,6-5.8,9.1-8.7C44.1,127.75,40.5,125.25,38.5,127.25Z" fill="#6e6e73"/>
    <path d="M17.489,136.744,13.88,132.9l3.673-3.71a1.974,1.974,0,0,0-2.789-2.789l-3.712,3.671-3.766-3.629a1.919,1.919,0,0,0-2.786.012,1.933,1.933,0,0,0,0,2.8c.114.114,3.723,3.646,3.723,3.646L4.5,136.753a1.933,1.933,0,0,0,0,2.8,1.934,1.934,0,0,0,2.8,0c.109-.109,3.751-3.826,3.751-3.826s3.471,3.648,3.649,3.826a1.98,1.98,0,0,0,2.8-2.8Z" fill="#e81123"/>
    <path d="M41.9,104.862a2.5,2.5,0,0,0-3.535-.059l-7.3,7.058L27.7,108.367a2.5,2.5,0,1,0-3.6,3.467l5.1,5.3h0l0,0a2.5,2.5,0,0,0,.265.223c.044.035.084.078.13.109a2.413,2.413,0,0,0,.271.146c.058.03.112.068.172.093a2.459,2.459,0,0,0,.317.1c.052.014.1.037.156.047a2.512,2.512,0,0,0,.955,0c.05-.01.1-.03.148-.043a1.5,1.5,0,0,0,.534-.206c.066-.034.134-.061.2-.1a2.537,2.537,0,0,0,.246-.194c.046-.038.1-.069.141-.111h0l0,0,9.1-8.8A2.5,2.5,0,0,0,41.9,104.862Z" fill="#00aff0"/>
    <path d="M13.816,110.909l3.69-3.658a1.98,1.98,0,1,0-2.8-2.8l-.007.009-3.712,3.621-3.68-3.629h0a1.932,1.932,0,0,0-2.8,0,1.9,1.9,0,0,0-.026,2.767l3.679,3.691L4.5,114.761a1.932,1.932,0,0,0,.009,2.789,1.934,1.934,0,0,0,2.8,0c.149-.149,3.681-3.813,3.681-3.813s3.594,3.688,3.719,3.813a1.98,1.98,0,0,0,2.8-2.8Z" fill="#00aff0"/>
    <path d="M30.376,147.655a1.5,1.5,0,0,0-2.121-.031l-5.712,5.544-2.756-2.9a1.5,1.5,0,0,0-2.175,2.066l3.8,4,.008.007,0,0a1.494,1.494,0,0,0,.128.107c.035.029.068.063.1.088a1.464,1.464,0,0,0,.147.08c.04.021.077.047.119.064a1.5,1.5,0,0,0,.173.053c.037.01.073.026.111.033a1.5,1.5,0,0,0,.844-.076,1.543,1.543,0,0,0,.163-.1,1.449,1.449,0,0,0,.32-.2l0-.007.007,0,6.8-6.6A1.5,1.5,0,0,0,30.376,147.655Z" fill="#00aff0"/>
    <path d="M10.1,152.007s2.759-2.671,2.842-2.754a1.657,1.657,0,0,0,0-2.1,1.443,1.443,0,0,0-2.1,0l-2.793,2.8-2.807-2.8a1.443,1.443,0,0,0-2.1,0,1.45,1.45,0,0,0,0,2.1c.1.1,2.856,2.754,2.856,2.754s-2.749,2.635-2.856,2.742a1.483,1.483,0,0,0,2.072,2.123l2.835-2.814,2.829,2.819a1.444,1.444,0,0,0,2.065-.024,1.662,1.662,0,0,0,0-2.1C12.843,154.654,10.1,152.007,10.1,152.007Z" fill="#00aff0"/>
    <path d="M9.847,168.008l2.6-2.558a1.344,1.344,0,1,0-1.9-1.9L7.938,166.1s-2.437-2.5-2.489-2.55a1.391,1.391,0,0,0-1.9,0,1.388,1.388,0,0,0-.015,1.877l2.5,2.582-2.5,2.569a1.388,1.388,0,0,0,.018,1.872,1.391,1.391,0,0,0,1.9,0c.027-.032,2.489-2.533,2.489-2.533l2.611,2.533a1.344,1.344,0,0,0,1.9-1.9Z" fill="#e81123"/>
    <path d="M30.385,163.713a1.5,1.5,0,0,0-2.121-.048l-5.712,5.46-2.764-2.909a1.5,1.5,0,0,0-2.175,2.066l3.8,4h0v0a1.478,1.478,0,0,0,.165.14c.025.019.046.043.072.061a1.471,1.471,0,0,0,.156.085c.037.02.073.044.111.06a1.474,1.474,0,0,0,.188.057c.033.009.064.023.1.03a1.5,1.5,0,0,0,.843-.074,1.581,1.581,0,0,0,.172-.11,1.444,1.444,0,0,0,.313-.2h0l0,0,6.8-6.5A1.5,1.5,0,0,0,30.385,163.713Z" fill="#6e6e73"/>
    <path d="M283.5,127.25q3.575,3.451,7.214,6.911c1.062-1.1,2.124-2.187,3.186-3.311a2.717,2.717,0,0,1,3.3-.4c.8.5,1.9,1.9,1,2.8-1.7,1.8-3.4,3.5-5.1,5.3a2.684,2.684,0,0,1-.534.405,2.463,2.463,0,0,1-3.266-.209c-3-2.9-6-5.8-9.1-8.7C277.9,127.75,281.5,125.25,283.5,127.25Z" fill="#6e6e73"/>
    <path d="M280.1,104.862a2.5,2.5,0,0,1,3.535-.059l7.3,7.058,3.362-3.494a2.5,2.5,0,1,1,3.6,3.467l-5.1,5.3h0l0,0a2.5,2.5,0,0,1-.265.223c-.044.035-.084.078-.13.109a2.413,2.413,0,0,1-.271.146c-.058.03-.112.068-.172.093a2.459,2.459,0,0,1-.317.1c-.052.014-.1.037-.156.047a2.512,2.512,0,0,1-.955,0c-.05-.01-.1-.03-.148-.043a1.5,1.5,0,0,1-.534-.206c-.066-.034-.134-.061-.2-.1a2.537,2.537,0,0,1-.246-.194c-.046-.038-.1-.069-.141-.111h0l0,0-9.1-8.8A2.5,2.5,0,0,1,280.1,104.862Z" fill="#00aff0"/>
    <path d="M285.624,147.655a1.5,1.5,0,0,1,2.121-.031l5.712,5.544,2.756-2.9a1.5,1.5,0,0,1,2.175,2.066l-3.8,4-.008.007,0,0a1.494,1.494,0,0,1-.128.107c-.035.029-.068.063-.1.088a1.464,1.464,0,0,1-.147.08c-.04.021-.077.047-.119.064a1.5,1.5,0,0,1-.173.053c-.037.01-.073.026-.111.033a1.5,1.5,0,0,1-.844-.076,1.543,1.543,0,0,1-.163-.1,1.449,1.449,0,0,1-.32-.2l0-.007-.007,0-6.8-6.6A1.5,1.5,0,0,1,285.624,147.655Z" fill="#00aff0"/>
    <path d="M285.615,163.713a1.5,1.5,0,0,1,2.121-.048l5.712,5.46,2.764-2.909a1.5,1.5,0,0,1,2.175,2.066l-3.8,4h0v0a1.478,1.478,0,0,1-.165.14c-.025.019-.046.043-.072.061a1.471,1.471,0,0,1-.156.085c-.037.02-.073.044-.111.06a1.474,1.474,0,0,1-.188.057c-.033.009-.064.023-.1.03a1.5,1.5,0,0,1-.843-.074,1.581,1.581,0,0,1-.172-.11,1.444,1.444,0,0,1-.313-.2h0l0,0-6.8-6.5A1.5,1.5,0,0,1,285.615,163.713Z" fill="#6e6e73"/>
    <path d="M15.363,212.334a.75.75,0,0,0-1.06-.041L8,218.134l-6.3-5.84a.75.75,0,1,0-1.02,1.1l6.813,6.313a.721.721,0,0,0,.146.091.782.782,0,0,0,.082.051.719.719,0,0,0,.563,0,.782.782,0,0,0,.082-.051.721.721,0,0,0,.146-.091l6.813-6.312A.751.751,0,0,0,15.363,212.334Z" fill="#fff"/>
    <polygon points="5.622 237.855 4.921 237.141 9.961 232.195 4.618 226.852 5.325 226.145 11.382 232.202 5.622 237.855" fill="#8b9091"/>
    <polygon points="294.378 237.855 288.618 232.202 294.675 226.145 295.382 226.852 290.039 232.195 295.079 237.141 294.378 237.855" fill="#8b9091"/>
  </g>
</svg>
