<?xml version="1.0" encoding="utf-8"?>
<!-- Generator: Adobe Illustrator 16.0.0, SVG Export Plug-In . SVG Version: 6.00 Build 0)  -->
<!DOCTYPE svg PUBLIC "-//W3C//DTD SVG 1.1//EN" "http://www.w3.org/Graphics/SVG/1.1/DTD/svg11.dtd">
<svg version="1.1"
	 id="Layer_1" sodipodi:docname="profile_icons.svg" inkscape:version="0.48.4 r9939" xmlns:sodipodi="http://sodipodi.sourceforge.net/DTD/sodipodi-0.dtd" xmlns:inkscape="http://www.inkscape.org/namespaces/inkscape" xmlns:svg="http://www.w3.org/2000/svg" xmlns:dc="http://purl.org/dc/elements/1.1/" xmlns:cc="http://creativecommons.org/ns#" xmlns:rdf="http://www.w3.org/1999/02/22-rdf-syntax-ns#"
	 xmlns="http://www.w3.org/2000/svg" xmlns:xlink="http://www.w3.org/1999/xlink" x="0px" y="0px" width="120px" height="510px"
	 viewBox="0 0 120 510" enable-background="new 0 0 120 510" xml:space="preserve">
<sodipodi:namedview  inkscape:pageopacity="0" inkscape:window-width="1600" inkscape:window-x="-8" inkscape:pageshadow="2" inkscape:window-height="837" inkscape:window-y="-8" inkscape:window-maximized="1" inkscape:current-layer="Layer_1" pagecolor="#ffffff" borderopacity="1" objecttolerance="10" gridtolerance="10" inkscape:zoom="2.4836066" inkscape:cx="971.14058" inkscape:cy="34" id="namedview3190" bordercolor="#666666" showgrid="false" guidetolerance="10">
	</sodipodi:namedview>
<path fill="#2CADE3" d="M1,337v19h19v-19H1z M19,355H2v-17h17V355z"/>
<path fill="#2CADE3" d="M30,367v21h21v-21H30z M49,386H32v-17h17V386z"/>
<path id="path3088" inkscape:connector-curvature="0" fill="#2CADE3" d="M45.771,374.881c-0.938,1.278-1.972,2.508-3.1,3.676
	c-1.127,1.166-2.312,2.235-3.549,3.209c-0.444,0.346-1.08,0.311-1.484-0.107c-0.861-0.945-1.668-1.93-2.413-2.939
	c-0.335-0.461-0.3-1.117,0.104-1.537c0.405-0.42,1.041-0.455,1.484-0.108c0.603,0.475,1.188,0.975,1.768,1.495l2.05-2.123
	c1.126-1.166,2.315-2.234,3.549-3.209c0.445-0.346,1.08-0.311,1.485,0.108C46.073,373.764,46.107,374.421,45.771,374.881
	L45.771,374.881z"/>
<path fill="#2CADE3" d="M0,367v21h21v-21H0z M19,386H2v-17h17V386z"/>
<path fill="#2CADE3" d="M1,266v23h23v-23H1z M23,288H2v-21h21V288z"/>
<path fill="#2CADE3" d="M31,266v23h23v-23H31z M53,288H32v-21h21V288z"/>
<path fill="#2CADE3" d="M0,300v25h25v-25H0z M23,323H2v-21h21V323z"/>
<path fill="#2CADE3" d="M30,300v25h25v-25H30z M53,323H32v-21h21V323z"/>
<path id="path3132" inkscape:connector-curvature="0" fill="#2CADE3" d="M48.71,274.299c-1.196,1.562-2.509,3.065-3.942,4.492
	c-1.436,1.426-2.945,2.732-4.518,3.922c-0.566,0.424-1.375,0.378-1.89-0.134c-1.101-1.155-2.122-2.354-3.07-3.593
	c-0.427-0.563-0.382-1.365,0.133-1.879c0.519-0.513,1.324-0.558,1.893-0.133c0.766,0.58,1.514,1.19,2.247,1.827l2.607-2.594
	c1.434-1.426,2.947-2.731,4.518-3.922c0.566-0.423,1.373-0.379,1.892,0.134C49.093,272.934,49.137,273.736,48.71,274.299z"/>
<path id="path3134" inkscape:connector-curvature="0" fill="#2CADE3" d="M48.71,309.299c-1.196,1.562-2.509,3.065-3.942,4.492
	c-1.436,1.426-2.945,2.732-4.518,3.922c-0.566,0.424-1.375,0.378-1.89-0.134c-1.101-1.155-2.122-2.354-3.07-3.593
	c-0.427-0.563-0.382-1.365,0.133-1.879c0.519-0.513,1.324-0.558,1.893-0.133c0.766,0.58,1.514,1.19,2.247,1.827l2.607-2.594
	c1.434-1.426,2.947-2.731,4.518-3.922c0.566-0.423,1.373-0.379,1.892,0.134C49.093,307.934,49.137,308.736,48.71,309.299z"/>
<path fill="#2CADE3" d="M31,337v19h19v-19H31z M49,355H32v-17h17V355z"/>
<path id="path3140" inkscape:connector-curvature="0" fill="#2CADE3" d="M45.771,343.881c-0.938,1.278-1.972,2.508-3.1,3.676
	c-1.127,1.166-2.312,2.235-3.549,3.209c-0.444,0.346-1.08,0.311-1.484-0.107c-0.861-0.945-1.668-1.93-2.413-2.939
	c-0.335-0.461-0.3-1.117,0.104-1.537c0.405-0.42,1.041-0.455,1.484-0.108c0.603,0.475,1.188,0.975,1.768,1.495l2.05-2.123
	c1.126-1.166,2.315-2.234,3.549-3.209c0.445-0.346,1.08-0.311,1.485,0.108C46.073,342.764,46.107,343.421,45.771,343.881
	L45.771,343.881z"/>
<path fill="#E71E27" d="M1,461v19h19v-19H1z M19,479H2v-17h17V479z"/>
<path fill="#E71E27" d="M0,488v21h21v-21H0z M19,507H2v-17h17V507z"/>
<path fill="#E4EEF2" d="M60,337v19h19v-19H60z M78,355H61v-17h17V355z"/>
<path fill="#E4EEF2" d="M90,337v19h19v-19H90z M108,355H91v-17h17V355z"/>
<path id="path3158" inkscape:connector-curvature="0" fill="#E4EEF2" d="M104.771,343.881c-0.938,1.278-1.972,2.508-3.1,3.676
	c-1.127,1.166-2.312,2.235-3.549,3.209c-0.444,0.346-1.08,0.311-1.484-0.107c-0.861-0.945-1.668-1.93-2.413-2.939
	c-0.335-0.461-0.3-1.117,0.104-1.537c0.405-0.42,1.041-0.455,1.484-0.108c0.603,0.475,1.188,0.975,1.768,1.495l2.05-2.123
	c1.126-1.166,2.315-2.234,3.549-3.209c0.445-0.346,1.08-0.311,1.485,0.108C105.073,342.764,105.107,343.421,104.771,343.881
	L104.771,343.881z"/>
<path fill="#E71E27" d="M1,396v23h23v-23H1z M23,418H2v-21h21V418z"/>
<path fill="#E71E27" d="M0,427v25h25v-25H0z M23,450H2v-21h21V450z"/>
<path fill="#E4EEF2" d="M61,266v23h23v-23H61z M83,288H62v-21h21V288z"/>
<path fill="#E4EEF2" d="M91,266v23h23v-23H91z M113,288H92v-21h21V288z"/>
<path id="path3176" inkscape:connector-curvature="0" fill="#E4EEF2" d="M108.71,274.299c-1.196,1.562-2.509,3.065-3.942,4.492
	c-1.436,1.426-2.945,2.732-4.518,3.922c-0.566,0.424-1.375,0.378-1.89-0.134c-1.101-1.155-2.122-2.354-3.07-3.593
	c-0.427-0.563-0.382-1.365,0.133-1.879c0.519-0.513,1.324-0.558,1.893-0.133c0.766,0.58,1.514,1.19,2.247,1.827l2.607-2.594
	c1.434-1.426,2.947-2.731,4.518-3.922c0.566-0.423,1.373-0.379,1.892,0.134C109.093,272.934,109.137,273.736,108.71,274.299z"/>
<circle fill="#FFFFFF" cx="13.5" cy="37.5" r="13.5"/>
<circle fill="#29ACE3" cx="13.5" cy="37.5" r="7.5"/>
<circle fill="#FFFFFF" cx="56.5" cy="37.5" r="13.5"/>
<circle fill="#E4EEF2" cx="56.5" cy="37.5" r="7.5"/>
<circle fill="#FFFFFF" stroke="#29ACE3" stroke-width="2" stroke-miterlimit="10" cx="13.5" cy="104.5" r="12.5"/>
<circle fill="#F6F6F6" stroke="#E5EEF3" stroke-width="2" stroke-miterlimit="10" cx="57.5" cy="104.5" r="12.5"/>
<circle fill="#FFFFFF" cx="11.5" cy="170.5" r="10.5"/>
<circle fill="#29ACE3" cx="11.5" cy="170.5" r="6"/>
<circle fill="#FFFFFF" cx="54.5" cy="170.5" r="10.5"/>
<circle fill="#E4EEF2" cx="54.5" cy="170.5" r="6"/>
<circle fill="#FFFFFF" stroke="#29ACE3" stroke-width="2" stroke-miterlimit="10" cx="11.5" cy="230.5" r="9.5"/>
<circle fill="#F6F6F6" stroke="#E5EEF3" stroke-width="2" stroke-miterlimit="10" cx="54.5" cy="230.5" r="9.5"/>
</svg>
