<?xml version="1.0" standalone="no"?>
<!-- Generator: Adobe Fireworks CS6, Export SVG Extension by Aaron Beall (http://fireworks.abeall.com) . Version: 0.6.1  -->
<!DOCTYPE svg PUBLIC "-//W3C//DTD SVG 1.1//EN" "http://www.w3.org/Graphics/SVG/1.1/DTD/svg11.dtd">
<svg id="sprite.fw-Page%201" viewBox="0 0 41 304" style="background-color:#ffffff00" version="1.1"
	xmlns="http://www.w3.org/2000/svg" xmlns:xlink="http://www.w3.org/1999/xlink" xml:space="preserve"
	x="0px" y="0px" width="41px" height="304px"
>
	<g id="Background">
		<path id="Ellipse" d="M 0.1025 20.5 C 0.1025 9.2346 9.2346 0.1025 20.5 0.1025 C 31.7654 0.1025 40.8975 9.2346 40.8975 20.5 C 40.8975 31.7654 31.7654 40.8975 20.5 40.8975 C 9.2346 40.8975 0.1025 31.7654 0.1025 20.5 Z" fill="#7fba00"/>
		<path id="Ellipse2" d="M 0.1025 61.5 C 0.1025 50.2346 9.2346 41.1025 20.5 41.1025 C 31.7654 41.1025 40.8975 50.2346 40.8975 61.5 C 40.8975 72.7654 31.7654 81.8975 20.5 81.8975 C 9.2346 81.8975 0.1025 72.7654 0.1025 61.5 Z" fill="#ff8c00"/>
		<path id="Ellipse3" d="M 0.1025 102.5 C 0.1025 91.2346 9.2346 82.1025 20.5 82.1025 C 31.7654 82.1025 40.8975 91.2346 40.8975 102.5 C 40.8975 113.7654 31.7654 122.8975 20.5 122.8975 C 9.2346 122.8975 0.1025 113.7654 0.1025 102.5 Z" fill="#00aff0"/>
		<path id="Ellipse4" d="M 0.1025 143.5 C 0.1025 132.2346 9.2346 123.1025 20.5 123.1025 C 31.7654 123.1025 40.8975 132.2346 40.8975 143.5 C 40.8975 154.7654 31.7654 163.8975 20.5 163.8975 C 9.2346 163.8975 0.1025 154.7654 0.1025 143.5 Z" fill="#ff8c00"/>
		<path id="Ellipse5" d="M 6.175 181.5 C 6.175 171.9315 13.9315 164.175 23.5 164.175 C 33.0685 164.175 40.825 171.9315 40.825 181.5 C 40.825 191.0685 33.0685 198.825 23.5 198.825 C 13.9315 198.825 6.175 191.0685 6.175 181.5 Z" fill="#7fba00"/>
		<path id="Ellipse6" d="M 6.175 216.5 C 6.175 206.9315 13.9315 199.175 23.5 199.175 C 33.0685 199.175 40.825 206.9315 40.825 216.5 C 40.825 226.0685 33.0685 233.825 23.5 233.825 C 13.9315 233.825 6.175 226.0685 6.175 216.5 Z" fill="#ff8c00"/>
		<path id="Ellipse7" d="M 6.175 251.5 C 6.175 241.9315 13.9315 234.175 23.5 234.175 C 33.0685 234.175 40.825 241.9315 40.825 251.5 C 40.825 261.0685 33.0685 268.825 23.5 268.825 C 13.9315 268.825 6.175 261.0685 6.175 251.5 Z" fill="#00aff0"/>
		<path id="Ellipse8" d="M 6.175 286.5 C 6.175 276.9315 13.9315 269.175 23.5 269.175 C 33.0685 269.175 40.825 276.9315 40.825 286.5 C 40.825 296.0685 33.0685 303.825 23.5 303.825 C 13.9315 303.825 6.175 296.0685 6.175 286.5 Z" fill="#ff8c00"/>
		<g>
			<path d="M 28.6093 13.0267 C 28.1908 13.0267 27.8053 13.1639 27.4922 13.395 C 25.2805 14.8596 23.1816 16.5663 21.2328 18.5145 L 17.2912 22.4561 L 16.8242 21.9885 C 15.9369 21.1012 14.9882 20.3217 13.9899 19.6347 C 13.6866 19.4251 13.3183 19.3019 12.9212 19.3019 C 11.8812 19.3019 11.0386 20.1452 11.0386 21.1845 C 11.0386 21.5988 11.1697 21.9904 11.3965 22.3017 C 12.0749 23.2816 12.8507 24.2155 13.724 25.0882 C 14.6168 25.981 15.5722 26.7722 16.5773 27.4616 C 16.8769 27.6626 17.2397 27.7735 17.6276 27.7735 C 17.9818 27.7735 18.317 27.6706 18.6002 27.5002 C 20.8651 26.0147 23.0131 24.2768 25.0041 22.2857 C 27.0019 20.2873 28.746 18.1315 30.2351 15.8573 C 30.3987 15.5785 30.4919 15.2567 30.4919 14.9093 C 30.4919 13.8699 29.6493 13.0267 28.6093 13.0267 Z" fill="#ffffff"/>
		</g>
		<g>
			<path d="M 30.5037 175.3219 C 30.1452 175.3219 29.8151 175.4314 29.5469 175.6157 C 27.6528 176.7837 25.8553 178.1447 24.1864 179.6982 L 20.8107 182.8416 L 20.4108 182.4687 C 19.6509 181.761 18.8384 181.1394 17.9835 180.5916 C 17.7237 180.4244 17.4083 180.3262 17.0682 180.3262 C 16.1776 180.3262 15.4559 180.9987 15.4559 181.8275 C 15.4559 182.1578 15.5683 182.4701 15.7624 182.7184 C 16.3434 183.4998 17.0079 184.2446 17.7557 184.9405 C 18.5204 185.6525 19.3386 186.2834 20.1993 186.8332 C 20.4559 186.9935 20.7666 187.0819 21.0988 187.0819 C 21.4022 187.0819 21.6893 186.9998 21.9317 186.864 C 23.8715 185.6794 25.711 184.2935 27.4161 182.7057 C 29.1271 181.112 30.6207 179.3928 31.896 177.5793 C 32.0362 177.3569 32.116 177.1003 32.116 176.8232 C 32.116 175.9944 31.3943 175.3219 30.5037 175.3219 Z" fill="#ffffff"/>
		</g>
		<path d="M 29.3198 55.0151 L 21.8989 60.71 C 21.5571 60.9683 21.1316 61.1221 20.6692 61.1221 C 20.2065 61.1221 19.7798 60.9683 19.4395 60.71 L 12.0186 55.0151 L 29.3198 55.0151 ZM 30.1692 65.8721 C 30.1692 66.9976 29.2573 67.9077 28.1333 67.9077 L 13.2048 67.9077 C 12.0796 67.9077 11.1692 66.9976 11.1692 65.8721 L 11.1692 57.6035 L 18.75 63.6563 C 19.8105 64.7163 21.5278 64.7163 22.5881 63.6563 L 30.1692 57.6035 L 30.1692 65.8721 Z" fill="#ffffff"/>
		<path d="M 30.9489 210.9656 L 24.4517 215.9517 C 24.1524 216.1779 23.7799 216.3125 23.375 216.3125 C 22.9699 216.3125 22.5963 216.1779 22.2983 215.9517 L 15.8011 210.9656 L 30.9489 210.9656 ZM 31.7825 220.0927 C 31.7825 221.0781 30.9841 221.875 30 221.875 L 16.9296 221.875 C 15.9444 221.875 15.1473 221.0781 15.1473 220.0927 L 15.1473 212.8533 L 21.7846 218.1527 C 22.7131 219.0808 24.2167 219.0808 25.145 218.1527 L 31.7825 212.8533 L 31.7825 220.0927 Z" fill="#ffffff"/>
		<path d="M 29.124 111.0879 C 27.0033 107.9014 24.5012 104.98 21.6895 102.4048 C 21.7252 101.6455 21.7475 100.8809 21.7475 100.1147 C 21.7475 96.8882 21.4265 93.7407 20.8077 90.6963 C 20.6531 89.7695 19.847 89.0625 18.875 89.0625 C 17.9024 89.0625 17.0974 89.7695 16.9427 90.6963 C 16.3233 93.7407 16.0028 96.8882 16.0028 100.1147 C 16.0028 101.334 16.0463 102.5488 16.1375 103.7451 C 16.1788 104.3647 16.4259 104.9282 16.811 105.3677 C 19.6144 108.584 22.8548 111.4214 26.4315 113.7793 C 26.7275 113.9595 27.0762 114.0625 27.4472 114.0625 C 28.5302 114.0625 29.4065 113.1855 29.4065 112.104 C 29.4065 111.7314 29.3037 111.3838 29.124 111.0879 Z" fill="#ffffff"/>
		<path d="M 19.2499 146.6245 C 18.1947 144.022 17.6124 141.1782 17.6124 138.1968 C 17.6124 137.1226 17.6875 136.0654 17.8341 135.0313 C 17.958 133.3735 19.3418 132.0669 21.0313 132.0669 C 22.7201 132.0669 24.1039 133.3735 24.2278 135.0313 C 24.3737 136.0654 24.4501 137.1226 24.4501 138.1968 C 24.4501 141.1782 23.8672 144.022 22.8126 146.6245 C 22.5259 147.3262 21.8364 147.8208 21.0313 147.8208 C 20.2261 147.8208 19.5366 147.3262 19.2499 146.6245 ZM 21.0313 149.9375 C 19.6149 149.9375 18.4666 151.0859 18.4666 152.502 C 18.4666 153.918 19.6149 155.0669 21.0313 155.0669 C 22.4476 155.0669 23.5959 153.918 23.5959 152.502 C 23.5959 151.0859 22.4476 149.9375 21.0313 149.9375 Z" fill="#ffffff"/>
		<path d="M 32.2711 258.8222 C 30.4321 256.0591 28.2625 253.5259 25.8243 251.2929 C 25.8554 250.6345 25.8747 249.9714 25.8747 249.3071 C 25.8747 246.5093 25.5963 243.78 25.0598 241.1401 C 24.9257 240.3365 24.2267 239.7234 23.3838 239.7234 C 22.5405 239.7234 21.8424 240.3365 21.7083 241.1401 C 21.1712 243.78 20.8933 246.5093 20.8933 249.3071 C 20.8933 250.3644 20.931 251.4178 21.0101 252.4551 C 21.0459 252.9924 21.2602 253.481 21.5941 253.8621 C 24.025 256.6511 26.8349 259.1115 29.9363 261.1561 C 30.193 261.3123 30.4954 261.4016 30.8171 261.4016 C 31.7561 261.4016 32.516 260.6412 32.516 259.7034 C 32.516 259.3803 32.4269 259.0788 32.2711 258.8222 Z" fill="#ffffff"/>
		<path d="M 22.5633 289.0865 C 21.6938 286.9419 21.214 284.5986 21.214 282.1417 C 21.214 281.2565 21.2759 280.3854 21.3967 279.5332 C 21.4988 278.1672 22.6391 277.0905 24.0313 277.0905 C 25.4229 277.0905 26.5632 278.1672 26.6653 279.5332 C 26.7855 280.3854 26.8485 281.2565 26.8485 282.1417 C 26.8485 284.5986 26.3682 286.9419 25.4992 289.0865 C 25.2629 289.6647 24.6947 290.0722 24.0313 290.0722 C 23.3678 290.0722 22.7996 289.6647 22.5633 289.0865 ZM 24.0313 291.8165 C 22.8641 291.8165 21.9178 292.7629 21.9178 293.9297 C 21.9178 295.0965 22.8641 296.0433 24.0313 296.0433 C 25.1984 296.0433 26.1447 295.0965 26.1447 293.9297 C 26.1447 292.7629 25.1984 291.8165 24.0313 291.8165 Z" fill="#ffffff"/>
	</g>
	<g id="Layer%201">
	</g>
</svg>