<?xml version="1.0" encoding="utf-8"?>
<!-- Generator: Adobe Illustrator 19.1.0, SVG Export Plug-In . SVG Version: 6.00 Build 0)  -->
<svg version="1.1" id="Layer_1" xmlns="http://www.w3.org/2000/svg" xmlns:xlink="http://www.w3.org/1999/xlink" x="0px" y="0px"
	 width="56px" height="28px" viewBox="0 0 56 28" style="enable-background:new 0 0 56 28;" xml:space="preserve">
<g>
	<g>
		<path style="fill:#FFFFFF;" d="M14,27C6.832,27,1,21.168,1,14C1,6.832,6.832,1,14,1s13,5.832,13,13C27,21.168,21.168,27,14,27z"/>
		<path style="fill:#00AFF0;" d="M14,2c6.617,0,12,5.383,12,12s-5.383,12-12,12S2,20.617,2,14S7.383,2,14,2 M14,0
			C6.268,0,0,6.268,0,14s6.268,14,14,14s14-6.268,14-14S21.732,0,14,0L14,0z"/>
	</g>
	<g>
		<path style="fill:#00AFF0;" d="M12.462,19.031c-0.336,0-0.672-0.128-0.929-0.385l-3.712-3.719
			c-0.512-0.513-0.511-1.344,0.002-1.856s1.344-0.511,1.856,0.002l3.712,3.719c0.512,0.513,0.511,1.344-0.002,1.856
			C13.133,18.903,12.798,19.031,12.462,19.031z"/>
		<path style="fill:#00AFF0;" d="M19.25,15.319H8.75c-0.531,0-1.009-0.32-1.212-0.81c-0.203-0.49-0.091-1.055,0.283-1.43
			l3.719-3.725c0.512-0.513,1.343-0.514,1.856-0.002c0.513,0.512,0.514,1.343,0.002,1.856l-1.483,1.485h7.335
			c0.725,0,1.313,0.588,1.313,1.313S19.975,15.319,19.25,15.319z"/>
	</g>
</g>
<g>
	<circle style="fill:#00AFF0;" cx="42" cy="14" r="14"/>
	<g>
		<path style="fill:#FFFFFF;" d="M40.462,19.031c-0.336,0-0.672-0.128-0.929-0.385l-3.712-3.719
			c-0.512-0.513-0.511-1.344,0.002-1.856s1.344-0.511,1.856,0.002l3.712,3.719c0.512,0.513,0.511,1.344-0.002,1.856
			C41.133,18.903,40.798,19.031,40.462,19.031z"/>
		<path style="fill:#FFFFFF;" d="M47.25,15.319h-10.5c-0.531,0-1.009-0.32-1.212-0.81c-0.203-0.49-0.091-1.055,0.283-1.43
			l3.719-3.725c0.512-0.513,1.343-0.514,1.856-0.002c0.513,0.512,0.514,1.343,0.002,1.856l-1.483,1.485h7.335
			c0.725,0,1.313,0.588,1.313,1.313S47.975,15.319,47.25,15.319z"/>
	</g>
</g>
</svg>
