<?xml version="1.0" encoding="utf-8"?>
<!-- Generator: Adobe Illustrator 19.2.0, SVG Export Plug-In . SVG Version: 6.00 Build 0)  -->
<svg version="1.1" id="Layer_1" xmlns="http://www.w3.org/2000/svg" xmlns:xlink="http://www.w3.org/1999/xlink" x="0px" y="0px"
	 viewBox="0 0 60 2365" style="enable-background:new 0 0 60 2365;" xml:space="preserve">
<style type="text/css">
	.st0{fill:#077DB4;}
	.st1{fill:#00AFF0;}
	.st2{fill:#FFFFFF;}
	.st3{fill:#E74025;}
</style>
<g>
	<path class="st0" d="M57.8,1054.8c0.3-1.6,0.4-3.2,0.4-4.9c0-15.6-12.6-28.2-28.2-28.2c-1.7,0-3.3,0.1-4.9,0.4
		c-2.5-1.4-5.3-2.2-8.3-2.2c-9.3,0-16.8,7.5-16.8,16.8c0,3,0.8,5.9,2.2,8.3c-0.3,1.6-0.4,3.2-0.4,4.9c0,15.6,12.6,28.2,28.2,28.2
		c1.7,0,3.3-0.1,4.9-0.4c2.5,1.4,5.3,2.2,8.3,2.2c9.3,0,16.8-7.5,16.8-16.8C60,1060.1,59.2,1057.2,57.8,1054.8z M43.2,1075.6
		c-2.2,0-4.3-0.6-6.2-1.6l-1.3-0.8l-1.5,0.3c-1.3,0.2-2.7,0.4-4.2,0.4c-13.2,0-23.9-10.7-23.9-23.9c0-1.4,0.1-2.8,0.4-4.2l0.3-1.5
		L6,1043c-1.1-1.9-1.6-4-1.6-6.2c0-6.9,5.6-12.5,12.5-12.5c2.2,0,4.3,0.6,6.2,1.6l1.3,0.8l1.5-0.3c1.4-0.2,2.8-0.4,4.2-0.4
		c13.2,0,23.9,10.7,23.9,23.9c0,1.4-0.1,2.8-0.4,4.2l-0.3,1.5l0.8,1.3c1.1,1.9,1.6,4,1.6,6.2C55.7,1070,50.1,1075.6,43.2,1075.6z"/>
	<path class="st0" d="M35.1,1047.2l-6.3-1.4c-2.4-0.6-5.1-1.3-5.1-3.6c0-2.3,1.9-3.9,5.4-3.9c7.1,0,6.5,4.9,10,4.9
		c1.8,0,3.4-1,3.4-2.9c0-4.4-7-7.7-13-7.7c-6.4,0-13.2,2.7-13.2,10c0,3.5,1.2,7.3,8.1,9.1l8.6,2.2c2.6,0.6,3.4,2.1,3.4,3.4
		c0,2.2-2.3,4.6-6.2,4.6c-7.7,0-6.6-6.1-10.7-6.1c-1.8,0-3.3,1.3-3.3,3.1c0,3.6,4.4,8.5,14,8.5c9.2,0,13.8-4.6,13.8-10.6
		C43.9,1052.8,42.1,1048.8,35.1,1047.2z"/>
</g>
<g>
	<path class="st1" d="M1.6,1289.9c0,15.7,12.7,28.4,28.4,28.4c1.7,0,3.5-0.2,5.1-0.5c2.4,1.3,5.2,2.1,8.1,2.1
		c9.3,0,16.8-7.5,16.8-16.8c0-2.9-0.8-5.7-2.1-8.1c0.3-1.7,0.5-3.4,0.5-5.1c0-15.7-12.7-28.4-28.4-28.4c-1.7,0-3.5,0.2-5.1,0.5
		c-2.4-1.3-5.2-2.1-8.1-2.1c-9.3,0-16.8,7.5-16.8,16.8c0,2.9,0.8,5.7,2.1,8.1C1.8,1286.4,1.6,1288.2,1.6,1289.9"/>
	<path class="st2" d="M30.1,1307.9c-10.1,0-14.6-5-14.6-8.7c0-1.9,1.4-3.2,3.3-3.2c4.3,0,3.2,6.2,11.2,6.2c4.1,0,6.4-2.2,6.4-4.5
		c0-1.4-0.7-2.9-3.4-3.6l-9-2.2c-7.2-1.8-8.5-5.7-8.5-9.4c0-7.6,7.2-10.5,13.9-10.5c6.2,0,13.5,3.4,13.5,8c0,2-1.7,3.1-3.6,3.1
		c-3.7,0-3-5.1-10.4-5.1c-3.7,0-5.7,1.7-5.7,4.1s2.9,3.1,5.4,3.7l6.6,1.5c7.3,1.6,9.1,5.9,9.1,9.9
		C44.5,1303.2,39.7,1307.9,30.1,1307.9"/>
</g>
<g>
	<g>
		<path class="st1" d="M43.5,1224.7h-5.4v-7.8c0-4.4-3.6-8-8.1-8s-8.1,3.6-8.1,8v7.8h-5.4v-7.8c0-7.4,6.1-13.4,13.5-13.4
			s13.5,6,13.5,13.4V1224.7z"/>
	</g>
	<path class="st1" d="M44.4,1224.1H15.6c-2,0-3.6,1.6-3.6,3.6v25c0,2,1.6,3.6,3.6,3.6h28.8c2,0,3.6-1.6,3.6-3.6v-25
		C48,1225.7,46.4,1224.1,44.4,1224.1z M31.8,1240.5l1.3,4.9c0.3,1.2-0.4,2.4-1.6,2.7c-0.1,0-0.2,0-0.3,0c-0.4,0.1-0.9,0.1-1.3,0.1
		s-0.9,0-1.3-0.1c-0.1,0-0.2,0-0.3,0c-1.2-0.3-1.9-1.5-1.6-2.7l1.3-4.9c-1.5-0.7-2.6-2.2-2.6-4c0-2.4,2-4.4,4.4-4.4s4.4,2,4.4,4.4
		C34.4,1238.3,33.3,1239.8,31.8,1240.5z"/>
</g>
<g>
	<polygon class="st3" points="35.7,1145.9 10,1155.9 10,1184.7 10,1184.7 19.2,1180.8 19.2,1158.1 35.9,1154.3 35.9,1188 10,1184.7 
		35.7,1193.9 50,1189.3 50,1150.7 	"/>
</g>
<g>
	<path class="st1" d="M16.9,1106.7c3.8,0,6.9-3.9,6.9-8.3s-3-7.7-6.9-7.7c-3.8,0-6.9,3.3-6.9,7.7
		C10.1,1102.8,13.2,1106.7,16.9,1106.7z"/>
	<path class="st1" d="M37.7,1110.8c5.2,0,9.4-5.3,9.4-11.5c0-6.1-4.2-10.6-9.4-10.6s-9.4,4.6-9.4,10.6
		C28.2,1105.5,32.4,1110.8,37.7,1110.8z"/>
	<path class="st1" d="M18.5,1127.1v1.7c0,1.4,0.9,2.3,2.4,2.3l-0.1-0.2h33.5v0.2c1.8,0,2.8-0.9,2.8-2.3v-1.7
		c0-6.8-4.7-12.3-10.5-12.3c-0.8,0-1.7,0.1-2.4,0.4v-0.1c-1.6,0.5-3.9,1.2-6.4,1.2h0.1v0.1l0,0l0,0v-0.2h-0.1
		c-2.5,0-4.9-0.7-6.4-1.2l0,0c-0.7-0.2-1.6-0.3-2.4-0.3C23.1,1114.8,18.5,1120.4,18.5,1127.1z"/>
	<g>
		<path class="st1" d="M27.5,1111.1c-1.2-0.9-2.3-1.5-3.9-1.5c-0.6,0-1.5,0.1-1.5,0.2l0,0c-1.8,0.4-3.4,0.9-5.1,0.9l0,0l0,0l0,0l0,0
			c-1.7,0-3.6-0.6-4.7-0.9l0,0c-0.6-0.2-1.2-0.3-1.7-0.3c-4.2,0-7.6,4-7.6,9v1.3c0,1,0.9,1.8,1.8,1.8v0.1h10.6
			C17.2,1116.2,21.9,1111.6,27.5,1111.1z"/>
	</g>
</g>
<path class="st2" d="M30.1,965.5C18.5,965.5,9,975,9,986.6v0.8c0,0.5,0,1.1,0,1.6c0.3,4.1,1.6,8,3.6,11.3c0.5,0.8,1.1,1.3,1.8,1.3
	c0.5,0,0.8,0,1.3,0c1.1,0,1.8-0.3,2.8-0.5c0.8-0.3,1.3-0.8,1.6-1.6c0.8-1.8,1.1-3.9,1.1-6.1c0-1.8-0.3-3.6-0.8-5.4
	c-0.5-1.6-2-2.8-3.9-2.8h-0.8c-0.5,0-0.8,0-1.3,0c0.5-8,7.5-14.4,15.7-14.4c8.3,0,14.9,6.4,15.7,14.4c-0.5,0-0.8,0-1.3,0h-0.8
	c-1.8,0-3.3,1.3-3.9,2.8c-0.5,1.8-0.8,3.6-0.8,5.4c0,2,0.5,4.1,1.1,6.1c0.3,0.8,0.8,1.3,1.6,1.6s1.6,0.5,2.3,0.5l-1.3,4.7l-8.8,2.3
	c-0.8-1.3-2.3-2-4.1-2c-2.5,0-4.7,2-4.9,4.4v0.3c0,0.8,0.3,1.6,0.5,2c0.5,0.8,1.3,1.3,2.3,1.1l16.8-4.4c1.1-0.3,1.6-1.1,2-1.8
	l3.6-13.9c0.5-1.6,0.8-3.3,0.8-5.2c0-0.5,0-1.1,0-1.6v-0.8C51.3,974.7,41.7,965.5,30.1,965.5z"/>
<g>
	<g>
		<path class="st2" d="M42.3,925.2h-4.9v-7.1c0-4-3.3-7.3-7.4-7.3s-7.4,3.3-7.4,7.3v7.1h-4.9v-7.1c0-6.7,5.5-12.2,12.3-12.2
			s12.3,5.5,12.3,12.2V925.2L42.3,925.2z"/>
	</g>
	<path class="st2" d="M43.1,924.6H16.8c-1.8,0-3.3,1.5-3.3,3.3v22.8c0,1.8,1.5,3.3,3.3,3.3h26.3c1.8,0,3.3-1.5,3.3-3.3v-22.8
		C46.4,926.1,44.9,924.6,43.1,924.6z M31.7,939.6l1.2,4.5c0.3,1.1-0.4,2.2-1.4,2.4c-0.1,0-0.2,0-0.2,0c-0.4,0-0.8,0.1-1.2,0.1
		s-0.8,0-1.2-0.1c-0.1,0-0.2,0-0.2,0c-1.1-0.3-1.7-1.4-1.4-2.4l1.2-4.5c-1.4-0.6-2.4-2-2.4-3.6c0-2.2,1.8-4,4-4s4,1.8,4,4
		C34,937.5,33.1,938.9,31.7,939.6z"/>
</g>
<g>
	<path class="st2" d="M19.5,887.4c-3.6-0.9-5.7-3.8-5.7-8.1c0-1.4,0.1-2,0.4-2.9c0.8-2.2,3.1-3.8,6-4.4c1.5-0.3,1.9-0.6,1.9-1.4
		c0-0.2,0.2-0.9,0.4-1.5c1-2.8,2.7-5.1,4.6-6.1c2-1,3-1.2,5.4-1.2c3.4,0,5.1,0.8,7.5,3.3l1.3,1.4l1.2-0.4c5.7-2,11.3,1.4,11.8,7
		l0.1,1.5l1.1,0.4c3.2,1.1,4.7,3.5,4.4,7.1c-0.2,2.3-1.3,4.2-3,5.1l-0.8,0.4H38.2C24.6,887.7,20.2,887.6,19.5,887.4L19.5,887.4z"/>
	<path class="st2" d="M6,885c-2.1-0.5-4.4-2.4-5.4-4.5C0,879.3,0,879.1,0,877c0-2,0.1-2.4,0.5-3.4c1-2.1,2.9-3.7,5.3-4.3
		c0.5-0.1,1-0.3,1.1-0.5c0.1-0.1,0.2-0.8,0.2-1.5c0.2-4.3,3-8.1,6.9-9.3c2.1-0.7,4.8-0.5,7.1,0.4c0.7,0.3,0.6,0.4,2.2-1.7
		c0.9-1.2,2.8-2.7,4.3-3.4c1.6-0.8,3.3-1.2,5.4-1.2c5.7,0,10.6,3.6,12.4,9c0.6,1.7,0.5,2.2-0.1,2.2c-0.3,0-1.1,0.2-1.9,0.4l-1.4,0.4
		l-1.2-1.2c-3.5-3.5-9.2-4.2-14-1.9c-1.9,1-3.5,2.3-4.6,4.1c-0.8,1.3-1.9,3.6-1.9,4.2c0,0.4-0.3,0.6-1.8,1.1
		c-4.5,1.5-7.1,4.8-7.1,9.2c0,1.6,0.4,3.5,1,4.6c0.2,0.4,0.3,0.8,0.3,0.9C12.4,885.2,6.8,885.1,6,885L6,885z"/>
</g>
<g>
	<path class="st2" d="M40.4,811.9c-0.3,0.2-0.5,0.3-0.8,0.3s-0.6-0.1-0.8-0.3l-3.3-2.5v14.5h17.7c0.9,0,1.7-0.8,1.7-1.7v-21.8
		L40.4,811.9z"/>
	<path class="st2" d="M32.9,808.1L32.9,808.1v-2l0,0v-7.6v-1.6l0,0v-10.1l-27.9,5v36.6l27.9,4.8v-9.9l0,0v-1.6
		C32.9,821.6,32.9,808.1,32.9,808.1z M24.4,811.7c-0.1,0.6-0.2,1.1-0.4,1.7c-0.2,0.5-0.4,1-0.6,1.5c-0.3,0.5-0.5,0.9-0.8,1.2
		c-0.3,0.4-0.6,0.7-1,1s-0.7,0.5-1.1,0.7s-0.8,0.3-1.2,0.4c-0.4,0.1-0.9,0.1-1.4,0.1c-0.5-0.1-0.9-0.1-1.3-0.2
		c-0.4-0.1-0.8-0.3-1.1-0.5s-0.7-0.5-1-0.7c-0.3-0.3-0.6-0.6-0.9-1c-0.3-0.4-0.5-0.8-0.7-1.2s-0.4-0.9-0.5-1.4s-0.3-1-0.3-1.5
		c-0.1-0.5-0.1-1.1-0.1-1.7c0-0.6,0.1-1.1,0.1-1.7c0.1-0.5,0.2-1,0.3-1.6c0.2-0.5,0.3-0.9,0.5-1.4c0.2-0.4,0.4-0.8,0.7-1.2
		s0.6-0.7,0.9-1c0.3-0.3,0.7-0.6,1-0.8s0.8-0.4,1.2-0.5c0.4-0.1,0.9-0.2,1.4-0.2c0.5-0.1,0.9,0,1.3,0.1s0.8,0.2,1.2,0.4
		c0.4,0.2,0.7,0.4,1.1,0.6c0.4,0.3,0.7,0.6,1,0.9c0.3,0.4,0.6,0.8,0.8,1.2s0.4,0.9,0.6,1.4s0.3,1,0.4,1.7c0.1,0.6,0.1,1.2,0.1,1.8
		C24.5,810.6,24.5,811.2,24.4,811.7z"/>
	<path class="st2" d="M35.5,806.6l4.1,3.2l15.3-12.2c-0.1-0.8-0.8-1.5-1.7-1.5H35.4C35.5,796.1,35.5,806.6,35.5,806.6z"/>
	<path class="st2" d="M21,807.8c-0.1-0.3-0.2-0.6-0.3-0.9s-0.3-0.5-0.4-0.8c-0.2-0.2-0.3-0.4-0.5-0.6s-0.4-0.3-0.6-0.4
		c-0.2-0.1-0.4-0.2-0.6-0.2c-0.2-0.1-0.5-0.1-0.7-0.1c-0.3,0-0.5,0.1-0.7,0.1c-0.2,0.1-0.4,0.2-0.6,0.3s-0.4,0.3-0.6,0.5
		c-0.2,0.2-0.3,0.4-0.5,0.7s-0.3,0.5-0.4,0.8c-0.1,0.3-0.2,0.6-0.3,0.8c-0.1,0.3-0.1,0.6-0.2,0.9c-0.1,0.3-0.1,0.7-0.1,1
		c0,0.4,0,0.8,0.1,1.1c0.1,0.4,0.1,0.7,0.2,1c0.1,0.3,0.2,0.6,0.3,0.9s0.3,0.5,0.4,0.8c0.2,0.2,0.3,0.4,0.5,0.6
		c0.2,0.2,0.4,0.3,0.5,0.4c0.2,0.1,0.4,0.2,0.6,0.3s0.4,0.1,0.7,0.1s0.5,0,0.7-0.1s0.4-0.1,0.6-0.2c0.2-0.1,0.4-0.2,0.6-0.4
		s0.3-0.3,0.5-0.6c0.2-0.2,0.3-0.5,0.4-0.7c0.1-0.3,0.2-0.6,0.3-0.9s0.2-0.7,0.2-1s0.1-0.8,0.1-1.2s0-0.8-0.1-1.2
		C21.1,808.5,21.1,808.1,21,807.8z"/>
</g>
<g>
	<g>
		<path class="st2" d="M34.7,746.1L34.7,746.1v-0.2c-0.1-1.1-0.8-1.9-1.8-2.2c-0.5,0-1.3,0-2.9,0c-0.4,0-6.1,0-6.3,0
			c-3.1,0-3.7,0.1-3.8,0.1c-0.7,0.2-1.3,0.7-1.6,1.3c0,0.1,0,0.1-0.1,0.2c-0.5,1.4-0.8,3-0.8,4.6s0.3,3.1,0.8,4.5
			c0,0.1,0.1,0.2,0.1,0.3c0.3,0.7,0.9,1.2,1.6,1.3c-0.3,0,0.6,0.1,3.8,0.1c2.1,0,4.3,0,6.3,0c1.8,0,2.5,0,2.9,0
			c1-0.1,1.8-1.1,1.8-2.1v-0.1v-0.1V746.1L34.7,746.1z"/>
		<path class="st2" d="M42.5,746.2c0-0.2,0-0.3-0.1-0.5c-0.3-0.5-0.8-0.6-1.3-0.4l-4.8,2v5.1l4.8,2l0,0c0.3,0.1,0.6,0.2,0.9,0
			c0.3-0.2,0.5-0.5,0.5-0.9l0,0L42.5,746.2L42.5,746.2z"/>
	</g>
	<path class="st2" d="M51,735.2v29.5H9v-29.5H51 M51.9,731.2H8.1c-1.7,0-3.1,1.4-3.1,3.1v31.3c0,1.7,1.4,3.1,3.1,3.1h43.8
		c1.7,0,3.1-1.4,3.1-3.1v-31.3C55,732.5,53.6,731.2,51.9,731.2L51.9,731.2z"/>
</g>
<g>
	<path class="st2" d="M32,695.3h8.3c1,0,1.9-0.8,1.9-1.9c0-1.1-0.8-1.9-1.9-1.9H32c-1,0-1.9,0.8-1.9,1.9S30.9,695.3,32,695.3z"/>
	<path class="st2" d="M19.8,702.8h20.4c1,0,1.9-0.8,1.9-1.9c0-1-0.8-1.9-1.9-1.9H19.8c-1,0-1.9,0.8-1.9,1.9S18.8,702.8,19.8,702.8z"
		/>
	<path class="st2" d="M45.6,664.9H14.5c-2.5,0-4.5,2-4.5,4.5v41c0,2.5,2,4.5,4.5,4.5h31c2.5,0,4.5-2,4.5-4.5v-41
		C50.1,666.9,48.1,664.9,45.6,664.9z M46.3,710.5c0,0.4-0.3,0.8-0.8,0.8h-31c-0.4,0-0.8-0.3-0.8-0.8v-35.7h32.6V710.5L46.3,710.5z"
		/>
	<path class="st2" d="M19.2,685.9c0.7,0,1.3-0.6,1.3-1.3s0.6-1.3,1.2-1.3c0.7,0,1.3,0.6,1.3,1.3c0,0.3-0.1,0.5-0.2,0.7
		c-0.4,0.6-2.3,1-2.3,3.5c0,0.7,0.6,1.3,1.2,1.3c0.7,0,1.2-0.6,1.3-1.3c0-0.7,0.6-1.1,1.2-1.4c0.7-0.4,1.3-1.3,1.3-2.7l0,0l0,0
		c0-2.1-1.7-3.8-3.8-3.8l0,0c-2.1,0-3.8,1.7-3.8,3.8C18,685.3,18.5,685.9,19.2,685.9z"/>
	<circle class="st2" cx="21.7" cy="692.2" r="1.3"/>
</g>
<g>
	<path class="st2" d="M55.6,618.8c-1.4-6-6.3-10.8-12.6-12c-4.2-0.7-8.6-1.2-13-1.2s-8.8,0.4-13,1.2c-6.2,1.2-11.1,5.8-12.6,12
		c-0.5,2.1-0.8,4.3-0.8,6.7l0,0c0,2.3,0.3,4.6,0.8,6.7c1.4,6,6.3,10.8,12.6,12c3.1,0.5,6.2,0.6,9.4,0.6c1.2,0,2.3,0,3.6,0v7.4
		c0,0,0,0,0-0.1c0,1.1,0.8,2.1,2,2.1l0,0c0.4,0,0.8-0.1,1.2-0.4l0,0l15.9-12.1c3.3-2.2,5.7-5.6,6.6-9.5c0.5-2.1,0.8-4.3,0.8-6.7l0,0
		C56.4,623.2,56.1,621,55.6,618.8z M51.6,631.3L51.6,631.3L51.6,631.3c-0.7,3-2.5,5.6-5,7.2l-0.1,0.1l-0.1,0.1l-12.9,9.8
		c0-0.3,0-0.7,0-1c0-0.8,0-1.6,0-2.1v-0.7c0-2.7-2.1-3.7-3.5-3.7c-0.6,0-1.2,0-1.8,0s-1.1,0-1.7,0c-3.4,0-6-0.1-8.6-0.5
		c-4.7-0.8-8.4-4.5-9.5-9l0,0l0,0c-0.5-1.9-0.7-3.7-0.7-5.7s0.2-3.8,0.7-5.7l0,0l0,0c1-4.7,4.8-8.2,9.5-9c3.9-0.7,8.1-1,12.1-1
		s8.2,0.3,12.1,1c4.7,0.8,8.4,4.5,9.5,9l0,0l0,0c0.5,1.9,0.7,3.7,0.7,5.7C52.4,627.5,52.1,629.4,51.6,631.3z"/>
	<path class="st2" d="M31.7,627.3H17.3c-1,0-1.8,0.8-1.8,1.8s0.8,1.8,1.8,1.8h14.4c1,0,1.8-0.8,1.8-1.8S32.7,627.3,31.7,627.3z"/>
	<path class="st2" d="M42.4,620.1h-25c-1.1,0-1.9,0.8-1.9,1.8s0.8,1.8,1.9,1.8h24.9c1.1,0,1.9-0.8,1.9-1.8
		C44.4,620.9,43.4,620.1,42.4,620.1z"/>
</g>
<g>
	<path class="st2" d="M15.9,554.2c1.1,0,1.8-0.8,1.8-1.7v-4.8c0-1.1-0.8-1.7-1.8-1.7s-1.8,0.8-1.8,1.7v4.8
		C14.1,553.5,14.9,554.2,15.9,554.2z"/>
	<path class="st2" d="M43.3,554.2c1.1,0,1.8-0.8,1.8-1.7v-4.8c0-1.1-0.8-1.7-1.8-1.7c-1.1-0.1-1.8,0.7-1.8,1.6v4.8
		C41.4,553.5,42.2,554.2,43.3,554.2z"/>
	<path class="st2" d="M31.4,576.9H17.7c-1.1,0-1.8,0.8-1.8,1.7c0,1.1,0.8,1.7,1.8,1.7h13.7c1.1,0,1.8-0.8,1.8-1.7
		C32.8,577.7,32.1,576.9,31.4,576.9z"/>
	<path class="st2" d="M39.7,570.1H17.4c-1.1,0-1.8,0.8-1.8,1.7c0,1.1,0.8,1.7,1.8,1.7h22.3c1.1,0,1.8-0.8,1.8-1.7
		C41.4,570.9,40.7,570.1,39.7,570.1z"/>
	<path class="st2" d="M48.3,549.6v3.1c0,2.8-2.3,5.1-5.1,5.1s-5.1-2.3-5.1-5.1v-3.1h-17v3.1c0,2.8-2.3,5.1-5.1,5.1s-5.1-2.3-5.1-5.1
		v-3.1c-2.8,0-5.1,2.3-5.1,5.1v34c0,2.8,2.3,5.1,5.1,5.1c0,0,5.8,0,11.7,0c1.2,0,6,0,7.4,0c3.1,0,5.1,0,5.1,0c2.8,0,5.1-2.3,5.1-5.1
		v-0.5v-2c0-1.5,1.2-2.5,2.5-2.5h3.8H47h1.8c2.8,0,5.1-2.3,5.1-5.1c0,0,0-2,0-5.1c0-1.2,0-2.5,0-3.7c0-7.1,0-14.8,0-14.8
		C53.4,551.9,51.1,549.6,48.3,549.6z M50.1,569.6v3.7v4.3c0,1.5-1.2,2.5-2.5,2.5h-0.8h-0.5h-4.8c-2.8,0-5.1,2.3-5.1,5.1
		c0,0.3,0,0.5,0,0.8v1.7c0,1.5-1.2,2.5-2.5,2.5h-4.3h-7.4H11.5c-1.5,0-2.5-1.2-2.5-2.5v-22.1c0-1.5,1.2-2.5,2.5-2.5h36
		c1.5,0,2.5,1.2,2.5,2.5L50.1,569.6L50.1,569.6z"/>
</g>
<g>
	<polygon class="st2" points="35.7,485.9 10,495.9 10,524.7 10,524.7 19.2,520.8 19.2,498.1 35.9,494.3 35.9,528 10,524.7 
		35.7,533.9 50,529.3 50,490.7 	"/>
</g>
<g>
	<path class="st1" d="M32,455.3h8.3c1,0,1.9-0.8,1.9-1.9s-0.8-1.9-1.9-1.9H32c-1,0-1.9,0.8-1.9,1.9S30.9,455.3,32,455.3z"/>
	<path class="st1" d="M19.8,462.8h20.4c1,0,1.9-0.8,1.9-1.9c0-1-0.8-1.9-1.9-1.9H19.8c-1,0-1.9,0.8-1.9,1.9S18.8,462.8,19.8,462.8z"
		/>
	<path class="st1" d="M45.6,424.9H14.5c-2.5,0-4.5,2-4.5,4.5v41c0,2.5,2,4.5,4.5,4.5h31c2.5,0,4.5-2,4.5-4.5v-41
		C50.1,426.9,48.1,424.9,45.6,424.9z M46.3,470.5c0,0.4-0.3,0.8-0.8,0.8h-31c-0.4,0-0.8-0.3-0.8-0.8v-35.7h32.6V470.5L46.3,470.5z"
		/>
	<path class="st1" d="M19.2,445.9c0.7,0,1.3-0.6,1.3-1.3c0-0.7,0.6-1.3,1.2-1.3c0.7,0,1.3,0.6,1.3,1.3c0,0.3-0.1,0.5-0.2,0.7
		c-0.4,0.6-2.3,1-2.3,3.5c0,0.7,0.6,1.3,1.2,1.3c0.7,0,1.2-0.6,1.3-1.3c0-0.7,0.6-1.1,1.2-1.4c0.7-0.4,1.3-1.3,1.3-2.7l0,0l0,0
		c0-2.1-1.7-3.8-3.8-3.8l0,0c-2.1,0-3.8,1.7-3.8,3.8C18,445.3,18.5,445.9,19.2,445.9z"/>
	<circle class="st1" cx="21.7" cy="452.2" r="1.3"/>
</g>
<path class="st1" d="M30.1,365.5C18.5,365.5,9,375,9,386.6v0.8c0,0.5,0,1.1,0,1.6c0.3,4.1,1.6,8,3.6,11.3c0.5,0.8,1.1,1.3,1.8,1.3
	c0.5,0,0.8,0,1.3,0c1.1,0,1.8-0.3,2.8-0.5c0.8-0.3,1.3-0.8,1.6-1.6c0.8-1.8,1.1-3.9,1.1-6.1c0-1.8-0.3-3.6-0.8-5.4
	c-0.5-1.6-2-2.8-3.9-2.8h-0.8c-0.5,0-0.8,0-1.3,0c0.5-8,7.5-14.4,15.7-14.4c8.3,0,14.9,6.4,15.7,14.4c-0.5,0-0.8,0-1.3,0h-0.8
	c-1.8,0-3.3,1.3-3.9,2.8c-0.5,1.8-0.8,3.6-0.8,5.4c0,2,0.5,4.1,1.1,6.1c0.3,0.8,0.8,1.3,1.6,1.6c0.8,0.3,1.6,0.5,2.3,0.5l-1.3,4.7
	l-8.8,2.3c-0.8-1.3-2.3-2-4.1-2c-2.5,0-4.7,2-4.9,4.4v0.3c0,0.8,0.3,1.6,0.5,2c0.5,0.8,1.3,1.3,2.3,1.1l16.8-4.4
	c1.1-0.3,1.6-1.1,2-1.8l3.6-13.9c0.5-1.6,0.8-3.3,0.8-5.2c0-0.5,0-1.1,0-1.6v-0.8C51.3,374.7,41.7,365.5,30.1,365.5z"/>
<g>
	<path class="st1" d="M54.3,314.9l-3.9,3.9V338H9.7v-23.9h24.6l4.7-4.7H7.7c-1.5,0-2.7,1.2-2.7,2.7V340c0,1.5,1.2,2.7,2.7,2.7h8.4
		l-4.4,4.4c-0.7,0.7-0.7,2,0,2.7s2,0.7,2.7,0l7.1-7.1h17l6.9,6.9c0.7,0.7,2,0.7,2.7,0s0.7-2,0-2.7l-4.2-4.2h8.4
		c1.5,0,2.7-1.2,2.7-2.7v-25.9L54.3,314.9z"/>
	<path class="st1" d="M32.1,323c0,0.2,0,0.2,0,0.5l3.2,3.2c0.2,0,0.2,0,0.5,0c0.7,0,1.7-0.5,2.2-1l13.5-13.5l-4.9-4.9l-13.5,13.5
		C32.6,321.3,32.1,322.3,32.1,323z"/>
	<path class="st1" d="M54,309.5c1.2-1,1.2-3,0-4.2l-0.7-0.7c-1.2-1.2-3-1.2-4.2,0l-1.5,1.5l4.9,4.9L54,309.5z"/>
	<path class="st1" d="M30.4,326.2c-0.7,0.7-0.7,1.5,0,2.2c0.5,0.5,1.5,0.5,2,0c0.2-0.2,1-1,1-1l-2.2-2.2
		C31.1,325.5,30.6,326.2,30.4,326.2z"/>
</g>
<g>
	<path class="st1" d="M55.6,258.8c-1.4-6-6.3-10.8-12.6-12c-4.2-0.7-8.6-1.2-13-1.2s-8.8,0.4-13,1.2c-6.2,1.2-11.1,5.8-12.6,12
		c-0.5,2.1-0.8,4.3-0.8,6.7l0,0c0,2.3,0.3,4.6,0.8,6.7c1.4,6,6.3,10.8,12.6,12c3.1,0.5,6.2,0.6,9.4,0.6c1.2,0,2.3,0,3.6,0v7.4
		c0,0,0,0,0-0.1c0,1.1,0.8,2.1,2,2.1l0,0c0.4,0,0.8-0.1,1.2-0.4l0,0l15.9-12.1c3.3-2.2,5.7-5.6,6.6-9.5c0.5-2.1,0.8-4.3,0.8-6.7l0,0
		C56.4,263.2,56.1,261,55.6,258.8z M51.6,271.3L51.6,271.3L51.6,271.3c-0.7,3-2.5,5.6-5,7.2l-0.1,0.1l-0.1,0.1l-12.9,9.8
		c0-0.3,0-0.7,0-1c0-0.8,0-1.6,0-2.1v-0.7c0-2.7-2.1-3.7-3.5-3.7c-0.6,0-1.2,0-1.8,0s-1.1,0-1.7,0c-3.4,0-6-0.1-8.6-0.5
		c-4.7-0.8-8.4-4.5-9.5-9l0,0l0,0c-0.5-1.9-0.7-3.7-0.7-5.7s0.2-3.8,0.7-5.7l0,0l0,0c1-4.7,4.8-8.2,9.5-9c3.9-0.7,8.1-1,12.1-1
		s8.2,0.3,12.1,1c4.7,0.8,8.4,4.5,9.5,9l0,0l0,0c0.5,1.9,0.7,3.7,0.7,5.7C52.4,267.5,52.1,269.4,51.6,271.3z"/>
	<path class="st1" d="M31.7,267.3H17.3c-1,0-1.8,0.8-1.8,1.8s0.8,1.8,1.8,1.8h14.4c1,0,1.8-0.8,1.8-1.8
		C33.6,268.1,32.7,267.3,31.7,267.3z"/>
	<path class="st1" d="M42.4,260.1h-25c-1.1,0-1.9,0.8-1.9,1.8s0.8,1.8,1.9,1.8h24.9c1.1,0,1.9-0.8,1.9-1.8
		C44.4,260.9,43.4,260.1,42.4,260.1z"/>
</g>
<g>
	<path class="st1" d="M30,203.3c-1.1,0-2.3,0.9-2.3,2.3s0.9,2.3,2.3,2.3h0.2h0.2c3,0.2,5.5,2.8,6,5.7c0,0.2,0,0.4,0,0.7
		c0,0.2,0,0.2,0,0.4s0,0.2,0,0.4c-0.2,3.4-3,6.2-6.4,6.4c-0.2,0-0.2,0-0.4,0H13.7c-3.6,0-7-3-7-7c0-3.6,3-7,7-7h0.2
		c0-0.7-0.2-1.4-0.2-2.3c0-0.7,0-1.7,0.2-2.3h-0.2c-6.2,0.2-11.3,5.2-11.3,11.5c0,6.2,5.1,11.3,11.3,11.3h15.9
		c6.2,0,11.3-5.1,11.3-11.3C41.3,208.3,36.2,203.3,30,203.3z"/>
	<path class="st1" d="M45.9,194H30c-6.2,0-11.3,5.1-11.3,11.3s5.1,11.3,11.3,11.3c1.1,0,2.3-0.9,2.3-2.3c0-1.1-0.9-2.3-2.3-2.3h-0.2
		h-0.2c-3-0.2-5.5-2.8-6-5.7c0-0.2,0-0.4,0-0.7c0-0.2,0-0.2,0-0.4s0-0.2,0-0.4c0.2-3.4,3-6.2,6.4-6.4c0.2,0,0.2,0,0.4,0h15.9
		c3.6,0,7,3,7,7c0,3.9-3,7-7,7h-0.2c0,0.7,0.2,1.4,0.2,2.3s0,1.7-0.2,2.3h0.2c6.2,0,11.3-5.1,11.3-11.3
		C57.6,199.1,52.1,194,45.9,194z"/>
</g>
<path class="st1" d="M53.2,145.6h-3.1v-12.2c0-1.3-1.1-2.4-2.4-2.4H7.4c-1.3,0-2.4,1.1-2.4,2.4v25.2c0,1.3,1.1,2.4,2.4,2.4h17.7v3.8
	h-5.8c-1.1,0-2,0.9-2,2s0.9,2,2,2h16.4c1.1,0,2-0.9,2-2s-0.9-2-2-2H30V161h10.8v5.8c0,0.9,0.9,1.8,1.8,1.8h10.6
	c0.9,0,1.8-0.9,1.8-1.8v-19.5C55,146.5,53.9,145.6,53.2,145.6z M40.8,147.4v9.5H9v-21.7h36.7v10.4h-3.1
	C41.7,145.6,40.8,146.5,40.8,147.4z M49.7,165.3c0,0.4-0.4,0.9-0.9,0.9h-2.4c-0.4,0-0.9-0.4-0.9-0.9l0,0c0-0.4,0.4-0.9,0.9-0.9h2.4
	C49.5,164.6,49.7,164.8,49.7,165.3L49.7,165.3z M51.9,162h-8.2v-13.3h8.2V162z"/>
<g>
	<path class="st1" d="M52.5,73.5h-5.1v2.7c0,0.7-0.2,1.4-0.5,1.9h3.5v24.1H9.6v-24h17.8c0.2-1.7,0.7-3.2,1.2-4.7h-21
		c-1.4,0-2.7,1.2-2.7,2.7v27.9c0,1.4,1.2,2.7,2.7,2.7h19.6v4.2h-6.3c-1.2,0-2.2,1-2.2,2.2s1,2.2,2.2,2.2h18.2c1.2,0,2.2-1,2.2-2.2
		s-1-2.2-2.2-2.2h-6.3v-4.2h19.6c1.4,0,2.7-1.2,2.7-2.7V76.2C55.2,74.7,54,73.5,52.5,73.5z"/>
	<path class="st1" d="M32.6,69.3h3.2c-3.2,3.2-4.9,7.9-4.9,12.5c0,3.5,1,6.8,3,9.8c0.5,0.7,1.2,1,1.9,1c0.5,0,1-0.2,1.2-0.5
		c1-0.7,1.4-2.2,0.7-3.2c-1.4-2.2-2.2-4.7-2.2-7.3c0-3.7,1.7-7.3,4.4-9.8v4.4c0,1.2,1,2.4,2.4,2.4c1.2,0,2.4-1,2.4-2.4v-9.3
		c-0.3-1.5-1.5-2.5-2.8-2.5h-9.3c-1.2,0-2.4,1-2.4,2.4C30.2,68.1,31.2,69.3,32.6,69.3z"/>
</g>
<g>
	<path class="st1" d="M15.9,14.2c1.1,0,1.8-0.8,1.8-1.7V7.7c0-1.1-0.8-1.7-1.8-1.7s-1.8,0.8-1.8,1.7v4.8
		C14.1,13.5,14.9,14.2,15.9,14.2z"/>
	<path class="st1" d="M43.3,14.2c1.1,0,1.8-0.8,1.8-1.7V7.7c0-1.1-0.8-1.7-1.8-1.7c-1.1-0.1-1.8,0.7-1.8,1.6v4.8
		C41.4,13.5,42.2,14.2,43.3,14.2z"/>
	<path class="st1" d="M31.4,36.9H17.7c-1.1,0-1.8,0.8-1.8,1.7c0,1.1,0.8,1.7,1.8,1.7h13.7c1.1,0,1.8-0.8,1.8-1.7
		C32.8,37.7,32.1,36.9,31.4,36.9z"/>
	<path class="st1" d="M39.7,30.1H17.4c-1.1,0-1.8,0.8-1.8,1.7c0,1.1,0.8,1.7,1.8,1.7h22.3c1.1,0,1.8-0.8,1.8-1.7
		C41.4,30.9,40.7,30.1,39.7,30.1z"/>
	<path class="st1" d="M48.3,9.6v3.1c0,2.8-2.3,5.1-5.1,5.1s-5.1-2.3-5.1-5.1V9.6h-17v3.1c0,2.8-2.3,5.1-5.1,5.1s-5.1-2.3-5.1-5.1
		V9.6c-2.8,0-5.1,2.3-5.1,5.1v34c0,2.8,2.3,5.1,5.1,5.1c0,0,5.8,0,11.7,0c1.2,0,6,0,7.4,0c3.1,0,5.1,0,5.1,0c2.8,0,5.1-2.3,5.1-5.1
		v-0.5v-2c0-1.5,1.2-2.5,2.5-2.5h3.8H47h1.8c2.8,0,5.1-2.3,5.1-5.1c0,0,0-2,0-5.1c0-1.2,0-2.5,0-3.7c0-7.1,0-14.9,0-14.9
		C53.4,11.9,51.1,9.6,48.3,9.6z M50.1,29.6v3.7v4.3c0,1.5-1.2,2.5-2.5,2.5h-0.8h-0.5h-4.8c-2.8,0-5.1,2.3-5.1,5.1c0,0.3,0,0.5,0,0.8
		v1.7c0,1.5-1.2,2.5-2.5,2.5h-4.3h-7.4H11.5C10,50.2,9,49,9,47.7V25.6c0-1.5,1.2-2.5,2.5-2.5h36c1.5,0,2.5,1.2,2.5,2.5L50.1,29.6
		L50.1,29.6z"/>
</g>
</svg>
